<?xml version="1.0" encoding="UTF-8" standalone="no"?>
<!DOCTYPE svg PUBLIC "-//W3C//DTD SVG 1.1//EN" "http://www.w3.org/Graphics/SVG/1.1/DTD/svg11.dtd">
<svg width="100%" height="100%" viewBox="0 0 512 512" version="1.1" xmlns="http://www.w3.org/2000/svg" xmlns:xlink="http://www.w3.org/1999/xlink" xml:space="preserve" xmlns:serif="http://www.serif.com/" style="fill-rule:evenodd;clip-rule:evenodd;stroke-linejoin:round;stroke-miterlimit:2;">
    <g>
        <circle cx="256" cy="256" r="128" style="fill:white;"/>
        <path d="M256,426.667C244.297,426.667 234.667,436.297 234.667,448L234.667,490.667C234.667,502.37 244.297,512 256,512C267.703,512 277.333,502.37 277.333,490.667L277.333,448C277.333,436.297 267.703,426.667 256,426.667Z" style="fill:white;fill-rule:nonzero;"/>
        <path d="M256,85.333C267.703,85.333 277.333,75.703 277.333,64L277.333,21.333C277.333,9.63 267.703,0 256,0C244.297,-0 234.667,9.63 234.667,21.333L234.667,64C234.667,75.703 244.297,85.333 256,85.333Z" style="fill:white;fill-rule:nonzero;"/>
        <path d="M85.333,256C85.333,244.297 75.703,234.667 64,234.667L21.333,234.667C9.63,234.667 -0,244.297 0,256C0,267.703 9.63,277.333 21.333,277.333L64,277.333C75.703,277.333 85.333,267.703 85.333,256Z" style="fill:white;fill-rule:nonzero;"/>
        <path d="M490.667,234.667L448,234.667C436.297,234.667 426.667,244.297 426.667,256C426.667,267.703 436.297,277.333 448,277.333L490.667,277.333C502.37,277.333 512,267.703 512,256C512,244.297 502.37,234.667 490.667,234.667Z" style="fill:white;fill-rule:nonzero;"/>
        <path d="M406.848,376.683C402.872,372.843 397.555,370.694 392.027,370.694C380.324,370.694 370.694,380.324 370.694,392.027C370.694,397.555 372.843,402.872 376.683,406.848L406.848,437.013C415.183,445.152 428.678,445.152 437.013,437.013C445.286,428.738 445.286,415.123 437.013,406.848L406.848,376.683Z" style="fill:white;fill-rule:nonzero;"/>
        <path d="M105.152,135.317C113.482,143.467 126.987,143.467 135.317,135.317C143.59,127.042 143.59,113.427 135.317,105.152L105.152,74.987C101.176,71.147 95.859,68.998 90.331,68.998C78.628,68.998 68.998,78.628 68.998,90.331C68.998,95.859 71.147,101.176 74.987,105.152L105.152,135.317Z" style="fill:white;fill-rule:nonzero;"/>
        <path d="M105.152,376.683L74.987,406.848C66.714,415.123 66.714,428.738 74.987,437.013C83.317,445.163 96.822,445.163 105.152,437.013L135.317,406.848C139.157,402.872 141.306,397.555 141.306,392.027C141.306,380.324 131.676,370.694 119.973,370.694C114.445,370.694 109.128,372.843 105.152,376.683Z" style="fill:white;fill-rule:nonzero;"/>
        <path d="M391.765,141.312C397.387,141.393 402.816,139.235 406.848,135.317L437.013,105.152C440.853,101.176 443.002,95.859 443.002,90.331C443.002,78.628 433.372,68.998 421.669,68.998C416.141,68.998 410.824,71.147 406.848,74.987L376.683,105.152C372.619,109.117 370.325,114.56 370.325,120.238C370.325,131.8 379.84,141.315 391.402,141.315C391.523,141.315 391.644,141.314 391.765,141.312Z" style="fill:white;fill-rule:nonzero;"/>
    </g>
</svg>
