<?xml version="1.0" encoding="UTF-8" standalone="no"?>
<!DOCTYPE svg PUBLIC "-//W3C//DTD SVG 1.1//EN" "http://www.w3.org/Graphics/SVG/1.1/DTD/svg11.dtd">
<svg width="100%" height="100%" viewBox="0 0 512 512" version="1.1" xmlns="http://www.w3.org/2000/svg" xmlns:xlink="http://www.w3.org/1999/xlink" xml:space="preserve" xmlns:serif="http://www.serif.com/" style="fill-rule:evenodd;clip-rule:evenodd;stroke-linejoin:round;stroke-miterlimit:2;">
    <path d="M270,111.012C265.07,110.504 260.07,110.242 255,110.242C175.176,110.242 110.242,175.176 110.242,255C110.242,334.82 175.176,399.754 255,399.754C260.07,399.754 265.07,399.496 270,398.984C342.801,391.457 399.766,329.762 399.766,255C399.766,180.238 342.801,118.543 270,111.012ZM270,368.777L270,141.219C326.223,148.59 369.77,196.797 369.77,255C369.77,313.203 326.223,361.41 270,368.777Z" style="fill:white;fill-rule:nonzero;"/>
    <path d="M255,88.543C263.281,88.543 270,81.824 270,73.543L270,14C270,5.715 263.281,-1 255,-1C246.715,-1 240,5.715 240,14L240,73.543C240,81.824 246.715,88.543 255,88.543Z" style="fill:white;fill-rule:nonzero;"/>
    <path d="M255,421.457C246.715,421.457 240,428.176 240,436.457L240,496C240,504.285 246.715,511 255,511C263.281,511 270,504.285 270,496L270,436.457C270,428.172 263.285,421.457 255,421.457Z" style="fill:white;fill-rule:nonzero;"/>
    <path d="M88.543,255C88.543,246.715 81.824,240 73.543,240L14,240C5.715,240 -1,246.715 -1,255C-1,263.281 5.715,270 14,270L73.543,270C81.824,270 88.543,263.285 88.543,255Z" style="fill:white;fill-rule:nonzero;"/>
    <path d="M496,240L436.457,240C428.172,240 421.457,246.715 421.457,255C421.457,263.281 428.172,270 436.457,270L496,270C504.285,270 511,263.281 511,255C511,246.715 504.285,240 496,240Z" style="fill:white;fill-rule:nonzero;"/>
    <path d="M112.484,133.695C115.414,136.625 119.254,138.09 123.09,138.09C126.93,138.09 130.766,136.625 133.695,133.695C139.551,127.836 139.551,118.34 133.695,112.484L90.41,69.199C84.555,63.34 75.055,63.34 69.199,69.199C63.34,75.055 63.34,84.551 69.199,90.41L112.484,133.695Z" style="fill:white;fill-rule:nonzero;"/>
    <path d="M397.516,376.305C391.66,370.445 382.164,370.445 376.305,376.305C370.449,382.16 370.449,391.656 376.305,397.516L419.59,440.801C422.52,443.73 426.359,445.195 430.195,445.195C434.035,445.195 437.871,443.73 440.801,440.801C446.656,434.941 446.656,425.445 440.801,419.59L397.516,376.305Z" style="fill:white;fill-rule:nonzero;"/>
    <path d="M112.484,376.305L69.199,419.59C63.344,425.445 63.344,434.941 69.199,440.801C72.129,443.73 75.965,445.195 79.805,445.195C83.641,445.195 87.48,443.73 90.41,440.801L133.695,397.516C139.551,391.656 139.551,382.16 133.695,376.305C127.84,370.445 118.34,370.445 112.484,376.305Z" style="fill:white;fill-rule:nonzero;"/>
    <path d="M386.91,138.09C390.75,138.09 394.586,136.625 397.516,133.695L440.801,90.41C446.656,84.551 446.656,75.055 440.801,69.199C434.945,63.34 425.445,63.34 419.59,69.199L376.305,112.484C370.445,118.34 370.445,127.836 376.305,133.695C379.234,136.625 383.07,138.09 386.91,138.09Z" style="fill:white;fill-rule:nonzero;"/>
</svg>
