<?xml version="1.0" encoding="UTF-8" standalone="no"?>
<!DOCTYPE svg PUBLIC "-//W3C//DTD SVG 1.1//EN" "http://www.w3.org/Graphics/SVG/1.1/DTD/svg11.dtd">
<svg width="100%" height="100%" viewBox="0 0 303 303" version="1.1" xmlns="http://www.w3.org/2000/svg" xmlns:xlink="http://www.w3.org/1999/xlink" xml:space="preserve" xmlns:serif="http://www.serif.com/" style="fill-rule:evenodd;clip-rule:evenodd;stroke-linejoin:round;stroke-miterlimit:2;">
    <g>
        <g>
            <path d="M204.8,97.6C191.2,84 172,75.2 151.2,75.2C130.4,75.2 111.2,83.6 97.6,97.6C84,111.2 75.2,130.4 75.2,151.2C75.2,172 84,191.2 97.6,204.8C111.2,218.4 130.4,227.2 151.2,227.2C172,227.2 191.2,218.8 204.8,204.8C218.4,191.2 227.2,172 227.2,151.2C227.2,130.4 218.8,111.2 204.8,97.6ZM190.4,190.4C180.4,200.4 166.4,206.4 151.2,206.4C136,206.4 122,200.4 112,190.4C102,180.4 96,166.4 96,151.2C96,136 102,122 112,112C122,102 136,96 151.2,96C166.4,96 180.4,102 190.4,112C200.4,122 206.4,136 206.4,151.2C206.4,166.4 200.4,180.4 190.4,190.4Z" style="fill:white;fill-rule:nonzero;"/>
        </g>
    </g>
    <g>
        <g>
            <path d="M292,140.8L261.2,140.8C255.6,140.8 250.8,145.6 250.8,151.2C250.8,156.8 255.6,161.6 261.2,161.6L292,161.6C297.6,161.6 302.4,156.8 302.4,151.2C302.4,145.6 297.6,140.8 292,140.8Z" style="fill:white;fill-rule:nonzero;"/>
        </g>
    </g>
    <g>
        <g>
            <path d="M151.2,250.8C145.6,250.8 140.8,255.6 140.8,261.2L140.8,292C140.8,297.6 145.6,302.4 151.2,302.4C156.8,302.4 161.6,297.6 161.6,292L161.6,261.2C161.6,255.6 156.8,250.8 151.2,250.8Z" style="fill:white;fill-rule:nonzero;"/>
        </g>
    </g>
    <g>
        <g>
            <path d="M258,243.6L236,221.6C232.4,217.6 225.6,217.6 221.6,221.6C217.6,225.6 217.6,232 221.6,236L243.6,258C247.6,262 254,262 258,258C262,254 262,247.6 258,243.6Z" style="fill:white;fill-rule:nonzero;"/>
        </g>
    </g>
    <g>
        <g>
            <path d="M151.2,0C145.6,0 140.8,4.8 140.8,10.4L140.8,41.2C140.8,46.8 145.6,51.6 151.2,51.6C156.8,51.6 161.6,46.8 161.6,41.2L161.6,10.4C161.6,4.8 156.8,0 151.2,0Z" style="fill:white;fill-rule:nonzero;"/>
        </g>
    </g>
    <g>
        <g>
            <path d="M258.4,44.4C254.4,40.4 248,40.4 244,44.4L222,66.4C218,70.4 218,76.8 222,80.8C225.6,84.8 232.4,84.8 236.4,80.8L258.4,58.8C262.4,54.8 262.4,48.4 258.4,44.4Z" style="fill:white;fill-rule:nonzero;"/>
        </g>
    </g>
    <g>
        <g>
            <path d="M41.2,140.8L10.4,140.8C4.8,140.8 0,145.6 0,151.2C0,156.8 4.4,161.6 10.4,161.6L41.2,161.6C46.8,161.6 51.6,156.8 51.6,151.2C51.6,145.6 46.8,140.8 41.2,140.8Z" style="fill:white;fill-rule:nonzero;"/>
        </g>
    </g>
    <g>
        <g>
            <path d="M80.4,221.6C76.8,217.6 70,217.6 66,221.6L44,243.6C40,247.6 40,254 44,258C48,262 54.4,262 58.4,258L80.4,236C84.4,232 84.4,225.6 80.4,221.6Z" style="fill:white;fill-rule:nonzero;"/>
        </g>
    </g>
    <g>
        <g>
            <path d="M80.4,66.4L58.4,44.4C54.4,40.4 48,40.4 44,44.4C40,48.4 40,54.8 44,58.8L66,80.8C70,84.8 76.4,84.8 80.4,80.8C84.4,76.8 84.4,70.4 80.4,66.4Z" style="fill:white;fill-rule:nonzero;"/>
        </g>
    </g>
</svg>
