<?xml version="1.0" encoding="iso-8859-1"?>
<svg version="1.1" id="Layer_1" xmlns="http://www.w3.org/2000/svg" xmlns:xlink="http://www.w3.org/1999/xlink" x="0px" y="0px"
	viewBox="0 0 512 512" style="enable-background:new 0 0 512 512;fill:white;" xml:space="preserve">
	<g>
		<g>
			<path d="M428.837,189.516c-2.18-1.258-4.393-2.447-6.622-3.602c0.113-2.506,0.18-5.024,0.18-7.557
			c0-91.749-74.643-166.393-166.393-166.393S89.607,86.608,89.607,178.357c0,2.533,0.066,5.051,0.18,7.557
			c-2.229,1.156-4.442,2.343-6.621,3.602C3.706,235.391-23.615,337.357,22.261,416.813c14.875,25.766,36.362,47.08,62.134,61.635
			c25.003,14.122,53.394,21.587,82.108,21.587c29.047,0,57.768-7.717,83.056-22.318c2.186-1.263,4.333-2.575,6.447-3.924
			c2.109,1.347,4.25,2.66,6.438,3.924c25.289,14.601,54.01,22.318,83.056,22.318c28.711,0,57.104-7.465,82.107-21.588
			c25.774-14.558,47.259-35.871,62.135-61.634C535.616,337.357,508.294,235.39,428.837,189.516z M256.001,42.412
			c73.43,0,133.438,58.52,135.861,131.371c-14.946-4.333-30.463-6.584-46.08-6.584c-28.711,0-57.104,7.465-82.107,21.588
			c-2.606,1.472-5.156,3.03-7.672,4.639c-2.516-1.608-5.066-3.167-7.674-4.64c-25.003-14.122-53.394-21.587-82.108-21.587
			c-15.618,0-31.135,2.251-46.081,6.584C122.562,100.931,182.571,42.412,256.001,42.412z M227.907,265.643
			c7.519-13.024,17.062-24.514,28.094-34.169c11.032,9.656,20.574,21.145,28.094,34.169c7.55,13.076,12.786,27.051,15.661,41.435
			c-13.738,4.683-28.456,7.226-43.756,7.226c-15.282,0-29.982-2.536-43.704-7.208C215.113,292.877,220.266,278.878,227.907,265.643z
			 M201.54,250.421c-8.01,13.874-13.782,28.434-17.441,43.261c-31.251-19.555-54.024-51.446-61.441-88.804
			c14.008-4.766,28.735-7.232,43.562-7.232c22.683,0,44.637,5.703,64.061,16.065C219.093,224.487,209.389,236.826,201.54,250.421z
			 M281.72,213.71c19.424-10.361,41.378-16.065,64.061-16.065c14.826,0,29.553,2.466,43.561,7.232
			c-7.414,37.34-30.166,69.217-61.392,88.775c-3.726-14.968-9.563-29.505-17.489-43.231
			C302.613,236.825,292.908,224.487,281.72,213.71z M166.502,469.589c-48.492,0-93.658-26.055-117.875-67.999
			c-36.712-63.587-16.041-144.809,45.826-183.336c11.582,46.886,43.09,86.002,84.993,107.808
			c-2.067,47.194,16.056,94.041,50.872,127.515C210.654,464.065,188.69,469.589,166.502,469.589z M256.025,435.855
			c-28.659-25.104-44.9-60.78-46.209-97.632c14.67,4.245,30.166,6.528,46.185,6.528c16.052,0,31.576-2.293,46.273-6.553
			c-0.364,10.223-1.885,20.478-4.598,30.604C290.609,395.175,276.137,418.29,256.025,435.855z M463.372,401.59
			c-24.215,41.943-69.382,67.999-117.875,67.999c-22.169,0-44.116-5.517-63.77-15.987c21.695-20.784,37.38-47.155,45.356-76.92
			c4.492-16.764,6.318-33.817,5.566-50.672c41.854-21.816,73.323-60.907,84.897-107.757
			C479.415,256.781,500.084,338.003,463.372,401.59z" />
		</g>
	</g>
</svg>