<?xml version="1.0" encoding="iso-8859-1"?>
<svg version="1.1" id="Capa_1" xmlns="http://www.w3.org/2000/svg" xmlns:xlink="http://www.w3.org/1999/xlink" x="0px" y="0px" viewBox="0 0 320.291 320.291" style="enable-background:new 0 0 320.291 320.291;" xml:space="preserve">
	<g>
		<path d="M256.779,22.849c-4.579-6.03-11.233-9.916-18.735-10.942c-7.503-1.024-14.955,0.932-20.984,5.511
		c-6.03,4.579-9.916,11.233-10.942,18.735l-6.475,47.352l-7.417-58.707c-1.96-15.508-16.167-26.536-31.677-24.571
		c-7.512,0.949-14.205,4.767-18.846,10.75s-6.674,13.415-5.724,20.932l6.094,47.983c-3.394-1.272-7.069-1.964-10.9-1.964
		c-6.174,0-11.923,1.836-16.745,4.98v-36.82c0-15.631-12.716-28.347-28.347-28.347S57.734,30.455,57.734,46.086V203.21
		c0,28.926,13.366,54.785,34.242,71.739v38.342c0,3.866,3.134,7,7,7H201.27c3.866,0,7-3.134,7-7v-38.342
		c20.876-16.953,34.242-42.813,34.242-71.739v-14.744L262.29,43.833C263.316,36.331,261.359,28.879,256.779,22.849z M152.766,19.557
		c2.349-3.028,5.736-4.96,9.539-5.44c3.805-0.481,7.563,0.549,10.591,2.897c3.028,2.349,4.96,5.736,5.441,9.539l13.658,108.114
		l-22.006-24.782c-2.448-2.715-5.339-4.885-8.523-6.454c-0.621-3.62-1.844-6.996-3.564-10.028l-8.034-63.254
		C149.388,26.346,150.417,22.585,152.766,19.557z M131.174,91.926c6.339,0,11.887,3.472,14.73,8.755
		c-5.911,0.622-11.453,3.079-15.951,7.134c-5.624,5.07-8.936,12.027-9.327,19.589c-0.223,4.312,0.523,8.525,2.132,12.382
		c-4.973-2.907-8.33-8.289-8.33-14.453v-10.095v-6.568C114.429,99.438,121.94,91.926,131.174,91.926z M194.27,306.291h-88.294
		v-21.94c13.124,7.169,28.168,11.249,44.147,11.249s31.023-4.079,44.147-11.249V306.291z M150.123,281.599
		c-43.224,0-78.389-35.165-78.389-78.389V46.086c0-7.911,6.436-14.347,14.347-14.347s14.347,6.436,14.347,14.347v62.585v6.568
		v10.095c0,16.953,13.792,30.745,30.745,30.745c1.144,0,2.296-0.063,3.424-0.189c0.109-0.012,0.214-0.035,0.322-0.052l37.995,43.124
		c1.384,1.57,3.315,2.373,5.255,2.373c1.644,0,3.294-0.576,4.625-1.748c2.901-2.556,3.181-6.979,0.625-9.88l-45.138-51.23
		c-2.566-2.846-3.871-6.521-3.673-10.348c0.198-3.827,1.874-7.348,4.721-9.915c2.846-2.567,6.518-3.875,10.348-3.673
		c3.827,0.198,7.348,1.874,9.879,4.681l68.388,77.014c0.18,0.203,0.372,0.39,0.569,0.567v6.409
		C228.513,246.434,193.347,281.599,150.123,281.599z M248.419,41.937l-18.517,135.418l-29.529-33.253
		c3.045-0.44,5.503-2.842,5.931-5.973l13.686-100.079c0.519-3.797,2.486-7.165,5.538-9.482c3.053-2.318,6.823-3.31,10.621-2.789
		c3.797,0.519,7.165,2.486,9.482,5.538C247.948,34.368,248.938,38.139,248.419,41.937z" style="fill:white" />
	</g>
</svg>