<?xml version="1.0" encoding="UTF-8" standalone="no"?>
<!DOCTYPE svg PUBLIC "-//W3C//DTD SVG 1.1//EN" "http://www.w3.org/Graphics/SVG/1.1/DTD/svg11.dtd">
<svg width="100%" height="100%" viewBox="0 0 512 512" version="1.1" xmlns="http://www.w3.org/2000/svg" xmlns:xlink="http://www.w3.org/1999/xlink" xml:space="preserve" xmlns:serif="http://www.serif.com/" style="fill-rule:evenodd;clip-rule:evenodd;stroke-linejoin:round;stroke-miterlimit:2;">
    <path d="M512,195.75C512,87.813 424.188,0 316.25,0C230.895,0 158.133,54.922 131.422,131.277C103.852,140.844 78.578,156.59 57.336,177.832C20.363,214.805 0,263.961 0,316.25C0,368.535 20.363,417.695 57.336,454.664C94.309,491.637 143.465,511.996 195.75,511.996C248.035,511.996 297.191,491.637 334.164,454.664C355.742,433.09 371.211,407.687 380.59,380.625C457.016,353.953 512,281.156 512,195.75ZM179.945,481.25C160.402,479.414 141.582,474.18 124.172,465.832L222.477,367.535C238.512,376.32 255.902,382.922 274.25,386.949L179.945,481.25ZM244.746,345.266L345.277,244.738C353.727,262.449 358.867,281.355 360.676,300.52L300.453,360.742C280.676,358.863 261.898,353.5 244.746,345.266ZM182.66,293.746L293.816,182.59C300.539,187.543 306.938,193.035 312.953,199.047C319,205.098 324.484,211.5 329.398,218.191L218.25,329.336C204.664,319.344 192.652,307.332 182.66,293.746ZM30.746,332.055L125.051,237.75C129.078,256.094 135.676,273.484 144.461,289.52L46.16,387.82C37.816,370.414 32.582,351.594 30.746,332.055ZM167.484,152.887L152.926,167.449C153.629,163.379 154.48,159.363 155.477,155.398C159.438,154.418 163.441,153.578 167.484,152.887ZM151.258,211.543L211.555,151.246C231.094,153.082 249.91,158.316 267.32,166.66L166.73,267.25C158.496,250.098 153.137,231.324 151.258,211.543ZM358.984,344.637C358.297,348.633 357.461,352.609 356.477,356.555C352.555,357.535 348.578,358.375 344.551,359.074L358.984,344.637ZM78.547,199.043C91.605,185.988 106.461,175.387 122.551,167.453C121.207,176.695 120.5,186.141 120.5,195.75C120.5,197.109 120.523,198.469 120.551,199.824L32.391,287.984C38.113,254.461 54.008,223.586 78.547,199.043ZM62.09,414.316L161.25,315.156C171.543,328.484 183.512,340.453 196.84,350.746L97.676,449.906C90.957,444.953 84.559,439.465 78.547,433.453C72.531,427.438 67.043,421.039 62.09,414.316ZM312.953,433.453C288.414,457.988 257.535,473.883 224.012,479.609L312.176,391.449C313.531,391.477 314.887,391.5 316.25,391.5C325.832,391.5 335.25,390.797 344.465,389.461C336.656,405.355 326.156,420.25 312.953,433.453Z" style="fill:white;fill-rule:nonzero;"/>
</svg>
