<?xml version="1.0" encoding="UTF-8" standalone="no"?>
<!DOCTYPE svg PUBLIC "-//W3C//DTD SVG 1.1//EN" "http://www.w3.org/Graphics/SVG/1.1/DTD/svg11.dtd">
<svg width="100%" height="100%" viewBox="0 0 512 512" version="1.1" xmlns="http://www.w3.org/2000/svg" xmlns:xlink="http://www.w3.org/1999/xlink" xml:space="preserve" xmlns:serif="http://www.serif.com/" style="fill-rule:evenodd;clip-rule:evenodd;stroke-linejoin:round;stroke-miterlimit:2;">
    <g>
        <g>
            <path d="M437.333,192L405.333,192L405.333,149.333C405.333,66.99 338.344,0 256,0C173.656,0 106.667,66.99 106.667,149.333L106.667,192L74.667,192C68.771,192 64,196.771 64,202.667L64,469.334C64,492.865 83.135,512 106.667,512L405.334,512C428.865,512 448,492.865 448,469.333L448,202.667C448,196.771 443.229,192 437.333,192ZM287.938,414.823C288.271,417.833 287.303,420.854 285.282,423.115C283.261,425.375 280.365,426.667 277.334,426.667L234.667,426.667C231.636,426.667 228.74,425.375 226.719,423.115C224.698,420.855 223.729,417.834 224.063,414.823L230.792,354.313C219.865,346.365 213.334,333.792 213.334,320C213.334,296.469 232.469,277.333 256.001,277.333C279.533,277.333 298.668,296.468 298.668,320C298.668,333.792 292.137,346.365 281.21,354.313L287.938,414.823ZM341.333,192L170.667,192L170.667,149.333C170.667,102.281 208.948,64 256,64C303.052,64 341.333,102.281 341.333,149.333L341.333,192Z" style="fill:white;fill-rule:nonzero;" />
        </g>
    </g>
</svg>