<?xml version="1.0" encoding="UTF-8" standalone="no"?>
<!DOCTYPE svg PUBLIC "-//W3C//DTD SVG 1.1//EN" "http://www.w3.org/Graphics/SVG/1.1/DTD/svg11.dtd">
<svg width="100%" height="100%" viewBox="0 0 512 512" version="1.1" xmlns="http://www.w3.org/2000/svg" xmlns:xlink="http://www.w3.org/1999/xlink" xml:space="preserve" xmlns:serif="http://www.serif.com/" style="fill-rule:evenodd;clip-rule:evenodd;stroke-linejoin:round;stroke-miterlimit:2;">
    <g>
        <g>
            <g>
                <path d="M239.702,62.391L239.702,120.837L272.298,120.837L272.298,62.391L293.372,83.464L316.418,60.418L256,0L195.582,60.418L218.628,83.464L239.702,62.391Z" style="fill:white;fill-rule:nonzero;"/>
                <path d="M446.806,109.314L423.76,132.36L444.834,153.434L402.686,153.434L402.686,186.031L444.834,186.031L423.76,207.105L446.806,230.151L507.225,169.732L446.806,109.314Z" style="fill:white;fill-rule:nonzero;"/>
                <path d="M88.24,132.36L65.194,109.314L4.775,169.732L65.194,230.151L88.24,207.105L67.166,186.031L109.314,186.031L109.314,153.434L67.166,153.434L88.24,132.36Z" style="fill:white;fill-rule:nonzero;"/>
                <path d="M304.895,202.329C304.895,175.325 283.005,153.434 256,153.434C228.995,153.434 207.105,175.325 207.105,202.329L207.105,267.523C171.099,267.523 141.911,296.712 141.911,332.717L141.911,419.637L190.806,484.83L190.806,512L223.403,512L223.403,473.976L174.508,408.782L174.508,332.717C174.508,314.714 189.102,300.12 207.105,300.12L207.105,381.612L239.702,381.612L239.702,202.329C239.702,193.327 246.998,186.031 256,186.031C265.002,186.031 272.298,193.327 272.298,202.329L272.298,295.116L402.686,344.012L402.686,410.363L370.089,475.557L370.089,512L402.686,512L402.686,483.25L435.283,418.056L435.283,321.422L304.895,272.527L304.895,202.329Z" style="fill:white;fill-rule:nonzero;"/>
                <rect x="141.911" y="153.434" width="32.597" height="32.597" style="fill:white;"/>
                <rect x="337.492" y="153.434" width="32.597" height="32.597" style="fill:white;"/>
            </g>
        </g>
    </g>
</svg>
