<?xml version="1.0" encoding="UTF-8" standalone="no"?>
<!DOCTYPE svg PUBLIC "-//W3C//DTD SVG 1.1//EN" "http://www.w3.org/Graphics/SVG/1.1/DTD/svg11.dtd">
<svg width="100%" height="100%" viewBox="0 0 512 512" version="1.1" xmlns="http://www.w3.org/2000/svg" xmlns:xlink="http://www.w3.org/1999/xlink" xml:space="preserve" xmlns:serif="http://www.serif.com/" style="fill-rule:evenodd;clip-rule:evenodd;stroke-linejoin:round;stroke-miterlimit:2;">
    <path d="M437.02,74.98C388.668,26.629 324.379,0 256,0C187.621,0 123.332,26.629 74.98,74.98C26.629,123.332 -0,187.621 -0,256C-0,324.379 26.629,388.668 74.98,437.02C123.332,485.371 187.621,512 256,512C324.379,512 388.668,485.371 437.02,437.02C485.371,388.668 512,324.379 512,256C512,187.621 485.371,123.332 437.02,74.98ZM398.18,306.398C398.18,313.691 392.246,319.621 384.953,319.621C377.664,319.621 371.73,313.691 371.73,306.398C371.73,299.105 377.664,293.176 384.953,293.176C392.246,293.176 398.18,299.105 398.18,306.398ZM113.82,205.602C113.82,198.309 119.754,192.379 127.047,192.379C134.336,192.379 140.27,198.309 140.27,205.602C140.27,212.895 134.336,218.824 127.047,218.824C119.754,218.824 113.82,212.891 113.82,205.602ZM428.984,401.266L428.984,370.809C428.984,362.523 422.266,355.809 413.984,355.809C405.699,355.809 398.984,362.523 398.984,370.809L398.984,430.883C393.152,435.66 387.078,440.145 380.785,444.328L380.785,390.809C380.785,382.527 374.07,375.809 365.785,375.809C357.504,375.809 350.785,382.527 350.785,390.809L350.785,461.133C340.52,465.895 329.844,469.914 318.816,473.109L318.816,213.457L357.504,213.457C362.676,231.539 379.34,244.816 399.059,244.816C422.895,244.816 442.281,225.43 442.281,201.594C442.281,177.762 422.895,158.371 399.059,158.371C381.703,158.371 366.711,168.66 359.84,183.457L303.816,183.457C295.531,183.457 288.816,190.172 288.816,198.457L288.816,479.609C278.098,481.176 267.145,482 256,482C131.383,482 30,380.617 30,256C30,243.961 30.957,232.137 32.777,220.602L86.508,220.602C92.621,237.062 108.484,248.824 127.043,248.824C150.879,248.824 170.266,229.434 170.266,205.602C170.266,181.77 150.879,162.379 127.043,162.379C108.484,162.379 92.621,174.141 86.508,190.602L39.66,190.602C48.641,160.961 63.555,133.879 83.016,110.734L83.016,129.937C83.016,138.219 89.73,144.937 98.016,144.937C106.301,144.937 113.016,138.219 113.016,129.937L113.016,81.113C118.848,76.34 124.922,71.855 131.211,67.672L131.211,109.934C131.211,118.219 137.93,124.934 146.211,124.934C154.496,124.934 161.211,118.219 161.211,109.934L161.211,50.867C170.398,46.605 179.91,42.937 189.707,39.926L189.707,303.094L153.473,303.094C147.363,286.633 131.5,274.871 112.937,274.871C89.105,274.871 69.715,294.262 69.715,318.094C69.715,341.93 89.105,361.316 112.937,361.316C131.5,361.316 147.363,349.555 153.473,333.094L204.707,333.094C212.992,333.094 219.707,326.379 219.707,318.094L219.707,32.93C231.527,31.012 243.648,30 256,30C380.617,30 482,131.383 482,256C482,268.039 481.043,279.863 479.223,291.398L425.492,291.398C419.379,274.938 403.516,263.176 384.957,263.176C361.121,263.176 341.734,282.566 341.734,306.398C341.734,330.23 361.121,349.621 384.957,349.621C403.516,349.621 419.379,337.859 425.492,321.398L472.34,321.398C463.359,351.039 448.445,378.125 428.984,401.266ZM399.059,188.371C406.352,188.371 412.285,194.305 412.285,201.594C412.285,208.887 406.352,214.816 399.059,214.816C391.77,214.816 385.836,208.887 385.836,201.594C385.836,194.305 391.77,188.371 399.059,188.371ZM126.164,318.094C126.164,325.387 120.23,331.316 112.941,331.316C105.648,331.316 99.715,325.387 99.715,318.094C99.715,310.805 105.648,304.871 112.941,304.871C120.23,304.871 126.164,310.805 126.164,318.094Z" style="fill:white;fill-rule:nonzero;" />
    <path d="M333.391,52.004C309.555,52.004 290.164,71.391 290.164,95.227C290.164,100.301 291.051,105.168 292.664,109.695L244.645,149.801C241.234,152.648 239.262,156.867 239.262,161.313L239.262,351.672L218.676,362.793C211.059,356.094 201.086,352.02 190.168,352.02C166.336,352.02 146.945,371.406 146.945,395.242C146.945,419.074 166.336,438.465 190.168,438.465C214.004,438.465 233.391,419.074 233.391,395.242C233.391,393.18 233.238,391.156 232.957,389.176L261.391,373.812C266.242,371.195 269.262,366.125 269.262,360.617L269.262,168.328L311.91,132.711C318.242,136.352 325.574,138.449 333.391,138.449C357.223,138.449 376.613,119.059 376.613,95.227C376.609,71.391 357.223,52.004 333.391,52.004ZM176.945,395.242C176.945,387.949 182.879,382.02 190.168,382.02C197.461,382.02 203.391,387.949 203.391,395.242C203.391,402.531 197.461,408.465 190.168,408.465C182.879,408.465 176.945,402.531 176.945,395.242ZM320.164,95.227C320.164,87.934 326.098,82.004 333.391,82.004C340.68,82.004 346.613,87.934 346.613,95.227C346.613,102.516 340.68,108.449 333.391,108.449C326.098,108.449 320.164,102.516 320.164,95.227Z" style="fill:white;fill-rule:nonzero;" />
</svg>