<?xml version="1.0" encoding="UTF-8" standalone="no"?>
<!DOCTYPE svg PUBLIC "-//W3C//DTD SVG 1.1//EN" "http://www.w3.org/Graphics/SVG/1.1/DTD/svg11.dtd">
<svg width="100%" height="100%" viewBox="0 0 512 512" version="1.1" xmlns="http://www.w3.org/2000/svg" xmlns:xlink="http://www.w3.org/1999/xlink" xml:space="preserve" xmlns:serif="http://www.serif.com/" style="fill-rule:evenodd;clip-rule:evenodd;stroke-linejoin:round;stroke-miterlimit:2;">
    <g>
        <path d="M341.333,74.446L341.333,34.133L358.4,34.133L358.4,-0L221.867,-0L221.867,34.133L238.933,34.133L238.933,74.517C187.397,86.723 140.899,117.444 109.867,160.725L137.6,180.608C166.267,140.642 210.442,113.108 258.842,105.058C279.742,101.525 300.5,101.517 321.45,105.067C412.083,120.225 477.867,198.058 477.867,290.133C477.867,393.65 393.65,477.867 290.133,477.867C229.808,477.867 172.792,448.625 137.592,399.642L109.875,419.558C151.467,477.442 218.85,512 290.133,512C412.475,512 512,412.475 512,290.133C512,186.22 441.01,97.819 341.333,74.446ZM273.067,69.004L273.067,34.133L307.2,34.133L307.2,69.005C295.818,68.119 284.431,68.12 273.067,69.004Z" style="fill:white;fill-rule:nonzero;"/>
        <rect x="0" y="273.067" width="153.6" height="34.133" style="fill:white;fill-rule:nonzero;"/>
        <rect x="34.133" y="204.8" width="153.6" height="34.133" style="fill:white;fill-rule:nonzero;"/>
        <rect x="34.133" y="341.333" width="153.6" height="34.133" style="fill:white;fill-rule:nonzero;"/>
        <path d="M374.492,181.642L312.07,244.064C305.395,240.87 298.014,238.933 290.133,238.933C261.9,238.933 238.933,261.9 238.933,290.133C238.933,318.367 261.9,341.333 290.133,341.333C318.367,341.333 341.333,318.367 341.333,290.133C341.333,282.253 339.397,274.872 336.203,268.197L398.625,205.775L374.492,181.642ZM290.133,307.2C280.725,307.2 273.067,299.542 273.067,290.133C273.067,280.725 280.725,273.067 290.133,273.067C299.542,273.067 307.2,280.725 307.2,290.133C307.2,299.542 299.542,307.2 290.133,307.2Z" style="fill:white;fill-rule:nonzero;"/>
    </g>
</svg>
