<?xml version="1.0" encoding="UTF-8" standalone="no"?>
<!DOCTYPE svg PUBLIC "-//W3C//DTD SVG 1.1//EN" "http://www.w3.org/Graphics/SVG/1.1/DTD/svg11.dtd">
<svg width="100%" height="100%" viewBox="0 0 512 512" version="1.1" xmlns="http://www.w3.org/2000/svg" xmlns:xlink="http://www.w3.org/1999/xlink" xml:space="preserve" xmlns:serif="http://www.serif.com/" style="fill-rule:evenodd;clip-rule:evenodd;stroke-linejoin:round;stroke-miterlimit:2;">
    <g>
        <g>
            <path d="M83.241,240.33C72.567,251.003 72.567,268.374 83.241,279.151C93.914,289.825 111.284,289.825 122.062,279.151C195.937,205.276 316.168,205.276 390.043,279.151C395.38,284.488 402.39,287.209 409.401,287.209C416.412,287.209 423.423,284.488 428.759,279.151C439.433,268.478 439.433,251.108 428.759,240.33C333.538,145.004 178.462,145.004 83.241,240.33Z" style="fill:white;fill-rule:nonzero;"/>
            <path d="M157.325,314.415C146.652,325.088 146.652,342.458 157.325,353.236C167.998,363.909 185.368,363.909 196.146,353.236C229.108,320.17 282.892,320.17 315.854,353.236C321.19,358.573 328.201,361.293 335.212,361.293C342.223,361.293 349.234,358.573 354.57,353.236C365.243,342.563 365.243,325.193 354.57,314.52C300.262,260.002 211.738,260.002 157.325,314.415Z" style="fill:white;fill-rule:nonzero;"/>
            <circle cx="256" cy="412.985" r="36.519" style="fill:white;"/>
            <path d="M503.995,164.99C367.232,28.331 144.768,28.331 8.005,164.99C-2.668,175.663 -2.668,193.033 8.005,203.811C18.678,214.484 36.048,214.484 46.826,203.811C162.139,88.394 349.861,88.394 465.279,203.811C470.615,209.148 477.626,211.868 484.637,211.868C491.648,211.868 498.658,209.148 503.995,203.811C514.668,193.138 514.668,175.768 503.995,164.99Z" style="fill:white;fill-rule:nonzero;"/>
        </g>
    </g>
</svg>
