<?xml version="1.0" encoding="UTF-8" standalone="no"?>
<!DOCTYPE svg PUBLIC "-//W3C//DTD SVG 1.1//EN" "http://www.w3.org/Graphics/SVG/1.1/DTD/svg11.dtd">
<svg width="100%" height="100%" viewBox="0 0 1575 991" version="1.1" xmlns="http://www.w3.org/2000/svg" xmlns:xlink="http://www.w3.org/1999/xlink" xml:space="preserve" xmlns:serif="http://www.serif.com/" style="fill-rule:evenodd;clip-rule:evenodd;stroke-linecap:round;stroke-linejoin:round;stroke-miterlimit:1.5;">
    <path d="M170.118,263.192C181.952,248.222 208.866,222.343 222.743,209.226C331.789,206.724 582.606,202.221 807.739,197.966C820.937,209.426 872.358,250.111 883.918,263.192C652.095,268.653 326.899,258.466 170.118,263.192ZM1123.89,257.241C1059.59,258.447 1022.99,259.212 957.401,260.677C951.318,251.508 915.917,214.78 909.217,206.062L909.192,206.03C908.638,205.308 908.082,204.589 907.524,203.872L906.248,202.238L904.704,200.282L903.598,198.893L902.125,197.059L901.457,196.235C975.05,194.907 1050,193.636 1123.89,192.495L1123.89,257.241Z" style="fill:url(#_Linear1);" />
    <path d="M1559.89,15L1164.14,15C1141.93,15 1123.89,33.035 1123.89,55.25L1123.89,549.75C1123.89,571.965 1141.93,590 1164.14,590L1559.89,590L1559.89,15Z" style="fill:none;stroke:white;stroke-width:30px;" />
    <path d="M901.457,195.82C975.05,194.473 1050,193.183 1123.89,192.026L1123.89,397.635C1081.65,397.056 1038.93,396.437 996.076,395.786L995.746,394.237L995.422,392.741C995.225,391.84 995.026,390.94 994.826,390.048L994.453,388.401C994.244,387.485 994.033,386.569 993.817,385.649L993.446,384.074C993.223,383.137 992.997,382.201 992.768,381.262L992.398,379.76C992.045,378.334 991.686,376.911 991.32,375.489L991.312,375.46C975.256,313.118 946.986,255.655 909.217,205.791L909.192,205.758C908.638,205.027 908.082,204.297 907.524,203.569L906.248,201.911L904.704,199.927L903.598,198.518L902.125,196.657L901.457,195.82ZM240.405,382.099C212.898,381.535 149.141,381.012 126.757,380.542C146.749,314.443 183.529,255.603 232.118,209.002C341.164,206.463 582.606,201.895 807.739,197.577C866.086,248.984 909.238,317.263 929.537,394.755C916.011,394.541 902.495,394.324 888.985,394.106C884.526,393.603 879.916,393.34 875.199,393.34L746.908,370.699C738.132,341.945 711.37,321 679.754,321L372.154,321C340.539,321 313.777,341.945 305,370.699L240.405,382.099ZM95.43,282.027C81.742,309.551 70.617,338.574 62.37,368.78L61.897,370.525L61.343,372.601L60.966,374.037L60.593,375.475L60.224,376.915L59.878,378.287C51.31,378.1 46.807,378 46.807,378C46.807,378 18.695,379.036 15.454,375C12.214,370.964 27.365,353.785 27.365,353.785L95.625,281.636L95.43,282.027Z" style="fill:none;stroke:white;stroke-width:30px;" />
    <path d="M525.954,15C791.15,15 1006.45,230.305 1006.45,495.5C1006.45,760.695 791.15,976 525.954,976C260.759,976 45.454,760.695 45.454,495.5C45.454,230.305 260.759,15 525.954,15ZM111.041,532.064C121.08,547.026 146.71,557.677 176.71,557.677L364.466,591.236L379.954,640.8C379.954,666.705 394.016,689.351 414.921,701.518L444.068,864.591C444.068,879.778 446.798,893.846 451.436,905.34C268.786,872.295 127.417,719.969 111.041,532.064ZM940.868,532.064C924.52,719.742 783.455,871.942 601.082,905.229C605.692,893.76 608.405,879.732 608.405,864.591L637.325,700.72C657.488,688.381 670.954,666.15 670.954,640.8L686.594,591.388L875.199,557.677C905.199,557.677 930.829,547.026 940.868,532.064ZM933.915,411.259C921.363,400.469 899.744,393.34 875.199,393.34L746.908,370.699C738.132,341.945 711.37,321 679.754,321L372.154,321C340.539,321 313.777,341.945 305,370.699L176.71,393.34C152.165,393.34 130.546,400.469 117.994,411.259C156.979,221.723 324.931,79 525.954,79C726.978,79 894.93,221.723 933.915,411.259Z" style="fill:none;stroke:white;stroke-width:30px;" />
    <path d="M1559.89,590L1559.89,926.288L1280.39,933.306C1280.39,933.306 1317.39,855.649 1319.36,815.752C1322.2,758.534 1297.39,590 1297.39,590L1559.89,590Z" style="fill:none;stroke:white;stroke-width:30px;" />
    <path d="M1559.89,590L1559.89,976L1222.63,976C1222.63,976 1267.27,858.274 1269.66,813.414C1273.08,749.081 1243.15,590 1243.15,590L1559.89,590Z" style="fill:none;stroke:white;stroke-width:30px;" />
    <path d="M1559.89,67.314L1213.18,67.314C1195.01,67.314 1180.26,82.068 1180.26,100.24L1180.26,504.76C1180.26,522.932 1195.01,537.686 1213.18,537.686L1559.89,537.686L1559.89,67.314Z" style="fill:none;stroke:white;stroke-width:30px;" />
    <defs>
        <linearGradient id="_Linear1" x1="0" y1="0" x2="1" y2="0" gradientUnits="userSpaceOnUse" gradientTransform="matrix(2795.2,0,0,50.4179,232.118,216.082)">
            <stop offset="0" style="stop-color:rgb(0,52,255);stop-opacity:1" />
            <stop offset="0.13" style="stop-color:rgb(244,0,254);stop-opacity:1" />
            <stop offset="0.28" style="stop-color:rgb(255,0,45);stop-opacity:1" />
            <stop offset="0.42" style="stop-color:rgb(227,204,33);stop-opacity:1" />
            <stop offset="0.57" style="stop-color:rgb(66,214,85);stop-opacity:1" />
            <stop offset="0.73" style="stop-color:rgb(107,201,189);stop-opacity:1" />
            <stop offset="1" style="stop-color:rgb(0,234,255);stop-opacity:1" />
        </linearGradient>
    </defs>
</svg>