<?xml version="1.0" encoding="iso-8859-1"?>
<svg version="1.1" id="Capa_1" xmlns="http://www.w3.org/2000/svg" xmlns:xlink="http://www.w3.org/1999/xlink" x="0px" y="0px"
	viewBox="0 0 203 203" style="enable-background:new 0 0 203 203;" xml:space="preserve">
	<path style="fill:rgba(50, 10, 40, 1);" d="M201,176.993h-8.782c-1.104,0-2-0.896-2-2v-8.174H178.25v8.174c0,1.104-0.896,2-2,2H27.968c-1.104,0-2-0.896-2-2v-8.174H14
	v8.174c0,1.104-0.895,2-2,2H2c-1.104,0-2-0.896-2-2V28.007c0-1.104,0.896-2,2-2h10c1.105,0,2,0.896,2,2v8.174h11.968v-8.174
	c0-1.104,0.896-2,2-2H176.25c1.104,0,2,0.896,2,2v8.174h11.968v-8.174c0-1.104,0.896-2,2-2H201c1.104,0,2,0.896,2,2v146.985
	C203,176.097,202.105,176.993,201,176.993z M194.218,172.993H199V30.007h-4.782v8.174c0,1.104-0.896,2-2,2H176.25
	c-1.104,0-2-0.896-2-2v-8.174H29.968v8.174c0,1.104-0.896,2-2,2H12c-1.104,0-2-0.896-2-2v-8.174H4v142.985h6v-8.174
	c0-1.104,0.896-2,2-2h15.968c1.104,0,2,0.896,2,2v8.174H174.25v-8.174c0-1.104,0.896-2,2-2h15.968c1.104,0,2,0.896,2,2V172.993z
	 M166.375,167.5H36.625c-1.104,0-2-0.896-2-2v-128c0-1.104,0.896-2,2-2h129.75c1.104,0,2,0.896,2,2v128
	C168.375,166.605,167.48,167.5,166.375,167.5z M38.625,163.5h125.75v-124H38.625V163.5z M192.218,154.265H176.25
	c-1.104,0-2-0.896-2-2v-15.967c0-1.104,0.896-2,2-2h15.968c1.104,0,2,0.896,2,2v15.967
	C194.218,153.37,193.322,154.265,192.218,154.265z M178.25,150.265h11.968v-11.967H178.25V150.265z M27.968,154.265H12
	c-1.104,0-2-0.896-2-2v-15.967c0-1.104,0.896-2,2-2h15.968c1.104,0,2,0.896,2,2v15.967C29.968,153.37,29.072,154.265,27.968,154.265
	z M14,150.265h11.968v-11.967H14V150.265z M192.218,125.744H176.25c-1.104,0-2-0.896-2-2v-15.967c0-1.104,0.896-2,2-2h15.968
	c1.104,0,2,0.896,2,2v15.967C194.218,124.849,193.322,125.744,192.218,125.744z M178.25,121.744h11.968v-11.967H178.25V121.744z
	 M27.968,125.744H12c-1.104,0-2-0.896-2-2v-15.967c0-1.104,0.896-2,2-2h15.968c1.104,0,2,0.896,2,2v15.967
	C29.968,124.849,29.072,125.744,27.968,125.744z M14,121.744h11.968v-11.967H14V121.744z M91.15,122.552
	c-2.875,0-5.214-2.339-5.214-5.213V83.034c0-2.875,2.339-5.213,5.214-5.213c0.904,0,1.803,0.243,2.6,0.702l29.709,17.153
	c1.631,0.941,2.604,2.628,2.604,4.511c0,1.883-0.973,3.569-2.604,4.511L93.75,121.85C92.953,122.31,92.055,122.552,91.15,122.552z
	 M91.15,81.821c-0.584,0-1.214,0.464-1.214,1.213v34.305c0,1.014,1.079,1.472,1.813,1.046l29.709-17.152
	c0.545-0.315,0.604-0.837,0.604-1.047s-0.059-0.732-0.604-1.047L91.75,81.987C91.559,81.877,91.356,81.821,91.15,81.821z
	 M192.218,97.223H176.25c-1.104,0-2-0.896-2-2V79.256c0-1.104,0.896-2,2-2h15.968c1.104,0,2,0.896,2,2v15.967
	C194.218,96.328,193.322,97.223,192.218,97.223z M178.25,93.223h11.968V81.256H178.25V93.223z M27.968,97.223H12
	c-1.104,0-2-0.896-2-2V79.256c0-1.104,0.896-2,2-2h15.968c1.104,0,2,0.896,2,2v15.967C29.968,96.328,29.072,97.223,27.968,97.223z
	 M14,93.223h11.968V81.256H14V93.223z M192.218,68.702H176.25c-1.104,0-2-0.896-2-2V50.735c0-1.104,0.896-2,2-2h15.968
	c1.104,0,2,0.896,2,2v15.967C194.218,67.807,193.322,68.702,192.218,68.702z M178.25,64.702h11.968V52.735H178.25V64.702z
	 M27.968,68.702H12c-1.104,0-2-0.896-2-2V50.735c0-1.104,0.896-2,2-2h15.968c1.104,0,2,0.896,2,2v15.967
	C29.968,67.807,29.072,68.702,27.968,68.702z M14,64.702h11.968V52.735H14V64.702z" />
</svg>