<?xml version="1.0" encoding="UTF-8" standalone="no"?>
<svg width="100%" height="100%" viewBox="0 0 512 512" version="1.1" xmlns="http://www.w3.org/2000/svg" xmlns:xlink="http://www.w3.org/1999/xlink" xml:space="preserve" xmlns:serif="http://www.serif.com/" style="fill-rule:evenodd;clip-rule:evenodd;stroke-linejoin:round;stroke-miterlimit:2;">
    <g>
        <path d="M454.02,183.143L441.725,183.143L441.725,123.814C441.725,123.444 441.667,123.072 441.618,122.697C441.598,120.341 440.847,118.028 439.235,116.195L340.521,3.434C340.49,3.405 340.461,3.394 340.441,3.365C339.853,2.705 339.168,2.159 338.44,1.689C338.226,1.543 338.01,1.422 337.785,1.296C337.157,0.954 336.489,0.67 335.804,0.463C335.617,0.412 335.45,0.336 335.265,0.288C334.519,0.11 333.745,0 332.961,0L90.353,0C79.275,0 70.275,9.012 70.275,20.079L70.275,183.134L57.982,183.134C42.134,183.134 29.284,195.98 29.284,211.833L29.284,361.067C29.284,376.912 42.134,389.764 57.982,389.764L70.275,389.764L70.275,491.922C70.275,502.992 79.275,512 90.353,512L421.646,512C432.715,512 441.724,502.992 441.724,491.922L441.724,389.765L454.019,389.765C469.862,389.765 482.714,376.912 482.714,361.068L482.714,211.839C482.715,195.981 469.863,183.143 454.02,183.143ZM90.353,20.079L322.922,20.079L322.922,122.806C322.922,128.352 327.42,132.845 332.961,132.845L421.647,132.845L421.647,183.141L90.353,183.141L90.353,20.079ZM296.78,283.343C296.78,327.952 269.725,355.01 229.958,355.01C189.586,355.01 165.963,324.529 165.963,285.766C165.963,244.978 192.005,214.498 232.176,214.498C273.97,214.498 296.78,245.791 296.78,283.343ZM76.715,352.784L76.715,216.723L107.599,216.723L107.599,326.95L161.708,326.95L161.708,352.779L76.715,352.779L76.715,352.784ZM421.647,486.48L90.353,486.48L90.353,389.765L421.646,389.765L421.646,486.48L421.647,486.48ZM430.651,346.53C421.162,349.755 403.195,354.195 385.23,354.195C360.401,354.195 342.43,347.941 329.911,335.833C317.401,324.128 310.534,306.354 310.74,286.372C310.94,241.142 343.842,215.301 388.461,215.301C406.029,215.301 419.549,218.745 426.215,221.968L419.754,246.592C412.284,243.364 402.999,240.739 388.058,240.739C362.426,240.739 343.04,255.276 343.04,284.753C343.04,312.814 360.602,329.363 385.838,329.363C392.901,329.363 398.559,328.567 400.975,327.353L400.975,298.883L379.984,298.883L379.984,274.863L430.651,274.863L430.651,346.53Z" style="fill:rgba(50, 10, 40, 1);fill-rule:nonzero;" />
        <path d="M198.466,285.158C198.466,311.804 210.985,330.578 231.571,330.578C252.365,330.578 264.274,310.795 264.274,284.355C264.274,259.933 252.565,238.92 231.369,238.92C210.578,238.919 198.466,258.709 198.466,285.158Z" style="fill:rgba(50, 10, 40, 1);fill-rule:nonzero;" />
    </g>
</svg>