M48
METRIC,LZ,000.000
;FILE_FORMAT=3:3
;TYPE=PLATED
;Layer: PTH_Through
;EasyEDA v6.5.20, 2022-10-22 14:54:30
;fe600fdf0afc4bf6b2dbe2f9dcf79710,95753c6d73fd445989ad8f01ddeeb764,10
;Gerber Generator version 0.2
;Holesize 1 = 0.722 mm
T01C0.722
;Holesize 2 = 0.839 mm
T02C0.839
;Holesize 3 = 0.901 mm
T03C0.901
;Holesize 4 = 0.915 mm
T04C0.915
;Holesize 5 = 1.000 mm
T05C1.000
;Holesize 6 = 1.200 mm
T06C1.200
;Holesize 7 = 1.800 mm
T07C1.800
%
G05
G90
T01
X044936Y104538
X044939Y114203
X060439Y104602
T02
X059636Y114210
T03
X036195Y132080G85X036195Y132080
X036195Y139192G85X036195Y139192
T04
X048470Y179133
X050970Y179133
X053470Y179133
X055970Y179133
X027051Y165227
X024511Y165227
X021971Y165227
X027051Y158877
X024511Y158877
X021971Y158877
X031115Y102617
X028575Y102617
X026035Y102617
X020110Y102680
X017610Y102680
X015110Y102680
X012610Y102680
X016002Y177927
X013462Y177927
X010922Y177927
X016002Y171577
X013462Y171577
X010922Y171577
X016002Y165227
X013462Y165227
X010922Y165227
X016002Y158877
X013462Y158877
X010922Y158877
X027051Y177927
X024511Y177927
X021971Y177927
X027051Y171577
X024511Y171577
X021971Y171577
X039624Y104902
X039624Y107442
X039624Y109982
X039624Y112522
X039624Y115062
X039624Y117602
X039624Y120142
X039624Y122682
X039624Y125222
X039624Y127762
X039624Y130302
X039624Y132842
X039624Y135382
X039624Y137922
X039624Y140462
X039624Y143002
X039624Y145542
X039624Y148082
X039624Y150622
X064897Y150749
X064897Y148209
X064897Y145669
X064897Y143129
X064897Y140589
X064897Y138049
X064897Y135509
X064897Y132969
X064897Y130429
X064897Y127889
X064897Y125349
X064897Y122809
X064897Y120269
X064897Y117732
X064897Y115189
X064897Y112649
X064897Y110109
X064897Y107569
X064897Y105029
X039742Y179197
X031242Y179197
X031251Y176403
X039751Y176403
X031251Y173609
X039751Y173609
X031251Y170815
X039751Y170815
X031251Y168021
X039751Y168021
X031251Y165227
X039751Y165227
X031251Y162433
X039751Y162433
X031251Y159512
X039751Y159512
X036322Y113674
X036322Y122174
X036322Y111243
X036322Y102743
X060452Y178450
X060452Y169950
X063373Y169935
X063373Y178435
T05
X015621Y121412
X015621Y116332
X027940Y121285
X027940Y116205
X010033Y145796
X012573Y145796
X023876Y145923
X026416Y145923
X058866Y145523G85X058866Y145473
X058866Y142983G85X058866Y142933
X058866Y140443G85X058866Y140393
X058866Y137903G85X058866Y137853
X058866Y135363G85X058866Y135313
X058866Y132823G85X058866Y132773
X058866Y130283G85X058866Y130233
X058866Y127743G85X058866Y127693
T06
X017644Y127762
X015934Y127762
X014224Y127762
X012514Y127762
X010804Y127762
X031360Y127762
X029650Y127762
X027940Y127762
X026230Y127762
X024520Y127762
T07
X011430Y109858G85X011430Y109852
X032385Y109858G85X032385Y109852
M30
