M48
METRIC,LZ,000.000
;FILE_FORMAT=3:3
;TYPE=PLATED
;Layer: PTH_Through_Via
;EasyEDA v6.5.20, 2022-10-22 14:54:30
;fe600fdf0afc4bf6b2dbe2f9dcf79710,95753c6d73fd445989ad8f01ddeeb764,10
;Gerber Generator version 0.2
;Holesize 1 = 0.305 mm
T01C0.305
%
G05
G90
T01
X052819Y115003
X051719Y115003
X039878Y157353
X041910Y150622
X041910Y147193
X041910Y136906
X041910Y131445
X046355Y170129
X022733Y124206
X021717Y118491
X043180Y147181
X043180Y136880
X043180Y131424
X044323Y150622
X044323Y147193
X044323Y136906
X044323Y131445
X045466Y150622
X045466Y147193
X048895Y136906
X048895Y131445
X050546Y147193
X051695Y132842
X051689Y136906
X051689Y147193
X050546Y150622
X051689Y150622
X060452Y155194
X061468Y154178
X065405Y161036
X066548Y161036
X066548Y169911
X056515Y160071
X053213Y147193
X053213Y136906
X053213Y131445
X049657Y128016
X027559Y155321
X027559Y152908
X027559Y154051
X011938Y180467
X052451Y180721
X063754Y144399
X065659Y131699
X024003Y162560
X065659Y129032
X065659Y146939
M30
