M48
METRIC,LZ,000.000
;FILE_FORMAT=3:3
;TYPE=PLATED
;Layer: PTH_Through
;EasyEDA v6.5.5, 2022-06-21 14:44:54
;7803e98a07e24d43aec7228dd6304fe2,95753c6d73fd445989ad8f01ddeeb764,10
;Gerber Generator version 0.2
;Holesize 1 = 0.305 mm
T01C0.305
;Holesize 2 = 0.501 mm
T02C0.501
;Holesize 3 = 0.722 mm
T03C0.722
;Holesize 4 = 0.839 mm
T04C0.839
;Holesize 5 = 0.901 mm
T05C0.901
;Holesize 6 = 0.915 mm
T06C0.915
;Holesize 7 = 1.000 mm
T07C1.000
;Holesize 8 = 1.200 mm
T08C1.200
;Holesize 9 = 1.800 mm
T09C1.800
%
G05
G90
T01
X028956Y139827
X028956Y136652
X011557Y114932
X028321Y146050
X024384Y146050
X025645Y132334
X040513Y112132
X040513Y106816
X050787Y115130
X048641Y110871
X055499Y110871
X055499Y113411
X032639Y132334
X033387Y134239
X046387Y115130
X036068Y134239
X033401Y154178
X036195Y154178
X034163Y138684
X034163Y137668
X038735Y136779
X054271Y136779
X013589Y137668
X052578Y109093
X051562Y111887
X053721Y123063
X016510Y110236
X018796Y107950
X020828Y109601
X018669Y111760
X034036Y135382
X045339Y113411
X049687Y115130
X040513Y108322
X056388Y105791
X056388Y108458
X045085Y109982
X024130Y132334
T02
X030353Y127508
T03
X042904Y104665
X042907Y114330
X058407Y104729
T04
X057604Y114337
T05
X034925Y132334G85X034925Y132334
X027813Y132334G85X027813Y132334
T06
X031115Y102617
X028575Y102617
X026035Y102617
X020110Y102680
X017610Y102680
X015110Y102680
X012610Y102680
X016002Y134239
X013462Y134239
X010922Y134239
X016002Y140970
X013462Y140970
X010922Y140970
X016002Y147828
X013462Y147828
X010922Y147828
X016002Y154559
X013462Y154559
X010922Y154559
X027051Y147828
X024511Y147828
X021971Y147828
X027051Y154559
X024511Y154559
X021971Y154559
X037592Y105029
X037592Y107569
X037592Y110109
X037592Y112649
X037592Y115189
X037592Y117729
X037592Y120269
X037592Y122809
X037592Y125349
X037592Y127889
X037592Y130429
X037592Y132969
X037592Y135509
X037592Y138049
X037592Y140589
X037592Y143129
X037592Y145669
X037592Y148209
X037592Y150749
X062865Y150876
X062865Y148336
X062865Y145796
X062865Y143256
X062865Y140716
X062865Y138176
X062865Y135636
X062865Y133096
X062865Y130556
X062865Y128016
X062865Y125476
X062865Y122936
X062865Y120396
X062865Y117859
X062865Y115316
X062865Y112776
X062865Y110236
X062865Y107696
X062865Y105156
T07
X011430Y129032
X011430Y126492
X057469Y145904G85X057469Y145854
X057469Y143364G85X057469Y143314
X057469Y140824G85X057469Y140774
X057469Y138284G85X057469Y138234
X057469Y135744G85X057469Y135694
X057469Y133204G85X057469Y133154
X057469Y130664G85X057469Y130614
X057469Y128124G85X057469Y128074
T08
X032004Y122927
X032004Y121217
X032004Y119507
X032004Y117797
X032004Y116087
T09
X011430Y109858G85X011430Y109852
X032385Y109858G85X032385Y109852
M30
