G04 Layer: TopSolderMaskLayer*
G04 EasyEDA v6.5.5, 2022-06-21 14:44:54*
G04 7803e98a07e24d43aec7228dd6304fe2,95753c6d73fd445989ad8f01ddeeb764,10*
G04 Gerber Generator version 0.2*
G04 Scale: 100 percent, Rotated: No, Reflected: No *
G04 Dimensions in millimeters *
G04 leading zeros omitted , absolute positions ,4 integer and 5 decimal *
%FSLAX45Y45*%
%MOMM*%

%ADD42C,3.9016*%
%ADD46C,1.7016*%
%ADD47C,1.6016*%
%ADD49C,1.9812*%
%ADD51C,1.7272*%
%ADD52C,1.6256*%
%ADD53C,1.5095*%

%LPD*%
D42*
X1143000Y11045499D02*
G01*
X1143000Y10925500D01*
X3238500Y11045499D02*
G01*
X3238500Y10925500D01*
G36*
X1642363Y12190984D02*
G01*
X1642363Y12701015D01*
X2802636Y12701015D01*
X2802636Y12190984D01*
G37*
G36*
X1642363Y11352784D02*
G01*
X1642363Y11862815D01*
X2802636Y11862815D01*
X2802636Y11352784D01*
G37*
G36*
X3223006Y12545821D02*
G01*
X3223006Y12955778D01*
X3533393Y12955778D01*
X3533393Y12545821D01*
G37*
G36*
X985520Y11353037D02*
G01*
X985520Y11633200D01*
X1325879Y11633200D01*
X1325879Y11353037D01*
G37*
G36*
X985520Y12090400D02*
G01*
X985520Y12370562D01*
X1325879Y12370562D01*
X1325879Y12090400D01*
G37*
D46*
G01*
X1143000Y12903200D03*
G01*
X1143000Y12649200D03*
D47*
G01*
X3200400Y12292711D03*
G01*
X3200400Y12121692D03*
G01*
X3200400Y11950700D03*
G01*
X3200400Y11779707D03*
G01*
X3200400Y11608688D03*
G36*
X3203447Y14429231D02*
G01*
X3203447Y14629637D01*
X3451352Y14629637D01*
X3451352Y14429231D01*
G37*
G36*
X3203447Y14808962D02*
G01*
X3203447Y15009368D01*
X3451352Y15009368D01*
X3451352Y14808962D01*
G37*
D49*
G01*
X5746902Y14587905D03*
G01*
X5746927Y14333956D03*
G01*
X5746927Y14079956D03*
G01*
X5746927Y13825956D03*
G01*
X5746927Y13571956D03*
G01*
X5746927Y13317956D03*
G01*
X5746927Y13063956D03*
G01*
X5746927Y12809956D03*
G36*
X3197352Y15032989D02*
G01*
X3197352Y15273274D01*
X3457447Y15273274D01*
X3457447Y15032989D01*
G37*
G36*
X3197352Y15587726D02*
G01*
X3197352Y15828010D01*
X3457447Y15828010D01*
X3457447Y15587726D01*
G37*
D51*
G01*
X3111525Y10261650D03*
G01*
X2857525Y10261650D03*
G01*
X2603525Y10261650D03*
D52*
G01*
X2010994Y10268000D03*
G01*
X1761007Y10268000D03*
G01*
X1510995Y10268000D03*
G01*
X1261008Y10268000D03*
D53*
G01*
X3492500Y13233400D03*
G01*
X2781300Y13233400D03*
D51*
G01*
X1600200Y13423900D03*
G01*
X1346200Y13423900D03*
G01*
X1092200Y13423900D03*
G01*
X1600200Y14097000D03*
G01*
X1346200Y14097000D03*
G01*
X1092200Y14097000D03*
G01*
X1600200Y14782800D03*
G01*
X1346200Y14782800D03*
G01*
X1092200Y14782800D03*
G01*
X1600200Y15455900D03*
G01*
X1346200Y15455900D03*
G01*
X1092200Y15455900D03*
G01*
X2705100Y14782800D03*
G01*
X2451100Y14782800D03*
G01*
X2197100Y14782800D03*
G01*
X2705100Y15455900D03*
G01*
X2451100Y15455900D03*
G01*
X2197100Y15455900D03*
G36*
X5984240Y10648950D02*
G01*
X5984240Y10739628D01*
X6080759Y10739628D01*
X6080759Y10648950D01*
G37*
G36*
X5984240Y10799571D02*
G01*
X5984240Y10890250D01*
X6080759Y10890250D01*
X6080759Y10799571D01*
G37*
G36*
X4003040Y11167871D02*
G01*
X4003040Y11258550D01*
X4099559Y11258550D01*
X4099559Y11167871D01*
G37*
G36*
X4003040Y11017250D02*
G01*
X4003040Y11107928D01*
X4099559Y11107928D01*
X4099559Y11017250D01*
G37*
G36*
X5984240Y11167871D02*
G01*
X5984240Y11258550D01*
X6080759Y11258550D01*
X6080759Y11167871D01*
G37*
G36*
X5984240Y11017250D02*
G01*
X5984240Y11107928D01*
X6080759Y11107928D01*
X6080759Y11017250D01*
G37*
G36*
X4003040Y10636250D02*
G01*
X4003040Y10726928D01*
X4099559Y10726928D01*
X4099559Y10636250D01*
G37*
G36*
X4003040Y10786871D02*
G01*
X4003040Y10877550D01*
X4099559Y10877550D01*
X4099559Y10786871D01*
G37*
G36*
X5257800Y11428221D02*
G01*
X5257800Y11598402D01*
X5338063Y11598402D01*
X5338063Y11428221D01*
G37*
G36*
X5147563Y11427968D02*
G01*
X5147563Y11598147D01*
X5227827Y11598147D01*
X5227827Y11427968D01*
G37*
G36*
X5038597Y11427968D02*
G01*
X5038597Y11598147D01*
X5118861Y11598147D01*
X5118861Y11427968D01*
G37*
G36*
X4928615Y11427968D02*
G01*
X4928615Y11598147D01*
X5008879Y11598147D01*
X5008879Y11427968D01*
G37*
G36*
X4818634Y11427968D02*
G01*
X4818634Y11598147D01*
X4898897Y11598147D01*
X4898897Y11427968D01*
G37*
G36*
X4708652Y11427968D02*
G01*
X4708652Y11598147D01*
X4788915Y11598147D01*
X4788915Y11427968D01*
G37*
G36*
X4598670Y11427968D02*
G01*
X4598670Y11598147D01*
X4678934Y11598147D01*
X4678934Y11427968D01*
G37*
G36*
X4488688Y11427968D02*
G01*
X4488688Y11598147D01*
X4568952Y11598147D01*
X4568952Y11427968D01*
G37*
G36*
X4378706Y11427968D02*
G01*
X4378706Y11598147D01*
X4458970Y11598147D01*
X4458970Y11427968D01*
G37*
G36*
X4225290Y10351262D02*
G01*
X4225290Y10581639D01*
X4355591Y10581639D01*
X4355591Y10351262D01*
G37*
G36*
X4225543Y11357863D02*
G01*
X4225543Y11508231D01*
X4355845Y11508231D01*
X4355845Y11357863D01*
G37*
G36*
X5675375Y11358626D02*
G01*
X5675375Y11508739D01*
X5845556Y11508739D01*
X5845556Y11358626D01*
G37*
G36*
X5775706Y10357865D02*
G01*
X5775706Y10587989D01*
X5905754Y10587989D01*
X5905754Y10357865D01*
G37*
G36*
X2177034Y13616939D02*
G01*
X2177034Y13713460D01*
X2267965Y13713460D01*
X2267965Y13616939D01*
G37*
G36*
X2327656Y13616939D02*
G01*
X2327656Y13713460D01*
X2418588Y13713460D01*
X2418588Y13616939D01*
G37*
G36*
X2189734Y13934439D02*
G01*
X2189734Y14030960D01*
X2280665Y14030960D01*
X2280665Y13934439D01*
G37*
G36*
X2340356Y13934439D02*
G01*
X2340356Y14030960D01*
X2431288Y14030960D01*
X2431288Y13934439D01*
G37*
G36*
X2177034Y14251939D02*
G01*
X2177034Y14348460D01*
X2267965Y14348460D01*
X2267965Y14251939D01*
G37*
G36*
X2327656Y14251939D02*
G01*
X2327656Y14348460D01*
X2418588Y14348460D01*
X2418588Y14251939D01*
G37*
G36*
X2851150Y14251939D02*
G01*
X2851150Y14348460D01*
X2941827Y14348460D01*
X2941827Y14251939D01*
G37*
G36*
X3001772Y14251939D02*
G01*
X3001772Y14348460D01*
X3092450Y14348460D01*
X3092450Y14251939D01*
G37*
G36*
X2850134Y13934439D02*
G01*
X2850134Y14030960D01*
X2941065Y14030960D01*
X2941065Y13934439D01*
G37*
G36*
X3000756Y13934439D02*
G01*
X3000756Y14030960D01*
X3091688Y14030960D01*
X3091688Y13934439D01*
G37*
G36*
X2850134Y13616939D02*
G01*
X2850134Y13713460D01*
X2941065Y13713460D01*
X2941065Y13616939D01*
G37*
G36*
X3000756Y13616939D02*
G01*
X3000756Y13713460D01*
X3091688Y13713460D01*
X3091688Y13616939D01*
G37*
G36*
X2368550Y13185139D02*
G01*
X2368550Y13281660D01*
X2459227Y13281660D01*
X2459227Y13185139D01*
G37*
G36*
X2519172Y13185139D02*
G01*
X2519172Y13281660D01*
X2609850Y13281660D01*
X2609850Y13185139D01*
G37*
G36*
X1987550Y13185139D02*
G01*
X1987550Y13281660D01*
X2078227Y13281660D01*
X2078227Y13185139D01*
G37*
G36*
X2138172Y13185139D02*
G01*
X2138172Y13281660D01*
X2228850Y13281660D01*
X2228850Y13185139D01*
G37*
G01*
X3759200Y10502900D03*
G01*
X3759200Y10756900D03*
G01*
X3759200Y11010900D03*
G01*
X3759200Y11264900D03*
G01*
X3759200Y11518900D03*
G01*
X3759200Y11772900D03*
G01*
X3759200Y12026900D03*
G01*
X3759200Y12280900D03*
G01*
X3759200Y12534900D03*
G01*
X3759200Y12788900D03*
G01*
X3759200Y13042900D03*
G01*
X3759200Y13296900D03*
G01*
X3759200Y13550900D03*
G01*
X3759200Y13804900D03*
G01*
X3759200Y14058900D03*
G01*
X3759200Y14312900D03*
G01*
X3759200Y14566900D03*
G01*
X3759200Y14820900D03*
G01*
X3759200Y15074900D03*
G01*
X6286500Y15087600D03*
G01*
X6286500Y14833600D03*
G01*
X6286500Y14579600D03*
G01*
X6286500Y14325600D03*
G01*
X6286500Y14071600D03*
G01*
X6286500Y13817600D03*
G01*
X6286500Y13563600D03*
G01*
X6286500Y13309600D03*
G01*
X6286500Y13055600D03*
G01*
X6286500Y12801600D03*
G01*
X6286500Y12547600D03*
G01*
X6286500Y12293600D03*
G01*
X6286500Y12039600D03*
G01*
X6286500Y11785930D03*
G01*
X6286500Y11531600D03*
G01*
X6286500Y11277600D03*
G01*
X6286500Y11023600D03*
G01*
X6286500Y10769600D03*
G01*
X6286500Y10515600D03*
G36*
X2880106Y12545821D02*
G01*
X2880106Y12955778D01*
X3190493Y12955778D01*
X3190493Y12545821D01*
G37*
M02*
