G04 Layer: TopSolderMaskLayer*
G04 EasyEDA v6.5.20, 2022-10-22 14:54:30*
G04 fe600fdf0afc4bf6b2dbe2f9dcf79710,95753c6d73fd445989ad8f01ddeeb764,10*
G04 Gerber Generator version 0.2*
G04 Scale: 100 percent, Rotated: No, Reflected: No *
G04 Dimensions in millimeters *
G04 leading zeros omitted , absolute positions ,4 integer and 5 decimal *
%FSLAX45Y45*%
%MOMM*%

%AMMACRO1*1,1,$1,$2,$3*1,1,$1,$4,$5*1,1,$1,0-$2,0-$3*1,1,$1,0-$4,0-$5*20,1,$1,$2,$3,$4,$5,0*20,1,$1,$4,$5,0-$2,0-$3,0*20,1,$1,0-$2,0-$3,0-$4,0-$5,0*20,1,$1,0-$4,0-$5,$2,$3,0*4,1,4,$2,$3,$4,$5,0-$2,0-$3,0-$4,0-$5,$2,$3,0*%
%ADD10MACRO1,0.1016X1.75X-4X-1.75X-4*%
%ADD11MACRO1,0.1016X-0.75X-2X-0.75X2*%
%ADD12MACRO1,0.1016X-1.15X1.25X1.15X1.25*%
%ADD13C,1.6256*%
%ADD14C,1.7016*%
%ADD15MACRO1,0.1016X-0.3302X1.016X0.3302X1.016*%
%ADD16C,1.6016*%
%ADD17MACRO1,0.1016X-1.65X-1.35X-1.65X1.35*%
%ADD18C,1.7272*%
%ADD19MACRO1,0.1016X-1.188X-0.95X-1.188X0.95*%
%ADD20C,1.9812*%
%ADD21MACRO1,0.1016X1.15X-1.25X-1.15X-1.25*%
%ADD22C,1.5095*%
%ADD23MACRO1,0.1016X-0.3505X0.8001X0.3505X0.8001*%
%ADD24MACRO1,0.1016X-0.3505X0.8X0.3505X0.8*%
%ADD25MACRO1,0.1016X-0.6001X1.1001X0.6001X1.1001*%
%ADD26MACRO1,0.1016X-0.5994X0.7X0.5994X0.7*%
%ADD27MACRO1,0.1016X-0.8001X0.6998X0.8001X0.6998*%
%ADD28MACRO1,0.1016X-0.5994X1.1001X0.5994X1.1001*%
%ADD29O,3.9015924X5.10159*%

%LPD*%
D10*
G01*
X2406702Y13570005D03*
G01*
X3206802Y13570005D03*
D11*
G01*
X1638300Y15405100D03*
D10*
G01*
X1809796Y13570005D03*
G01*
X1009696Y13570005D03*
D11*
G01*
X1435100Y15405100D03*
G01*
X2552700Y15405100D03*
G01*
X2755900Y15405100D03*
D12*
G01*
X5217656Y17348200D03*
G01*
X4662939Y17348200D03*
D13*
G01*
X4847005Y17913299D03*
G01*
X5096992Y17913299D03*
G01*
X5347004Y17913299D03*
G01*
X5596991Y17913299D03*
D14*
G01*
X1562100Y12141200D03*
G01*
X1562100Y11633200D03*
G01*
X2794000Y12128500D03*
G01*
X2794000Y11620500D03*
D15*
G01*
X4635500Y16007079D03*
G01*
X4762500Y16007079D03*
G01*
X4889500Y16007079D03*
G01*
X5016500Y16007079D03*
G01*
X5143500Y16007079D03*
G01*
X5270500Y16007079D03*
G01*
X5397500Y16007079D03*
G01*
X5524500Y16007079D03*
G01*
X5524500Y17012920D03*
G01*
X5397500Y17012920D03*
G01*
X5270500Y17012920D03*
G01*
X5143500Y17012920D03*
G01*
X5016500Y17012920D03*
G01*
X4889500Y17012920D03*
G01*
X4762500Y17012920D03*
G01*
X4635500Y17012920D03*
G01*
X5651500Y16007079D03*
G01*
X5778500Y16007079D03*
G01*
X5651500Y17012920D03*
G01*
X5778500Y17012920D03*
D16*
G01*
X1764411Y12776200D03*
G01*
X1593392Y12776200D03*
G01*
X1422400Y12776200D03*
G01*
X1251407Y12776200D03*
G01*
X1080388Y12776200D03*
D14*
G01*
X1003300Y14579600D03*
G01*
X1257300Y14579600D03*
D17*
G01*
X1816100Y14935530D03*
G01*
X1816100Y14198269D03*
D18*
G01*
X2705100Y16522700D03*
G01*
X2451100Y16522700D03*
G01*
X2197100Y16522700D03*
G01*
X2705100Y15887700D03*
G01*
X2451100Y15887700D03*
G01*
X2197100Y15887700D03*
D17*
G01*
X3200400Y14948230D03*
G01*
X3200400Y14210969D03*
D14*
G01*
X2387600Y14592300D03*
G01*
X2641600Y14592300D03*
D16*
G01*
X3136011Y12776200D03*
G01*
X2964992Y12776200D03*
G01*
X2794000Y12776200D03*
G01*
X2623007Y12776200D03*
G01*
X2451988Y12776200D03*
D19*
G01*
X3632201Y12864465D03*
G01*
X3632201Y12484734D03*
D20*
G01*
X5886602Y14549805D03*
G01*
X5886627Y14295856D03*
G01*
X5886627Y14041856D03*
G01*
X5886627Y13787856D03*
G01*
X5886627Y13533856D03*
G01*
X5886627Y13279856D03*
G01*
X5886627Y13025856D03*
G01*
X5886627Y12771856D03*
D21*
G01*
X3088143Y15379700D03*
G01*
X3642860Y15379700D03*
D18*
G01*
X3111525Y10261650D03*
G01*
X2857525Y10261650D03*
G01*
X2603525Y10261650D03*
D13*
G01*
X2010994Y10268000D03*
G01*
X1761007Y10268000D03*
G01*
X1510995Y10268000D03*
G01*
X1261008Y10268000D03*
D22*
G01*
X3619500Y13208000D03*
G01*
X3619500Y13919200D03*
D18*
G01*
X1600200Y17792700D03*
G01*
X1346200Y17792700D03*
G01*
X1092200Y17792700D03*
G01*
X1600200Y17157700D03*
G01*
X1346200Y17157700D03*
G01*
X1092200Y17157700D03*
G01*
X1600200Y16522700D03*
G01*
X1346200Y16522700D03*
G01*
X1092200Y16522700D03*
G01*
X1600200Y15887700D03*
G01*
X1346200Y15887700D03*
G01*
X1092200Y15887700D03*
G01*
X2705100Y17792700D03*
G01*
X2451100Y17792700D03*
G01*
X2197100Y17792700D03*
G01*
X2705100Y17157700D03*
G01*
X2451100Y17157700D03*
G01*
X2197100Y17157700D03*
D23*
G01*
X5501055Y11500612D03*
D24*
G01*
X5390895Y11500294D03*
G01*
X5281904Y11500294D03*
G01*
X5171897Y11500294D03*
G01*
X5061889Y11500294D03*
G01*
X4951907Y11500294D03*
G01*
X4841900Y11500294D03*
G01*
X4731893Y11500294D03*
G01*
X4621911Y11500294D03*
D25*
G01*
X4493602Y10453776D03*
D26*
G01*
X4493894Y11420348D03*
D27*
G01*
X5963564Y11420957D03*
D28*
G01*
X6043904Y10460227D03*
D18*
G01*
X3962400Y10490200D03*
G01*
X3962400Y10744200D03*
G01*
X3962400Y10998200D03*
G01*
X3962400Y11252200D03*
G01*
X3962400Y11506200D03*
G01*
X3962400Y11760200D03*
G01*
X3962400Y12014200D03*
G01*
X3962400Y12268200D03*
G01*
X3962400Y12522200D03*
G01*
X3962400Y12776200D03*
G01*
X3962400Y13030200D03*
G01*
X3962400Y13284200D03*
G01*
X3962400Y13538200D03*
G01*
X3962400Y13792200D03*
G01*
X3962400Y14046200D03*
G01*
X3962400Y14300200D03*
G01*
X3962400Y14554200D03*
G01*
X3962400Y14808200D03*
G01*
X3962400Y15062200D03*
G01*
X6489700Y15074900D03*
G01*
X6489700Y14820900D03*
G01*
X6489700Y14566900D03*
G01*
X6489700Y14312900D03*
G01*
X6489700Y14058900D03*
G01*
X6489700Y13804900D03*
G01*
X6489700Y13550900D03*
G01*
X6489700Y13296900D03*
G01*
X6489700Y13042900D03*
G01*
X6489700Y12788900D03*
G01*
X6489700Y12534900D03*
G01*
X6489700Y12280900D03*
G01*
X6489700Y12026900D03*
G01*
X6489700Y11773230D03*
G01*
X6489700Y11518900D03*
G01*
X6489700Y11264900D03*
G01*
X6489700Y11010900D03*
G01*
X6489700Y10756900D03*
G01*
X6489700Y10502900D03*
D29*
G01*
X1143000Y10985500D03*
G01*
X3238500Y10985500D03*
D18*
G01*
X3974198Y17919700D03*
G01*
X3124200Y17919700D03*
G01*
X3125101Y17640300D03*
G01*
X3975100Y17640300D03*
G01*
X3125101Y17360900D03*
G01*
X3975100Y17360900D03*
G01*
X3125101Y17081500D03*
G01*
X3975100Y17081500D03*
G01*
X3125101Y16802100D03*
G01*
X3975100Y16802100D03*
G01*
X3125101Y16522700D03*
G01*
X3975100Y16522700D03*
G01*
X3125101Y16243300D03*
G01*
X3975100Y16243300D03*
G01*
X3125101Y15951200D03*
G01*
X3975100Y15951200D03*
G01*
X3632200Y11367401D03*
G01*
X3632200Y12217400D03*
G01*
X3632200Y11124298D03*
G01*
X3632200Y10274300D03*
G01*
X6045161Y17845024D03*
G01*
X6045161Y16995025D03*
G01*
X6337300Y16993501D03*
G01*
X6337300Y17843500D03*
M02*
