G04 Layer: BottomLayer*
G04 EasyEDA v6.5.20, 2022-10-22 14:54:30*
G04 fe600fdf0afc4bf6b2dbe2f9dcf79710,95753c6d73fd445989ad8f01ddeeb764,10*
G04 Gerber Generator version 0.2*
G04 Scale: 100 percent, Rotated: No, Reflected: No *
G04 Dimensions in millimeters *
G04 leading zeros omitted , absolute positions ,4 integer and 5 decimal *
%FSLAX45Y45*%
%MOMM*%

%AMMACRO1*21,1,$1,$2,0,0,$3*%
%ADD10C,1.3000*%
%ADD11C,4.0000*%
%ADD12C,0.5000*%
%ADD13C,0.7500*%
%ADD14C,0.3000*%
%ADD15C,1.5240*%
%ADD16C,1.6000*%
%ADD17C,1.5000*%
%ADD18C,1.7780*%
%ADD19C,1.4079*%
%ADD20MACRO1,1.2001X2.2001X0.0000*%
%ADD21MACRO1,1.1989X1.4X0.0000*%
%ADD22R,1.6000X1.3995*%
%ADD23R,1.1989X2.2000*%
%ADD24O,3.7999924X4.9999899999999995*%
%ADD25C,0.6096*%
%ADD26C,0.0110*%

%LPD*%
G36*
X802132Y10020808D02*
G01*
X798220Y10021570D01*
X794969Y10023805D01*
X792734Y10027056D01*
X791972Y10030968D01*
X791972Y18201132D01*
X792734Y18205043D01*
X794969Y18208294D01*
X798220Y18210530D01*
X802132Y18211292D01*
X6745731Y18211292D01*
X6749643Y18210530D01*
X6752894Y18208294D01*
X6755130Y18205043D01*
X6755892Y18201132D01*
X6755892Y10030968D01*
X6755130Y10027056D01*
X6752894Y10023805D01*
X6749643Y10021570D01*
X6745731Y10020808D01*
G37*

%LPC*%
G36*
X2854096Y10159644D02*
G01*
X2867761Y10160101D01*
X2881172Y10162336D01*
X2894228Y10166400D01*
X2906572Y10172141D01*
X2918053Y10179456D01*
X2928467Y10188244D01*
X2937611Y10198404D01*
X2945333Y10209631D01*
X2951480Y10221772D01*
X2956001Y10234676D01*
X2958693Y10248036D01*
X2959608Y10261650D01*
X2958693Y10275265D01*
X2956001Y10288625D01*
X2951480Y10301528D01*
X2945333Y10313670D01*
X2937611Y10324896D01*
X2928467Y10335056D01*
X2918053Y10343845D01*
X2906572Y10351160D01*
X2894228Y10356900D01*
X2881172Y10360964D01*
X2867761Y10363200D01*
X2854096Y10363657D01*
X2840532Y10362336D01*
X2827274Y10359136D01*
X2814523Y10354259D01*
X2802585Y10347706D01*
X2791612Y10339628D01*
X2781808Y10330129D01*
X2773375Y10319410D01*
X2766415Y10307675D01*
X2761081Y10295128D01*
X2757474Y10281970D01*
X2755646Y10268458D01*
X2755646Y10254843D01*
X2757474Y10241330D01*
X2761081Y10228173D01*
X2766415Y10215626D01*
X2773375Y10203891D01*
X2781808Y10193172D01*
X2791612Y10183672D01*
X2802585Y10175595D01*
X2814523Y10169042D01*
X2827274Y10164165D01*
X2840532Y10160965D01*
G37*
G36*
X2600096Y10159644D02*
G01*
X2613761Y10160101D01*
X2627172Y10162336D01*
X2640228Y10166400D01*
X2652572Y10172141D01*
X2664104Y10179456D01*
X2674518Y10188244D01*
X2683662Y10198404D01*
X2691384Y10209631D01*
X2697530Y10221772D01*
X2702001Y10234676D01*
X2704693Y10248036D01*
X2705608Y10261650D01*
X2704693Y10275265D01*
X2702001Y10288625D01*
X2697530Y10301528D01*
X2691384Y10313670D01*
X2683662Y10324896D01*
X2674518Y10335056D01*
X2664104Y10343845D01*
X2652572Y10351160D01*
X2640228Y10356900D01*
X2627172Y10360964D01*
X2613761Y10363200D01*
X2600096Y10363657D01*
X2586532Y10362336D01*
X2573274Y10359136D01*
X2560574Y10354259D01*
X2548585Y10347706D01*
X2537612Y10339628D01*
X2527808Y10330129D01*
X2519375Y10319410D01*
X2512415Y10307675D01*
X2507081Y10295128D01*
X2503474Y10281970D01*
X2501696Y10268458D01*
X2501696Y10254843D01*
X2503474Y10241330D01*
X2507081Y10228173D01*
X2512415Y10215626D01*
X2519375Y10203891D01*
X2527808Y10193172D01*
X2537612Y10183672D01*
X2548585Y10175595D01*
X2560574Y10169042D01*
X2573274Y10164165D01*
X2586532Y10160965D01*
G37*
G36*
X1507591Y10165994D02*
G01*
X1521206Y10166451D01*
X1534668Y10168686D01*
X1547672Y10172750D01*
X1560068Y10178491D01*
X1571548Y10185806D01*
X1581962Y10194594D01*
X1591106Y10204754D01*
X1598828Y10215981D01*
X1604975Y10228122D01*
X1609445Y10241026D01*
X1612188Y10254386D01*
X1613103Y10268000D01*
X1612188Y10281615D01*
X1609445Y10294975D01*
X1604975Y10307878D01*
X1598828Y10320020D01*
X1591106Y10331246D01*
X1581962Y10341406D01*
X1571548Y10350195D01*
X1560068Y10357510D01*
X1547672Y10363250D01*
X1534668Y10367314D01*
X1521206Y10369550D01*
X1507591Y10370007D01*
X1494028Y10368686D01*
X1480769Y10365486D01*
X1468018Y10360609D01*
X1456080Y10354056D01*
X1445107Y10345978D01*
X1435303Y10336479D01*
X1426819Y10325760D01*
X1419910Y10314025D01*
X1414576Y10301478D01*
X1410970Y10288320D01*
X1409141Y10274808D01*
X1409141Y10261193D01*
X1410970Y10247680D01*
X1414576Y10234523D01*
X1419910Y10221976D01*
X1426819Y10210241D01*
X1435303Y10199522D01*
X1445107Y10190022D01*
X1456080Y10181945D01*
X1468018Y10175392D01*
X1480769Y10170515D01*
X1494028Y10167315D01*
G37*
G36*
X1257604Y10165994D02*
G01*
X1271219Y10166451D01*
X1284681Y10168686D01*
X1297686Y10172750D01*
X1310081Y10178491D01*
X1321562Y10185806D01*
X1331976Y10194594D01*
X1341120Y10204754D01*
X1348841Y10215981D01*
X1354988Y10228122D01*
X1359458Y10241026D01*
X1362151Y10254386D01*
X1363065Y10268000D01*
X1362151Y10281615D01*
X1359458Y10294975D01*
X1354988Y10307878D01*
X1348841Y10320020D01*
X1341120Y10331246D01*
X1331976Y10341406D01*
X1321562Y10350195D01*
X1310081Y10357510D01*
X1297686Y10363250D01*
X1284681Y10367314D01*
X1271219Y10369550D01*
X1257604Y10370007D01*
X1244041Y10368686D01*
X1230731Y10365486D01*
X1218031Y10360609D01*
X1206093Y10354056D01*
X1195070Y10345978D01*
X1185265Y10336479D01*
X1176832Y10325760D01*
X1169873Y10314025D01*
X1164539Y10301478D01*
X1160983Y10288320D01*
X1159154Y10274808D01*
X1159154Y10261193D01*
X1160983Y10247680D01*
X1164539Y10234523D01*
X1169873Y10221976D01*
X1176832Y10210241D01*
X1185265Y10199522D01*
X1195070Y10190022D01*
X1206093Y10181945D01*
X1218031Y10175392D01*
X1230731Y10170515D01*
X1244041Y10167315D01*
G37*
G36*
X3067100Y10169855D02*
G01*
X3067100Y10217200D01*
X3019755Y10217200D01*
X3020415Y10215626D01*
X3027375Y10203891D01*
X3035808Y10193172D01*
X3045612Y10183672D01*
X3056585Y10175595D01*
G37*
G36*
X3156000Y10170007D02*
G01*
X3160572Y10172141D01*
X3172104Y10179456D01*
X3182518Y10188244D01*
X3191662Y10198404D01*
X3199384Y10209631D01*
X3203194Y10217200D01*
X3156000Y10217200D01*
G37*
G36*
X3632200Y10172192D02*
G01*
X3645814Y10173106D01*
X3659174Y10175849D01*
X3672078Y10180320D01*
X3684219Y10186466D01*
X3695446Y10194188D01*
X3705606Y10203332D01*
X3714394Y10213746D01*
X3721709Y10225227D01*
X3727450Y10237622D01*
X3731514Y10250627D01*
X3733749Y10264089D01*
X3734206Y10277703D01*
X3732885Y10291267D01*
X3729685Y10304526D01*
X3724808Y10317276D01*
X3718255Y10329214D01*
X3710178Y10340187D01*
X3700678Y10349992D01*
X3689959Y10358475D01*
X3678224Y10365384D01*
X3665677Y10370718D01*
X3652520Y10374325D01*
X3639007Y10376154D01*
X3625392Y10376154D01*
X3611879Y10374325D01*
X3598722Y10370718D01*
X3586175Y10365384D01*
X3574440Y10358475D01*
X3563721Y10349992D01*
X3554222Y10340187D01*
X3546144Y10329214D01*
X3539591Y10317276D01*
X3534714Y10304526D01*
X3531514Y10291267D01*
X3530193Y10277703D01*
X3530650Y10264089D01*
X3532886Y10250627D01*
X3536950Y10237622D01*
X3542690Y10225227D01*
X3550005Y10213746D01*
X3558794Y10203332D01*
X3568954Y10194188D01*
X3580180Y10186466D01*
X3592322Y10180320D01*
X3605225Y10175849D01*
X3618585Y10173106D01*
G37*
G36*
X1716532Y10176205D02*
G01*
X1716532Y10223550D01*
X1669237Y10223550D01*
X1669897Y10221976D01*
X1676857Y10210241D01*
X1685289Y10199522D01*
X1695094Y10190022D01*
X1706067Y10181945D01*
G37*
G36*
X1966569Y10176205D02*
G01*
X1966569Y10223550D01*
X1919224Y10223550D01*
X1919884Y10221976D01*
X1926843Y10210241D01*
X1935276Y10199522D01*
X1945081Y10190022D01*
X1956054Y10181945D01*
G37*
G36*
X2055469Y10176357D02*
G01*
X2060041Y10178491D01*
X2071573Y10185806D01*
X2081987Y10194594D01*
X2091131Y10204754D01*
X2098852Y10215981D01*
X2102662Y10223550D01*
X2055469Y10223550D01*
G37*
G36*
X1805432Y10176357D02*
G01*
X1810054Y10178491D01*
X1821535Y10185806D01*
X1831949Y10194594D01*
X1841093Y10204754D01*
X1848815Y10215981D01*
X1852675Y10223550D01*
X1805432Y10223550D01*
G37*
G36*
X3156000Y10306100D02*
G01*
X3203194Y10306100D01*
X3199384Y10313670D01*
X3191662Y10324896D01*
X3182518Y10335056D01*
X3172104Y10343845D01*
X3160572Y10351160D01*
X3156000Y10353294D01*
G37*
G36*
X3019755Y10306100D02*
G01*
X3067100Y10306100D01*
X3067100Y10353446D01*
X3056585Y10347706D01*
X3045612Y10339628D01*
X3035808Y10330129D01*
X3027375Y10319410D01*
X3020415Y10307675D01*
G37*
G36*
X2055469Y10312450D02*
G01*
X2102662Y10312450D01*
X2098852Y10320020D01*
X2091131Y10331246D01*
X2081987Y10341406D01*
X2071573Y10350195D01*
X2060041Y10357510D01*
X2055469Y10359644D01*
G37*
G36*
X1805432Y10312450D02*
G01*
X1852675Y10312450D01*
X1848815Y10320020D01*
X1841093Y10331246D01*
X1831949Y10341406D01*
X1821535Y10350195D01*
X1810054Y10357510D01*
X1805432Y10359644D01*
G37*
G36*
X1669237Y10312450D02*
G01*
X1716532Y10312450D01*
X1716532Y10359796D01*
X1706067Y10354056D01*
X1695094Y10345978D01*
X1685289Y10336479D01*
X1676857Y10325760D01*
X1669897Y10314025D01*
G37*
G36*
X1919224Y10312450D02*
G01*
X1966569Y10312450D01*
X1966569Y10359796D01*
X1956054Y10354056D01*
X1945081Y10345978D01*
X1935276Y10336479D01*
X1926843Y10325760D01*
X1919884Y10314025D01*
G37*
G36*
X4529937Y10317886D02*
G01*
X4553000Y10317886D01*
X4559300Y10318597D01*
X4564786Y10320477D01*
X4569663Y10323576D01*
X4573778Y10327640D01*
X4576826Y10332567D01*
X4578756Y10338003D01*
X4579467Y10344353D01*
X4579467Y10392410D01*
X4529937Y10392410D01*
G37*
G36*
X4434230Y10317886D02*
G01*
X4457293Y10317886D01*
X4457293Y10392410D01*
X4407763Y10392410D01*
X4407763Y10344353D01*
X4408474Y10338003D01*
X4410405Y10332567D01*
X4413453Y10327640D01*
X4417568Y10323576D01*
X4422444Y10320477D01*
X4427931Y10318597D01*
G37*
G36*
X6080201Y10324338D02*
G01*
X6103264Y10324338D01*
X6109614Y10325049D01*
X6115050Y10326928D01*
X6119977Y10330027D01*
X6124041Y10334091D01*
X6127140Y10339019D01*
X6129020Y10344454D01*
X6129731Y10350804D01*
X6129731Y10398861D01*
X6080201Y10398861D01*
G37*
G36*
X5984544Y10324338D02*
G01*
X6007557Y10324338D01*
X6007557Y10398861D01*
X5958027Y10398861D01*
X5958027Y10350804D01*
X5958738Y10344454D01*
X5960668Y10339019D01*
X5963767Y10334091D01*
X5967831Y10330027D01*
X5972759Y10326928D01*
X5978194Y10325049D01*
G37*
G36*
X4771644Y10369550D02*
G01*
X4780737Y10369956D01*
X4789627Y10371988D01*
X4798009Y10375544D01*
X4805629Y10380573D01*
X4812233Y10386872D01*
X4817618Y10394238D01*
X4821529Y10402468D01*
X4823968Y10411256D01*
X4824780Y10420350D01*
X4823968Y10429443D01*
X4821529Y10438231D01*
X4817618Y10446461D01*
X4812233Y10453827D01*
X4805629Y10460126D01*
X4798009Y10465155D01*
X4789627Y10468711D01*
X4780737Y10470743D01*
X4771644Y10471150D01*
X4762601Y10469930D01*
X4753914Y10467136D01*
X4745888Y10462818D01*
X4738776Y10457129D01*
X4732782Y10450271D01*
X4728108Y10442397D01*
X4724908Y10433862D01*
X4723282Y10424922D01*
X4723282Y10415778D01*
X4724908Y10406837D01*
X4728108Y10398252D01*
X4732782Y10390428D01*
X4738776Y10383570D01*
X4745888Y10377881D01*
X4753914Y10373563D01*
X4762601Y10370769D01*
G37*
G36*
X5571490Y10369550D02*
G01*
X5580583Y10369956D01*
X5589473Y10371988D01*
X5597855Y10375544D01*
X5605475Y10380573D01*
X5612079Y10386872D01*
X5617464Y10394238D01*
X5621375Y10402468D01*
X5623814Y10411256D01*
X5624626Y10420350D01*
X5623814Y10429443D01*
X5621375Y10438231D01*
X5617464Y10446461D01*
X5612079Y10453827D01*
X5605475Y10460126D01*
X5597855Y10465155D01*
X5589473Y10468711D01*
X5580583Y10470743D01*
X5571490Y10471150D01*
X5562447Y10469930D01*
X5553760Y10467136D01*
X5545734Y10462818D01*
X5538622Y10457129D01*
X5532628Y10450271D01*
X5527954Y10442397D01*
X5524754Y10433862D01*
X5523128Y10424922D01*
X5523128Y10415778D01*
X5524754Y10406837D01*
X5527954Y10398252D01*
X5532628Y10390428D01*
X5538622Y10383570D01*
X5545734Y10377881D01*
X5553760Y10373563D01*
X5562447Y10370769D01*
G37*
G36*
X3958996Y10388193D02*
G01*
X3972610Y10388600D01*
X3986072Y10390886D01*
X3999077Y10394950D01*
X4011472Y10400690D01*
X4022953Y10408005D01*
X4033367Y10416794D01*
X4042511Y10426954D01*
X4050233Y10438180D01*
X4056379Y10450322D01*
X4060850Y10463225D01*
X4063593Y10476585D01*
X4064508Y10490200D01*
X4063593Y10503814D01*
X4060850Y10517174D01*
X4056379Y10530027D01*
X4050233Y10542219D01*
X4042511Y10553446D01*
X4033367Y10563555D01*
X4022953Y10572394D01*
X4011472Y10579709D01*
X3999077Y10585450D01*
X3986072Y10589514D01*
X3972610Y10591749D01*
X3958996Y10592206D01*
X3945432Y10590885D01*
X3932174Y10587685D01*
X3919423Y10582808D01*
X3907485Y10576255D01*
X3896512Y10568178D01*
X3886708Y10558678D01*
X3878224Y10547959D01*
X3871264Y10536224D01*
X3865981Y10523677D01*
X3862374Y10510520D01*
X3860546Y10497007D01*
X3860546Y10483392D01*
X3862374Y10469880D01*
X3865981Y10456722D01*
X3871264Y10444175D01*
X3878224Y10432440D01*
X3886708Y10421721D01*
X3896512Y10412222D01*
X3907485Y10404144D01*
X3919423Y10397591D01*
X3932174Y10392714D01*
X3945432Y10389514D01*
G37*
G36*
X6486296Y10400893D02*
G01*
X6499910Y10401300D01*
X6513372Y10403586D01*
X6526377Y10407650D01*
X6538772Y10413390D01*
X6550253Y10420705D01*
X6560667Y10429494D01*
X6569811Y10439654D01*
X6577533Y10450880D01*
X6583680Y10463022D01*
X6588150Y10475925D01*
X6590893Y10489285D01*
X6591808Y10502900D01*
X6590893Y10516514D01*
X6588150Y10529874D01*
X6583680Y10542727D01*
X6577533Y10554919D01*
X6569811Y10566146D01*
X6560667Y10576255D01*
X6550253Y10585094D01*
X6538772Y10592409D01*
X6526377Y10598150D01*
X6513372Y10602214D01*
X6499910Y10604449D01*
X6486296Y10604906D01*
X6472732Y10603585D01*
X6459474Y10600385D01*
X6446723Y10595508D01*
X6434785Y10588955D01*
X6423812Y10580878D01*
X6414008Y10571378D01*
X6405524Y10560659D01*
X6398564Y10548924D01*
X6393281Y10536377D01*
X6389674Y10523220D01*
X6387846Y10509707D01*
X6387846Y10496092D01*
X6389674Y10482580D01*
X6393281Y10469422D01*
X6398564Y10456875D01*
X6405524Y10445140D01*
X6414008Y10434421D01*
X6423812Y10424922D01*
X6434785Y10416844D01*
X6446723Y10410291D01*
X6459474Y10405414D01*
X6472732Y10402214D01*
G37*
G36*
X4529937Y10515142D02*
G01*
X4579467Y10515142D01*
X4579467Y10563199D01*
X4578756Y10569549D01*
X4576826Y10574985D01*
X4573778Y10579862D01*
X4569663Y10583976D01*
X4564786Y10587075D01*
X4559300Y10588955D01*
X4553000Y10589666D01*
X4529937Y10589666D01*
G37*
G36*
X4407763Y10515142D02*
G01*
X4457293Y10515142D01*
X4457293Y10589666D01*
X4434230Y10589666D01*
X4427931Y10588955D01*
X4422444Y10587075D01*
X4417568Y10583976D01*
X4413453Y10579862D01*
X4410405Y10574985D01*
X4408474Y10569549D01*
X4407763Y10563199D01*
G37*
G36*
X6080201Y10521594D02*
G01*
X6129731Y10521594D01*
X6129731Y10569651D01*
X6129020Y10576001D01*
X6127140Y10581436D01*
X6124041Y10586313D01*
X6119977Y10590428D01*
X6115050Y10593527D01*
X6109614Y10595406D01*
X6103264Y10596118D01*
X6080201Y10596118D01*
G37*
G36*
X5958027Y10521594D02*
G01*
X6007557Y10521594D01*
X6007557Y10596118D01*
X5984544Y10596118D01*
X5978194Y10595406D01*
X5972759Y10593527D01*
X5967831Y10590428D01*
X5963767Y10586313D01*
X5960668Y10581436D01*
X5958738Y10576001D01*
X5958027Y10569651D01*
G37*
G36*
X3958996Y10642193D02*
G01*
X3972610Y10642600D01*
X3986072Y10644886D01*
X3999077Y10648950D01*
X4011472Y10654690D01*
X4022953Y10662005D01*
X4033367Y10670794D01*
X4042511Y10680954D01*
X4050233Y10692180D01*
X4056379Y10704322D01*
X4060850Y10717225D01*
X4063593Y10730585D01*
X4064508Y10744200D01*
X4063593Y10757814D01*
X4060850Y10771174D01*
X4056379Y10784027D01*
X4050233Y10796219D01*
X4042511Y10807446D01*
X4033367Y10817555D01*
X4022953Y10826394D01*
X4011472Y10833709D01*
X3999077Y10839450D01*
X3986072Y10843514D01*
X3972610Y10845749D01*
X3958996Y10846206D01*
X3945432Y10844885D01*
X3932174Y10841685D01*
X3919423Y10836808D01*
X3907485Y10830255D01*
X3896512Y10822178D01*
X3886708Y10812678D01*
X3878224Y10801959D01*
X3871264Y10790224D01*
X3865981Y10777677D01*
X3862374Y10764520D01*
X3860546Y10751007D01*
X3860546Y10737392D01*
X3862374Y10723880D01*
X3865981Y10710722D01*
X3871264Y10698175D01*
X3878224Y10686440D01*
X3886708Y10675721D01*
X3896512Y10666222D01*
X3907485Y10658144D01*
X3919423Y10651591D01*
X3932174Y10646714D01*
X3945432Y10643514D01*
G37*
G36*
X6486296Y10654893D02*
G01*
X6499910Y10655300D01*
X6513372Y10657586D01*
X6526377Y10661650D01*
X6538772Y10667390D01*
X6550253Y10674705D01*
X6560667Y10683494D01*
X6569811Y10693654D01*
X6577533Y10704880D01*
X6583680Y10717022D01*
X6588150Y10729925D01*
X6590893Y10743285D01*
X6591808Y10756900D01*
X6590893Y10770514D01*
X6588150Y10783874D01*
X6583680Y10796727D01*
X6577533Y10808919D01*
X6569811Y10820146D01*
X6560667Y10830255D01*
X6550253Y10839094D01*
X6538772Y10846409D01*
X6526377Y10852150D01*
X6513372Y10856214D01*
X6499910Y10858449D01*
X6486296Y10858906D01*
X6472732Y10857585D01*
X6459474Y10854385D01*
X6446723Y10849508D01*
X6434785Y10842955D01*
X6423812Y10834878D01*
X6414008Y10825378D01*
X6405524Y10814659D01*
X6398564Y10802924D01*
X6393281Y10790377D01*
X6389674Y10777220D01*
X6387846Y10763707D01*
X6387846Y10750092D01*
X6389674Y10736580D01*
X6393281Y10723422D01*
X6398564Y10710875D01*
X6405524Y10699140D01*
X6414008Y10688421D01*
X6423812Y10678922D01*
X6434785Y10670844D01*
X6446723Y10664291D01*
X6459474Y10659414D01*
X6472732Y10656214D01*
G37*
G36*
X1143000Y10709605D02*
G01*
X1162913Y10710519D01*
X1182674Y10713262D01*
X1202080Y10717834D01*
X1220978Y10724184D01*
X1239215Y10732262D01*
X1256639Y10741964D01*
X1273098Y10753191D01*
X1288440Y10765942D01*
X1302562Y10780064D01*
X1315313Y10795406D01*
X1326540Y10811865D01*
X1336243Y10829290D01*
X1344320Y10847527D01*
X1350670Y10866424D01*
X1355242Y10885830D01*
X1357985Y10905591D01*
X1358900Y10925759D01*
X1358900Y11045240D01*
X1357985Y11065408D01*
X1355242Y11085169D01*
X1350670Y11104575D01*
X1344320Y11123472D01*
X1336243Y11141710D01*
X1326540Y11159134D01*
X1315313Y11175593D01*
X1302562Y11190935D01*
X1288440Y11205057D01*
X1273098Y11217808D01*
X1256639Y11229035D01*
X1239215Y11238738D01*
X1220978Y11246815D01*
X1202080Y11253165D01*
X1182674Y11257737D01*
X1162913Y11260480D01*
X1143000Y11261394D01*
X1123086Y11260480D01*
X1103325Y11257737D01*
X1083919Y11253165D01*
X1065022Y11246815D01*
X1046784Y11238738D01*
X1029360Y11229035D01*
X1012901Y11217808D01*
X997559Y11205057D01*
X983437Y11190935D01*
X970686Y11175593D01*
X959459Y11159134D01*
X949756Y11141710D01*
X941679Y11123472D01*
X935329Y11104575D01*
X930757Y11085169D01*
X928014Y11065408D01*
X927100Y11045240D01*
X927100Y10925759D01*
X928014Y10905591D01*
X930757Y10885830D01*
X935329Y10866424D01*
X941679Y10847527D01*
X949756Y10829290D01*
X959459Y10811865D01*
X970686Y10795406D01*
X983437Y10780064D01*
X997559Y10765942D01*
X1012901Y10753191D01*
X1029360Y10741964D01*
X1046784Y10732262D01*
X1065022Y10724184D01*
X1083919Y10717834D01*
X1103325Y10713262D01*
X1123086Y10710519D01*
G37*
G36*
X3238500Y10709605D02*
G01*
X3258413Y10710519D01*
X3278174Y10713262D01*
X3297580Y10717834D01*
X3316478Y10724184D01*
X3334715Y10732262D01*
X3352139Y10741964D01*
X3368598Y10753191D01*
X3383940Y10765942D01*
X3398062Y10780064D01*
X3410813Y10795406D01*
X3422040Y10811865D01*
X3431743Y10829290D01*
X3439820Y10847527D01*
X3446170Y10866424D01*
X3450742Y10885830D01*
X3453485Y10905591D01*
X3454400Y10925759D01*
X3454400Y11045240D01*
X3453485Y11065408D01*
X3450742Y11085169D01*
X3446170Y11104575D01*
X3439820Y11123472D01*
X3431743Y11141710D01*
X3422040Y11159134D01*
X3410813Y11175593D01*
X3398062Y11190935D01*
X3383940Y11205057D01*
X3368598Y11217808D01*
X3352139Y11229035D01*
X3334715Y11238738D01*
X3316478Y11246815D01*
X3297580Y11253165D01*
X3278174Y11257737D01*
X3258413Y11260480D01*
X3238500Y11261394D01*
X3218586Y11260480D01*
X3198825Y11257737D01*
X3179419Y11253165D01*
X3160522Y11246815D01*
X3142284Y11238738D01*
X3124860Y11229035D01*
X3108401Y11217808D01*
X3093059Y11205057D01*
X3078937Y11190935D01*
X3066186Y11175593D01*
X3054959Y11159134D01*
X3045256Y11141710D01*
X3037179Y11123472D01*
X3030829Y11104575D01*
X3026257Y11085169D01*
X3023514Y11065408D01*
X3022600Y11045240D01*
X3022600Y10925759D01*
X3023514Y10905591D01*
X3026257Y10885830D01*
X3030829Y10866424D01*
X3037179Y10847527D01*
X3045256Y10829290D01*
X3054959Y10811865D01*
X3066186Y10795406D01*
X3078937Y10780064D01*
X3093059Y10765942D01*
X3108401Y10753191D01*
X3124860Y10741964D01*
X3142284Y10732262D01*
X3160522Y10724184D01*
X3179419Y10717834D01*
X3198825Y10713262D01*
X3218586Y10710519D01*
G37*
G36*
X3958996Y10896193D02*
G01*
X3972610Y10896600D01*
X3986072Y10898886D01*
X3999077Y10902950D01*
X4011472Y10908690D01*
X4022953Y10916005D01*
X4033367Y10924794D01*
X4042511Y10934954D01*
X4050233Y10946180D01*
X4056379Y10958322D01*
X4060850Y10971225D01*
X4063593Y10984585D01*
X4064508Y10998200D01*
X4063593Y11011814D01*
X4060850Y11025174D01*
X4056379Y11038027D01*
X4050233Y11050219D01*
X4042511Y11061446D01*
X4033367Y11071555D01*
X4022953Y11080394D01*
X4011472Y11087709D01*
X3999077Y11093450D01*
X3986072Y11097514D01*
X3972610Y11099749D01*
X3958996Y11100206D01*
X3945432Y11098885D01*
X3932174Y11095685D01*
X3919423Y11090808D01*
X3907485Y11084255D01*
X3896512Y11076178D01*
X3886708Y11066678D01*
X3878224Y11055959D01*
X3871264Y11044224D01*
X3865981Y11031677D01*
X3862374Y11018520D01*
X3860546Y11005007D01*
X3860546Y10991392D01*
X3862374Y10977880D01*
X3865981Y10964722D01*
X3871264Y10952175D01*
X3878224Y10940440D01*
X3886708Y10929721D01*
X3896512Y10920222D01*
X3907485Y10912144D01*
X3919423Y10905591D01*
X3932174Y10900714D01*
X3945432Y10897514D01*
G37*
G36*
X6486296Y10908893D02*
G01*
X6499910Y10909300D01*
X6513372Y10911586D01*
X6526377Y10915650D01*
X6538772Y10921390D01*
X6550253Y10928705D01*
X6560667Y10937494D01*
X6569811Y10947654D01*
X6577533Y10958880D01*
X6583680Y10971022D01*
X6588150Y10983925D01*
X6590893Y10997285D01*
X6591808Y11010900D01*
X6590893Y11024514D01*
X6588150Y11037874D01*
X6583680Y11050727D01*
X6577533Y11062919D01*
X6569811Y11074146D01*
X6560667Y11084255D01*
X6550253Y11093094D01*
X6538772Y11100409D01*
X6526377Y11106150D01*
X6513372Y11110214D01*
X6499910Y11112449D01*
X6486296Y11112906D01*
X6472732Y11111585D01*
X6459474Y11108385D01*
X6446723Y11103508D01*
X6434785Y11096955D01*
X6423812Y11088878D01*
X6414008Y11079378D01*
X6405524Y11068659D01*
X6398564Y11056924D01*
X6393281Y11044377D01*
X6389674Y11031220D01*
X6387846Y11017707D01*
X6387846Y11004092D01*
X6389674Y10990580D01*
X6393281Y10977422D01*
X6398564Y10964875D01*
X6405524Y10953140D01*
X6414008Y10942421D01*
X6423812Y10932922D01*
X6434785Y10924844D01*
X6446723Y10918291D01*
X6459474Y10913414D01*
X6472732Y10910214D01*
G37*
G36*
X3632200Y11022228D02*
G01*
X3645814Y11023142D01*
X3659174Y11025835D01*
X3672078Y11030305D01*
X3684219Y11036452D01*
X3695446Y11044174D01*
X3705606Y11053318D01*
X3714394Y11063732D01*
X3721709Y11075212D01*
X3727450Y11087608D01*
X3731514Y11100612D01*
X3733749Y11114074D01*
X3734206Y11127689D01*
X3732885Y11141252D01*
X3729685Y11154562D01*
X3724808Y11167262D01*
X3718255Y11179200D01*
X3710178Y11190224D01*
X3700678Y11200028D01*
X3689959Y11208461D01*
X3678224Y11215420D01*
X3665677Y11220754D01*
X3652520Y11224310D01*
X3639007Y11226139D01*
X3625392Y11226139D01*
X3611879Y11224310D01*
X3598722Y11220754D01*
X3586175Y11215420D01*
X3574440Y11208461D01*
X3563721Y11200028D01*
X3554222Y11190224D01*
X3546144Y11179200D01*
X3539591Y11167262D01*
X3534714Y11154562D01*
X3531514Y11141252D01*
X3530193Y11127689D01*
X3530650Y11114074D01*
X3532886Y11100612D01*
X3536950Y11087608D01*
X3542690Y11075212D01*
X3550005Y11063732D01*
X3558794Y11053318D01*
X3568954Y11044174D01*
X3580180Y11036452D01*
X3592322Y11030305D01*
X3605225Y11025835D01*
X3618585Y11023142D01*
G37*
G36*
X3958996Y11150193D02*
G01*
X3972610Y11150600D01*
X3986072Y11152886D01*
X3999077Y11156950D01*
X4011472Y11162690D01*
X4022953Y11170005D01*
X4033367Y11178794D01*
X4042511Y11188954D01*
X4050233Y11200180D01*
X4056379Y11212322D01*
X4060850Y11225225D01*
X4063593Y11238585D01*
X4064508Y11252200D01*
X4063593Y11265814D01*
X4060850Y11279174D01*
X4056379Y11292027D01*
X4050233Y11304219D01*
X4042511Y11315446D01*
X4033367Y11325555D01*
X4022953Y11334394D01*
X4011472Y11341709D01*
X3999077Y11347450D01*
X3986072Y11351514D01*
X3972610Y11353749D01*
X3958996Y11354206D01*
X3945432Y11352885D01*
X3932174Y11349685D01*
X3919423Y11344808D01*
X3907485Y11338255D01*
X3896512Y11330178D01*
X3886708Y11320678D01*
X3878224Y11309959D01*
X3871264Y11298224D01*
X3865981Y11285677D01*
X3862374Y11272520D01*
X3860546Y11259007D01*
X3860546Y11245392D01*
X3862374Y11231880D01*
X3865981Y11218722D01*
X3871264Y11206175D01*
X3878224Y11194440D01*
X3886708Y11183721D01*
X3896512Y11174222D01*
X3907485Y11166144D01*
X3919423Y11159591D01*
X3932174Y11154714D01*
X3945432Y11151514D01*
G37*
G36*
X6486296Y11162893D02*
G01*
X6499910Y11163300D01*
X6513372Y11165586D01*
X6526377Y11169650D01*
X6538772Y11175390D01*
X6550253Y11182705D01*
X6560667Y11191494D01*
X6569811Y11201654D01*
X6577533Y11212880D01*
X6583680Y11225022D01*
X6588150Y11237925D01*
X6590893Y11251285D01*
X6591808Y11264900D01*
X6590893Y11278514D01*
X6588150Y11291874D01*
X6583680Y11304727D01*
X6577533Y11316919D01*
X6569811Y11328146D01*
X6560667Y11338255D01*
X6550253Y11347094D01*
X6538772Y11354409D01*
X6526377Y11360150D01*
X6513372Y11364214D01*
X6499910Y11366449D01*
X6486296Y11366906D01*
X6472732Y11365585D01*
X6459474Y11362385D01*
X6446723Y11357508D01*
X6434785Y11350955D01*
X6423812Y11342878D01*
X6414008Y11333378D01*
X6405524Y11322659D01*
X6398564Y11310924D01*
X6393281Y11298377D01*
X6389674Y11285220D01*
X6387846Y11271707D01*
X6387846Y11258092D01*
X6389674Y11244580D01*
X6393281Y11231422D01*
X6398564Y11218875D01*
X6405524Y11207140D01*
X6414008Y11196421D01*
X6423812Y11186922D01*
X6434785Y11178844D01*
X6446723Y11172291D01*
X6459474Y11167414D01*
X6472732Y11164214D01*
G37*
G36*
X3632200Y11265306D02*
G01*
X3645814Y11266220D01*
X3659174Y11268913D01*
X3672078Y11273434D01*
X3684219Y11279581D01*
X3695446Y11287302D01*
X3705606Y11296446D01*
X3714394Y11306860D01*
X3721709Y11318341D01*
X3727450Y11330686D01*
X3731514Y11343741D01*
X3733749Y11357152D01*
X3734206Y11370818D01*
X3732885Y11384381D01*
X3729685Y11397640D01*
X3724808Y11410391D01*
X3718255Y11422329D01*
X3710178Y11433302D01*
X3700678Y11443106D01*
X3689959Y11451539D01*
X3678224Y11458498D01*
X3665677Y11463832D01*
X3652520Y11467439D01*
X3639007Y11469268D01*
X3625392Y11469268D01*
X3611879Y11467439D01*
X3598722Y11463832D01*
X3586175Y11458498D01*
X3574440Y11451539D01*
X3563721Y11443106D01*
X3554222Y11433302D01*
X3546144Y11422329D01*
X3539591Y11410391D01*
X3534714Y11397640D01*
X3531514Y11384381D01*
X3530193Y11370818D01*
X3530650Y11357152D01*
X3532886Y11343741D01*
X3536950Y11330686D01*
X3542690Y11318341D01*
X3550005Y11306860D01*
X3558794Y11296446D01*
X3568954Y11287302D01*
X3580180Y11279581D01*
X3592322Y11273434D01*
X3605225Y11268913D01*
X3618585Y11266220D01*
G37*
G36*
X4530191Y11324437D02*
G01*
X4553254Y11324437D01*
X4559604Y11325148D01*
X4565040Y11327079D01*
X4569968Y11330178D01*
X4574032Y11334242D01*
X4577130Y11339169D01*
X4579010Y11344605D01*
X4579721Y11350955D01*
X4579721Y11378996D01*
X4530191Y11378996D01*
G37*
G36*
X4434535Y11324437D02*
G01*
X4457547Y11324437D01*
X4457547Y11378996D01*
X4408017Y11378996D01*
X4408017Y11350955D01*
X4408728Y11344605D01*
X4410659Y11339169D01*
X4413758Y11334242D01*
X4417822Y11330178D01*
X4422749Y11327079D01*
X4428185Y11325148D01*
G37*
G36*
X5884113Y11325047D02*
G01*
X5917234Y11325047D01*
X5917234Y11379606D01*
X5857646Y11379606D01*
X5857646Y11351564D01*
X5858357Y11345214D01*
X5860288Y11339779D01*
X5863336Y11334851D01*
X5867450Y11330787D01*
X5872327Y11327688D01*
X5877814Y11325758D01*
G37*
G36*
X6009894Y11325047D02*
G01*
X6043015Y11325047D01*
X6049314Y11325758D01*
X6054750Y11327688D01*
X6059678Y11330787D01*
X6063742Y11334851D01*
X6066840Y11339779D01*
X6068771Y11345214D01*
X6069482Y11351564D01*
X6069482Y11379606D01*
X6009894Y11379606D01*
G37*
G36*
X3958996Y11404193D02*
G01*
X3972610Y11404600D01*
X3986072Y11406886D01*
X3999077Y11410950D01*
X4011472Y11416690D01*
X4022953Y11424005D01*
X4033367Y11432794D01*
X4042511Y11442954D01*
X4050233Y11454180D01*
X4056379Y11466322D01*
X4060850Y11479225D01*
X4063593Y11492585D01*
X4064508Y11506200D01*
X4063593Y11519814D01*
X4060850Y11533174D01*
X4056379Y11546027D01*
X4050233Y11558219D01*
X4042511Y11569446D01*
X4033367Y11579555D01*
X4022953Y11588394D01*
X4011472Y11595709D01*
X3999077Y11601450D01*
X3986072Y11605514D01*
X3972610Y11607749D01*
X3958996Y11608206D01*
X3945432Y11606885D01*
X3941521Y11605920D01*
X3938066Y11605717D01*
X3934764Y11606631D01*
X3931970Y11608612D01*
X3863898Y11676735D01*
X3861663Y11679986D01*
X3860901Y11683898D01*
X3860901Y11695125D01*
X3861765Y11699189D01*
X3864152Y11702542D01*
X3867759Y11704726D01*
X3871874Y11705234D01*
X3875836Y11704066D01*
X3879037Y11701424D01*
X3886708Y11691721D01*
X3896512Y11682222D01*
X3907485Y11674144D01*
X3917950Y11668404D01*
X3917950Y11715750D01*
X3871061Y11715750D01*
X3867200Y11716512D01*
X3863898Y11718747D01*
X3861663Y11721998D01*
X3860901Y11725910D01*
X3860901Y11794490D01*
X3861663Y11798350D01*
X3863898Y11801652D01*
X3867200Y11803888D01*
X3871061Y11804650D01*
X3917950Y11804650D01*
X3917950Y11851995D01*
X3907485Y11846255D01*
X3896512Y11838178D01*
X3886708Y11828678D01*
X3879037Y11818975D01*
X3875836Y11816334D01*
X3871874Y11815165D01*
X3867759Y11815673D01*
X3864152Y11817807D01*
X3861765Y11821210D01*
X3860901Y11825274D01*
X3860901Y11949125D01*
X3861765Y11953189D01*
X3864152Y11956542D01*
X3867759Y11958726D01*
X3871874Y11959234D01*
X3875836Y11958066D01*
X3879037Y11955424D01*
X3886708Y11945721D01*
X3896512Y11936222D01*
X3907485Y11928144D01*
X3919423Y11921591D01*
X3932174Y11916714D01*
X3945432Y11913514D01*
X3958996Y11912193D01*
X3972610Y11912600D01*
X3986072Y11914886D01*
X3999077Y11918950D01*
X4011472Y11924690D01*
X4022953Y11932005D01*
X4033367Y11940794D01*
X4042511Y11950954D01*
X4050233Y11962180D01*
X4056379Y11974322D01*
X4060850Y11987225D01*
X4063593Y12000585D01*
X4064508Y12014200D01*
X4063593Y12027814D01*
X4060850Y12041174D01*
X4056379Y12054027D01*
X4050233Y12066219D01*
X4042511Y12077446D01*
X4033367Y12087555D01*
X4022953Y12096394D01*
X4011472Y12103709D01*
X3999077Y12109450D01*
X3986072Y12113514D01*
X3972610Y12115749D01*
X3958996Y12116206D01*
X3945432Y12114885D01*
X3932174Y12111685D01*
X3919423Y12106808D01*
X3907485Y12100255D01*
X3896512Y12092178D01*
X3886708Y12082678D01*
X3879037Y12072975D01*
X3875836Y12070334D01*
X3871874Y12069165D01*
X3867759Y12069673D01*
X3864152Y12071807D01*
X3861765Y12075210D01*
X3860901Y12079274D01*
X3860901Y12203125D01*
X3861765Y12207189D01*
X3864152Y12210542D01*
X3867759Y12212726D01*
X3871874Y12213234D01*
X3875836Y12212066D01*
X3879037Y12209424D01*
X3886708Y12199721D01*
X3896512Y12190222D01*
X3907485Y12182144D01*
X3919423Y12175591D01*
X3932174Y12170714D01*
X3945432Y12167514D01*
X3958996Y12166193D01*
X3972610Y12166600D01*
X3986072Y12168886D01*
X3999077Y12172950D01*
X4011472Y12178690D01*
X4022953Y12186005D01*
X4033367Y12194794D01*
X4042511Y12204954D01*
X4050233Y12216180D01*
X4056379Y12228322D01*
X4060850Y12241225D01*
X4063593Y12254585D01*
X4064508Y12268200D01*
X4063593Y12281814D01*
X4060850Y12295174D01*
X4056379Y12308027D01*
X4050233Y12320219D01*
X4042511Y12331446D01*
X4033367Y12341555D01*
X4022953Y12350394D01*
X4011472Y12357709D01*
X3999077Y12363450D01*
X3986072Y12367514D01*
X3972610Y12369749D01*
X3958996Y12370206D01*
X3945432Y12368885D01*
X3932174Y12365685D01*
X3919423Y12360808D01*
X3907485Y12354255D01*
X3896512Y12346178D01*
X3886708Y12336678D01*
X3879037Y12326975D01*
X3875836Y12324334D01*
X3871874Y12323165D01*
X3867759Y12323673D01*
X3864152Y12325807D01*
X3861765Y12329210D01*
X3860901Y12333274D01*
X3860901Y12457125D01*
X3861765Y12461189D01*
X3864152Y12464542D01*
X3867759Y12466726D01*
X3871874Y12467234D01*
X3875836Y12466066D01*
X3879037Y12463424D01*
X3886708Y12453721D01*
X3896512Y12444222D01*
X3907485Y12436144D01*
X3919423Y12429591D01*
X3932174Y12424714D01*
X3945432Y12421514D01*
X3958996Y12420193D01*
X3972610Y12420600D01*
X3986072Y12422886D01*
X3999077Y12426950D01*
X4011472Y12432690D01*
X4022953Y12440005D01*
X4033367Y12448794D01*
X4042511Y12458954D01*
X4050233Y12470180D01*
X4056379Y12482322D01*
X4060850Y12495225D01*
X4063593Y12508585D01*
X4064508Y12522200D01*
X4063593Y12535814D01*
X4060850Y12549174D01*
X4056379Y12562027D01*
X4050233Y12574219D01*
X4042511Y12585446D01*
X4033367Y12595555D01*
X4022953Y12604394D01*
X4011472Y12611709D01*
X3999077Y12617450D01*
X3986072Y12621514D01*
X3972610Y12623749D01*
X3958996Y12624206D01*
X3945432Y12622885D01*
X3932174Y12619685D01*
X3919423Y12614808D01*
X3907485Y12608255D01*
X3896512Y12600178D01*
X3886708Y12590678D01*
X3879037Y12580975D01*
X3875836Y12578334D01*
X3871874Y12577165D01*
X3867759Y12577673D01*
X3864152Y12579807D01*
X3861765Y12583210D01*
X3860901Y12587274D01*
X3860901Y12711125D01*
X3861765Y12715189D01*
X3864152Y12718542D01*
X3867759Y12720726D01*
X3871874Y12721234D01*
X3875836Y12720066D01*
X3879037Y12717424D01*
X3886708Y12707721D01*
X3896512Y12698222D01*
X3907485Y12690144D01*
X3919423Y12683591D01*
X3932174Y12678714D01*
X3945432Y12675514D01*
X3958996Y12674193D01*
X3972610Y12674600D01*
X3986072Y12676886D01*
X3999077Y12680950D01*
X4011472Y12686690D01*
X4022953Y12694005D01*
X4033367Y12702794D01*
X4042511Y12712954D01*
X4050233Y12724180D01*
X4056379Y12736322D01*
X4060850Y12749225D01*
X4063593Y12762585D01*
X4064508Y12776200D01*
X4063593Y12789814D01*
X4060850Y12803174D01*
X4056379Y12816027D01*
X4050233Y12828219D01*
X4042511Y12839446D01*
X4033367Y12849555D01*
X4022953Y12858394D01*
X4011472Y12865709D01*
X3999077Y12871450D01*
X3986072Y12875514D01*
X3972610Y12877749D01*
X3958996Y12878206D01*
X3945432Y12876885D01*
X3932174Y12873685D01*
X3919423Y12868808D01*
X3907485Y12862255D01*
X3896512Y12854178D01*
X3886708Y12844678D01*
X3879037Y12834975D01*
X3875836Y12832334D01*
X3871874Y12831165D01*
X3867759Y12831673D01*
X3864152Y12833807D01*
X3861765Y12837210D01*
X3860901Y12841274D01*
X3860901Y12965125D01*
X3861765Y12969189D01*
X3864152Y12972542D01*
X3867759Y12974726D01*
X3871874Y12975234D01*
X3875836Y12974066D01*
X3879037Y12971424D01*
X3886708Y12961721D01*
X3896512Y12952222D01*
X3907485Y12944144D01*
X3919423Y12937591D01*
X3932174Y12932714D01*
X3945432Y12929514D01*
X3958996Y12928193D01*
X3972610Y12928600D01*
X3986072Y12930886D01*
X3999077Y12934950D01*
X4011472Y12940690D01*
X4022953Y12948005D01*
X4033367Y12956794D01*
X4042511Y12966954D01*
X4047947Y12974878D01*
X4050233Y12977266D01*
X4053128Y12978790D01*
X4056329Y12979298D01*
X4343501Y12979298D01*
X4347413Y12978536D01*
X4350664Y12976301D01*
X4378401Y12948564D01*
X4380636Y12945313D01*
X4381398Y12941401D01*
X4381398Y12763703D01*
X4381601Y12759080D01*
X4382160Y12754660D01*
X4383125Y12750342D01*
X4384446Y12746075D01*
X4386173Y12742011D01*
X4388205Y12738049D01*
X4390593Y12734290D01*
X4393285Y12730784D01*
X4396435Y12727330D01*
X4485030Y12638735D01*
X4488484Y12635585D01*
X4491990Y12632893D01*
X4495749Y12630505D01*
X4499711Y12628473D01*
X4503775Y12626746D01*
X4508042Y12625425D01*
X4512360Y12624460D01*
X4516780Y12623901D01*
X4521403Y12623698D01*
X4889296Y12623698D01*
X4893919Y12623901D01*
X4898339Y12624460D01*
X4902657Y12625425D01*
X4906924Y12626746D01*
X4910988Y12628473D01*
X4914950Y12630505D01*
X4918710Y12632893D01*
X4922215Y12635585D01*
X4925669Y12638735D01*
X5001564Y12714630D01*
X5004714Y12718084D01*
X5007406Y12721590D01*
X5009794Y12725349D01*
X5011826Y12729311D01*
X5013553Y12733375D01*
X5014874Y12737642D01*
X5015839Y12741960D01*
X5016398Y12746380D01*
X5016601Y12751003D01*
X5016601Y12775692D01*
X5017566Y12780010D01*
X5018633Y12782346D01*
X5021173Y12791795D01*
X5022037Y12801600D01*
X5021173Y12811404D01*
X5018633Y12820853D01*
X5014518Y12829794D01*
X5008880Y12837820D01*
X5001920Y12844780D01*
X4993894Y12850418D01*
X4984953Y12854533D01*
X4975504Y12857073D01*
X4965700Y12857937D01*
X4955895Y12857073D01*
X4946446Y12854533D01*
X4937506Y12850418D01*
X4929479Y12844780D01*
X4922520Y12837820D01*
X4916881Y12829794D01*
X4912766Y12820853D01*
X4910226Y12811404D01*
X4909362Y12801600D01*
X4910226Y12791795D01*
X4912766Y12782346D01*
X4913731Y12780264D01*
X4914646Y12776250D01*
X4913934Y12772237D01*
X4911699Y12768783D01*
X4871364Y12728498D01*
X4868113Y12726263D01*
X4864201Y12725501D01*
X4760569Y12725501D01*
X4756251Y12726466D01*
X4752746Y12729210D01*
X4750714Y12733223D01*
X4750612Y12737642D01*
X4752441Y12741706D01*
X4755794Y12744653D01*
X4764176Y12749072D01*
X4779213Y12759182D01*
X4793081Y12770815D01*
X4805730Y12783769D01*
X4816957Y12797942D01*
X4826711Y12813233D01*
X4834788Y12829438D01*
X4841189Y12846405D01*
X4845761Y12863880D01*
X4848555Y12881762D01*
X4849520Y12899847D01*
X4848555Y12917932D01*
X4845761Y12935864D01*
X4841189Y12953339D01*
X4834788Y12970306D01*
X4826711Y12986512D01*
X4816957Y13001802D01*
X4805730Y13015976D01*
X4793081Y13028930D01*
X4779213Y13040563D01*
X4764176Y13050672D01*
X4748174Y13059156D01*
X4731410Y13065963D01*
X4714036Y13071043D01*
X4696206Y13074294D01*
X4678172Y13075716D01*
X4660036Y13075208D01*
X4642104Y13072922D01*
X4624476Y13068757D01*
X4607356Y13062813D01*
X4590948Y13055092D01*
X4575454Y13045795D01*
X4560976Y13034924D01*
X4547666Y13022630D01*
X4535728Y13009016D01*
X4525213Y12994284D01*
X4516323Y12978485D01*
X4509058Y12961924D01*
X4503521Y12944652D01*
X4501591Y12939725D01*
X4498492Y12936880D01*
X4494428Y12935559D01*
X4490262Y12935966D01*
X4486554Y12938099D01*
X4484065Y12941503D01*
X4483201Y12945668D01*
X4483201Y12966496D01*
X4482998Y12971119D01*
X4482439Y12975539D01*
X4481474Y12979857D01*
X4480153Y12984124D01*
X4478426Y12988188D01*
X4476394Y12992150D01*
X4474006Y12995910D01*
X4471314Y12999415D01*
X4468164Y13002869D01*
X4404969Y13066064D01*
X4401515Y13069214D01*
X4398010Y13071906D01*
X4394250Y13074294D01*
X4390288Y13076326D01*
X4386224Y13078053D01*
X4381957Y13079374D01*
X4377639Y13080339D01*
X4373219Y13080898D01*
X4360621Y13081203D01*
X4356760Y13082066D01*
X4353509Y13084251D01*
X4351375Y13087553D01*
X4350613Y13091413D01*
X4351375Y13095274D01*
X4353610Y13098576D01*
X4361129Y13106095D01*
X4367479Y13115290D01*
X4370273Y13118033D01*
X4373880Y13119506D01*
X4377740Y13119506D01*
X4381347Y13118084D01*
X4384192Y13115391D01*
X4389120Y13108279D01*
X4396079Y13101319D01*
X4404106Y13095681D01*
X4413046Y13091566D01*
X4422495Y13089026D01*
X4432300Y13088162D01*
X4442104Y13089026D01*
X4451553Y13091566D01*
X4460494Y13095681D01*
X4468520Y13101319D01*
X4475480Y13108279D01*
X4481118Y13116306D01*
X4485233Y13125246D01*
X4487773Y13134695D01*
X4488637Y13144500D01*
X4487773Y13154304D01*
X4485233Y13163753D01*
X4484166Y13166090D01*
X4483201Y13170407D01*
X4483201Y13664692D01*
X4484166Y13669010D01*
X4485233Y13671346D01*
X4487773Y13680795D01*
X4488637Y13690600D01*
X4487773Y13700404D01*
X4485233Y13709853D01*
X4481118Y13718794D01*
X4475480Y13726820D01*
X4468520Y13733780D01*
X4460494Y13739418D01*
X4451553Y13743533D01*
X4442104Y13746073D01*
X4432300Y13746937D01*
X4422495Y13746073D01*
X4413046Y13743533D01*
X4404106Y13739418D01*
X4396079Y13733780D01*
X4389120Y13726820D01*
X4380941Y13715441D01*
X4377232Y13713409D01*
X4373067Y13713053D01*
X4369054Y13714425D01*
X4366006Y13717320D01*
X4361180Y13724229D01*
X4354220Y13731138D01*
X4346194Y13736777D01*
X4337253Y13740942D01*
X4327804Y13743482D01*
X4318000Y13744346D01*
X4308195Y13743482D01*
X4298746Y13740942D01*
X4289806Y13736777D01*
X4281779Y13731138D01*
X4274820Y13724229D01*
X4269181Y13716152D01*
X4265066Y13707262D01*
X4264660Y13705840D01*
X4262628Y13701928D01*
X4259122Y13699236D01*
X4254855Y13698270D01*
X4250537Y13699236D01*
X4247083Y13701928D01*
X4245051Y13705840D01*
X4243933Y13709853D01*
X4239818Y13718794D01*
X4234180Y13726820D01*
X4227220Y13733780D01*
X4219194Y13739418D01*
X4210253Y13743533D01*
X4200804Y13746073D01*
X4191000Y13746937D01*
X4181195Y13746073D01*
X4171746Y13743533D01*
X4162806Y13739418D01*
X4154779Y13733780D01*
X4147820Y13726820D01*
X4142181Y13718794D01*
X4138066Y13709853D01*
X4135526Y13700404D01*
X4134662Y13690600D01*
X4135526Y13680795D01*
X4138066Y13671346D01*
X4139133Y13669010D01*
X4140098Y13664692D01*
X4140098Y13170407D01*
X4139133Y13166090D01*
X4138066Y13163753D01*
X4135526Y13154304D01*
X4134662Y13144500D01*
X4135526Y13134695D01*
X4138066Y13125246D01*
X4142181Y13116306D01*
X4147820Y13108279D01*
X4154779Y13101319D01*
X4157268Y13099592D01*
X4160164Y13096494D01*
X4161536Y13092430D01*
X4161129Y13088213D01*
X4159046Y13084505D01*
X4155592Y13082015D01*
X4151426Y13081101D01*
X4056329Y13081101D01*
X4053128Y13081609D01*
X4050233Y13083133D01*
X4047947Y13085521D01*
X4042511Y13093446D01*
X4033367Y13103555D01*
X4022953Y13112394D01*
X4011472Y13119709D01*
X3999077Y13125450D01*
X3986072Y13129513D01*
X3972610Y13131749D01*
X3958996Y13132206D01*
X3945432Y13130885D01*
X3932174Y13127685D01*
X3919423Y13122808D01*
X3907485Y13116255D01*
X3896512Y13108178D01*
X3886708Y13098678D01*
X3879037Y13088975D01*
X3875836Y13086334D01*
X3871874Y13085165D01*
X3867759Y13085673D01*
X3864152Y13087807D01*
X3861765Y13091210D01*
X3860901Y13095274D01*
X3860901Y13219125D01*
X3861765Y13223189D01*
X3864152Y13226542D01*
X3867759Y13228726D01*
X3871874Y13229234D01*
X3875836Y13228066D01*
X3879037Y13225424D01*
X3886708Y13215721D01*
X3896512Y13206222D01*
X3907485Y13198144D01*
X3919423Y13191591D01*
X3932174Y13186714D01*
X3945432Y13183514D01*
X3958996Y13182193D01*
X3972610Y13182600D01*
X3986072Y13184886D01*
X3999077Y13188950D01*
X4011472Y13194690D01*
X4022953Y13202005D01*
X4033367Y13210794D01*
X4042511Y13220954D01*
X4050233Y13232180D01*
X4056379Y13244322D01*
X4060850Y13257225D01*
X4063593Y13270585D01*
X4064508Y13284200D01*
X4063593Y13297814D01*
X4060850Y13311174D01*
X4056379Y13324027D01*
X4050233Y13336219D01*
X4042511Y13347446D01*
X4033367Y13357555D01*
X4022953Y13366394D01*
X4011472Y13373709D01*
X3999077Y13379450D01*
X3986072Y13383513D01*
X3972610Y13385749D01*
X3958996Y13386206D01*
X3945432Y13384885D01*
X3932174Y13381685D01*
X3919423Y13376808D01*
X3907485Y13370255D01*
X3896512Y13362178D01*
X3886708Y13352678D01*
X3879037Y13342975D01*
X3875836Y13340334D01*
X3871874Y13339165D01*
X3867759Y13339673D01*
X3864152Y13341807D01*
X3861765Y13345210D01*
X3860901Y13349274D01*
X3860901Y13473125D01*
X3861765Y13477189D01*
X3864152Y13480542D01*
X3867759Y13482726D01*
X3871874Y13483234D01*
X3875836Y13482066D01*
X3879037Y13479424D01*
X3886708Y13469721D01*
X3896512Y13460222D01*
X3907485Y13452144D01*
X3919423Y13445591D01*
X3932174Y13440714D01*
X3945432Y13437514D01*
X3958996Y13436193D01*
X3972610Y13436600D01*
X3986072Y13438886D01*
X3999077Y13442950D01*
X4011472Y13448690D01*
X4022953Y13456005D01*
X4033367Y13464794D01*
X4042511Y13474954D01*
X4050233Y13486180D01*
X4056379Y13498322D01*
X4060850Y13511225D01*
X4063593Y13524585D01*
X4064508Y13538200D01*
X4063593Y13551814D01*
X4060850Y13565174D01*
X4056379Y13578027D01*
X4050233Y13590219D01*
X4042511Y13601446D01*
X4033367Y13611555D01*
X4022953Y13620394D01*
X4011472Y13627709D01*
X3999077Y13633450D01*
X3986072Y13637513D01*
X3972610Y13639749D01*
X3958996Y13640206D01*
X3945432Y13638885D01*
X3932174Y13635685D01*
X3919423Y13630808D01*
X3907485Y13624255D01*
X3896512Y13616178D01*
X3886708Y13606678D01*
X3879037Y13596975D01*
X3875836Y13594334D01*
X3871874Y13593165D01*
X3867759Y13593673D01*
X3864152Y13595807D01*
X3861765Y13599210D01*
X3860901Y13603274D01*
X3860901Y13727125D01*
X3861765Y13731189D01*
X3864152Y13734542D01*
X3867759Y13736726D01*
X3871874Y13737234D01*
X3875836Y13736066D01*
X3879037Y13733424D01*
X3886708Y13723721D01*
X3896512Y13714222D01*
X3907485Y13706144D01*
X3919423Y13699591D01*
X3932174Y13694714D01*
X3945432Y13691514D01*
X3958996Y13690193D01*
X3972610Y13690600D01*
X3986072Y13692886D01*
X3999077Y13696950D01*
X4011472Y13702690D01*
X4022953Y13710005D01*
X4033367Y13718794D01*
X4042511Y13728954D01*
X4050233Y13740180D01*
X4056379Y13752322D01*
X4060850Y13765225D01*
X4063593Y13778585D01*
X4064508Y13792200D01*
X4063593Y13805814D01*
X4060850Y13819174D01*
X4056379Y13832027D01*
X4050233Y13844219D01*
X4042511Y13855446D01*
X4033367Y13865555D01*
X4022953Y13874394D01*
X4011472Y13881709D01*
X3999077Y13887450D01*
X3986072Y13891513D01*
X3972610Y13893749D01*
X3958996Y13894206D01*
X3945432Y13892885D01*
X3932174Y13889685D01*
X3919423Y13884808D01*
X3907485Y13878255D01*
X3896512Y13870178D01*
X3886708Y13860678D01*
X3879037Y13850975D01*
X3875836Y13848334D01*
X3871874Y13847165D01*
X3867759Y13847673D01*
X3864152Y13849807D01*
X3861765Y13853210D01*
X3860901Y13857274D01*
X3860901Y13981125D01*
X3861765Y13985189D01*
X3864152Y13988542D01*
X3867759Y13990726D01*
X3871874Y13991234D01*
X3875836Y13990066D01*
X3879037Y13987424D01*
X3886708Y13977721D01*
X3896512Y13968222D01*
X3907485Y13960144D01*
X3919423Y13953591D01*
X3932174Y13948714D01*
X3945432Y13945514D01*
X3958996Y13944193D01*
X3972610Y13944600D01*
X3986072Y13946886D01*
X3999077Y13950950D01*
X4011472Y13956690D01*
X4022953Y13964005D01*
X4033367Y13972794D01*
X4042511Y13982954D01*
X4050233Y13994180D01*
X4056379Y14006322D01*
X4060850Y14019225D01*
X4063593Y14032585D01*
X4064508Y14046200D01*
X4063593Y14059814D01*
X4060850Y14073174D01*
X4056379Y14086027D01*
X4050233Y14098219D01*
X4042511Y14109446D01*
X4033367Y14119555D01*
X4022953Y14128394D01*
X4011472Y14135709D01*
X3999077Y14141450D01*
X3986072Y14145513D01*
X3972610Y14147749D01*
X3958996Y14148206D01*
X3945432Y14146885D01*
X3932174Y14143685D01*
X3919423Y14138808D01*
X3907485Y14132255D01*
X3896512Y14124178D01*
X3886708Y14114678D01*
X3879037Y14104975D01*
X3875836Y14102334D01*
X3871874Y14101165D01*
X3867759Y14101673D01*
X3864152Y14103807D01*
X3861765Y14107210D01*
X3860901Y14111274D01*
X3860901Y14235125D01*
X3861765Y14239189D01*
X3864152Y14242542D01*
X3867759Y14244726D01*
X3871874Y14245234D01*
X3875836Y14244066D01*
X3879037Y14241424D01*
X3886708Y14231721D01*
X3896512Y14222222D01*
X3907485Y14214144D01*
X3919423Y14207591D01*
X3932174Y14202714D01*
X3945432Y14199514D01*
X3958996Y14198193D01*
X3972610Y14198600D01*
X3986072Y14200886D01*
X3999077Y14204950D01*
X4011472Y14210690D01*
X4022953Y14218005D01*
X4033367Y14226794D01*
X4042511Y14236954D01*
X4050233Y14248180D01*
X4056379Y14260322D01*
X4060850Y14273225D01*
X4063593Y14286585D01*
X4064508Y14300200D01*
X4063593Y14313814D01*
X4060850Y14327174D01*
X4056379Y14340027D01*
X4050233Y14352219D01*
X4042511Y14363446D01*
X4033367Y14373555D01*
X4022953Y14382394D01*
X4011472Y14389709D01*
X3999077Y14395450D01*
X3986072Y14399513D01*
X3972610Y14401749D01*
X3958996Y14402206D01*
X3945432Y14400885D01*
X3932174Y14397685D01*
X3919423Y14392808D01*
X3907485Y14386255D01*
X3896512Y14378178D01*
X3886708Y14368678D01*
X3879037Y14358975D01*
X3875836Y14356334D01*
X3871874Y14355165D01*
X3867759Y14355673D01*
X3864152Y14357807D01*
X3861765Y14361210D01*
X3860901Y14365274D01*
X3860901Y14489125D01*
X3861765Y14493189D01*
X3864152Y14496542D01*
X3867759Y14498726D01*
X3871874Y14499234D01*
X3875836Y14498066D01*
X3879037Y14495424D01*
X3886708Y14485721D01*
X3896512Y14476222D01*
X3907485Y14468144D01*
X3919423Y14461591D01*
X3932174Y14456714D01*
X3945432Y14453514D01*
X3958996Y14452193D01*
X3972610Y14452600D01*
X3986072Y14454886D01*
X3999077Y14458950D01*
X4011472Y14464690D01*
X4022953Y14472005D01*
X4033367Y14480794D01*
X4042511Y14490954D01*
X4050233Y14502180D01*
X4056379Y14514322D01*
X4060850Y14527225D01*
X4063593Y14540585D01*
X4064508Y14554200D01*
X4063593Y14567814D01*
X4060850Y14581174D01*
X4056379Y14594027D01*
X4050233Y14606219D01*
X4042511Y14617446D01*
X4033367Y14627555D01*
X4022953Y14636394D01*
X4011472Y14643709D01*
X3999077Y14649450D01*
X3986072Y14653513D01*
X3972610Y14655749D01*
X3958996Y14656206D01*
X3945432Y14654885D01*
X3932174Y14651685D01*
X3919423Y14646808D01*
X3907485Y14640255D01*
X3896512Y14632178D01*
X3886708Y14622678D01*
X3879037Y14612975D01*
X3875836Y14610334D01*
X3871874Y14609165D01*
X3867759Y14609673D01*
X3864152Y14611807D01*
X3861765Y14615210D01*
X3860901Y14619274D01*
X3860901Y14743125D01*
X3861765Y14747189D01*
X3864152Y14750542D01*
X3867759Y14752726D01*
X3871874Y14753234D01*
X3875836Y14752066D01*
X3879037Y14749424D01*
X3886708Y14739721D01*
X3896512Y14730222D01*
X3907485Y14722144D01*
X3919423Y14715591D01*
X3932174Y14710714D01*
X3945432Y14707514D01*
X3958996Y14706193D01*
X3972610Y14706600D01*
X3986072Y14708886D01*
X3999077Y14712950D01*
X4011472Y14718690D01*
X4022953Y14726005D01*
X4033367Y14734794D01*
X4042511Y14744954D01*
X4050233Y14756180D01*
X4056379Y14768322D01*
X4060850Y14781225D01*
X4063593Y14794585D01*
X4064508Y14808200D01*
X4063593Y14821814D01*
X4060850Y14835174D01*
X4056379Y14848027D01*
X4050233Y14860219D01*
X4042511Y14871446D01*
X4033367Y14881555D01*
X4022953Y14890394D01*
X4011472Y14897709D01*
X3999077Y14903450D01*
X3986072Y14907513D01*
X3972610Y14909749D01*
X3958996Y14910206D01*
X3945432Y14908885D01*
X3932174Y14905685D01*
X3919423Y14900808D01*
X3907485Y14894255D01*
X3896512Y14886178D01*
X3886708Y14876678D01*
X3879037Y14866975D01*
X3875836Y14864334D01*
X3871874Y14863165D01*
X3867759Y14863673D01*
X3864152Y14865807D01*
X3861765Y14869210D01*
X3860901Y14873274D01*
X3860901Y14960396D01*
X3860698Y14965019D01*
X3860139Y14969439D01*
X3859174Y14973757D01*
X3857853Y14978024D01*
X3856126Y14982088D01*
X3854094Y14986050D01*
X3851706Y14989810D01*
X3849014Y14993315D01*
X3845864Y14996769D01*
X3698798Y15143835D01*
X3696563Y15147086D01*
X3695801Y15150998D01*
X3695801Y15367101D01*
X3696563Y15371013D01*
X3698798Y15374264D01*
X4005376Y15680893D01*
X4008272Y15682925D01*
X4015994Y15686481D01*
X4024020Y15692119D01*
X4030979Y15699079D01*
X4036618Y15707106D01*
X4040733Y15716046D01*
X4043273Y15725495D01*
X4044137Y15735300D01*
X4043273Y15745104D01*
X4040733Y15754553D01*
X4036618Y15763494D01*
X4030979Y15771520D01*
X4024020Y15778480D01*
X4015994Y15784118D01*
X4007053Y15788233D01*
X3997604Y15790773D01*
X3987800Y15791637D01*
X3977995Y15790773D01*
X3968546Y15788233D01*
X3959606Y15784118D01*
X3951579Y15778480D01*
X3944620Y15771520D01*
X3938981Y15763494D01*
X3935425Y15755772D01*
X3933393Y15752876D01*
X3609035Y15428569D01*
X3605885Y15425115D01*
X3603193Y15421610D01*
X3600805Y15417850D01*
X3598773Y15413888D01*
X3597046Y15409824D01*
X3595725Y15405557D01*
X3594760Y15401239D01*
X3594201Y15396819D01*
X3593998Y15392196D01*
X3593998Y15125903D01*
X3594201Y15121280D01*
X3594760Y15116860D01*
X3595725Y15112542D01*
X3597046Y15108275D01*
X3598773Y15104211D01*
X3600805Y15100249D01*
X3603193Y15096490D01*
X3605885Y15092984D01*
X3609035Y15089530D01*
X3756101Y14942464D01*
X3758336Y14939213D01*
X3759098Y14935301D01*
X3759098Y11658803D01*
X3759301Y11654180D01*
X3759860Y11649760D01*
X3760825Y11645442D01*
X3762146Y11641175D01*
X3763873Y11637111D01*
X3765905Y11633149D01*
X3768293Y11629390D01*
X3770985Y11625884D01*
X3774135Y11622430D01*
X3859834Y11536781D01*
X3861866Y11533835D01*
X3862781Y11530431D01*
X3860546Y11513007D01*
X3860546Y11499392D01*
X3862374Y11485880D01*
X3865981Y11472722D01*
X3871264Y11460175D01*
X3878224Y11448440D01*
X3886708Y11437721D01*
X3896512Y11428222D01*
X3907485Y11420144D01*
X3919423Y11413591D01*
X3932174Y11408714D01*
X3945432Y11405514D01*
G37*
G36*
X6486296Y11416893D02*
G01*
X6499910Y11417300D01*
X6513372Y11419586D01*
X6526377Y11423650D01*
X6538772Y11429390D01*
X6550253Y11436705D01*
X6560667Y11445494D01*
X6569811Y11455654D01*
X6577533Y11466880D01*
X6583680Y11479022D01*
X6588150Y11491925D01*
X6590893Y11505285D01*
X6591808Y11518900D01*
X6590893Y11532514D01*
X6588150Y11545874D01*
X6583680Y11558727D01*
X6577533Y11570919D01*
X6569811Y11582146D01*
X6560667Y11592255D01*
X6550253Y11601094D01*
X6538772Y11608409D01*
X6526377Y11614150D01*
X6513372Y11618214D01*
X6499910Y11620449D01*
X6486296Y11620906D01*
X6472732Y11619585D01*
X6459474Y11616385D01*
X6446723Y11611508D01*
X6434785Y11604955D01*
X6423812Y11596878D01*
X6414008Y11587378D01*
X6405524Y11576659D01*
X6398564Y11564924D01*
X6393281Y11552377D01*
X6389674Y11539220D01*
X6387846Y11525707D01*
X6387846Y11512092D01*
X6389674Y11498580D01*
X6393281Y11485422D01*
X6398564Y11472875D01*
X6405524Y11461140D01*
X6414008Y11450421D01*
X6423812Y11440922D01*
X6434785Y11432844D01*
X6446723Y11426291D01*
X6459474Y11421414D01*
X6472732Y11418214D01*
G37*
G36*
X5171897Y11443919D02*
G01*
X5181701Y11444782D01*
X5191150Y11447322D01*
X5200091Y11451488D01*
X5208117Y11457127D01*
X5215077Y11464036D01*
X5218582Y11469065D01*
X5221376Y11471757D01*
X5224983Y11473230D01*
X5228844Y11473230D01*
X5232450Y11471757D01*
X5235244Y11469065D01*
X5238750Y11464036D01*
X5245658Y11457127D01*
X5253736Y11451488D01*
X5262626Y11447322D01*
X5272125Y11444782D01*
X5281930Y11443919D01*
X5291683Y11444782D01*
X5301183Y11447322D01*
X5310073Y11451488D01*
X5318150Y11457127D01*
X5325059Y11464036D01*
X5330698Y11472113D01*
X5334863Y11481003D01*
X5337403Y11490502D01*
X5337810Y11495024D01*
X5338724Y11498427D01*
X5340705Y11501323D01*
X5504942Y11665508D01*
X5508244Y11667693D01*
X5512104Y11668506D01*
X6120892Y11668506D01*
X6129375Y11669318D01*
X6137046Y11671655D01*
X6144107Y11675414D01*
X6150660Y11680850D01*
X6315049Y11845239D01*
X6320485Y11851792D01*
X6324244Y11858853D01*
X6326581Y11866524D01*
X6327394Y11875008D01*
X6327394Y14660067D01*
X6328206Y14663928D01*
X6330391Y14667230D01*
X6407708Y14744598D01*
X6410960Y14746782D01*
X6414820Y14747544D01*
X6418681Y14746833D01*
X6421983Y14744700D01*
X6423812Y14742922D01*
X6434785Y14734844D01*
X6446723Y14728291D01*
X6459474Y14723414D01*
X6472732Y14720214D01*
X6486296Y14718893D01*
X6499910Y14719300D01*
X6513372Y14721586D01*
X6526377Y14725650D01*
X6538772Y14731390D01*
X6550253Y14738705D01*
X6560667Y14747494D01*
X6569811Y14757654D01*
X6577533Y14768880D01*
X6583680Y14781022D01*
X6588150Y14793925D01*
X6590893Y14807285D01*
X6591808Y14820900D01*
X6590893Y14834514D01*
X6588150Y14847874D01*
X6583680Y14860727D01*
X6577533Y14872919D01*
X6569811Y14884146D01*
X6560667Y14894255D01*
X6550253Y14903094D01*
X6538772Y14910409D01*
X6526377Y14916150D01*
X6513372Y14920213D01*
X6499910Y14922449D01*
X6486296Y14922906D01*
X6472732Y14921585D01*
X6459474Y14918385D01*
X6446723Y14913508D01*
X6434785Y14906955D01*
X6423812Y14898878D01*
X6414008Y14889378D01*
X6405524Y14878659D01*
X6398564Y14866924D01*
X6393281Y14854377D01*
X6390741Y14845182D01*
X6389725Y14842744D01*
X6388100Y14840661D01*
X6257950Y14710460D01*
X6252514Y14703907D01*
X6248755Y14696846D01*
X6246418Y14689175D01*
X6245606Y14680692D01*
X6245606Y11895632D01*
X6244844Y11891772D01*
X6242608Y11888470D01*
X6107430Y11753291D01*
X6104128Y11751056D01*
X6100267Y11750294D01*
X5787491Y11750294D01*
X5783580Y11751056D01*
X5780328Y11753291D01*
X5778093Y11756593D01*
X5777331Y11760454D01*
X5778093Y11764365D01*
X5780328Y11767667D01*
X5915253Y11902643D01*
X5920689Y11909196D01*
X5924448Y11916257D01*
X5926785Y11923928D01*
X5927598Y11932412D01*
X5927598Y12658090D01*
X5928309Y12661798D01*
X5930341Y12665049D01*
X5933440Y12667284D01*
X5941923Y12671247D01*
X5954115Y12678968D01*
X5965190Y12688163D01*
X5975096Y12698679D01*
X5983528Y12710363D01*
X5990488Y12722961D01*
X5995822Y12736372D01*
X5999378Y12750342D01*
X6001207Y12764617D01*
X6001207Y12779044D01*
X5999378Y12793370D01*
X5995822Y12807340D01*
X5990488Y12820700D01*
X5983528Y12833350D01*
X5975096Y12845034D01*
X5965190Y12855549D01*
X5954115Y12864693D01*
X5941923Y12872415D01*
X5928868Y12878562D01*
X5915202Y12883032D01*
X5901029Y12885724D01*
X5886653Y12886639D01*
X5872226Y12885724D01*
X5858103Y12883032D01*
X5844387Y12878562D01*
X5831332Y12872415D01*
X5819140Y12864693D01*
X5808065Y12855549D01*
X5798210Y12845034D01*
X5789726Y12833350D01*
X5782767Y12820700D01*
X5777484Y12807340D01*
X5773877Y12793370D01*
X5772099Y12779044D01*
X5772099Y12764617D01*
X5773877Y12750342D01*
X5777484Y12736372D01*
X5782767Y12722961D01*
X5789726Y12710363D01*
X5798210Y12698679D01*
X5808065Y12688163D01*
X5819140Y12678968D01*
X5831332Y12671247D01*
X5839968Y12667183D01*
X5843066Y12664948D01*
X5845098Y12661747D01*
X5845810Y12657988D01*
X5845810Y11953036D01*
X5845048Y11949176D01*
X5842812Y11945874D01*
X5713730Y11816791D01*
X5710428Y11814556D01*
X5706567Y11813794D01*
X5444998Y11813794D01*
X5436514Y11812981D01*
X5428843Y11810644D01*
X5421782Y11806885D01*
X5415229Y11801449D01*
X5172811Y11559082D01*
X5169966Y11557050D01*
X5166563Y11556187D01*
X5162092Y11555780D01*
X5152644Y11553240D01*
X5143703Y11549075D01*
X5135676Y11543436D01*
X5128717Y11536527D01*
X5123078Y11528450D01*
X5118963Y11519560D01*
X5116423Y11510060D01*
X5115560Y11500256D01*
X5116423Y11490502D01*
X5118963Y11481003D01*
X5123078Y11472113D01*
X5128717Y11464036D01*
X5135676Y11457127D01*
X5143703Y11451488D01*
X5152644Y11447322D01*
X5162092Y11444782D01*
G37*
G36*
X4530191Y11461699D02*
G01*
X4579721Y11461699D01*
X4579721Y11489740D01*
X4579010Y11496090D01*
X4577130Y11501526D01*
X4574032Y11506454D01*
X4569968Y11510518D01*
X4565040Y11513616D01*
X4559604Y11515496D01*
X4553254Y11516207D01*
X4530191Y11516207D01*
G37*
G36*
X4408017Y11461699D02*
G01*
X4457547Y11461699D01*
X4457547Y11516207D01*
X4434535Y11516207D01*
X4428185Y11515496D01*
X4422749Y11513616D01*
X4417822Y11510518D01*
X4413758Y11506454D01*
X4410659Y11501526D01*
X4408728Y11496090D01*
X4408017Y11489740D01*
G37*
G36*
X6009894Y11462308D02*
G01*
X6069482Y11462308D01*
X6069482Y11490350D01*
X6068771Y11496700D01*
X6066840Y11502136D01*
X6063742Y11507063D01*
X6059678Y11511127D01*
X6054750Y11514226D01*
X6049314Y11516106D01*
X6043015Y11516817D01*
X6009894Y11516817D01*
G37*
G36*
X5857646Y11462308D02*
G01*
X5917234Y11462308D01*
X5917234Y11516817D01*
X5884113Y11516817D01*
X5877814Y11516106D01*
X5872327Y11514226D01*
X5867450Y11511127D01*
X5863336Y11507063D01*
X5860288Y11502136D01*
X5858357Y11496700D01*
X5857646Y11490350D01*
G37*
G36*
X2840329Y11525554D02*
G01*
X2846933Y11528806D01*
X2858465Y11536476D01*
X2868879Y11545620D01*
X2878023Y11556034D01*
X2885694Y11567566D01*
X2888945Y11574170D01*
X2840329Y11574170D01*
G37*
G36*
X2747670Y11525554D02*
G01*
X2747670Y11574170D01*
X2699054Y11574170D01*
X2702306Y11567566D01*
X2709976Y11556034D01*
X2719120Y11545620D01*
X2729534Y11536476D01*
X2741066Y11528806D01*
G37*
G36*
X1608429Y11538254D02*
G01*
X1615033Y11541506D01*
X1626565Y11549176D01*
X1636979Y11558320D01*
X1646123Y11568734D01*
X1653793Y11580266D01*
X1657045Y11586870D01*
X1608429Y11586870D01*
G37*
G36*
X1515770Y11538254D02*
G01*
X1515770Y11586870D01*
X1467154Y11586870D01*
X1470406Y11580266D01*
X1478076Y11568734D01*
X1487220Y11558320D01*
X1497634Y11549176D01*
X1509166Y11541506D01*
G37*
G36*
X2840329Y11666829D02*
G01*
X2888945Y11666829D01*
X2885694Y11673433D01*
X2878023Y11684965D01*
X2868879Y11695379D01*
X2858465Y11704523D01*
X2846933Y11712194D01*
X2840329Y11715445D01*
G37*
G36*
X2699054Y11666829D02*
G01*
X2747670Y11666829D01*
X2747670Y11715445D01*
X2741066Y11712194D01*
X2729534Y11704523D01*
X2719120Y11695379D01*
X2709976Y11684965D01*
X2702306Y11673433D01*
G37*
G36*
X4006850Y11668556D02*
G01*
X4011472Y11670690D01*
X4022953Y11678005D01*
X4033367Y11686794D01*
X4042511Y11696954D01*
X4050233Y11708180D01*
X4054043Y11715750D01*
X4006850Y11715750D01*
G37*
G36*
X6486296Y11671198D02*
G01*
X6499910Y11671655D01*
X6513372Y11673941D01*
X6526377Y11677954D01*
X6538772Y11683695D01*
X6550253Y11691061D01*
X6560667Y11699849D01*
X6569811Y11709958D01*
X6577533Y11721185D01*
X6583680Y11733377D01*
X6588150Y11746230D01*
X6590893Y11759641D01*
X6591808Y11773204D01*
X6590893Y11786819D01*
X6588150Y11800179D01*
X6583680Y11813082D01*
X6577533Y11825224D01*
X6569811Y11836501D01*
X6560667Y11846610D01*
X6550253Y11855399D01*
X6538772Y11862765D01*
X6526377Y11868505D01*
X6513372Y11872518D01*
X6499910Y11874804D01*
X6486296Y11875262D01*
X6472732Y11873890D01*
X6459474Y11870740D01*
X6446723Y11865813D01*
X6434785Y11859260D01*
X6423812Y11851182D01*
X6414008Y11841683D01*
X6405524Y11831015D01*
X6398564Y11819280D01*
X6393281Y11806732D01*
X6389674Y11793575D01*
X6387846Y11780062D01*
X6387846Y11766397D01*
X6389674Y11752884D01*
X6393281Y11739727D01*
X6398564Y11727180D01*
X6405524Y11715445D01*
X6414008Y11704726D01*
X6423812Y11695277D01*
X6434785Y11687200D01*
X6446723Y11680647D01*
X6459474Y11675719D01*
X6472732Y11672570D01*
G37*
G36*
X1467154Y11679529D02*
G01*
X1515770Y11679529D01*
X1515770Y11728145D01*
X1509166Y11724894D01*
X1497634Y11717223D01*
X1487220Y11708079D01*
X1478076Y11697665D01*
X1470406Y11686133D01*
G37*
G36*
X1608429Y11679529D02*
G01*
X1657045Y11679529D01*
X1653793Y11686133D01*
X1646123Y11697665D01*
X1636979Y11708079D01*
X1626565Y11717223D01*
X1615033Y11724894D01*
X1608429Y11728145D01*
G37*
G36*
X2166467Y11785955D02*
G01*
X2176932Y11785955D01*
X2187244Y11787682D01*
X2197150Y11791086D01*
X2206345Y11796064D01*
X2214626Y11802465D01*
X2221687Y11810187D01*
X2227427Y11818924D01*
X2231644Y11828526D01*
X2234234Y11838686D01*
X2235098Y11849506D01*
X2235098Y12288520D01*
X2235860Y12292431D01*
X2238095Y12295733D01*
X2317851Y12375489D01*
X2324862Y12383770D01*
X2330246Y12392761D01*
X2334056Y12402515D01*
X2336190Y12412776D01*
X2336596Y12423241D01*
X2335326Y12433604D01*
X2332329Y12443612D01*
X2327757Y12453061D01*
X2321661Y12461544D01*
X2314244Y12468961D01*
X2305761Y12475057D01*
X2296312Y12479629D01*
X2286304Y12482626D01*
X2275941Y12483896D01*
X2265476Y12483490D01*
X2255215Y12481356D01*
X2245461Y12477546D01*
X2236470Y12472162D01*
X2228189Y12465151D01*
X2127097Y12364059D01*
X2120239Y12356033D01*
X2115820Y12348972D01*
X2111654Y12339370D01*
X2110994Y12337288D01*
X2109114Y12329210D01*
X2108809Y12327026D01*
X2108301Y12318695D01*
X2108301Y11849506D01*
X2109165Y11838686D01*
X2111756Y11828526D01*
X2115972Y11818924D01*
X2121712Y11810187D01*
X2128774Y11802465D01*
X2137054Y11796064D01*
X2146249Y11791086D01*
X2156155Y11787682D01*
G37*
G36*
X4006850Y11804650D02*
G01*
X4054043Y11804650D01*
X4050233Y11812219D01*
X4042511Y11823446D01*
X4033367Y11833555D01*
X4022953Y11842394D01*
X4011472Y11849709D01*
X4006850Y11851843D01*
G37*
G36*
X6486296Y11924893D02*
G01*
X6499910Y11925300D01*
X6513372Y11927586D01*
X6526377Y11931650D01*
X6538772Y11937390D01*
X6550253Y11944705D01*
X6560667Y11953494D01*
X6569811Y11963654D01*
X6577533Y11974880D01*
X6583680Y11987022D01*
X6588150Y11999925D01*
X6590893Y12013285D01*
X6591808Y12026900D01*
X6590893Y12040514D01*
X6588150Y12053874D01*
X6583680Y12066727D01*
X6577533Y12078919D01*
X6569811Y12090146D01*
X6560667Y12100255D01*
X6550253Y12109094D01*
X6538772Y12116409D01*
X6526377Y12122150D01*
X6513372Y12126214D01*
X6499910Y12128449D01*
X6486296Y12128906D01*
X6472732Y12127585D01*
X6459474Y12124385D01*
X6446723Y12119508D01*
X6434785Y12112955D01*
X6423812Y12104878D01*
X6414008Y12095378D01*
X6405524Y12084659D01*
X6398564Y12072924D01*
X6393281Y12060377D01*
X6389674Y12047220D01*
X6387846Y12033707D01*
X6387846Y12020092D01*
X6389674Y12006580D01*
X6393281Y11993422D01*
X6398564Y11980875D01*
X6405524Y11969140D01*
X6414008Y11958421D01*
X6423812Y11948922D01*
X6434785Y11940844D01*
X6446723Y11934291D01*
X6459474Y11929414D01*
X6472732Y11926214D01*
G37*
G36*
X2794000Y12022632D02*
G01*
X2807817Y12023496D01*
X2821381Y12026239D01*
X2834538Y12030659D01*
X2846933Y12036806D01*
X2858465Y12044476D01*
X2868879Y12053620D01*
X2878023Y12064034D01*
X2885694Y12075566D01*
X2891840Y12087961D01*
X2896260Y12101118D01*
X2899003Y12114682D01*
X2899867Y12128500D01*
X2899003Y12142317D01*
X2896260Y12155881D01*
X2891840Y12169038D01*
X2885694Y12181433D01*
X2878023Y12192965D01*
X2868879Y12203379D01*
X2858465Y12212523D01*
X2846933Y12220194D01*
X2834538Y12226340D01*
X2821381Y12230760D01*
X2807817Y12233503D01*
X2794000Y12234367D01*
X2780182Y12233503D01*
X2766618Y12230760D01*
X2753461Y12226340D01*
X2741066Y12220194D01*
X2729534Y12212523D01*
X2719120Y12203379D01*
X2709976Y12192965D01*
X2702306Y12181433D01*
X2696159Y12169038D01*
X2691739Y12155881D01*
X2688996Y12142317D01*
X2688132Y12128500D01*
X2688996Y12114682D01*
X2691739Y12101118D01*
X2696159Y12087961D01*
X2702306Y12075566D01*
X2709976Y12064034D01*
X2719120Y12053620D01*
X2729534Y12044476D01*
X2741066Y12036806D01*
X2753461Y12030659D01*
X2766618Y12026239D01*
X2780182Y12023496D01*
G37*
G36*
X1562100Y12035332D02*
G01*
X1575917Y12036196D01*
X1589481Y12038939D01*
X1602638Y12043359D01*
X1615033Y12049506D01*
X1626565Y12057176D01*
X1636979Y12066320D01*
X1646123Y12076734D01*
X1653793Y12088266D01*
X1659940Y12100661D01*
X1664360Y12113818D01*
X1667103Y12127382D01*
X1667967Y12141200D01*
X1667103Y12155017D01*
X1664360Y12168581D01*
X1659940Y12181738D01*
X1653793Y12194133D01*
X1646123Y12205665D01*
X1636979Y12216079D01*
X1626565Y12225223D01*
X1615033Y12232894D01*
X1602638Y12239040D01*
X1589481Y12243460D01*
X1575917Y12246203D01*
X1562100Y12247067D01*
X1548282Y12246203D01*
X1534718Y12243460D01*
X1521561Y12239040D01*
X1509166Y12232894D01*
X1497634Y12225223D01*
X1487220Y12216079D01*
X1478076Y12205665D01*
X1470406Y12194133D01*
X1464259Y12181738D01*
X1459839Y12168581D01*
X1457096Y12155017D01*
X1456232Y12141200D01*
X1457096Y12127382D01*
X1459839Y12113818D01*
X1464259Y12100661D01*
X1470406Y12088266D01*
X1478076Y12076734D01*
X1487220Y12066320D01*
X1497634Y12057176D01*
X1509166Y12049506D01*
X1521561Y12043359D01*
X1534718Y12038939D01*
X1548282Y12036196D01*
G37*
G36*
X3587750Y12125756D02*
G01*
X3587750Y12172950D01*
X3540556Y12172950D01*
X3542690Y12168327D01*
X3550005Y12156846D01*
X3558794Y12146432D01*
X3568954Y12137288D01*
X3580180Y12129566D01*
G37*
G36*
X3676650Y12125756D02*
G01*
X3684219Y12129566D01*
X3695446Y12137288D01*
X3705606Y12146432D01*
X3714394Y12156846D01*
X3721709Y12168327D01*
X3723843Y12172950D01*
X3676650Y12172950D01*
G37*
G36*
X6486296Y12178893D02*
G01*
X6499910Y12179300D01*
X6513372Y12181586D01*
X6526377Y12185650D01*
X6538772Y12191390D01*
X6550253Y12198705D01*
X6560667Y12207494D01*
X6569811Y12217654D01*
X6577533Y12228880D01*
X6583680Y12241022D01*
X6588150Y12253925D01*
X6590893Y12267285D01*
X6591808Y12280900D01*
X6590893Y12294514D01*
X6588150Y12307874D01*
X6583680Y12320727D01*
X6577533Y12332919D01*
X6569811Y12344146D01*
X6560667Y12354255D01*
X6550253Y12363094D01*
X6538772Y12370409D01*
X6526377Y12376150D01*
X6513372Y12380214D01*
X6499910Y12382449D01*
X6486296Y12382906D01*
X6472732Y12381585D01*
X6459474Y12378385D01*
X6446723Y12373508D01*
X6434785Y12366955D01*
X6423812Y12358878D01*
X6414008Y12349378D01*
X6405524Y12338659D01*
X6398564Y12326924D01*
X6393281Y12314377D01*
X6389674Y12301220D01*
X6387846Y12287707D01*
X6387846Y12274092D01*
X6389674Y12260580D01*
X6393281Y12247422D01*
X6398564Y12234875D01*
X6405524Y12223140D01*
X6414008Y12212421D01*
X6423812Y12202922D01*
X6434785Y12194844D01*
X6446723Y12188291D01*
X6459474Y12183414D01*
X6472732Y12180214D01*
G37*
G36*
X3540404Y12261850D02*
G01*
X3587750Y12261850D01*
X3587750Y12309195D01*
X3586175Y12308484D01*
X3574440Y12301575D01*
X3563721Y12293092D01*
X3554222Y12283287D01*
X3546144Y12272314D01*
G37*
G36*
X3676650Y12261850D02*
G01*
X3723995Y12261850D01*
X3718255Y12272314D01*
X3710178Y12283287D01*
X3700678Y12293092D01*
X3689959Y12301575D01*
X3678224Y12308484D01*
X3676650Y12309195D01*
G37*
G36*
X6486296Y12432893D02*
G01*
X6499910Y12433300D01*
X6513372Y12435586D01*
X6526377Y12439650D01*
X6538772Y12445390D01*
X6550253Y12452705D01*
X6560667Y12461494D01*
X6569811Y12471654D01*
X6577533Y12482880D01*
X6583680Y12495022D01*
X6588150Y12507925D01*
X6590893Y12521285D01*
X6591808Y12534900D01*
X6590893Y12548514D01*
X6588150Y12561874D01*
X6583680Y12574727D01*
X6577533Y12586919D01*
X6569811Y12598146D01*
X6560667Y12608255D01*
X6550253Y12617094D01*
X6538772Y12624409D01*
X6526377Y12630150D01*
X6513372Y12634214D01*
X6499910Y12636449D01*
X6486296Y12636906D01*
X6472732Y12635585D01*
X6459474Y12632385D01*
X6446723Y12627508D01*
X6434785Y12620955D01*
X6423812Y12612878D01*
X6414008Y12603378D01*
X6405524Y12592659D01*
X6398564Y12580924D01*
X6393281Y12568377D01*
X6389674Y12555220D01*
X6387846Y12541707D01*
X6387846Y12528092D01*
X6389674Y12514580D01*
X6393281Y12501422D01*
X6398564Y12488875D01*
X6405524Y12477140D01*
X6414008Y12466421D01*
X6423812Y12456922D01*
X6434785Y12448844D01*
X6446723Y12442291D01*
X6459474Y12437414D01*
X6472732Y12434214D01*
G37*
G36*
X1248054Y12675362D02*
G01*
X1261516Y12675819D01*
X1274775Y12678054D01*
X1287678Y12682067D01*
X1299921Y12687706D01*
X1311249Y12694970D01*
X1321562Y12703657D01*
X1329436Y12712395D01*
X1332992Y12714935D01*
X1337310Y12715748D01*
X1341526Y12714630D01*
X1344930Y12711887D01*
X1347571Y12708534D01*
X1357274Y12699136D01*
X1368094Y12691160D01*
X1378559Y12685471D01*
X1378559Y12732359D01*
X1357020Y12732359D01*
X1353261Y12733070D01*
X1350010Y12735153D01*
X1347774Y12738303D01*
X1346860Y12742011D01*
X1347419Y12745821D01*
X1348689Y12749530D01*
X1351381Y12762738D01*
X1352296Y12776200D01*
X1351381Y12789662D01*
X1348689Y12802870D01*
X1347419Y12806578D01*
X1346860Y12810388D01*
X1347774Y12814096D01*
X1350010Y12817246D01*
X1353261Y12819329D01*
X1357020Y12820040D01*
X1378559Y12820040D01*
X1378559Y12866928D01*
X1368094Y12861239D01*
X1357274Y12853263D01*
X1347571Y12843865D01*
X1344930Y12840512D01*
X1341526Y12837769D01*
X1337310Y12836652D01*
X1332992Y12837464D01*
X1329436Y12840004D01*
X1321562Y12848742D01*
X1311249Y12857429D01*
X1299921Y12864693D01*
X1287678Y12870332D01*
X1274775Y12874345D01*
X1261516Y12876580D01*
X1248054Y12877038D01*
X1234643Y12875666D01*
X1221536Y12872567D01*
X1208938Y12867690D01*
X1197152Y12861239D01*
X1186281Y12853263D01*
X1176578Y12843865D01*
X1173937Y12840512D01*
X1170533Y12837718D01*
X1166317Y12836652D01*
X1161999Y12837464D01*
X1158443Y12840004D01*
X1150518Y12848742D01*
X1140256Y12857429D01*
X1128877Y12864693D01*
X1124254Y12866827D01*
X1124254Y12820040D01*
X1145743Y12820040D01*
X1149400Y12819380D01*
X1152550Y12817449D01*
X1154785Y12814452D01*
X1155852Y12810896D01*
X1155547Y12807188D01*
X1152550Y12796316D01*
X1150772Y12782956D01*
X1150772Y12769443D01*
X1152550Y12756083D01*
X1155547Y12745212D01*
X1155852Y12741503D01*
X1154785Y12737947D01*
X1152550Y12734950D01*
X1149400Y12733020D01*
X1145743Y12732359D01*
X1124254Y12732359D01*
X1124254Y12685572D01*
X1128877Y12687706D01*
X1140256Y12694970D01*
X1150518Y12703657D01*
X1158443Y12712395D01*
X1161999Y12714935D01*
X1166317Y12715748D01*
X1170533Y12714681D01*
X1173937Y12711887D01*
X1176578Y12708534D01*
X1186281Y12699136D01*
X1197152Y12691160D01*
X1208938Y12684709D01*
X1221536Y12679832D01*
X1234643Y12676733D01*
G37*
G36*
X2619654Y12675362D02*
G01*
X2633116Y12675819D01*
X2646375Y12678054D01*
X2659278Y12682067D01*
X2671470Y12687706D01*
X2682849Y12694970D01*
X2693162Y12703657D01*
X2701036Y12712395D01*
X2704592Y12714935D01*
X2708910Y12715748D01*
X2713126Y12714630D01*
X2716530Y12711887D01*
X2719171Y12708534D01*
X2728874Y12699136D01*
X2739694Y12691160D01*
X2750159Y12685471D01*
X2750159Y12732359D01*
X2728620Y12732359D01*
X2724861Y12733070D01*
X2721610Y12735153D01*
X2719374Y12738303D01*
X2718460Y12742011D01*
X2719019Y12745821D01*
X2720289Y12749530D01*
X2722981Y12762738D01*
X2723896Y12776200D01*
X2722981Y12789662D01*
X2720289Y12802870D01*
X2719019Y12806578D01*
X2718460Y12810388D01*
X2719374Y12814096D01*
X2721610Y12817246D01*
X2724861Y12819329D01*
X2728620Y12820040D01*
X2750159Y12820040D01*
X2750159Y12866928D01*
X2739694Y12861239D01*
X2728874Y12853263D01*
X2719171Y12843865D01*
X2716530Y12840512D01*
X2713126Y12837769D01*
X2708910Y12836652D01*
X2704592Y12837464D01*
X2701036Y12840004D01*
X2693162Y12848742D01*
X2682849Y12857429D01*
X2671470Y12864693D01*
X2659278Y12870332D01*
X2646375Y12874345D01*
X2633116Y12876580D01*
X2619654Y12877038D01*
X2606243Y12875666D01*
X2593136Y12872567D01*
X2580538Y12867690D01*
X2568752Y12861239D01*
X2557881Y12853263D01*
X2548178Y12843865D01*
X2545537Y12840512D01*
X2542133Y12837718D01*
X2537917Y12836652D01*
X2533599Y12837464D01*
X2530043Y12840004D01*
X2522118Y12848742D01*
X2511856Y12857429D01*
X2500477Y12864693D01*
X2495854Y12866827D01*
X2495854Y12820040D01*
X2517343Y12820040D01*
X2521000Y12819380D01*
X2524150Y12817449D01*
X2526385Y12814452D01*
X2527452Y12810896D01*
X2527147Y12807188D01*
X2524150Y12796316D01*
X2522372Y12782956D01*
X2522372Y12769443D01*
X2524150Y12756083D01*
X2527147Y12745212D01*
X2527452Y12741503D01*
X2526385Y12737947D01*
X2524150Y12734950D01*
X2521000Y12733020D01*
X2517343Y12732359D01*
X2495854Y12732359D01*
X2495854Y12685572D01*
X2500477Y12687706D01*
X2511856Y12694970D01*
X2522118Y12703657D01*
X2530043Y12712395D01*
X2533599Y12714935D01*
X2537917Y12715748D01*
X2542133Y12714681D01*
X2545537Y12711887D01*
X2548178Y12708534D01*
X2557881Y12699136D01*
X2568752Y12691160D01*
X2580538Y12684709D01*
X2593136Y12679832D01*
X2606243Y12676733D01*
G37*
G36*
X1590040Y12675362D02*
G01*
X1603502Y12675819D01*
X1616811Y12678054D01*
X1629664Y12682067D01*
X1641906Y12687706D01*
X1653235Y12694970D01*
X1663547Y12703657D01*
X1671421Y12712395D01*
X1674977Y12714935D01*
X1679295Y12715748D01*
X1683562Y12714630D01*
X1686915Y12711887D01*
X1689557Y12708534D01*
X1699260Y12699136D01*
X1710131Y12691160D01*
X1721916Y12684709D01*
X1734515Y12679832D01*
X1747621Y12676733D01*
X1761032Y12675362D01*
X1774494Y12675819D01*
X1787804Y12678054D01*
X1800656Y12682067D01*
X1812899Y12687706D01*
X1824228Y12694970D01*
X1834540Y12703657D01*
X1843582Y12713665D01*
X1851202Y12724790D01*
X1857298Y12736830D01*
X1859483Y12742316D01*
X1860905Y12744094D01*
X2058009Y12941198D01*
X2064512Y12948462D01*
X2066239Y12950647D01*
X2071674Y12958622D01*
X2073046Y12960959D01*
X2077364Y12969646D01*
X2081479Y12981330D01*
X2082190Y12984022D01*
X2084324Y12996214D01*
X2084832Y13005968D01*
X2084832Y13048132D01*
X2085593Y13052044D01*
X2087778Y13055295D01*
X2091080Y13057530D01*
X2094992Y13058292D01*
X3162808Y13058292D01*
X3166719Y13057530D01*
X3170021Y13055295D01*
X3172206Y13052044D01*
X3172968Y13048132D01*
X3172968Y12945973D01*
X3172206Y12942062D01*
X3170021Y12938760D01*
X3103880Y12872618D01*
X3100374Y12870332D01*
X3093516Y12867690D01*
X3081731Y12861239D01*
X3070860Y12853263D01*
X3061157Y12843865D01*
X3058515Y12840512D01*
X3055162Y12837769D01*
X3050895Y12836652D01*
X3046577Y12837464D01*
X3043021Y12840004D01*
X3035147Y12848742D01*
X3024835Y12857429D01*
X3013506Y12864693D01*
X3001264Y12870332D01*
X2988411Y12874345D01*
X2975102Y12876580D01*
X2961640Y12877038D01*
X2948228Y12875666D01*
X2935122Y12872567D01*
X2922524Y12867690D01*
X2910738Y12861239D01*
X2899867Y12853263D01*
X2890215Y12843865D01*
X2887522Y12840512D01*
X2884170Y12837718D01*
X2879902Y12836652D01*
X2875584Y12837464D01*
X2872028Y12840004D01*
X2864154Y12848742D01*
X2853842Y12857429D01*
X2842463Y12864693D01*
X2837840Y12866827D01*
X2837840Y12820040D01*
X2859328Y12820040D01*
X2862986Y12819380D01*
X2866136Y12817449D01*
X2868422Y12814452D01*
X2869438Y12810896D01*
X2869133Y12807188D01*
X2866136Y12796316D01*
X2864358Y12782956D01*
X2864358Y12769443D01*
X2866136Y12756083D01*
X2869133Y12745212D01*
X2869438Y12741503D01*
X2868422Y12737947D01*
X2866136Y12734950D01*
X2862986Y12733020D01*
X2859328Y12732359D01*
X2837840Y12732359D01*
X2837840Y12685572D01*
X2842463Y12687706D01*
X2853842Y12694970D01*
X2864154Y12703657D01*
X2872028Y12712395D01*
X2875584Y12714935D01*
X2879902Y12715748D01*
X2884170Y12714681D01*
X2887522Y12711887D01*
X2890215Y12708534D01*
X2899867Y12699136D01*
X2910738Y12691160D01*
X2922524Y12684709D01*
X2935122Y12679832D01*
X2948228Y12676733D01*
X2961640Y12675362D01*
X2975102Y12675819D01*
X2988411Y12678054D01*
X3001264Y12682067D01*
X3013506Y12687706D01*
X3024835Y12694970D01*
X3035147Y12703657D01*
X3043021Y12712395D01*
X3046577Y12714935D01*
X3050895Y12715748D01*
X3055162Y12714630D01*
X3058515Y12711887D01*
X3061157Y12708534D01*
X3070860Y12699136D01*
X3081731Y12691160D01*
X3093516Y12684709D01*
X3106115Y12679832D01*
X3119221Y12676733D01*
X3132632Y12675362D01*
X3146094Y12675819D01*
X3159404Y12678054D01*
X3172256Y12682067D01*
X3184499Y12687706D01*
X3195828Y12694970D01*
X3206140Y12703657D01*
X3215182Y12713665D01*
X3222802Y12724790D01*
X3228898Y12736830D01*
X3231083Y12742316D01*
X3232505Y12744094D01*
X3328009Y12839598D01*
X3334512Y12846862D01*
X3336239Y12849047D01*
X3341674Y12857022D01*
X3343046Y12859359D01*
X3347364Y12868046D01*
X3351479Y12879730D01*
X3352190Y12882422D01*
X3354324Y12894614D01*
X3354832Y12904368D01*
X3354832Y13071043D01*
X3355543Y13074853D01*
X3357676Y13078104D01*
X3360877Y13080339D01*
X3364585Y13081965D01*
X3382822Y13092125D01*
X3400044Y13103910D01*
X3416096Y13117271D01*
X3430828Y13132003D01*
X3444189Y13148056D01*
X3455974Y13165277D01*
X3466134Y13183514D01*
X3474567Y13202615D01*
X3481171Y13222376D01*
X3485946Y13242696D01*
X3488842Y13263372D01*
X3489807Y13284454D01*
X3489807Y15125446D01*
X3489553Y15136113D01*
X3488842Y15146528D01*
X3487623Y15156891D01*
X3485946Y15167203D01*
X3483813Y15177414D01*
X3481171Y15187523D01*
X3478072Y15197480D01*
X3474567Y15207284D01*
X3470554Y15216936D01*
X3466134Y15226385D01*
X3461258Y15235631D01*
X3455974Y15244622D01*
X3450285Y15253360D01*
X3444189Y15261844D01*
X3437686Y15270022D01*
X3430828Y15277896D01*
X3423462Y15285618D01*
X3144418Y15564662D01*
X3136696Y15572028D01*
X3128822Y15578886D01*
X3120644Y15585389D01*
X3112160Y15591485D01*
X3103422Y15597174D01*
X3094431Y15602457D01*
X3085185Y15607334D01*
X3075736Y15611754D01*
X3066084Y15615767D01*
X3056280Y15619272D01*
X3046323Y15622371D01*
X3036214Y15625013D01*
X3026003Y15627146D01*
X3015691Y15628823D01*
X3005328Y15630042D01*
X2994914Y15630753D01*
X2984246Y15631007D01*
X2870454Y15631007D01*
X2849372Y15630042D01*
X2828696Y15627146D01*
X2808376Y15622371D01*
X2788615Y15615767D01*
X2769514Y15607334D01*
X2751277Y15597174D01*
X2734056Y15585389D01*
X2730906Y15582747D01*
X2727706Y15580918D01*
X2719679Y15575280D01*
X2712720Y15568320D01*
X2708452Y15562478D01*
X2703271Y15557296D01*
X2689910Y15541244D01*
X2678125Y15524022D01*
X2667965Y15505785D01*
X2659532Y15486684D01*
X2652928Y15466923D01*
X2648153Y15446603D01*
X2645257Y15425928D01*
X2644292Y15405100D01*
X2645257Y15384272D01*
X2648153Y15363596D01*
X2652928Y15343276D01*
X2659532Y15323515D01*
X2667965Y15304414D01*
X2678125Y15286177D01*
X2689910Y15268956D01*
X2703271Y15252903D01*
X2718003Y15238171D01*
X2734056Y15224810D01*
X2751277Y15213025D01*
X2769514Y15202865D01*
X2788615Y15194432D01*
X2808376Y15187828D01*
X2828696Y15183053D01*
X2849372Y15180157D01*
X2870454Y15179192D01*
X2886710Y15179192D01*
X2890621Y15178430D01*
X2893923Y15176195D01*
X3034995Y15035123D01*
X3037230Y15031821D01*
X3037992Y15027910D01*
X3037992Y13520267D01*
X3037230Y13516356D01*
X3034995Y13513104D01*
X3031744Y13510869D01*
X3027832Y13510107D01*
X1994154Y13510107D01*
X1973072Y13509142D01*
X1952396Y13506246D01*
X1932076Y13501471D01*
X1912315Y13494867D01*
X1893214Y13486434D01*
X1874977Y13476274D01*
X1857756Y13464489D01*
X1841703Y13451128D01*
X1826971Y13436396D01*
X1813610Y13420344D01*
X1801825Y13403122D01*
X1791665Y13384885D01*
X1783232Y13365784D01*
X1776628Y13346023D01*
X1771853Y13325703D01*
X1768957Y13305028D01*
X1767992Y13284200D01*
X1768957Y13263372D01*
X1771853Y13242696D01*
X1776628Y13222376D01*
X1783232Y13202615D01*
X1791665Y13183514D01*
X1801825Y13165277D01*
X1813610Y13148056D01*
X1826971Y13132003D01*
X1841703Y13117271D01*
X1857756Y13103910D01*
X1874977Y13092125D01*
X1893214Y13081965D01*
X1896922Y13080339D01*
X1900123Y13078104D01*
X1902256Y13074853D01*
X1902968Y13071043D01*
X1902968Y13047573D01*
X1902206Y13043662D01*
X1900021Y13040360D01*
X1732280Y12872618D01*
X1728774Y12870332D01*
X1721916Y12867690D01*
X1710131Y12861239D01*
X1699260Y12853263D01*
X1689557Y12843865D01*
X1686915Y12840512D01*
X1683562Y12837769D01*
X1679295Y12836652D01*
X1674977Y12837464D01*
X1671421Y12840004D01*
X1663547Y12848742D01*
X1653235Y12857429D01*
X1641906Y12864693D01*
X1629664Y12870332D01*
X1616811Y12874345D01*
X1603502Y12876580D01*
X1590040Y12877038D01*
X1576628Y12875666D01*
X1563522Y12872567D01*
X1550924Y12867690D01*
X1539138Y12861239D01*
X1528267Y12853263D01*
X1518615Y12843865D01*
X1515922Y12840512D01*
X1512570Y12837718D01*
X1508302Y12836652D01*
X1503984Y12837464D01*
X1500428Y12840004D01*
X1492554Y12848742D01*
X1482242Y12857429D01*
X1470863Y12864693D01*
X1466240Y12866827D01*
X1466240Y12820040D01*
X1487728Y12820040D01*
X1491386Y12819380D01*
X1494536Y12817449D01*
X1496822Y12814452D01*
X1497838Y12810896D01*
X1497533Y12807188D01*
X1494536Y12796316D01*
X1492758Y12782956D01*
X1492758Y12769443D01*
X1494536Y12756083D01*
X1497533Y12745212D01*
X1497838Y12741503D01*
X1496822Y12737947D01*
X1494536Y12734950D01*
X1491386Y12733020D01*
X1487728Y12732359D01*
X1466240Y12732359D01*
X1466240Y12685572D01*
X1470863Y12687706D01*
X1482242Y12694970D01*
X1492554Y12703657D01*
X1500428Y12712395D01*
X1503984Y12714935D01*
X1508302Y12715748D01*
X1512570Y12714681D01*
X1515922Y12711887D01*
X1518615Y12708534D01*
X1528267Y12699136D01*
X1539138Y12691160D01*
X1550924Y12684709D01*
X1563522Y12679832D01*
X1576628Y12676733D01*
G37*
G36*
X1036574Y12685471D02*
G01*
X1036574Y12732359D01*
X989634Y12732359D01*
X990346Y12730683D01*
X997203Y12719100D01*
X1005586Y12708534D01*
X1015288Y12699136D01*
X1026109Y12691160D01*
G37*
G36*
X2408174Y12685471D02*
G01*
X2408174Y12732359D01*
X2361234Y12732359D01*
X2361946Y12730683D01*
X2368804Y12719100D01*
X2377186Y12708534D01*
X2386888Y12699136D01*
X2397709Y12691160D01*
G37*
G36*
X6486296Y12686893D02*
G01*
X6499910Y12687300D01*
X6513372Y12689586D01*
X6526377Y12693650D01*
X6538772Y12699390D01*
X6550253Y12706705D01*
X6560667Y12715494D01*
X6569811Y12725654D01*
X6577533Y12736880D01*
X6583680Y12749022D01*
X6588150Y12761925D01*
X6590893Y12775285D01*
X6591808Y12788900D01*
X6590893Y12802514D01*
X6588150Y12815874D01*
X6583680Y12828727D01*
X6577533Y12840919D01*
X6569811Y12852146D01*
X6560667Y12862255D01*
X6550253Y12871094D01*
X6538772Y12878409D01*
X6526377Y12884150D01*
X6513372Y12888214D01*
X6499910Y12890449D01*
X6486296Y12890906D01*
X6472732Y12889585D01*
X6459474Y12886385D01*
X6446723Y12881508D01*
X6434785Y12874955D01*
X6423812Y12866878D01*
X6414008Y12857378D01*
X6405524Y12846659D01*
X6398564Y12834924D01*
X6393281Y12822377D01*
X6389674Y12809220D01*
X6387846Y12795707D01*
X6387846Y12782092D01*
X6389674Y12768580D01*
X6393281Y12755422D01*
X6398564Y12742875D01*
X6405524Y12731140D01*
X6414008Y12720421D01*
X6423812Y12710922D01*
X6434785Y12702844D01*
X6446723Y12696291D01*
X6459474Y12691414D01*
X6472732Y12688214D01*
G37*
G36*
X989634Y12820040D02*
G01*
X1036574Y12820040D01*
X1036574Y12866928D01*
X1026109Y12861239D01*
X1015288Y12853263D01*
X1005586Y12843865D01*
X997203Y12833299D01*
X990346Y12821716D01*
G37*
G36*
X2361234Y12820040D02*
G01*
X2408174Y12820040D01*
X2408174Y12866928D01*
X2397709Y12861239D01*
X2386888Y12853263D01*
X2377186Y12843865D01*
X2368804Y12833299D01*
X2361946Y12821716D01*
G37*
G36*
X5937453Y12923164D02*
G01*
X5941923Y12925247D01*
X5954115Y12932968D01*
X5965190Y12942163D01*
X5975096Y12952679D01*
X5983528Y12964363D01*
X5989421Y12975031D01*
X5937453Y12975031D01*
G37*
G36*
X5835853Y12923164D02*
G01*
X5835853Y12975031D01*
X5783834Y12975031D01*
X5789726Y12964363D01*
X5798210Y12952679D01*
X5808065Y12942163D01*
X5819140Y12932968D01*
X5831332Y12925247D01*
G37*
G36*
X6486296Y12940893D02*
G01*
X6499910Y12941300D01*
X6513372Y12943586D01*
X6526377Y12947650D01*
X6538772Y12953390D01*
X6550253Y12960705D01*
X6560667Y12969494D01*
X6569811Y12979654D01*
X6577533Y12990880D01*
X6583680Y13003022D01*
X6588150Y13015925D01*
X6590893Y13029285D01*
X6591808Y13042900D01*
X6590893Y13056514D01*
X6588150Y13069874D01*
X6583680Y13082727D01*
X6577533Y13094919D01*
X6569811Y13106146D01*
X6560667Y13116255D01*
X6550253Y13125094D01*
X6538772Y13132409D01*
X6526377Y13138150D01*
X6513372Y13142213D01*
X6499910Y13144449D01*
X6486296Y13144906D01*
X6472732Y13143585D01*
X6459474Y13140385D01*
X6446723Y13135508D01*
X6434785Y13128955D01*
X6423812Y13120878D01*
X6414008Y13111378D01*
X6405524Y13100659D01*
X6398564Y13088924D01*
X6393281Y13076377D01*
X6389674Y13063219D01*
X6387846Y13049707D01*
X6387846Y13036092D01*
X6389674Y13022580D01*
X6393281Y13009422D01*
X6398564Y12996875D01*
X6405524Y12985140D01*
X6414008Y12974421D01*
X6423812Y12964922D01*
X6434785Y12956844D01*
X6446723Y12950291D01*
X6459474Y12945414D01*
X6472732Y12942214D01*
G37*
G36*
X5937453Y13076631D02*
G01*
X5989421Y13076631D01*
X5983528Y13087350D01*
X5975096Y13099034D01*
X5965190Y13109549D01*
X5954115Y13118693D01*
X5941923Y13126415D01*
X5937453Y13128548D01*
G37*
G36*
X5783834Y13076631D02*
G01*
X5835853Y13076631D01*
X5835853Y13128548D01*
X5831332Y13126415D01*
X5819140Y13118693D01*
X5808065Y13109549D01*
X5798210Y13099034D01*
X5789726Y13087350D01*
G37*
G36*
X5321300Y13088162D02*
G01*
X5331104Y13089026D01*
X5340553Y13091566D01*
X5349494Y13095681D01*
X5357520Y13101319D01*
X5364480Y13108279D01*
X5370118Y13116306D01*
X5374233Y13125246D01*
X5376773Y13134695D01*
X5377637Y13144500D01*
X5376773Y13154304D01*
X5374233Y13163753D01*
X5373166Y13166090D01*
X5372201Y13170407D01*
X5372201Y13664692D01*
X5373166Y13669010D01*
X5374233Y13671346D01*
X5376773Y13680795D01*
X5377637Y13690600D01*
X5376773Y13700404D01*
X5374233Y13709853D01*
X5370118Y13718794D01*
X5364480Y13726820D01*
X5357520Y13733780D01*
X5349494Y13739418D01*
X5340553Y13743533D01*
X5331104Y13746073D01*
X5321300Y13746937D01*
X5311495Y13746073D01*
X5302046Y13743533D01*
X5293106Y13739418D01*
X5285079Y13733780D01*
X5278120Y13726820D01*
X5272481Y13718794D01*
X5268366Y13709853D01*
X5265826Y13700404D01*
X5264962Y13690600D01*
X5265826Y13680795D01*
X5268366Y13671346D01*
X5269433Y13669010D01*
X5270398Y13664692D01*
X5270398Y13170407D01*
X5269433Y13166090D01*
X5268366Y13163753D01*
X5265826Y13154304D01*
X5264962Y13144500D01*
X5265826Y13134695D01*
X5268366Y13125246D01*
X5272481Y13116306D01*
X5278120Y13108279D01*
X5285079Y13101319D01*
X5293106Y13095681D01*
X5302046Y13091566D01*
X5311495Y13089026D01*
G37*
G36*
X4889500Y13088162D02*
G01*
X4899304Y13089026D01*
X4908753Y13091566D01*
X4917694Y13095681D01*
X4925720Y13101319D01*
X4932680Y13108279D01*
X4938318Y13116306D01*
X4942433Y13125246D01*
X4944973Y13134695D01*
X4945837Y13144500D01*
X4944973Y13154304D01*
X4942433Y13163753D01*
X4941366Y13166090D01*
X4940401Y13170407D01*
X4940401Y13664692D01*
X4941366Y13669010D01*
X4942433Y13671346D01*
X4944973Y13680795D01*
X4945837Y13690600D01*
X4944973Y13700404D01*
X4942433Y13709853D01*
X4938318Y13718794D01*
X4932680Y13726820D01*
X4925720Y13733780D01*
X4917694Y13739418D01*
X4908753Y13743533D01*
X4899304Y13746073D01*
X4889500Y13746937D01*
X4879695Y13746073D01*
X4870246Y13743533D01*
X4861306Y13739418D01*
X4853279Y13733780D01*
X4846320Y13726820D01*
X4840681Y13718794D01*
X4836566Y13709853D01*
X4834026Y13700404D01*
X4833162Y13690600D01*
X4834026Y13680795D01*
X4836566Y13671346D01*
X4837633Y13669010D01*
X4838598Y13664692D01*
X4838598Y13170407D01*
X4837633Y13166090D01*
X4836566Y13163753D01*
X4834026Y13154304D01*
X4833162Y13144500D01*
X4834026Y13134695D01*
X4836566Y13125246D01*
X4840681Y13116306D01*
X4846320Y13108279D01*
X4853279Y13101319D01*
X4861306Y13095681D01*
X4870246Y13091566D01*
X4879695Y13089026D01*
G37*
G36*
X3619500Y13111734D02*
G01*
X3632606Y13112597D01*
X3645458Y13115290D01*
X3657854Y13119709D01*
X3669537Y13125754D01*
X3680256Y13133324D01*
X3689858Y13142264D01*
X3698138Y13152475D01*
X3704996Y13163702D01*
X3710228Y13175742D01*
X3713784Y13188391D01*
X3715562Y13201446D01*
X3715562Y13214553D01*
X3713784Y13227608D01*
X3710228Y13240257D01*
X3704996Y13252297D01*
X3698138Y13263524D01*
X3689858Y13273735D01*
X3680256Y13282676D01*
X3669537Y13290245D01*
X3657854Y13296290D01*
X3645458Y13300710D01*
X3632606Y13303402D01*
X3619500Y13304266D01*
X3606393Y13303402D01*
X3593541Y13300710D01*
X3581146Y13296290D01*
X3569462Y13290245D01*
X3558743Y13282676D01*
X3549142Y13273735D01*
X3540861Y13263524D01*
X3534003Y13252297D01*
X3528771Y13240257D01*
X3525215Y13227608D01*
X3523437Y13214553D01*
X3523437Y13201446D01*
X3525215Y13188391D01*
X3528771Y13175742D01*
X3534003Y13163702D01*
X3540861Y13152475D01*
X3549142Y13142264D01*
X3558743Y13133324D01*
X3569462Y13125754D01*
X3581146Y13119709D01*
X3593541Y13115290D01*
X3606393Y13112597D01*
G37*
G36*
X5886653Y13165074D02*
G01*
X5901029Y13165988D01*
X5915202Y13168680D01*
X5928868Y13173100D01*
X5941923Y13179247D01*
X5954115Y13186968D01*
X5965190Y13196163D01*
X5975096Y13206679D01*
X5983528Y13218363D01*
X5990488Y13230961D01*
X5995822Y13244372D01*
X5999378Y13258342D01*
X6001207Y13272617D01*
X6001207Y13287044D01*
X5999378Y13301370D01*
X5995822Y13315340D01*
X5990488Y13328700D01*
X5983528Y13341350D01*
X5975096Y13353034D01*
X5965190Y13363549D01*
X5954115Y13372693D01*
X5941923Y13380415D01*
X5928868Y13386562D01*
X5915202Y13391032D01*
X5901029Y13393724D01*
X5886653Y13394639D01*
X5872226Y13393724D01*
X5858103Y13391032D01*
X5844387Y13386562D01*
X5831332Y13380415D01*
X5819140Y13372693D01*
X5808065Y13363549D01*
X5798210Y13353034D01*
X5789726Y13341350D01*
X5782767Y13328700D01*
X5777484Y13315340D01*
X5773877Y13301370D01*
X5772099Y13287044D01*
X5772099Y13272617D01*
X5773877Y13258342D01*
X5777484Y13244372D01*
X5782767Y13230961D01*
X5789726Y13218363D01*
X5798210Y13206679D01*
X5808065Y13196163D01*
X5819140Y13186968D01*
X5831332Y13179247D01*
X5844387Y13173100D01*
X5858103Y13168680D01*
X5872226Y13165988D01*
G37*
G36*
X6486296Y13194893D02*
G01*
X6499910Y13195300D01*
X6513372Y13197586D01*
X6526377Y13201650D01*
X6538772Y13207390D01*
X6550253Y13214705D01*
X6560667Y13223494D01*
X6569811Y13233654D01*
X6577533Y13244880D01*
X6583680Y13257022D01*
X6588150Y13269925D01*
X6590893Y13283285D01*
X6591808Y13296900D01*
X6590893Y13310514D01*
X6588150Y13323874D01*
X6583680Y13336727D01*
X6577533Y13348919D01*
X6569811Y13360146D01*
X6560667Y13370255D01*
X6550253Y13379094D01*
X6538772Y13386409D01*
X6526377Y13392150D01*
X6513372Y13396213D01*
X6499910Y13398449D01*
X6486296Y13398906D01*
X6472732Y13397585D01*
X6459474Y13394385D01*
X6446723Y13389508D01*
X6434785Y13382955D01*
X6423812Y13374878D01*
X6414008Y13365378D01*
X6405524Y13354659D01*
X6398564Y13342924D01*
X6393281Y13330377D01*
X6389674Y13317219D01*
X6387846Y13303707D01*
X6387846Y13290092D01*
X6389674Y13276580D01*
X6393281Y13263422D01*
X6398564Y13250875D01*
X6405524Y13239140D01*
X6414008Y13228421D01*
X6423812Y13218922D01*
X6434785Y13210844D01*
X6446723Y13204291D01*
X6459474Y13199414D01*
X6472732Y13196214D01*
G37*
G36*
X5169560Y13227862D02*
G01*
X5179314Y13228726D01*
X5188813Y13231266D01*
X5197703Y13235381D01*
X5205780Y13241019D01*
X5212689Y13247979D01*
X5218328Y13256006D01*
X5222494Y13264946D01*
X5225034Y13274395D01*
X5225897Y13284200D01*
X5225034Y13294004D01*
X5222494Y13303453D01*
X5221478Y13305688D01*
X5220512Y13309955D01*
X5219852Y13664793D01*
X5220817Y13669111D01*
X5221833Y13671346D01*
X5224373Y13680795D01*
X5225237Y13690600D01*
X5224373Y13700404D01*
X5221833Y13709853D01*
X5217718Y13718794D01*
X5212080Y13726820D01*
X5205120Y13733780D01*
X5197094Y13739418D01*
X5188153Y13743533D01*
X5178704Y13746073D01*
X5168900Y13746937D01*
X5159095Y13746073D01*
X5149646Y13743533D01*
X5140706Y13739418D01*
X5132679Y13733780D01*
X5125720Y13726820D01*
X5120081Y13718794D01*
X5115966Y13709853D01*
X5113426Y13700404D01*
X5112562Y13690600D01*
X5113426Y13680795D01*
X5115966Y13671346D01*
X5117084Y13668908D01*
X5118049Y13664590D01*
X5118709Y13310260D01*
X5117744Y13305942D01*
X5116576Y13303453D01*
X5114036Y13294004D01*
X5113172Y13284200D01*
X5114036Y13274395D01*
X5116576Y13264946D01*
X5120741Y13256006D01*
X5126380Y13247979D01*
X5133340Y13241019D01*
X5141366Y13235381D01*
X5150256Y13231266D01*
X5159756Y13228726D01*
G37*
G36*
X5886653Y13419074D02*
G01*
X5901029Y13419988D01*
X5915202Y13422680D01*
X5928868Y13427100D01*
X5941923Y13433247D01*
X5954115Y13440968D01*
X5965190Y13450163D01*
X5975096Y13460679D01*
X5983528Y13472363D01*
X5990488Y13484961D01*
X5995822Y13498372D01*
X5999378Y13512342D01*
X6001207Y13526617D01*
X6001207Y13541044D01*
X5999378Y13555370D01*
X5995822Y13569340D01*
X5990488Y13582700D01*
X5983528Y13595350D01*
X5975096Y13607034D01*
X5965190Y13617549D01*
X5954115Y13626693D01*
X5941923Y13634415D01*
X5928868Y13640562D01*
X5915202Y13645032D01*
X5901029Y13647724D01*
X5886653Y13648639D01*
X5872226Y13647724D01*
X5858103Y13645032D01*
X5844387Y13640562D01*
X5831332Y13634415D01*
X5819140Y13626693D01*
X5808065Y13617549D01*
X5798210Y13607034D01*
X5789726Y13595350D01*
X5782767Y13582700D01*
X5777484Y13569340D01*
X5773877Y13555370D01*
X5772099Y13541044D01*
X5772099Y13526617D01*
X5773877Y13512342D01*
X5777484Y13498372D01*
X5782767Y13484961D01*
X5789726Y13472363D01*
X5798210Y13460679D01*
X5808065Y13450163D01*
X5819140Y13440968D01*
X5831332Y13433247D01*
X5844387Y13427100D01*
X5858103Y13422680D01*
X5872226Y13419988D01*
G37*
G36*
X6486296Y13448893D02*
G01*
X6499910Y13449300D01*
X6513372Y13451586D01*
X6526377Y13455650D01*
X6538772Y13461390D01*
X6550253Y13468705D01*
X6560667Y13477494D01*
X6569811Y13487654D01*
X6577533Y13498880D01*
X6583680Y13511022D01*
X6588150Y13523925D01*
X6590893Y13537285D01*
X6591808Y13550900D01*
X6590893Y13564514D01*
X6588150Y13577874D01*
X6583680Y13590727D01*
X6577533Y13602919D01*
X6569811Y13614146D01*
X6560667Y13624255D01*
X6550253Y13633094D01*
X6538772Y13640409D01*
X6526377Y13646150D01*
X6513372Y13650213D01*
X6499910Y13652449D01*
X6486296Y13652906D01*
X6472732Y13651585D01*
X6459474Y13648385D01*
X6446723Y13643508D01*
X6434785Y13636955D01*
X6423812Y13628878D01*
X6414008Y13619378D01*
X6405524Y13608659D01*
X6398564Y13596924D01*
X6393281Y13584377D01*
X6389674Y13571219D01*
X6387846Y13557707D01*
X6387846Y13544092D01*
X6389674Y13530580D01*
X6393281Y13517422D01*
X6398564Y13504875D01*
X6405524Y13493140D01*
X6414008Y13482421D01*
X6423812Y13472922D01*
X6434785Y13464844D01*
X6446723Y13458291D01*
X6459474Y13453414D01*
X6472732Y13450214D01*
G37*
G36*
X5886653Y13673074D02*
G01*
X5901029Y13673988D01*
X5915202Y13676680D01*
X5928868Y13681100D01*
X5941923Y13687247D01*
X5954115Y13694968D01*
X5965190Y13704163D01*
X5975096Y13714679D01*
X5983528Y13726363D01*
X5990488Y13738961D01*
X5995822Y13752372D01*
X5999378Y13766342D01*
X6001207Y13780617D01*
X6001207Y13795044D01*
X5999378Y13809370D01*
X5995822Y13823340D01*
X5990488Y13836700D01*
X5983528Y13849350D01*
X5975096Y13861034D01*
X5965190Y13871549D01*
X5954115Y13880693D01*
X5941923Y13888415D01*
X5928868Y13894562D01*
X5915202Y13899032D01*
X5901029Y13901724D01*
X5886653Y13902639D01*
X5872226Y13901724D01*
X5858103Y13899032D01*
X5844387Y13894562D01*
X5831332Y13888415D01*
X5819140Y13880693D01*
X5808065Y13871549D01*
X5798210Y13861034D01*
X5789726Y13849350D01*
X5782767Y13836700D01*
X5777484Y13823340D01*
X5773877Y13809370D01*
X5772099Y13795044D01*
X5772099Y13780617D01*
X5773877Y13766342D01*
X5777484Y13752372D01*
X5782767Y13738961D01*
X5789726Y13726363D01*
X5798210Y13714679D01*
X5808065Y13704163D01*
X5819140Y13694968D01*
X5831332Y13687247D01*
X5844387Y13681100D01*
X5858103Y13676680D01*
X5872226Y13673988D01*
G37*
G36*
X6486296Y13702893D02*
G01*
X6499910Y13703300D01*
X6513372Y13705586D01*
X6526377Y13709650D01*
X6538772Y13715390D01*
X6550253Y13722705D01*
X6560667Y13731494D01*
X6569811Y13741654D01*
X6577533Y13752880D01*
X6583680Y13765022D01*
X6588150Y13777925D01*
X6590893Y13791285D01*
X6591808Y13804900D01*
X6590893Y13818514D01*
X6588150Y13831874D01*
X6583680Y13844727D01*
X6577533Y13856919D01*
X6569811Y13868146D01*
X6560667Y13878255D01*
X6550253Y13887094D01*
X6538772Y13894409D01*
X6526377Y13900150D01*
X6513372Y13904213D01*
X6499910Y13906449D01*
X6486296Y13906906D01*
X6472732Y13905585D01*
X6459474Y13902385D01*
X6446723Y13897508D01*
X6434785Y13890955D01*
X6423812Y13882878D01*
X6414008Y13873378D01*
X6405524Y13862659D01*
X6398564Y13850924D01*
X6393281Y13838377D01*
X6389674Y13825219D01*
X6387846Y13811707D01*
X6387846Y13798092D01*
X6389674Y13784580D01*
X6393281Y13771422D01*
X6398564Y13758875D01*
X6405524Y13747140D01*
X6414008Y13736421D01*
X6423812Y13726922D01*
X6434785Y13718844D01*
X6446723Y13712291D01*
X6459474Y13707414D01*
X6472732Y13704214D01*
G37*
G36*
X3661054Y13832535D02*
G01*
X3669537Y13836954D01*
X3680256Y13844524D01*
X3689858Y13853464D01*
X3698138Y13863675D01*
X3704996Y13874902D01*
X3706164Y13877645D01*
X3661054Y13877645D01*
G37*
G36*
X3577945Y13832535D02*
G01*
X3577945Y13877645D01*
X3532835Y13877645D01*
X3534003Y13874902D01*
X3540861Y13863675D01*
X3549142Y13853464D01*
X3558743Y13844524D01*
X3569462Y13836954D01*
G37*
G36*
X5886653Y13927074D02*
G01*
X5901029Y13927988D01*
X5915202Y13930680D01*
X5928868Y13935100D01*
X5941923Y13941247D01*
X5954115Y13948968D01*
X5965190Y13958163D01*
X5975096Y13968679D01*
X5983528Y13980363D01*
X5990488Y13992961D01*
X5995822Y14006372D01*
X5999378Y14020342D01*
X6001207Y14034617D01*
X6001207Y14049044D01*
X5999378Y14063370D01*
X5995822Y14077340D01*
X5990488Y14090700D01*
X5983528Y14103350D01*
X5975096Y14115034D01*
X5965190Y14125549D01*
X5954115Y14134693D01*
X5941923Y14142415D01*
X5928868Y14148562D01*
X5915202Y14153032D01*
X5901029Y14155724D01*
X5886653Y14156639D01*
X5872226Y14155724D01*
X5858103Y14153032D01*
X5844387Y14148562D01*
X5831332Y14142415D01*
X5819140Y14134693D01*
X5808065Y14125549D01*
X5798210Y14115034D01*
X5789726Y14103350D01*
X5782767Y14090700D01*
X5777484Y14077340D01*
X5773877Y14063370D01*
X5772099Y14049044D01*
X5772099Y14034617D01*
X5773877Y14020342D01*
X5777484Y14006372D01*
X5782767Y13992961D01*
X5789726Y13980363D01*
X5798210Y13968679D01*
X5808065Y13958163D01*
X5819140Y13948968D01*
X5831332Y13941247D01*
X5844387Y13935100D01*
X5858103Y13930680D01*
X5872226Y13927988D01*
G37*
G36*
X6486296Y13956893D02*
G01*
X6499910Y13957300D01*
X6513372Y13959586D01*
X6526377Y13963650D01*
X6538772Y13969390D01*
X6550253Y13976705D01*
X6560667Y13985494D01*
X6569811Y13995654D01*
X6577533Y14006880D01*
X6583680Y14019022D01*
X6588150Y14031925D01*
X6590893Y14045285D01*
X6591808Y14058900D01*
X6590893Y14072514D01*
X6588150Y14085874D01*
X6583680Y14098727D01*
X6577533Y14110919D01*
X6569811Y14122146D01*
X6560667Y14132255D01*
X6550253Y14141094D01*
X6538772Y14148409D01*
X6526377Y14154150D01*
X6513372Y14158213D01*
X6499910Y14160449D01*
X6486296Y14160906D01*
X6472732Y14159585D01*
X6459474Y14156385D01*
X6446723Y14151508D01*
X6434785Y14144955D01*
X6423812Y14136878D01*
X6414008Y14127378D01*
X6405524Y14116659D01*
X6398564Y14104924D01*
X6393281Y14092377D01*
X6389674Y14079219D01*
X6387846Y14065707D01*
X6387846Y14052092D01*
X6389674Y14038580D01*
X6393281Y14025422D01*
X6398564Y14012875D01*
X6405524Y14001140D01*
X6414008Y13990421D01*
X6423812Y13980922D01*
X6434785Y13972844D01*
X6446723Y13966291D01*
X6459474Y13961414D01*
X6472732Y13958214D01*
G37*
G36*
X3661054Y13960754D02*
G01*
X3706164Y13960754D01*
X3704996Y13963497D01*
X3698138Y13974724D01*
X3689858Y13984935D01*
X3680256Y13993876D01*
X3669537Y14001445D01*
X3661054Y14005864D01*
G37*
G36*
X3532835Y13960754D02*
G01*
X3577945Y13960754D01*
X3577945Y14005864D01*
X3569462Y14001445D01*
X3558743Y13993876D01*
X3549142Y13984935D01*
X3540861Y13974724D01*
X3534003Y13963497D01*
G37*
G36*
X5886653Y14181074D02*
G01*
X5901029Y14181988D01*
X5915202Y14184680D01*
X5928868Y14189100D01*
X5941923Y14195247D01*
X5954115Y14202968D01*
X5965190Y14212163D01*
X5975096Y14222679D01*
X5983528Y14234363D01*
X5990488Y14246961D01*
X5995822Y14260372D01*
X5999378Y14274342D01*
X6001207Y14288617D01*
X6001207Y14303044D01*
X5999378Y14317370D01*
X5995822Y14331340D01*
X5990488Y14344700D01*
X5983528Y14357350D01*
X5975096Y14369034D01*
X5965190Y14379549D01*
X5954115Y14388693D01*
X5941923Y14396415D01*
X5928868Y14402562D01*
X5915202Y14407032D01*
X5901029Y14409724D01*
X5886653Y14410639D01*
X5872226Y14409724D01*
X5858103Y14407032D01*
X5844387Y14402562D01*
X5831332Y14396415D01*
X5819140Y14388693D01*
X5808065Y14379549D01*
X5798210Y14369034D01*
X5789726Y14357350D01*
X5782767Y14344700D01*
X5777484Y14331340D01*
X5773877Y14317370D01*
X5772099Y14303044D01*
X5772099Y14288617D01*
X5773877Y14274342D01*
X5777484Y14260372D01*
X5782767Y14246961D01*
X5789726Y14234363D01*
X5798210Y14222679D01*
X5808065Y14212163D01*
X5819140Y14202968D01*
X5831332Y14195247D01*
X5844387Y14189100D01*
X5858103Y14184680D01*
X5872226Y14181988D01*
G37*
G36*
X6486296Y14210893D02*
G01*
X6499910Y14211300D01*
X6513372Y14213586D01*
X6526377Y14217650D01*
X6538772Y14223390D01*
X6550253Y14230705D01*
X6560667Y14239494D01*
X6569811Y14249654D01*
X6577533Y14260880D01*
X6583680Y14273022D01*
X6588150Y14285925D01*
X6590893Y14299285D01*
X6591808Y14312900D01*
X6590893Y14326514D01*
X6588150Y14339874D01*
X6583680Y14352727D01*
X6577533Y14364919D01*
X6569811Y14376146D01*
X6560667Y14386255D01*
X6550253Y14395094D01*
X6538772Y14402409D01*
X6526377Y14408150D01*
X6513372Y14412213D01*
X6499910Y14414449D01*
X6486296Y14414906D01*
X6472732Y14413585D01*
X6459474Y14410385D01*
X6446723Y14405508D01*
X6434785Y14398955D01*
X6423812Y14390878D01*
X6414008Y14381378D01*
X6405524Y14370659D01*
X6398564Y14358924D01*
X6393281Y14346377D01*
X6389674Y14333219D01*
X6387846Y14319707D01*
X6387846Y14306092D01*
X6389674Y14292580D01*
X6393281Y14279422D01*
X6398564Y14266875D01*
X6405524Y14255140D01*
X6414008Y14244421D01*
X6423812Y14234922D01*
X6434785Y14226844D01*
X6446723Y14220291D01*
X6459474Y14215414D01*
X6472732Y14212214D01*
G37*
G36*
X4678172Y14246047D02*
G01*
X4696206Y14247418D01*
X4714036Y14250669D01*
X4731410Y14255750D01*
X4748174Y14262557D01*
X4764176Y14271091D01*
X4779213Y14281200D01*
X4793081Y14292783D01*
X4805730Y14305737D01*
X4816957Y14319961D01*
X4826711Y14335251D01*
X4834788Y14351406D01*
X4841189Y14368373D01*
X4845761Y14385899D01*
X4848555Y14403781D01*
X4849520Y14421866D01*
X4848555Y14439950D01*
X4845761Y14457832D01*
X4841189Y14475358D01*
X4834788Y14492274D01*
X4826711Y14508480D01*
X4816957Y14523770D01*
X4805730Y14537994D01*
X4793081Y14550948D01*
X4779213Y14562531D01*
X4764176Y14572640D01*
X4748174Y14581174D01*
X4731410Y14587982D01*
X4714036Y14593062D01*
X4696206Y14596313D01*
X4678172Y14597684D01*
X4660036Y14597227D01*
X4642104Y14594890D01*
X4624476Y14590725D01*
X4607356Y14584781D01*
X4590948Y14577110D01*
X4575454Y14567763D01*
X4560976Y14556943D01*
X4547666Y14544598D01*
X4535728Y14531035D01*
X4525213Y14516252D01*
X4516323Y14500504D01*
X4509058Y14483892D01*
X4503521Y14466671D01*
X4499813Y14448942D01*
X4497984Y14430908D01*
X4497984Y14412823D01*
X4499813Y14394789D01*
X4503521Y14377060D01*
X4509058Y14359839D01*
X4516323Y14343227D01*
X4525213Y14327479D01*
X4535728Y14312696D01*
X4547666Y14299133D01*
X4560976Y14286788D01*
X4575454Y14275917D01*
X4590948Y14266621D01*
X4607356Y14258950D01*
X4624476Y14253006D01*
X4642104Y14248841D01*
X4660036Y14246504D01*
G37*
G36*
X5886602Y14435023D02*
G01*
X5900978Y14435937D01*
X5915152Y14438630D01*
X5928868Y14443049D01*
X5941923Y14449196D01*
X5954064Y14456918D01*
X5965190Y14466112D01*
X5975045Y14476628D01*
X5983528Y14488312D01*
X5990488Y14500910D01*
X5995771Y14514322D01*
X5999378Y14528292D01*
X6001156Y14542566D01*
X6001156Y14556994D01*
X5999378Y14571319D01*
X5995771Y14585289D01*
X5990488Y14598650D01*
X5983528Y14611299D01*
X5975045Y14622983D01*
X5965190Y14633498D01*
X5954064Y14642642D01*
X5941923Y14650364D01*
X5928868Y14656511D01*
X5915152Y14660981D01*
X5900978Y14663674D01*
X5886602Y14664588D01*
X5872226Y14663674D01*
X5858052Y14660981D01*
X5844336Y14656511D01*
X5831332Y14650364D01*
X5819140Y14642642D01*
X5808014Y14633498D01*
X5798159Y14622983D01*
X5789676Y14611299D01*
X5782767Y14598650D01*
X5777433Y14585289D01*
X5773877Y14571319D01*
X5772048Y14556994D01*
X5772048Y14542566D01*
X5773877Y14528292D01*
X5777433Y14514322D01*
X5782767Y14500910D01*
X5789676Y14488312D01*
X5798159Y14476628D01*
X5808014Y14466112D01*
X5819140Y14456918D01*
X5831332Y14449196D01*
X5844336Y14443049D01*
X5858052Y14438630D01*
X5872226Y14435937D01*
G37*
G36*
X6486296Y14464893D02*
G01*
X6499910Y14465300D01*
X6513372Y14467586D01*
X6526377Y14471650D01*
X6538772Y14477390D01*
X6550253Y14484705D01*
X6560667Y14493494D01*
X6569811Y14503654D01*
X6577533Y14514880D01*
X6583680Y14527022D01*
X6588150Y14539925D01*
X6590893Y14553285D01*
X6591808Y14566900D01*
X6590893Y14580514D01*
X6588150Y14593874D01*
X6583680Y14606727D01*
X6577533Y14618919D01*
X6569811Y14630146D01*
X6560667Y14640255D01*
X6550253Y14649094D01*
X6538772Y14656409D01*
X6526377Y14662150D01*
X6513372Y14666213D01*
X6499910Y14668449D01*
X6486296Y14668906D01*
X6472732Y14667585D01*
X6459474Y14664385D01*
X6446723Y14659508D01*
X6434785Y14652955D01*
X6423812Y14644878D01*
X6414008Y14635378D01*
X6405524Y14624659D01*
X6398564Y14612924D01*
X6393281Y14600377D01*
X6389674Y14587219D01*
X6387846Y14573707D01*
X6387846Y14560092D01*
X6389674Y14546580D01*
X6393281Y14533422D01*
X6398564Y14520875D01*
X6405524Y14509140D01*
X6414008Y14498421D01*
X6423812Y14488922D01*
X6434785Y14480844D01*
X6446723Y14474291D01*
X6459474Y14469414D01*
X6472732Y14466214D01*
G37*
G36*
X1003300Y14473732D02*
G01*
X1017117Y14474596D01*
X1030681Y14477339D01*
X1043838Y14481759D01*
X1056233Y14487906D01*
X1067765Y14495576D01*
X1078179Y14504720D01*
X1087323Y14515134D01*
X1094994Y14526666D01*
X1101140Y14539061D01*
X1105560Y14552218D01*
X1108303Y14565782D01*
X1109167Y14579600D01*
X1108303Y14593417D01*
X1105560Y14606981D01*
X1101140Y14620138D01*
X1094994Y14632533D01*
X1087323Y14644065D01*
X1078179Y14654479D01*
X1067765Y14663623D01*
X1056233Y14671294D01*
X1043838Y14677440D01*
X1030681Y14681860D01*
X1017117Y14684603D01*
X1003300Y14685467D01*
X989482Y14684603D01*
X975918Y14681860D01*
X962761Y14677440D01*
X950366Y14671294D01*
X938834Y14663623D01*
X928420Y14654479D01*
X919276Y14644065D01*
X911606Y14632533D01*
X905459Y14620138D01*
X901039Y14606981D01*
X898296Y14593417D01*
X897432Y14579600D01*
X898296Y14565782D01*
X901039Y14552218D01*
X905459Y14539061D01*
X911606Y14526666D01*
X919276Y14515134D01*
X928420Y14504720D01*
X938834Y14495576D01*
X950366Y14487906D01*
X962761Y14481759D01*
X975918Y14477339D01*
X989482Y14474596D01*
G37*
G36*
X1210970Y14484654D02*
G01*
X1210970Y14533270D01*
X1162354Y14533270D01*
X1165606Y14526666D01*
X1173276Y14515134D01*
X1182420Y14504720D01*
X1192834Y14495576D01*
X1204366Y14487906D01*
G37*
G36*
X1303629Y14484654D02*
G01*
X1310233Y14487906D01*
X1321765Y14495576D01*
X1332179Y14504720D01*
X1341323Y14515134D01*
X1348994Y14526666D01*
X1352245Y14533270D01*
X1303629Y14533270D01*
G37*
G36*
X2387600Y14486432D02*
G01*
X2401417Y14487296D01*
X2414981Y14490039D01*
X2428138Y14494459D01*
X2440533Y14500606D01*
X2452065Y14508276D01*
X2462479Y14517420D01*
X2471623Y14527834D01*
X2479294Y14539366D01*
X2485440Y14551761D01*
X2489860Y14564918D01*
X2492603Y14578482D01*
X2493467Y14592300D01*
X2492603Y14606117D01*
X2489860Y14619681D01*
X2485440Y14632838D01*
X2479294Y14645233D01*
X2471623Y14656765D01*
X2462479Y14667179D01*
X2452065Y14676323D01*
X2440533Y14683994D01*
X2428138Y14690140D01*
X2414981Y14694560D01*
X2401417Y14697303D01*
X2387600Y14698167D01*
X2373782Y14697303D01*
X2360218Y14694560D01*
X2347061Y14690140D01*
X2334666Y14683994D01*
X2323134Y14676323D01*
X2312720Y14667179D01*
X2303576Y14656765D01*
X2295906Y14645233D01*
X2289759Y14632838D01*
X2285339Y14619681D01*
X2282596Y14606117D01*
X2281732Y14592300D01*
X2282596Y14578482D01*
X2285339Y14564918D01*
X2289759Y14551761D01*
X2295906Y14539366D01*
X2303576Y14527834D01*
X2312720Y14517420D01*
X2323134Y14508276D01*
X2334666Y14500606D01*
X2347061Y14494459D01*
X2360218Y14490039D01*
X2373782Y14487296D01*
G37*
G36*
X2595270Y14497354D02*
G01*
X2595270Y14545970D01*
X2546654Y14545970D01*
X2549906Y14539366D01*
X2557576Y14527834D01*
X2566720Y14517420D01*
X2577134Y14508276D01*
X2588666Y14500606D01*
G37*
G36*
X2687929Y14497354D02*
G01*
X2694533Y14500606D01*
X2706065Y14508276D01*
X2716479Y14517420D01*
X2725623Y14527834D01*
X2733294Y14539366D01*
X2736545Y14545970D01*
X2687929Y14545970D01*
G37*
G36*
X1162354Y14625929D02*
G01*
X1210970Y14625929D01*
X1210970Y14674545D01*
X1204366Y14671294D01*
X1192834Y14663623D01*
X1182420Y14654479D01*
X1173276Y14644065D01*
X1165606Y14632533D01*
G37*
G36*
X1303629Y14625929D02*
G01*
X1352245Y14625929D01*
X1348994Y14632533D01*
X1341323Y14644065D01*
X1332179Y14654479D01*
X1321765Y14663623D01*
X1310233Y14671294D01*
X1303629Y14674545D01*
G37*
G36*
X2687929Y14638629D02*
G01*
X2736545Y14638629D01*
X2733294Y14645233D01*
X2725623Y14656765D01*
X2716479Y14667179D01*
X2706065Y14676323D01*
X2694533Y14683994D01*
X2687929Y14687245D01*
G37*
G36*
X2546654Y14638629D02*
G01*
X2595270Y14638629D01*
X2595270Y14687245D01*
X2588666Y14683994D01*
X2577134Y14676323D01*
X2566720Y14667179D01*
X2557576Y14656765D01*
X2549906Y14645233D01*
G37*
G36*
X4318000Y14661743D02*
G01*
X4327804Y14662607D01*
X4337253Y14665147D01*
X4346194Y14669312D01*
X4354220Y14674951D01*
X4361180Y14681860D01*
X4367225Y14690547D01*
X4370019Y14693239D01*
X4373626Y14694712D01*
X4377486Y14694712D01*
X4381093Y14693239D01*
X4383887Y14690547D01*
X4389120Y14683079D01*
X4396079Y14676119D01*
X4404106Y14670481D01*
X4413046Y14666366D01*
X4422495Y14663826D01*
X4432300Y14662962D01*
X4442104Y14663826D01*
X4451553Y14666366D01*
X4460494Y14670481D01*
X4468520Y14676119D01*
X4475480Y14683079D01*
X4481118Y14691156D01*
X4483912Y14693849D01*
X4487519Y14695322D01*
X4491380Y14695322D01*
X4494987Y14693849D01*
X4497781Y14691156D01*
X4503420Y14683079D01*
X4510379Y14676119D01*
X4518406Y14670481D01*
X4527346Y14666366D01*
X4536795Y14663826D01*
X4546600Y14662962D01*
X4556404Y14663826D01*
X4565853Y14666366D01*
X4574794Y14670481D01*
X4582820Y14676119D01*
X4589780Y14683079D01*
X4595418Y14691106D01*
X4599533Y14700046D01*
X4602073Y14709495D01*
X4602937Y14719300D01*
X4602073Y14729104D01*
X4599533Y14738553D01*
X4598466Y14740890D01*
X4597501Y14745207D01*
X4597501Y15036292D01*
X4598466Y15040610D01*
X4599533Y15042946D01*
X4602073Y15052395D01*
X4602937Y15062200D01*
X4602073Y15072004D01*
X4599533Y15081453D01*
X4595418Y15090394D01*
X4589780Y15098420D01*
X4582820Y15105380D01*
X4574794Y15111018D01*
X4565853Y15115133D01*
X4556404Y15117673D01*
X4546600Y15118537D01*
X4536795Y15117673D01*
X4527346Y15115133D01*
X4518406Y15111018D01*
X4510379Y15105380D01*
X4503420Y15098420D01*
X4497781Y15090343D01*
X4494987Y15087650D01*
X4491380Y15086177D01*
X4487519Y15086177D01*
X4483912Y15087650D01*
X4481118Y15090343D01*
X4475480Y15098420D01*
X4468520Y15105380D01*
X4460494Y15111018D01*
X4451553Y15115133D01*
X4442104Y15117673D01*
X4432300Y15118537D01*
X4422495Y15117673D01*
X4413046Y15115133D01*
X4404106Y15111018D01*
X4396079Y15105380D01*
X4389120Y15098420D01*
X4387392Y15095931D01*
X4384294Y15093035D01*
X4380230Y15091663D01*
X4376013Y15092070D01*
X4372305Y15094153D01*
X4369816Y15097607D01*
X4368901Y15101773D01*
X4368901Y16670121D01*
X4369663Y16674033D01*
X4371898Y16677284D01*
X4653076Y16958513D01*
X4655972Y16960545D01*
X4663694Y16964101D01*
X4671720Y16969740D01*
X4678680Y16976699D01*
X4684318Y16984726D01*
X4688433Y16993666D01*
X4690973Y17003115D01*
X4691837Y17012920D01*
X4690973Y17022724D01*
X4688433Y17032173D01*
X4684318Y17041114D01*
X4678680Y17049140D01*
X4671720Y17056100D01*
X4663694Y17061738D01*
X4654753Y17065853D01*
X4645304Y17068393D01*
X4635500Y17069257D01*
X4625695Y17068393D01*
X4616246Y17065853D01*
X4607306Y17061738D01*
X4599279Y17056100D01*
X4592320Y17049140D01*
X4586681Y17041114D01*
X4583125Y17033392D01*
X4581093Y17030496D01*
X4282135Y16731589D01*
X4278985Y16728135D01*
X4276293Y16724630D01*
X4273905Y16720870D01*
X4271873Y16716908D01*
X4270146Y16712844D01*
X4268825Y16708577D01*
X4267860Y16704259D01*
X4267301Y16699839D01*
X4267098Y16695216D01*
X4267098Y15069261D01*
X4266133Y15064943D01*
X4264050Y15062200D01*
X4266133Y15059456D01*
X4267098Y15055138D01*
X4267098Y14743988D01*
X4266133Y14739721D01*
X4264456Y14735251D01*
X4262424Y14731339D01*
X4258970Y14728647D01*
X4254652Y14727682D01*
X4250385Y14728647D01*
X4246880Y14731339D01*
X4244848Y14735251D01*
X4243933Y14738553D01*
X4242866Y14740890D01*
X4241901Y14745207D01*
X4241901Y15036292D01*
X4242866Y15040610D01*
X4243933Y15042946D01*
X4246473Y15052395D01*
X4246829Y15056053D01*
X4248150Y15060218D01*
X4249928Y15062200D01*
X4248150Y15064181D01*
X4246829Y15068346D01*
X4246473Y15072004D01*
X4243933Y15081453D01*
X4239818Y15090394D01*
X4234180Y15098420D01*
X4227220Y15105380D01*
X4219194Y15111018D01*
X4210253Y15115133D01*
X4200804Y15117673D01*
X4191000Y15118537D01*
X4181195Y15117673D01*
X4171746Y15115133D01*
X4162806Y15111018D01*
X4154779Y15105380D01*
X4147820Y15098420D01*
X4142181Y15090394D01*
X4138066Y15081453D01*
X4135526Y15072004D01*
X4134662Y15062200D01*
X4135526Y15052395D01*
X4138066Y15042946D01*
X4139133Y15040610D01*
X4140098Y15036292D01*
X4140098Y14745207D01*
X4139133Y14740890D01*
X4138066Y14738553D01*
X4135526Y14729104D01*
X4134662Y14719300D01*
X4135526Y14709495D01*
X4138066Y14700046D01*
X4142181Y14691106D01*
X4147820Y14683079D01*
X4154779Y14676119D01*
X4162806Y14670481D01*
X4171746Y14666366D01*
X4181195Y14663826D01*
X4191000Y14662962D01*
X4200804Y14663826D01*
X4210253Y14666366D01*
X4219194Y14670481D01*
X4227220Y14676119D01*
X4234180Y14683079D01*
X4239818Y14691106D01*
X4243933Y14700046D01*
X4244543Y14702180D01*
X4246575Y14706092D01*
X4250029Y14708733D01*
X4254347Y14709698D01*
X4258614Y14708733D01*
X4262120Y14706092D01*
X4264152Y14702180D01*
X4265066Y14698827D01*
X4269181Y14689937D01*
X4274820Y14681860D01*
X4281779Y14674951D01*
X4289806Y14669312D01*
X4298746Y14665147D01*
X4308195Y14662607D01*
G37*
G36*
X5054600Y14662962D02*
G01*
X5064404Y14663826D01*
X5073853Y14666366D01*
X5082794Y14670481D01*
X5090820Y14676119D01*
X5097780Y14683079D01*
X5103418Y14691156D01*
X5106212Y14693849D01*
X5109819Y14695322D01*
X5113680Y14695322D01*
X5117287Y14693849D01*
X5120081Y14691156D01*
X5125720Y14683079D01*
X5132679Y14676119D01*
X5140706Y14670481D01*
X5149646Y14666366D01*
X5159095Y14663826D01*
X5168900Y14662962D01*
X5178704Y14663826D01*
X5188153Y14666366D01*
X5197094Y14670481D01*
X5205120Y14676119D01*
X5212080Y14683079D01*
X5217718Y14691106D01*
X5221833Y14700046D01*
X5224373Y14709495D01*
X5225237Y14719300D01*
X5224373Y14729104D01*
X5221833Y14738553D01*
X5220766Y14740890D01*
X5219801Y14745207D01*
X5219801Y15036292D01*
X5220766Y15040610D01*
X5221833Y15042946D01*
X5224373Y15052395D01*
X5225237Y15062200D01*
X5224373Y15072004D01*
X5221833Y15081453D01*
X5217718Y15090394D01*
X5212080Y15098420D01*
X5205120Y15105380D01*
X5197094Y15111018D01*
X5188153Y15115133D01*
X5178704Y15117673D01*
X5168900Y15118537D01*
X5159095Y15117673D01*
X5149646Y15115133D01*
X5140706Y15111018D01*
X5132679Y15105380D01*
X5125720Y15098420D01*
X5120081Y15090343D01*
X5117287Y15087650D01*
X5113680Y15086177D01*
X5109819Y15086177D01*
X5106212Y15087650D01*
X5103418Y15090343D01*
X5097780Y15098420D01*
X5090820Y15105380D01*
X5082794Y15111018D01*
X5073853Y15115133D01*
X5064404Y15117673D01*
X5054600Y15118537D01*
X5044795Y15117673D01*
X5035346Y15115133D01*
X5026406Y15111018D01*
X5018379Y15105380D01*
X5011420Y15098420D01*
X5005781Y15090394D01*
X5001666Y15081453D01*
X4999126Y15072004D01*
X4998262Y15062200D01*
X4999126Y15052395D01*
X5001666Y15042946D01*
X5002733Y15040610D01*
X5003698Y15036292D01*
X5003698Y14745207D01*
X5002733Y14740890D01*
X5001666Y14738553D01*
X4999126Y14729104D01*
X4998262Y14719300D01*
X4999126Y14709495D01*
X5001666Y14700046D01*
X5005781Y14691106D01*
X5011420Y14683079D01*
X5018379Y14676119D01*
X5026406Y14670481D01*
X5035346Y14666366D01*
X5044795Y14663826D01*
G37*
G36*
X5321300Y14662962D02*
G01*
X5331104Y14663826D01*
X5340553Y14666366D01*
X5349494Y14670481D01*
X5357520Y14676119D01*
X5364480Y14683079D01*
X5370118Y14691106D01*
X5374233Y14700046D01*
X5376773Y14709495D01*
X5377637Y14719300D01*
X5376773Y14729104D01*
X5374233Y14738553D01*
X5373166Y14740890D01*
X5372201Y14745207D01*
X5372201Y15176601D01*
X5372963Y15180513D01*
X5375198Y15183764D01*
X5687364Y15495930D01*
X5690514Y15499384D01*
X5693206Y15502890D01*
X5695594Y15506649D01*
X5697626Y15510611D01*
X5699353Y15514675D01*
X5700674Y15518942D01*
X5701639Y15523260D01*
X5702198Y15527680D01*
X5702401Y15532303D01*
X5702401Y15981172D01*
X5703366Y15985490D01*
X5704433Y15987826D01*
X5706973Y15997275D01*
X5707837Y16007080D01*
X5706973Y16016884D01*
X5704433Y16026333D01*
X5700318Y16035274D01*
X5694680Y16043300D01*
X5687720Y16050260D01*
X5679694Y16055898D01*
X5670753Y16060013D01*
X5661304Y16062553D01*
X5651500Y16063417D01*
X5641695Y16062553D01*
X5632246Y16060013D01*
X5623306Y16055898D01*
X5615279Y16050260D01*
X5608320Y16043300D01*
X5602681Y16035274D01*
X5598566Y16026333D01*
X5596026Y16016884D01*
X5595162Y16007080D01*
X5596026Y15997275D01*
X5598566Y15987826D01*
X5599633Y15985490D01*
X5600598Y15981172D01*
X5600598Y15557398D01*
X5599836Y15553486D01*
X5597601Y15550235D01*
X5285435Y15238069D01*
X5282285Y15234615D01*
X5279593Y15231110D01*
X5277205Y15227350D01*
X5275173Y15223388D01*
X5273446Y15219324D01*
X5272125Y15215057D01*
X5271160Y15210739D01*
X5270601Y15206319D01*
X5270398Y15201696D01*
X5270398Y14745207D01*
X5269433Y14740890D01*
X5268366Y14738553D01*
X5265826Y14729104D01*
X5264962Y14719300D01*
X5265826Y14709495D01*
X5268366Y14700046D01*
X5272481Y14691106D01*
X5278120Y14683079D01*
X5285079Y14676119D01*
X5293106Y14670481D01*
X5302046Y14666366D01*
X5311495Y14663826D01*
G37*
G36*
X3958996Y14960193D02*
G01*
X3972610Y14960600D01*
X3986072Y14962886D01*
X3999077Y14966950D01*
X4011472Y14972690D01*
X4022953Y14980005D01*
X4033367Y14988794D01*
X4042511Y14998954D01*
X4050233Y15010180D01*
X4056379Y15022322D01*
X4060850Y15035225D01*
X4063593Y15048585D01*
X4064508Y15062200D01*
X4063593Y15075814D01*
X4060850Y15089174D01*
X4056379Y15102027D01*
X4050233Y15114219D01*
X4042511Y15125446D01*
X4033367Y15135555D01*
X4022953Y15144394D01*
X4011472Y15151709D01*
X3999077Y15157450D01*
X3986072Y15161513D01*
X3972610Y15163749D01*
X3958996Y15164206D01*
X3945432Y15162885D01*
X3932174Y15159685D01*
X3919423Y15154808D01*
X3907485Y15148255D01*
X3896512Y15140178D01*
X3886708Y15130678D01*
X3878224Y15119959D01*
X3871264Y15108224D01*
X3865981Y15095677D01*
X3862374Y15082519D01*
X3860546Y15069007D01*
X3860546Y15055392D01*
X3862374Y15041880D01*
X3865981Y15028722D01*
X3871264Y15016175D01*
X3878224Y15004440D01*
X3886708Y14993721D01*
X3896512Y14984222D01*
X3907485Y14976144D01*
X3919423Y14969591D01*
X3932174Y14964714D01*
X3945432Y14961514D01*
G37*
G36*
X6445250Y14983104D02*
G01*
X6445250Y15030450D01*
X6397904Y15030450D01*
X6398564Y15028875D01*
X6405524Y15017140D01*
X6414008Y15006421D01*
X6423812Y14996922D01*
X6434785Y14988844D01*
G37*
G36*
X6534150Y14983256D02*
G01*
X6538772Y14985390D01*
X6550253Y14992705D01*
X6560667Y15001494D01*
X6569811Y15011654D01*
X6577533Y15022880D01*
X6581343Y15030450D01*
X6534150Y15030450D01*
G37*
G36*
X6534150Y15119350D02*
G01*
X6581343Y15119350D01*
X6577533Y15126919D01*
X6569811Y15138146D01*
X6560667Y15148255D01*
X6550253Y15157094D01*
X6538772Y15164409D01*
X6534150Y15166543D01*
G37*
G36*
X6397904Y15119350D02*
G01*
X6445250Y15119350D01*
X6445250Y15166695D01*
X6434785Y15160955D01*
X6423812Y15152878D01*
X6414008Y15143378D01*
X6405524Y15132659D01*
X6398564Y15120924D01*
G37*
G36*
X6146800Y15361462D02*
G01*
X6156604Y15362326D01*
X6166053Y15364866D01*
X6174994Y15368981D01*
X6183020Y15374619D01*
X6189980Y15381579D01*
X6195618Y15389606D01*
X6199174Y15397327D01*
X6201206Y15400223D01*
X6690664Y15889630D01*
X6693814Y15893084D01*
X6696506Y15896590D01*
X6698894Y15900349D01*
X6700926Y15904311D01*
X6702653Y15908375D01*
X6703974Y15912642D01*
X6704939Y15916960D01*
X6705498Y15921380D01*
X6705701Y15926003D01*
X6705701Y16077692D01*
X6706666Y16082010D01*
X6707733Y16084346D01*
X6710273Y16093795D01*
X6711137Y16103600D01*
X6710273Y16113404D01*
X6707733Y16122853D01*
X6703618Y16131794D01*
X6697980Y16139820D01*
X6691020Y16146780D01*
X6682994Y16152418D01*
X6674053Y16156533D01*
X6664604Y16159073D01*
X6654800Y16159937D01*
X6644995Y16159073D01*
X6635546Y16156533D01*
X6626606Y16152418D01*
X6618579Y16146780D01*
X6611620Y16139820D01*
X6605981Y16131743D01*
X6603187Y16129050D01*
X6599580Y16127577D01*
X6595719Y16127577D01*
X6592112Y16129050D01*
X6589318Y16131743D01*
X6583680Y16139820D01*
X6576720Y16146780D01*
X6568694Y16152418D01*
X6559753Y16156533D01*
X6550304Y16159073D01*
X6540500Y16159937D01*
X6530695Y16159073D01*
X6521246Y16156533D01*
X6512306Y16152418D01*
X6504279Y16146780D01*
X6497320Y16139820D01*
X6491681Y16131794D01*
X6487566Y16122853D01*
X6485026Y16113404D01*
X6484162Y16103600D01*
X6485026Y16093795D01*
X6487566Y16084346D01*
X6488633Y16082010D01*
X6489598Y16077692D01*
X6489598Y16039998D01*
X6488836Y16036086D01*
X6486601Y16032835D01*
X6027623Y15573806D01*
X6024727Y15571774D01*
X6017006Y15568218D01*
X6008979Y15562580D01*
X6002020Y15555620D01*
X5996381Y15547594D01*
X5992266Y15538653D01*
X5989726Y15529204D01*
X5988862Y15519400D01*
X5989726Y15509595D01*
X5992266Y15500146D01*
X5996381Y15491206D01*
X6002020Y15483179D01*
X6008979Y15476219D01*
X6017006Y15470581D01*
X6025946Y15466466D01*
X6035395Y15463926D01*
X6045200Y15463062D01*
X6055004Y15463926D01*
X6064453Y15466466D01*
X6073394Y15470581D01*
X6081420Y15476219D01*
X6088380Y15483179D01*
X6094018Y15491206D01*
X6097574Y15498927D01*
X6099606Y15501823D01*
X6576364Y15978530D01*
X6579514Y15981984D01*
X6582156Y15985439D01*
X6585102Y15990214D01*
X6588150Y15993313D01*
X6592163Y15994888D01*
X6596532Y15994583D01*
X6600342Y15992551D01*
X6602984Y15989096D01*
X6603898Y15984829D01*
X6603898Y15951098D01*
X6603136Y15947186D01*
X6600901Y15943935D01*
X6129223Y15472206D01*
X6126327Y15470174D01*
X6118606Y15466618D01*
X6110579Y15460980D01*
X6103620Y15454020D01*
X6097981Y15445994D01*
X6093866Y15437053D01*
X6091326Y15427604D01*
X6090462Y15417800D01*
X6091326Y15407995D01*
X6093866Y15398546D01*
X6097981Y15389606D01*
X6103620Y15381579D01*
X6110579Y15374619D01*
X6118606Y15368981D01*
X6127546Y15364866D01*
X6136995Y15362326D01*
G37*
G36*
X1088796Y15785693D02*
G01*
X1102410Y15786150D01*
X1115872Y15788386D01*
X1128877Y15792450D01*
X1141272Y15798190D01*
X1152753Y15805505D01*
X1163167Y15814294D01*
X1172311Y15824454D01*
X1180033Y15835680D01*
X1186180Y15847822D01*
X1190650Y15860725D01*
X1193393Y15874085D01*
X1194308Y15887700D01*
X1193393Y15901314D01*
X1190650Y15914674D01*
X1186180Y15927578D01*
X1180033Y15939719D01*
X1172311Y15950946D01*
X1163167Y15961106D01*
X1152753Y15969894D01*
X1141272Y15977209D01*
X1128877Y15982950D01*
X1115872Y15987013D01*
X1102410Y15989249D01*
X1088796Y15989706D01*
X1075232Y15988385D01*
X1061974Y15985185D01*
X1049223Y15980308D01*
X1037285Y15973755D01*
X1026312Y15965678D01*
X1016508Y15956178D01*
X1008024Y15945459D01*
X1001115Y15933724D01*
X995781Y15921177D01*
X992174Y15908019D01*
X990346Y15894507D01*
X990346Y15880892D01*
X992174Y15867380D01*
X995781Y15854222D01*
X1001115Y15841675D01*
X1008024Y15829940D01*
X1016508Y15819221D01*
X1026312Y15809722D01*
X1037285Y15801644D01*
X1049223Y15795091D01*
X1061974Y15790214D01*
X1075232Y15787014D01*
G37*
G36*
X2447696Y15785693D02*
G01*
X2461310Y15786150D01*
X2474772Y15788386D01*
X2487777Y15792450D01*
X2500172Y15798190D01*
X2511653Y15805505D01*
X2522067Y15814294D01*
X2531211Y15824454D01*
X2538933Y15835680D01*
X2545080Y15847822D01*
X2549550Y15860725D01*
X2552242Y15874085D01*
X2553157Y15887700D01*
X2552242Y15901314D01*
X2549550Y15914674D01*
X2545080Y15927578D01*
X2538933Y15939719D01*
X2531211Y15950946D01*
X2522067Y15961106D01*
X2511653Y15969894D01*
X2500172Y15977209D01*
X2487777Y15982950D01*
X2474772Y15987013D01*
X2461310Y15989249D01*
X2447696Y15989706D01*
X2434132Y15988385D01*
X2420823Y15985185D01*
X2408123Y15980308D01*
X2396185Y15973755D01*
X2385161Y15965678D01*
X2375357Y15956178D01*
X2366924Y15945459D01*
X2359964Y15933724D01*
X2354630Y15921177D01*
X2351074Y15908019D01*
X2349246Y15894507D01*
X2349246Y15880892D01*
X2351074Y15867380D01*
X2354630Y15854222D01*
X2359964Y15841675D01*
X2366924Y15829940D01*
X2375357Y15819221D01*
X2385161Y15809722D01*
X2396185Y15801644D01*
X2408123Y15795091D01*
X2420823Y15790214D01*
X2434132Y15787014D01*
G37*
G36*
X2193696Y15785693D02*
G01*
X2207310Y15786150D01*
X2220772Y15788386D01*
X2233777Y15792450D01*
X2246172Y15798190D01*
X2257653Y15805505D01*
X2268067Y15814294D01*
X2277211Y15824454D01*
X2284933Y15835680D01*
X2291080Y15847822D01*
X2295550Y15860725D01*
X2298293Y15874085D01*
X2299208Y15887700D01*
X2298293Y15901314D01*
X2295550Y15914674D01*
X2291080Y15927578D01*
X2284933Y15939719D01*
X2277211Y15950946D01*
X2268067Y15961106D01*
X2257653Y15969894D01*
X2246172Y15977209D01*
X2233777Y15982950D01*
X2220772Y15987013D01*
X2207310Y15989249D01*
X2193696Y15989706D01*
X2180132Y15988385D01*
X2166874Y15985185D01*
X2154123Y15980308D01*
X2142185Y15973755D01*
X2131212Y15965678D01*
X2121408Y15956178D01*
X2112924Y15945459D01*
X2106015Y15933724D01*
X2100681Y15921177D01*
X2097074Y15908019D01*
X2095246Y15894507D01*
X2095246Y15880892D01*
X2097074Y15867380D01*
X2100681Y15854222D01*
X2106015Y15841675D01*
X2112924Y15829940D01*
X2121408Y15819221D01*
X2131212Y15809722D01*
X2142185Y15801644D01*
X2154123Y15795091D01*
X2166874Y15790214D01*
X2180132Y15787014D01*
G37*
G36*
X1342796Y15785693D02*
G01*
X1356410Y15786150D01*
X1369872Y15788386D01*
X1382877Y15792450D01*
X1395272Y15798190D01*
X1406753Y15805505D01*
X1417167Y15814294D01*
X1426311Y15824454D01*
X1434033Y15835680D01*
X1440180Y15847822D01*
X1444650Y15860725D01*
X1447342Y15874085D01*
X1448257Y15887700D01*
X1447342Y15901314D01*
X1444650Y15914674D01*
X1440180Y15927578D01*
X1434033Y15939719D01*
X1426311Y15950946D01*
X1417167Y15961106D01*
X1413205Y15964407D01*
X1410563Y15967913D01*
X1409598Y15972180D01*
X1409598Y16060419D01*
X1410360Y16064331D01*
X1412595Y16067633D01*
X1534566Y16189604D01*
X1537868Y16191839D01*
X1541780Y16192601D01*
X1891995Y16192601D01*
X1900326Y16193109D01*
X1902510Y16193414D01*
X1910588Y16195294D01*
X1912670Y16195954D01*
X1922272Y16200119D01*
X1929333Y16204539D01*
X1937359Y16211397D01*
X2025802Y16299840D01*
X2032660Y16307866D01*
X2037080Y16314928D01*
X2041245Y16324529D01*
X2041906Y16326612D01*
X2043785Y16334689D01*
X2044090Y16336873D01*
X2044598Y16345204D01*
X2044598Y16708119D01*
X2045360Y16712031D01*
X2047595Y16715333D01*
X2169566Y16837304D01*
X2172868Y16839539D01*
X2176780Y16840301D01*
X2806395Y16840301D01*
X2814726Y16840809D01*
X2816910Y16841114D01*
X2824988Y16842994D01*
X2827070Y16843654D01*
X2836672Y16847820D01*
X2843733Y16852239D01*
X2851759Y16859097D01*
X3007766Y17015104D01*
X3011068Y17017339D01*
X3014980Y17018101D01*
X3040481Y17018101D01*
X3043478Y17017644D01*
X3046222Y17016323D01*
X3049371Y17013021D01*
X3059176Y17003522D01*
X3070199Y16995444D01*
X3082137Y16988891D01*
X3094837Y16984014D01*
X3108147Y16980814D01*
X3121710Y16979493D01*
X3135325Y16979950D01*
X3148787Y16982186D01*
X3161792Y16986250D01*
X3174187Y16991990D01*
X3185668Y16999305D01*
X3196082Y17008094D01*
X3205226Y17018254D01*
X3212947Y17029480D01*
X3219094Y17041622D01*
X3223564Y17054525D01*
X3226257Y17067885D01*
X3227171Y17081500D01*
X3226257Y17095114D01*
X3223564Y17108474D01*
X3219094Y17121378D01*
X3212947Y17133519D01*
X3205226Y17144746D01*
X3196082Y17154906D01*
X3185668Y17163694D01*
X3174187Y17171009D01*
X3161792Y17176750D01*
X3148787Y17180814D01*
X3135325Y17183049D01*
X3121710Y17183506D01*
X3108147Y17182185D01*
X3094837Y17178985D01*
X3082137Y17174108D01*
X3070199Y17167555D01*
X3059176Y17159478D01*
X3049371Y17149978D01*
X3046222Y17146676D01*
X3043478Y17145355D01*
X3040481Y17144898D01*
X2984804Y17144898D01*
X2976473Y17144390D01*
X2974289Y17144085D01*
X2966212Y17142206D01*
X2964129Y17141545D01*
X2954528Y17137380D01*
X2947466Y17132960D01*
X2939440Y17126102D01*
X2783433Y16970095D01*
X2780131Y16967860D01*
X2776220Y16967098D01*
X2146604Y16967098D01*
X2138273Y16966590D01*
X2136089Y16966285D01*
X2128012Y16964406D01*
X2125929Y16963745D01*
X2116328Y16959580D01*
X2109266Y16955160D01*
X2101240Y16948302D01*
X1936597Y16783659D01*
X1929739Y16775633D01*
X1925320Y16768572D01*
X1921154Y16758970D01*
X1920493Y16756888D01*
X1918614Y16748810D01*
X1918309Y16746626D01*
X1917801Y16738295D01*
X1917801Y16375380D01*
X1917039Y16371468D01*
X1914804Y16368166D01*
X1869033Y16322395D01*
X1865731Y16320160D01*
X1861820Y16319398D01*
X1511604Y16319398D01*
X1503273Y16318890D01*
X1501089Y16318585D01*
X1493012Y16316706D01*
X1490929Y16316045D01*
X1481328Y16311880D01*
X1474266Y16307460D01*
X1466240Y16300602D01*
X1301597Y16135959D01*
X1294739Y16127933D01*
X1290320Y16120872D01*
X1286154Y16111270D01*
X1285494Y16109188D01*
X1283614Y16101110D01*
X1283309Y16098926D01*
X1282801Y16090595D01*
X1282801Y15972383D01*
X1281988Y15968421D01*
X1279702Y15965068D01*
X1270457Y15956178D01*
X1262024Y15945459D01*
X1255064Y15933724D01*
X1249730Y15921177D01*
X1246174Y15908019D01*
X1244346Y15894507D01*
X1244346Y15880892D01*
X1246174Y15867380D01*
X1249730Y15854222D01*
X1255064Y15841675D01*
X1262024Y15829940D01*
X1270457Y15819221D01*
X1280261Y15809722D01*
X1291285Y15801644D01*
X1303223Y15795091D01*
X1315923Y15790214D01*
X1329232Y15787014D01*
G37*
G36*
X1555750Y15795904D02*
G01*
X1555750Y15843250D01*
X1508404Y15843250D01*
X1509115Y15841675D01*
X1516024Y15829940D01*
X1524508Y15819221D01*
X1534312Y15809722D01*
X1545285Y15801644D01*
G37*
G36*
X2660650Y15795904D02*
G01*
X2660650Y15843250D01*
X2613304Y15843250D01*
X2614015Y15841675D01*
X2620924Y15829940D01*
X2629408Y15819221D01*
X2639212Y15809722D01*
X2650185Y15801644D01*
G37*
G36*
X2749550Y15796056D02*
G01*
X2754172Y15798190D01*
X2765653Y15805505D01*
X2776067Y15814294D01*
X2785211Y15824454D01*
X2792933Y15835680D01*
X2796743Y15843250D01*
X2749550Y15843250D01*
G37*
G36*
X1644650Y15796056D02*
G01*
X1649272Y15798190D01*
X1660753Y15805505D01*
X1671167Y15814294D01*
X1680311Y15824454D01*
X1688033Y15835680D01*
X1691843Y15843250D01*
X1644650Y15843250D01*
G37*
G36*
X3971696Y15849193D02*
G01*
X3985310Y15849650D01*
X3998772Y15851886D01*
X4011777Y15855950D01*
X4024172Y15861690D01*
X4035653Y15869005D01*
X4046067Y15877794D01*
X4055211Y15887954D01*
X4062933Y15899180D01*
X4069079Y15911322D01*
X4073550Y15924225D01*
X4076293Y15937585D01*
X4077208Y15951200D01*
X4076293Y15964814D01*
X4073550Y15978174D01*
X4069079Y15991078D01*
X4062933Y16003219D01*
X4055211Y16014446D01*
X4046067Y16024606D01*
X4035653Y16033394D01*
X4024172Y16040709D01*
X4011777Y16046450D01*
X3998772Y16050513D01*
X3985310Y16052749D01*
X3971696Y16053206D01*
X3958132Y16051885D01*
X3944874Y16048685D01*
X3932123Y16043808D01*
X3920185Y16037255D01*
X3909212Y16029178D01*
X3899408Y16019678D01*
X3890924Y16008959D01*
X3884015Y15997224D01*
X3878681Y15984677D01*
X3875074Y15971519D01*
X3873246Y15958007D01*
X3873246Y15944392D01*
X3875074Y15930880D01*
X3878681Y15917722D01*
X3884015Y15905175D01*
X3890924Y15893440D01*
X3899408Y15882721D01*
X3909212Y15873222D01*
X3920185Y15865144D01*
X3932123Y15858591D01*
X3944874Y15853714D01*
X3958132Y15850514D01*
G37*
G36*
X3121710Y15849193D02*
G01*
X3135325Y15849650D01*
X3148787Y15851886D01*
X3161792Y15855950D01*
X3174187Y15861690D01*
X3185668Y15869005D01*
X3196082Y15877794D01*
X3205226Y15887954D01*
X3212947Y15899180D01*
X3219094Y15911322D01*
X3223564Y15924225D01*
X3226257Y15937585D01*
X3227171Y15951200D01*
X3226257Y15964814D01*
X3223564Y15978174D01*
X3219094Y15991078D01*
X3212947Y16003219D01*
X3205226Y16014446D01*
X3196082Y16024606D01*
X3185668Y16033394D01*
X3174187Y16040709D01*
X3161792Y16046450D01*
X3148787Y16050513D01*
X3135325Y16052749D01*
X3121710Y16053206D01*
X3108147Y16051885D01*
X3094837Y16048685D01*
X3082137Y16043808D01*
X3070199Y16037255D01*
X3059176Y16029178D01*
X3049371Y16019678D01*
X3040938Y16008959D01*
X3033979Y15997224D01*
X3028645Y15984677D01*
X3025089Y15971519D01*
X3023260Y15958007D01*
X3023260Y15944392D01*
X3025089Y15930880D01*
X3028645Y15917722D01*
X3033979Y15905175D01*
X3040938Y15893440D01*
X3049371Y15882721D01*
X3059176Y15873222D01*
X3070199Y15865144D01*
X3082137Y15858591D01*
X3094837Y15853714D01*
X3108147Y15850514D01*
G37*
G36*
X2749550Y15932150D02*
G01*
X2796743Y15932150D01*
X2792933Y15939719D01*
X2785211Y15950946D01*
X2776067Y15961106D01*
X2765653Y15969894D01*
X2754172Y15977209D01*
X2749550Y15979343D01*
G37*
G36*
X1644650Y15932150D02*
G01*
X1691843Y15932150D01*
X1688033Y15939719D01*
X1680311Y15950946D01*
X1671167Y15961106D01*
X1660753Y15969894D01*
X1649272Y15977209D01*
X1644650Y15979343D01*
G37*
G36*
X1508404Y15932150D02*
G01*
X1555750Y15932150D01*
X1555750Y15979495D01*
X1545285Y15973755D01*
X1534312Y15965678D01*
X1524508Y15956178D01*
X1516024Y15945459D01*
X1509115Y15933724D01*
G37*
G36*
X2613304Y15932150D02*
G01*
X2660650Y15932150D01*
X2660650Y15979495D01*
X2650185Y15973755D01*
X2639212Y15965678D01*
X2629408Y15956178D01*
X2620924Y15945459D01*
X2614015Y15933724D01*
G37*
G36*
X3971696Y16141293D02*
G01*
X3985310Y16141750D01*
X3998772Y16143986D01*
X4011777Y16148050D01*
X4024172Y16153790D01*
X4035653Y16161105D01*
X4046067Y16169894D01*
X4055211Y16180054D01*
X4062933Y16191280D01*
X4069079Y16203422D01*
X4073550Y16216325D01*
X4076293Y16229685D01*
X4077208Y16243300D01*
X4076293Y16256914D01*
X4073550Y16270274D01*
X4069079Y16283178D01*
X4062933Y16295319D01*
X4055211Y16306546D01*
X4046067Y16316706D01*
X4035653Y16325494D01*
X4024172Y16332809D01*
X4011777Y16338550D01*
X3998772Y16342613D01*
X3985310Y16344849D01*
X3971696Y16345306D01*
X3958132Y16343985D01*
X3944874Y16340785D01*
X3932123Y16335908D01*
X3920185Y16329355D01*
X3909212Y16321278D01*
X3899408Y16311778D01*
X3890924Y16301059D01*
X3884015Y16289324D01*
X3878681Y16276777D01*
X3875074Y16263619D01*
X3873246Y16250107D01*
X3873246Y16236492D01*
X3875074Y16222980D01*
X3878681Y16209822D01*
X3884015Y16197275D01*
X3890924Y16185540D01*
X3899408Y16174821D01*
X3909212Y16165322D01*
X3920185Y16157244D01*
X3932123Y16150691D01*
X3944874Y16145814D01*
X3958132Y16142614D01*
G37*
G36*
X3121710Y16141293D02*
G01*
X3135325Y16141750D01*
X3148787Y16143986D01*
X3161792Y16148050D01*
X3174187Y16153790D01*
X3185668Y16161105D01*
X3196082Y16169894D01*
X3205226Y16180054D01*
X3212947Y16191280D01*
X3219094Y16203422D01*
X3223564Y16216325D01*
X3226257Y16229685D01*
X3227171Y16243300D01*
X3226257Y16256914D01*
X3223564Y16270274D01*
X3219094Y16283178D01*
X3212947Y16295319D01*
X3205226Y16306546D01*
X3196082Y16316706D01*
X3185668Y16325494D01*
X3174187Y16332809D01*
X3161792Y16338550D01*
X3148787Y16342613D01*
X3135325Y16344849D01*
X3121710Y16345306D01*
X3108147Y16343985D01*
X3094837Y16340785D01*
X3082137Y16335908D01*
X3070199Y16329355D01*
X3059176Y16321278D01*
X3049371Y16311778D01*
X3040938Y16301059D01*
X3033979Y16289324D01*
X3028645Y16276777D01*
X3025089Y16263619D01*
X3023260Y16250107D01*
X3023260Y16236492D01*
X3025089Y16222980D01*
X3028645Y16209822D01*
X3033979Y16197275D01*
X3040938Y16185540D01*
X3049371Y16174821D01*
X3059176Y16165322D01*
X3070199Y16157244D01*
X3082137Y16150691D01*
X3094837Y16145814D01*
X3108147Y16142614D01*
G37*
G36*
X1088796Y16420693D02*
G01*
X1102410Y16421150D01*
X1115872Y16423386D01*
X1128877Y16427450D01*
X1141272Y16433190D01*
X1152753Y16440505D01*
X1163167Y16449294D01*
X1172311Y16459454D01*
X1180033Y16470680D01*
X1186180Y16482822D01*
X1190650Y16495725D01*
X1193393Y16509085D01*
X1194308Y16522700D01*
X1193393Y16536314D01*
X1190650Y16549674D01*
X1186180Y16562578D01*
X1180033Y16574719D01*
X1172311Y16585946D01*
X1163167Y16596106D01*
X1152753Y16604894D01*
X1141272Y16612209D01*
X1128877Y16617950D01*
X1115872Y16622013D01*
X1102410Y16624249D01*
X1088796Y16624706D01*
X1075232Y16623385D01*
X1061974Y16620185D01*
X1049223Y16615308D01*
X1037285Y16608755D01*
X1026312Y16600678D01*
X1016508Y16591178D01*
X1008024Y16580459D01*
X1001115Y16568724D01*
X995781Y16556177D01*
X992174Y16543019D01*
X990346Y16529507D01*
X990346Y16515892D01*
X992174Y16502380D01*
X995781Y16489222D01*
X1001115Y16476675D01*
X1008024Y16464940D01*
X1016508Y16454221D01*
X1026312Y16444722D01*
X1037285Y16436644D01*
X1049223Y16430091D01*
X1061974Y16425214D01*
X1075232Y16422014D01*
G37*
G36*
X2447696Y16420693D02*
G01*
X2461310Y16421150D01*
X2474772Y16423386D01*
X2487777Y16427450D01*
X2500172Y16433190D01*
X2511653Y16440505D01*
X2522067Y16449294D01*
X2531211Y16459454D01*
X2538933Y16470680D01*
X2545080Y16482822D01*
X2549550Y16495725D01*
X2552242Y16509085D01*
X2553157Y16522700D01*
X2552242Y16536314D01*
X2549550Y16549674D01*
X2545080Y16562578D01*
X2538933Y16574719D01*
X2531211Y16585946D01*
X2522067Y16596106D01*
X2511653Y16604894D01*
X2500172Y16612209D01*
X2487777Y16617950D01*
X2474772Y16622013D01*
X2461310Y16624249D01*
X2447696Y16624706D01*
X2434132Y16623385D01*
X2420823Y16620185D01*
X2408123Y16615308D01*
X2396185Y16608755D01*
X2385161Y16600678D01*
X2375357Y16591178D01*
X2366924Y16580459D01*
X2359964Y16568724D01*
X2354630Y16556177D01*
X2351074Y16543019D01*
X2349246Y16529507D01*
X2349246Y16515892D01*
X2351074Y16502380D01*
X2354630Y16489222D01*
X2359964Y16476675D01*
X2366924Y16464940D01*
X2375357Y16454221D01*
X2385161Y16444722D01*
X2396185Y16436644D01*
X2408123Y16430091D01*
X2420823Y16425214D01*
X2434132Y16422014D01*
G37*
G36*
X3121710Y16420693D02*
G01*
X3135325Y16421150D01*
X3148787Y16423386D01*
X3161792Y16427450D01*
X3174187Y16433190D01*
X3185668Y16440505D01*
X3196082Y16449294D01*
X3205226Y16459454D01*
X3212947Y16470680D01*
X3219094Y16482822D01*
X3223564Y16495725D01*
X3226257Y16509085D01*
X3227171Y16522700D01*
X3226257Y16536314D01*
X3223564Y16549674D01*
X3219094Y16562578D01*
X3212947Y16574719D01*
X3205226Y16585946D01*
X3196082Y16596106D01*
X3185668Y16604894D01*
X3174187Y16612209D01*
X3161792Y16617950D01*
X3148787Y16622013D01*
X3135325Y16624249D01*
X3121710Y16624706D01*
X3108147Y16623385D01*
X3094837Y16620185D01*
X3082137Y16615308D01*
X3070199Y16608755D01*
X3059176Y16600678D01*
X3049371Y16591178D01*
X3040938Y16580459D01*
X3033979Y16568724D01*
X3028645Y16556177D01*
X3025089Y16543019D01*
X3023260Y16529507D01*
X3023260Y16515892D01*
X3025089Y16502380D01*
X3028645Y16489222D01*
X3033979Y16476675D01*
X3040938Y16464940D01*
X3049371Y16454221D01*
X3059176Y16444722D01*
X3070199Y16436644D01*
X3082137Y16430091D01*
X3094837Y16425214D01*
X3108147Y16422014D01*
G37*
G36*
X3971696Y16420693D02*
G01*
X3985310Y16421150D01*
X3998772Y16423386D01*
X4011777Y16427450D01*
X4024172Y16433190D01*
X4035653Y16440505D01*
X4046067Y16449294D01*
X4055211Y16459454D01*
X4062933Y16470680D01*
X4069079Y16482822D01*
X4073550Y16495725D01*
X4076293Y16509085D01*
X4077208Y16522700D01*
X4076293Y16536314D01*
X4073550Y16549674D01*
X4069079Y16562578D01*
X4062933Y16574719D01*
X4055211Y16585946D01*
X4046067Y16596106D01*
X4035653Y16604894D01*
X4024172Y16612209D01*
X4011777Y16617950D01*
X3998772Y16622013D01*
X3985310Y16624249D01*
X3971696Y16624706D01*
X3958132Y16623385D01*
X3944874Y16620185D01*
X3932123Y16615308D01*
X3920185Y16608755D01*
X3909212Y16600678D01*
X3899408Y16591178D01*
X3890924Y16580459D01*
X3884015Y16568724D01*
X3878681Y16556177D01*
X3875074Y16543019D01*
X3873246Y16529507D01*
X3873246Y16515892D01*
X3875074Y16502380D01*
X3878681Y16489222D01*
X3884015Y16476675D01*
X3890924Y16464940D01*
X3899408Y16454221D01*
X3909212Y16444722D01*
X3920185Y16436644D01*
X3932123Y16430091D01*
X3944874Y16425214D01*
X3958132Y16422014D01*
G37*
G36*
X2193696Y16420693D02*
G01*
X2207310Y16421150D01*
X2220772Y16423386D01*
X2233777Y16427450D01*
X2246172Y16433190D01*
X2257653Y16440505D01*
X2268067Y16449294D01*
X2277211Y16459454D01*
X2284933Y16470680D01*
X2291080Y16482822D01*
X2295550Y16495725D01*
X2298293Y16509085D01*
X2299208Y16522700D01*
X2298293Y16536314D01*
X2295550Y16549674D01*
X2291080Y16562578D01*
X2284933Y16574719D01*
X2277211Y16585946D01*
X2268067Y16596106D01*
X2257653Y16604894D01*
X2246172Y16612209D01*
X2233777Y16617950D01*
X2220772Y16622013D01*
X2207310Y16624249D01*
X2193696Y16624706D01*
X2180132Y16623385D01*
X2166874Y16620185D01*
X2154123Y16615308D01*
X2142185Y16608755D01*
X2131212Y16600678D01*
X2121408Y16591178D01*
X2112924Y16580459D01*
X2106015Y16568724D01*
X2100681Y16556177D01*
X2097074Y16543019D01*
X2095246Y16529507D01*
X2095246Y16515892D01*
X2097074Y16502380D01*
X2100681Y16489222D01*
X2106015Y16476675D01*
X2112924Y16464940D01*
X2121408Y16454221D01*
X2131212Y16444722D01*
X2142185Y16436644D01*
X2154123Y16430091D01*
X2166874Y16425214D01*
X2180132Y16422014D01*
G37*
G36*
X1342796Y16420693D02*
G01*
X1356410Y16421150D01*
X1369872Y16423386D01*
X1382877Y16427450D01*
X1395272Y16433190D01*
X1406753Y16440505D01*
X1417167Y16449294D01*
X1426311Y16459454D01*
X1434033Y16470680D01*
X1440180Y16482822D01*
X1444650Y16495725D01*
X1447342Y16509085D01*
X1448257Y16522700D01*
X1447342Y16536314D01*
X1444650Y16549674D01*
X1440180Y16562578D01*
X1434033Y16574719D01*
X1423162Y16590518D01*
X1422552Y16594328D01*
X1423365Y16598036D01*
X1425498Y16601236D01*
X1559966Y16735704D01*
X1563268Y16737939D01*
X1567180Y16738701D01*
X1790395Y16738701D01*
X1798726Y16739209D01*
X1800910Y16739514D01*
X1808988Y16741394D01*
X1811070Y16742054D01*
X1820672Y16746219D01*
X1827733Y16750639D01*
X1835759Y16757497D01*
X1936902Y16858640D01*
X1943760Y16866666D01*
X1948180Y16873728D01*
X1952345Y16883329D01*
X1953006Y16885412D01*
X1954885Y16893489D01*
X1955190Y16895673D01*
X1955698Y16904004D01*
X1955698Y17127220D01*
X1956460Y17131131D01*
X1958695Y17134433D01*
X2194966Y17370704D01*
X2198268Y17372939D01*
X2202180Y17373701D01*
X3013100Y17373701D01*
X3016961Y17372939D01*
X3020263Y17370704D01*
X3022498Y17367402D01*
X3023260Y17363541D01*
X3023260Y17354092D01*
X3025089Y17340580D01*
X3028645Y17327422D01*
X3033979Y17314875D01*
X3040938Y17303140D01*
X3049371Y17292421D01*
X3059176Y17282922D01*
X3070199Y17274844D01*
X3082137Y17268291D01*
X3094837Y17263414D01*
X3108147Y17260214D01*
X3121710Y17258893D01*
X3135325Y17259350D01*
X3148787Y17261586D01*
X3161792Y17265650D01*
X3174187Y17271390D01*
X3185668Y17278705D01*
X3196082Y17287494D01*
X3205226Y17297654D01*
X3212947Y17308880D01*
X3219094Y17321022D01*
X3223564Y17333925D01*
X3226257Y17347285D01*
X3227171Y17360900D01*
X3226257Y17374514D01*
X3223564Y17387874D01*
X3219094Y17400778D01*
X3212947Y17412919D01*
X3205226Y17424146D01*
X3196082Y17434306D01*
X3185668Y17443094D01*
X3174187Y17450409D01*
X3161792Y17456150D01*
X3148787Y17460214D01*
X3135325Y17462449D01*
X3121710Y17462906D01*
X3118358Y17462601D01*
X3113938Y17463109D01*
X3110179Y17465497D01*
X3093974Y17481702D01*
X3087674Y17487239D01*
X3085896Y17488560D01*
X3078886Y17492980D01*
X3069285Y17497145D01*
X3067202Y17497806D01*
X3059125Y17499685D01*
X3056940Y17499990D01*
X3048609Y17500498D01*
X2172004Y17500498D01*
X2163673Y17499990D01*
X2161489Y17499685D01*
X2153412Y17497806D01*
X2151329Y17497145D01*
X2141728Y17492980D01*
X2134666Y17488560D01*
X2126640Y17481702D01*
X1847697Y17202759D01*
X1840839Y17194733D01*
X1836420Y17187672D01*
X1832254Y17178070D01*
X1831593Y17175988D01*
X1829714Y17167910D01*
X1829409Y17165726D01*
X1828901Y17157395D01*
X1828901Y16934180D01*
X1828139Y16930268D01*
X1825904Y16926966D01*
X1767433Y16868495D01*
X1764131Y16866260D01*
X1760220Y16865498D01*
X1537004Y16865498D01*
X1528673Y16864990D01*
X1526489Y16864685D01*
X1518412Y16862806D01*
X1516329Y16862145D01*
X1506728Y16857980D01*
X1499666Y16853560D01*
X1491640Y16846702D01*
X1301597Y16656659D01*
X1294739Y16648633D01*
X1290320Y16641572D01*
X1286154Y16631970D01*
X1285494Y16629888D01*
X1283614Y16621810D01*
X1283309Y16619626D01*
X1282801Y16611295D01*
X1282801Y16607383D01*
X1281988Y16603421D01*
X1279702Y16600068D01*
X1270457Y16591178D01*
X1262024Y16580459D01*
X1255064Y16568724D01*
X1249730Y16556177D01*
X1246174Y16543019D01*
X1244346Y16529507D01*
X1244346Y16515892D01*
X1246174Y16502380D01*
X1249730Y16489222D01*
X1255064Y16476675D01*
X1262024Y16464940D01*
X1270457Y16454221D01*
X1280261Y16444722D01*
X1291285Y16436644D01*
X1303223Y16430091D01*
X1315923Y16425214D01*
X1329232Y16422014D01*
G37*
G36*
X1555750Y16430904D02*
G01*
X1555750Y16478250D01*
X1508404Y16478250D01*
X1509115Y16476675D01*
X1516024Y16464940D01*
X1524508Y16454221D01*
X1534312Y16444722D01*
X1545285Y16436644D01*
G37*
G36*
X2660650Y16430904D02*
G01*
X2660650Y16478250D01*
X2613304Y16478250D01*
X2614015Y16476675D01*
X2620924Y16464940D01*
X2629408Y16454221D01*
X2639212Y16444722D01*
X2650185Y16436644D01*
G37*
G36*
X2749550Y16431056D02*
G01*
X2754172Y16433190D01*
X2765653Y16440505D01*
X2776067Y16449294D01*
X2785211Y16459454D01*
X2792933Y16470680D01*
X2796743Y16478250D01*
X2749550Y16478250D01*
G37*
G36*
X1644650Y16431056D02*
G01*
X1649272Y16433190D01*
X1660753Y16440505D01*
X1671167Y16449294D01*
X1680311Y16459454D01*
X1688033Y16470680D01*
X1691843Y16478250D01*
X1644650Y16478250D01*
G37*
G36*
X2749550Y16567150D02*
G01*
X2796743Y16567150D01*
X2792933Y16574719D01*
X2785211Y16585946D01*
X2776067Y16596106D01*
X2765653Y16604894D01*
X2754172Y16612209D01*
X2749550Y16614343D01*
G37*
G36*
X1644650Y16567150D02*
G01*
X1691843Y16567150D01*
X1688033Y16574719D01*
X1680311Y16585946D01*
X1671167Y16596106D01*
X1660753Y16604894D01*
X1649272Y16612209D01*
X1644650Y16614343D01*
G37*
G36*
X1508404Y16567150D02*
G01*
X1555750Y16567150D01*
X1555750Y16614495D01*
X1545285Y16608755D01*
X1534312Y16600678D01*
X1524508Y16591178D01*
X1516024Y16580459D01*
X1509115Y16568724D01*
G37*
G36*
X2613304Y16567150D02*
G01*
X2660650Y16567150D01*
X2660650Y16614495D01*
X2650185Y16608755D01*
X2639212Y16600678D01*
X2629408Y16591178D01*
X2620924Y16580459D01*
X2614015Y16568724D01*
G37*
G36*
X3121710Y16700093D02*
G01*
X3135325Y16700550D01*
X3148787Y16702786D01*
X3161792Y16706850D01*
X3174187Y16712590D01*
X3185668Y16719905D01*
X3196082Y16728694D01*
X3205226Y16738854D01*
X3212947Y16750080D01*
X3219094Y16762222D01*
X3223564Y16775125D01*
X3226257Y16788485D01*
X3227171Y16802100D01*
X3226257Y16815714D01*
X3223564Y16829074D01*
X3219094Y16841978D01*
X3212947Y16854119D01*
X3205226Y16865346D01*
X3196082Y16875506D01*
X3185668Y16884294D01*
X3174187Y16891609D01*
X3161792Y16897350D01*
X3148787Y16901414D01*
X3135325Y16903649D01*
X3121710Y16904106D01*
X3108147Y16902785D01*
X3094837Y16899585D01*
X3082137Y16894708D01*
X3070199Y16888155D01*
X3059176Y16880078D01*
X3049371Y16870578D01*
X3040938Y16859859D01*
X3033979Y16848124D01*
X3028645Y16835577D01*
X3025089Y16822420D01*
X3023260Y16808907D01*
X3023260Y16795292D01*
X3025089Y16781780D01*
X3028645Y16768622D01*
X3033979Y16756075D01*
X3040938Y16744340D01*
X3049371Y16733621D01*
X3059176Y16724122D01*
X3070199Y16716044D01*
X3082137Y16709491D01*
X3094837Y16704614D01*
X3108147Y16701414D01*
G37*
G36*
X3971696Y16700093D02*
G01*
X3985310Y16700550D01*
X3998772Y16702786D01*
X4011777Y16706850D01*
X4024172Y16712590D01*
X4035653Y16719905D01*
X4046067Y16728694D01*
X4055211Y16738854D01*
X4062933Y16750080D01*
X4069079Y16762222D01*
X4073550Y16775125D01*
X4076293Y16788485D01*
X4077208Y16802100D01*
X4076293Y16815714D01*
X4073550Y16829074D01*
X4069079Y16841978D01*
X4062933Y16854119D01*
X4055211Y16865346D01*
X4046067Y16875506D01*
X4035653Y16884294D01*
X4024172Y16891609D01*
X4011777Y16897350D01*
X3998772Y16901414D01*
X3985310Y16903649D01*
X3971696Y16904106D01*
X3958132Y16902785D01*
X3944874Y16899585D01*
X3932123Y16894708D01*
X3920185Y16888155D01*
X3909212Y16880078D01*
X3899408Y16870578D01*
X3890924Y16859859D01*
X3884015Y16848124D01*
X3878681Y16835577D01*
X3875074Y16822420D01*
X3873246Y16808907D01*
X3873246Y16795292D01*
X3875074Y16781780D01*
X3878681Y16768622D01*
X3884015Y16756075D01*
X3890924Y16744340D01*
X3899408Y16733621D01*
X3909212Y16724122D01*
X3920185Y16716044D01*
X3932123Y16709491D01*
X3944874Y16704614D01*
X3958132Y16701414D01*
G37*
G36*
X6337300Y16891406D02*
G01*
X6350914Y16892320D01*
X6364274Y16895013D01*
X6377178Y16899534D01*
X6389319Y16905681D01*
X6400546Y16913402D01*
X6410706Y16922546D01*
X6419494Y16932960D01*
X6422237Y16937278D01*
X6424523Y16939768D01*
X6427520Y16941393D01*
X6430873Y16941952D01*
X6628485Y16940377D01*
X6632702Y16939412D01*
X6635546Y16938091D01*
X6644995Y16935551D01*
X6654800Y16934688D01*
X6664604Y16935551D01*
X6674053Y16938091D01*
X6682994Y16942257D01*
X6691020Y16947896D01*
X6697980Y16954855D01*
X6703618Y16962882D01*
X6707733Y16971772D01*
X6710273Y16981271D01*
X6711137Y16991076D01*
X6710273Y17000829D01*
X6707733Y17010329D01*
X6703618Y17019219D01*
X6697980Y17027296D01*
X6691020Y17034205D01*
X6682994Y17039844D01*
X6674053Y17044009D01*
X6664604Y17046549D01*
X6654800Y17047413D01*
X6644995Y17046549D01*
X6635546Y17044009D01*
X6633667Y17043146D01*
X6629298Y17042180D01*
X6431838Y17043755D01*
X6428740Y17044263D01*
X6425946Y17045686D01*
X6423710Y17047921D01*
X6415278Y17059402D01*
X6405778Y17069206D01*
X6395059Y17077639D01*
X6383324Y17084598D01*
X6370777Y17089932D01*
X6357620Y17093539D01*
X6344107Y17095368D01*
X6330492Y17095368D01*
X6316980Y17093539D01*
X6303822Y17089932D01*
X6291275Y17084598D01*
X6279540Y17077639D01*
X6268821Y17069206D01*
X6259322Y17059402D01*
X6251244Y17048429D01*
X6244691Y17036491D01*
X6239814Y17023740D01*
X6236614Y17010481D01*
X6235293Y16996918D01*
X6235750Y16983252D01*
X6237986Y16969841D01*
X6242050Y16956786D01*
X6247790Y16944441D01*
X6255105Y16932960D01*
X6263894Y16922546D01*
X6274054Y16913402D01*
X6285280Y16905681D01*
X6297422Y16899534D01*
X6310325Y16895013D01*
X6323685Y16892320D01*
G37*
G36*
X6045149Y16892930D02*
G01*
X6058763Y16893844D01*
X6072124Y16896537D01*
X6085027Y16901058D01*
X6097168Y16907205D01*
X6108446Y16914926D01*
X6118555Y16924070D01*
X6127343Y16934484D01*
X6134709Y16945965D01*
X6140450Y16958310D01*
X6144463Y16971365D01*
X6146749Y16984776D01*
X6147206Y16998442D01*
X6145834Y17012005D01*
X6142685Y17025264D01*
X6137757Y17038015D01*
X6131204Y17049953D01*
X6123127Y17060926D01*
X6113627Y17070730D01*
X6102959Y17079163D01*
X6091224Y17086122D01*
X6078626Y17091456D01*
X6065520Y17095063D01*
X6051956Y17096892D01*
X6038342Y17096892D01*
X6024829Y17095063D01*
X6011672Y17091456D01*
X5999124Y17086122D01*
X5987389Y17079163D01*
X5976670Y17070730D01*
X5967222Y17060926D01*
X5959094Y17049953D01*
X5952540Y17038015D01*
X5947664Y17025264D01*
X5944514Y17012005D01*
X5943142Y16998442D01*
X5943600Y16984776D01*
X5945835Y16971365D01*
X5949899Y16958310D01*
X5955639Y16945965D01*
X5962954Y16934484D01*
X5971794Y16924070D01*
X5981903Y16914926D01*
X5993130Y16907205D01*
X6005322Y16901058D01*
X6018174Y16896537D01*
X6031534Y16893844D01*
G37*
G36*
X3971696Y16979493D02*
G01*
X3985310Y16979950D01*
X3998772Y16982186D01*
X4011777Y16986250D01*
X4024172Y16991990D01*
X4035653Y16999305D01*
X4046067Y17008094D01*
X4055211Y17018254D01*
X4062933Y17029480D01*
X4069079Y17041622D01*
X4073550Y17054525D01*
X4076293Y17067885D01*
X4077208Y17081500D01*
X4076293Y17095114D01*
X4073550Y17108474D01*
X4069079Y17121378D01*
X4062933Y17133519D01*
X4055211Y17144746D01*
X4046067Y17154906D01*
X4035653Y17163694D01*
X4024172Y17171009D01*
X4011777Y17176750D01*
X3998772Y17180814D01*
X3985310Y17183049D01*
X3971696Y17183506D01*
X3958132Y17182185D01*
X3944874Y17178985D01*
X3932123Y17174108D01*
X3920185Y17167555D01*
X3909212Y17159478D01*
X3899408Y17149978D01*
X3890924Y17139259D01*
X3884015Y17127524D01*
X3878681Y17114977D01*
X3875074Y17101820D01*
X3873246Y17088307D01*
X3873246Y17074692D01*
X3875074Y17061180D01*
X3878681Y17048022D01*
X3884015Y17035475D01*
X3890924Y17023740D01*
X3899408Y17013021D01*
X3909212Y17003522D01*
X3920185Y16995444D01*
X3932123Y16988891D01*
X3944874Y16984014D01*
X3958132Y16980814D01*
G37*
G36*
X1088796Y17055693D02*
G01*
X1102410Y17056150D01*
X1115872Y17058386D01*
X1128877Y17062450D01*
X1141272Y17068190D01*
X1152753Y17075505D01*
X1163167Y17084294D01*
X1172311Y17094454D01*
X1180033Y17105680D01*
X1186180Y17117822D01*
X1190650Y17130725D01*
X1193393Y17144085D01*
X1194308Y17157700D01*
X1193393Y17171314D01*
X1190650Y17184674D01*
X1186180Y17197578D01*
X1180033Y17209719D01*
X1172311Y17220946D01*
X1163167Y17231106D01*
X1152753Y17239894D01*
X1141272Y17247209D01*
X1128877Y17252950D01*
X1115872Y17257014D01*
X1102410Y17259249D01*
X1088796Y17259706D01*
X1075232Y17258385D01*
X1061974Y17255185D01*
X1049223Y17250308D01*
X1037285Y17243755D01*
X1026312Y17235678D01*
X1016508Y17226178D01*
X1008024Y17215459D01*
X1001115Y17203724D01*
X995781Y17191177D01*
X992174Y17178020D01*
X990346Y17164507D01*
X990346Y17150892D01*
X992174Y17137380D01*
X995781Y17124222D01*
X1001115Y17111675D01*
X1008024Y17099940D01*
X1016508Y17089221D01*
X1026312Y17079722D01*
X1037285Y17071644D01*
X1049223Y17065091D01*
X1061974Y17060214D01*
X1075232Y17057014D01*
G37*
G36*
X1342796Y17055693D02*
G01*
X1356410Y17056150D01*
X1369872Y17058386D01*
X1382877Y17062450D01*
X1395272Y17068190D01*
X1406753Y17075505D01*
X1417167Y17084294D01*
X1426311Y17094454D01*
X1434033Y17105680D01*
X1440180Y17117822D01*
X1444650Y17130725D01*
X1447342Y17144085D01*
X1448257Y17157700D01*
X1447342Y17171314D01*
X1444650Y17184674D01*
X1440180Y17197578D01*
X1434033Y17209719D01*
X1426311Y17220946D01*
X1417167Y17231106D01*
X1406753Y17239894D01*
X1395272Y17247209D01*
X1382877Y17252950D01*
X1369872Y17257014D01*
X1356410Y17259249D01*
X1342796Y17259706D01*
X1329232Y17258385D01*
X1315923Y17255185D01*
X1303223Y17250308D01*
X1291285Y17243755D01*
X1280261Y17235678D01*
X1270457Y17226178D01*
X1262024Y17215459D01*
X1255064Y17203724D01*
X1249730Y17191177D01*
X1246174Y17178020D01*
X1244346Y17164507D01*
X1244346Y17150892D01*
X1246174Y17137380D01*
X1249730Y17124222D01*
X1255064Y17111675D01*
X1262024Y17099940D01*
X1270457Y17089221D01*
X1280261Y17079722D01*
X1291285Y17071644D01*
X1303223Y17065091D01*
X1315923Y17060214D01*
X1329232Y17057014D01*
G37*
G36*
X2193696Y17055693D02*
G01*
X2207310Y17056150D01*
X2220772Y17058386D01*
X2233777Y17062450D01*
X2246172Y17068190D01*
X2257653Y17075505D01*
X2268067Y17084294D01*
X2277211Y17094454D01*
X2284933Y17105680D01*
X2291080Y17117822D01*
X2295550Y17130725D01*
X2298293Y17144085D01*
X2299208Y17157700D01*
X2298293Y17171314D01*
X2295550Y17184674D01*
X2291080Y17197578D01*
X2284933Y17209719D01*
X2277211Y17220946D01*
X2268067Y17231106D01*
X2257653Y17239894D01*
X2246172Y17247209D01*
X2233777Y17252950D01*
X2220772Y17257014D01*
X2207310Y17259249D01*
X2193696Y17259706D01*
X2180132Y17258385D01*
X2166874Y17255185D01*
X2154123Y17250308D01*
X2142185Y17243755D01*
X2131212Y17235678D01*
X2121408Y17226178D01*
X2112924Y17215459D01*
X2106015Y17203724D01*
X2100681Y17191177D01*
X2097074Y17178020D01*
X2095246Y17164507D01*
X2095246Y17150892D01*
X2097074Y17137380D01*
X2100681Y17124222D01*
X2106015Y17111675D01*
X2112924Y17099940D01*
X2121408Y17089221D01*
X2131212Y17079722D01*
X2142185Y17071644D01*
X2154123Y17065091D01*
X2166874Y17060214D01*
X2180132Y17057014D01*
G37*
G36*
X2447696Y17055693D02*
G01*
X2461310Y17056150D01*
X2474772Y17058386D01*
X2487777Y17062450D01*
X2500172Y17068190D01*
X2511653Y17075505D01*
X2522067Y17084294D01*
X2531211Y17094454D01*
X2538933Y17105680D01*
X2545080Y17117822D01*
X2549550Y17130725D01*
X2552242Y17144085D01*
X2553157Y17157700D01*
X2552242Y17171314D01*
X2549550Y17184674D01*
X2545080Y17197578D01*
X2538933Y17209719D01*
X2531211Y17220946D01*
X2522067Y17231106D01*
X2511653Y17239894D01*
X2500172Y17247209D01*
X2487777Y17252950D01*
X2474772Y17257014D01*
X2461310Y17259249D01*
X2447696Y17259706D01*
X2434132Y17258385D01*
X2420823Y17255185D01*
X2408123Y17250308D01*
X2396185Y17243755D01*
X2385161Y17235678D01*
X2375357Y17226178D01*
X2366924Y17215459D01*
X2359964Y17203724D01*
X2354630Y17191177D01*
X2351074Y17178020D01*
X2349246Y17164507D01*
X2349246Y17150892D01*
X2351074Y17137380D01*
X2354630Y17124222D01*
X2359964Y17111675D01*
X2366924Y17099940D01*
X2375357Y17089221D01*
X2385161Y17079722D01*
X2396185Y17071644D01*
X2408123Y17065091D01*
X2420823Y17060214D01*
X2434132Y17057014D01*
G37*
G36*
X1555750Y17065904D02*
G01*
X1555750Y17113250D01*
X1508404Y17113250D01*
X1509115Y17111675D01*
X1516024Y17099940D01*
X1524508Y17089221D01*
X1534312Y17079722D01*
X1545285Y17071644D01*
G37*
G36*
X2660650Y17065904D02*
G01*
X2660650Y17113250D01*
X2613304Y17113250D01*
X2614015Y17111675D01*
X2620924Y17099940D01*
X2629408Y17089221D01*
X2639212Y17079722D01*
X2650185Y17071644D01*
G37*
G36*
X2749550Y17066056D02*
G01*
X2754172Y17068190D01*
X2765653Y17075505D01*
X2776067Y17084294D01*
X2785211Y17094454D01*
X2792933Y17105680D01*
X2796743Y17113250D01*
X2749550Y17113250D01*
G37*
G36*
X1644650Y17066056D02*
G01*
X1649272Y17068190D01*
X1660753Y17075505D01*
X1671167Y17084294D01*
X1680311Y17094454D01*
X1688033Y17105680D01*
X1691843Y17113250D01*
X1644650Y17113250D01*
G37*
G36*
X2749550Y17202150D02*
G01*
X2796743Y17202150D01*
X2792933Y17209719D01*
X2785211Y17220946D01*
X2776067Y17231106D01*
X2765653Y17239894D01*
X2754172Y17247209D01*
X2749550Y17249343D01*
G37*
G36*
X1644650Y17202150D02*
G01*
X1691843Y17202150D01*
X1688033Y17209719D01*
X1680311Y17220946D01*
X1671167Y17231106D01*
X1660753Y17239894D01*
X1649272Y17247209D01*
X1644650Y17249343D01*
G37*
G36*
X1508404Y17202150D02*
G01*
X1555750Y17202150D01*
X1555750Y17249495D01*
X1545285Y17243755D01*
X1534312Y17235678D01*
X1524508Y17226178D01*
X1516024Y17215459D01*
X1509115Y17203724D01*
G37*
G36*
X2613304Y17202150D02*
G01*
X2660650Y17202150D01*
X2660650Y17249495D01*
X2650185Y17243755D01*
X2639212Y17235678D01*
X2629408Y17226178D01*
X2620924Y17215459D01*
X2614015Y17203724D01*
G37*
G36*
X3971696Y17258893D02*
G01*
X3985310Y17259350D01*
X3998772Y17261586D01*
X4011777Y17265650D01*
X4024172Y17271390D01*
X4035653Y17278705D01*
X4046067Y17287494D01*
X4055211Y17297654D01*
X4062933Y17308880D01*
X4069079Y17321022D01*
X4073550Y17333925D01*
X4076293Y17347285D01*
X4077208Y17360900D01*
X4076293Y17374514D01*
X4073550Y17387874D01*
X4069079Y17400778D01*
X4062933Y17412919D01*
X4055211Y17424146D01*
X4046067Y17434306D01*
X4035653Y17443094D01*
X4024172Y17450409D01*
X4011777Y17456150D01*
X3998772Y17460214D01*
X3985310Y17462449D01*
X3971696Y17462906D01*
X3958132Y17461585D01*
X3944874Y17458385D01*
X3932123Y17453508D01*
X3920185Y17446955D01*
X3909212Y17438878D01*
X3899408Y17429378D01*
X3890924Y17418659D01*
X3884015Y17406924D01*
X3878681Y17394377D01*
X3875074Y17381220D01*
X3873246Y17367707D01*
X3873246Y17354092D01*
X3875074Y17340580D01*
X3878681Y17327422D01*
X3884015Y17314875D01*
X3890924Y17303140D01*
X3899408Y17292421D01*
X3909212Y17282922D01*
X3920185Y17274844D01*
X3932123Y17268291D01*
X3944874Y17263414D01*
X3958132Y17260214D01*
G37*
G36*
X3121710Y17538293D02*
G01*
X3135325Y17538750D01*
X3148787Y17540986D01*
X3161792Y17545050D01*
X3174187Y17550790D01*
X3185668Y17558105D01*
X3196082Y17566894D01*
X3205226Y17577054D01*
X3212947Y17588280D01*
X3219094Y17600422D01*
X3223564Y17613325D01*
X3226257Y17626685D01*
X3227171Y17640300D01*
X3226257Y17653914D01*
X3223564Y17667274D01*
X3219094Y17680178D01*
X3212947Y17692319D01*
X3205226Y17703546D01*
X3196082Y17713706D01*
X3185668Y17722494D01*
X3174187Y17729809D01*
X3161792Y17735550D01*
X3148787Y17739614D01*
X3135325Y17741849D01*
X3121710Y17742306D01*
X3108147Y17740985D01*
X3094837Y17737785D01*
X3082137Y17732908D01*
X3070199Y17726355D01*
X3059176Y17718278D01*
X3049371Y17708778D01*
X3040938Y17698059D01*
X3033979Y17686324D01*
X3028645Y17673777D01*
X3025089Y17660620D01*
X3023260Y17647107D01*
X3023260Y17633492D01*
X3025089Y17619980D01*
X3028645Y17606822D01*
X3033979Y17594275D01*
X3040938Y17582540D01*
X3049371Y17571821D01*
X3059176Y17562322D01*
X3070199Y17554244D01*
X3082137Y17547691D01*
X3094837Y17542814D01*
X3108147Y17539614D01*
G37*
G36*
X3971696Y17538293D02*
G01*
X3985310Y17538750D01*
X3998772Y17540986D01*
X4011777Y17545050D01*
X4024172Y17550790D01*
X4035653Y17558105D01*
X4046067Y17566894D01*
X4055211Y17577054D01*
X4062933Y17588280D01*
X4069079Y17600422D01*
X4073550Y17613325D01*
X4076293Y17626685D01*
X4077208Y17640300D01*
X4076293Y17653914D01*
X4073550Y17667274D01*
X4069079Y17680178D01*
X4062933Y17692319D01*
X4055211Y17703546D01*
X4046067Y17713706D01*
X4035653Y17722494D01*
X4024172Y17729809D01*
X4011777Y17735550D01*
X3998772Y17739614D01*
X3985310Y17741849D01*
X3971696Y17742306D01*
X3958132Y17740985D01*
X3944874Y17737785D01*
X3932123Y17732908D01*
X3920185Y17726355D01*
X3909212Y17718278D01*
X3899408Y17708778D01*
X3890924Y17698059D01*
X3884015Y17686324D01*
X3878681Y17673777D01*
X3875074Y17660620D01*
X3873246Y17647107D01*
X3873246Y17633492D01*
X3875074Y17619980D01*
X3878681Y17606822D01*
X3884015Y17594275D01*
X3890924Y17582540D01*
X3899408Y17571821D01*
X3909212Y17562322D01*
X3920185Y17554244D01*
X3932123Y17547691D01*
X3944874Y17542814D01*
X3958132Y17539614D01*
G37*
G36*
X1088796Y17690693D02*
G01*
X1102410Y17691150D01*
X1115872Y17693386D01*
X1128877Y17697450D01*
X1141272Y17703190D01*
X1152753Y17710505D01*
X1163167Y17719294D01*
X1172311Y17729454D01*
X1180033Y17740680D01*
X1186180Y17752822D01*
X1190650Y17765725D01*
X1193393Y17779085D01*
X1194308Y17792700D01*
X1193393Y17806314D01*
X1190650Y17819674D01*
X1186180Y17832578D01*
X1180033Y17844719D01*
X1172311Y17855946D01*
X1163167Y17866106D01*
X1152753Y17874894D01*
X1141272Y17882209D01*
X1128877Y17887950D01*
X1115872Y17892014D01*
X1102410Y17894249D01*
X1088796Y17894706D01*
X1075232Y17893385D01*
X1061974Y17890185D01*
X1049223Y17885308D01*
X1037285Y17878755D01*
X1026312Y17870678D01*
X1016508Y17861178D01*
X1008024Y17850459D01*
X1001115Y17838724D01*
X995781Y17826177D01*
X992174Y17813020D01*
X990346Y17799507D01*
X990346Y17785892D01*
X992174Y17772380D01*
X995781Y17759222D01*
X1001115Y17746675D01*
X1008024Y17734940D01*
X1016508Y17724221D01*
X1026312Y17714722D01*
X1037285Y17706644D01*
X1049223Y17700091D01*
X1061974Y17695214D01*
X1075232Y17692014D01*
G37*
G36*
X1342796Y17690693D02*
G01*
X1356410Y17691150D01*
X1369872Y17693386D01*
X1382877Y17697450D01*
X1395272Y17703190D01*
X1406753Y17710505D01*
X1417167Y17719294D01*
X1426311Y17729454D01*
X1434033Y17740680D01*
X1440180Y17752822D01*
X1444650Y17765725D01*
X1447342Y17779085D01*
X1448257Y17792700D01*
X1447342Y17806314D01*
X1444650Y17819674D01*
X1440180Y17832578D01*
X1434033Y17844719D01*
X1426311Y17855946D01*
X1417167Y17866106D01*
X1406753Y17874894D01*
X1395272Y17882209D01*
X1382877Y17887950D01*
X1369872Y17892014D01*
X1356410Y17894249D01*
X1342796Y17894706D01*
X1329232Y17893385D01*
X1315923Y17890185D01*
X1303223Y17885308D01*
X1291285Y17878755D01*
X1280261Y17870678D01*
X1270457Y17861178D01*
X1262024Y17850459D01*
X1255064Y17838724D01*
X1249730Y17826177D01*
X1246174Y17813020D01*
X1244346Y17799507D01*
X1244346Y17785892D01*
X1246174Y17772380D01*
X1249730Y17759222D01*
X1255064Y17746675D01*
X1262024Y17734940D01*
X1270457Y17724221D01*
X1280261Y17714722D01*
X1291285Y17706644D01*
X1303223Y17700091D01*
X1315923Y17695214D01*
X1329232Y17692014D01*
G37*
G36*
X2193696Y17690693D02*
G01*
X2207310Y17691150D01*
X2220772Y17693386D01*
X2233777Y17697450D01*
X2246172Y17703190D01*
X2257653Y17710505D01*
X2268067Y17719294D01*
X2277211Y17729454D01*
X2284933Y17740680D01*
X2291080Y17752822D01*
X2295550Y17765725D01*
X2298293Y17779085D01*
X2299208Y17792700D01*
X2298293Y17806314D01*
X2295550Y17819674D01*
X2291080Y17832578D01*
X2284933Y17844719D01*
X2277211Y17855946D01*
X2268067Y17866106D01*
X2257653Y17874894D01*
X2246172Y17882209D01*
X2233777Y17887950D01*
X2220772Y17892014D01*
X2207310Y17894249D01*
X2193696Y17894706D01*
X2180132Y17893385D01*
X2166874Y17890185D01*
X2154123Y17885308D01*
X2142185Y17878755D01*
X2131212Y17870678D01*
X2121408Y17861178D01*
X2112924Y17850459D01*
X2106015Y17838724D01*
X2100681Y17826177D01*
X2097074Y17813020D01*
X2095246Y17799507D01*
X2095246Y17785892D01*
X2097074Y17772380D01*
X2100681Y17759222D01*
X2106015Y17746675D01*
X2112924Y17734940D01*
X2121408Y17724221D01*
X2131212Y17714722D01*
X2142185Y17706644D01*
X2154123Y17700091D01*
X2166874Y17695214D01*
X2180132Y17692014D01*
G37*
G36*
X2447696Y17690693D02*
G01*
X2461310Y17691150D01*
X2474772Y17693386D01*
X2487777Y17697450D01*
X2500172Y17703190D01*
X2511653Y17710505D01*
X2522067Y17719294D01*
X2531211Y17729454D01*
X2538933Y17740680D01*
X2545080Y17752822D01*
X2549550Y17765725D01*
X2552242Y17779085D01*
X2553157Y17792700D01*
X2552242Y17806314D01*
X2549550Y17819674D01*
X2545080Y17832578D01*
X2538933Y17844719D01*
X2531211Y17855946D01*
X2522067Y17866106D01*
X2511653Y17874894D01*
X2500172Y17882209D01*
X2487777Y17887950D01*
X2474772Y17892014D01*
X2461310Y17894249D01*
X2447696Y17894706D01*
X2434132Y17893385D01*
X2420823Y17890185D01*
X2408123Y17885308D01*
X2396185Y17878755D01*
X2385161Y17870678D01*
X2375357Y17861178D01*
X2366924Y17850459D01*
X2359964Y17838724D01*
X2354630Y17826177D01*
X2351074Y17813020D01*
X2349246Y17799507D01*
X2349246Y17785892D01*
X2351074Y17772380D01*
X2354630Y17759222D01*
X2359964Y17746675D01*
X2366924Y17734940D01*
X2375357Y17724221D01*
X2385161Y17714722D01*
X2396185Y17706644D01*
X2408123Y17700091D01*
X2420823Y17695214D01*
X2434132Y17692014D01*
G37*
G36*
X1555750Y17700904D02*
G01*
X1555750Y17748250D01*
X1508404Y17748250D01*
X1509115Y17746675D01*
X1516024Y17734940D01*
X1524508Y17724221D01*
X1534312Y17714722D01*
X1545285Y17706644D01*
G37*
G36*
X2660650Y17700904D02*
G01*
X2660650Y17748250D01*
X2613304Y17748250D01*
X2614015Y17746675D01*
X2620924Y17734940D01*
X2629408Y17724221D01*
X2639212Y17714722D01*
X2650185Y17706644D01*
G37*
G36*
X2749550Y17701056D02*
G01*
X2754172Y17703190D01*
X2765653Y17710505D01*
X2776067Y17719294D01*
X2785211Y17729454D01*
X2792933Y17740680D01*
X2796743Y17748250D01*
X2749550Y17748250D01*
G37*
G36*
X1644650Y17701056D02*
G01*
X1649272Y17703190D01*
X1660753Y17710505D01*
X1671167Y17719294D01*
X1680311Y17729454D01*
X1688033Y17740680D01*
X1691843Y17748250D01*
X1644650Y17748250D01*
G37*
G36*
X6337300Y17741392D02*
G01*
X6350914Y17742306D01*
X6364274Y17745049D01*
X6377178Y17749520D01*
X6389319Y17755666D01*
X6400546Y17763388D01*
X6410706Y17772532D01*
X6419494Y17782946D01*
X6426809Y17794427D01*
X6432550Y17806822D01*
X6436614Y17819827D01*
X6438849Y17833289D01*
X6439306Y17846903D01*
X6437985Y17860467D01*
X6434785Y17873726D01*
X6429908Y17886476D01*
X6423355Y17898414D01*
X6415278Y17909387D01*
X6405778Y17919192D01*
X6395059Y17927675D01*
X6383324Y17934584D01*
X6370777Y17939918D01*
X6357620Y17943525D01*
X6344107Y17945354D01*
X6330492Y17945354D01*
X6316980Y17943525D01*
X6303822Y17939918D01*
X6291275Y17934584D01*
X6279540Y17927675D01*
X6268821Y17919192D01*
X6259322Y17909387D01*
X6251244Y17898414D01*
X6244691Y17886476D01*
X6239814Y17873726D01*
X6236614Y17860467D01*
X6235293Y17846903D01*
X6235750Y17833289D01*
X6237986Y17819827D01*
X6242050Y17806822D01*
X6247790Y17794427D01*
X6255105Y17782946D01*
X6263894Y17772532D01*
X6274054Y17763388D01*
X6285280Y17755666D01*
X6297422Y17749520D01*
X6310325Y17745049D01*
X6323685Y17742306D01*
G37*
G36*
X6045149Y17742916D02*
G01*
X6058763Y17743830D01*
X6072124Y17746573D01*
X6085027Y17751044D01*
X6097168Y17757190D01*
X6108446Y17764912D01*
X6118555Y17774056D01*
X6127343Y17784470D01*
X6134709Y17795951D01*
X6140450Y17808346D01*
X6144463Y17821351D01*
X6146749Y17834813D01*
X6147206Y17848427D01*
X6145834Y17861991D01*
X6142685Y17875250D01*
X6137757Y17888000D01*
X6131204Y17899938D01*
X6123127Y17910911D01*
X6113627Y17920716D01*
X6102959Y17929199D01*
X6091224Y17936108D01*
X6078626Y17941442D01*
X6065520Y17945049D01*
X6051956Y17946878D01*
X6038342Y17946878D01*
X6024829Y17945049D01*
X6011672Y17941442D01*
X5999124Y17936108D01*
X5987389Y17929199D01*
X5976670Y17920716D01*
X5967222Y17910911D01*
X5959094Y17899938D01*
X5952540Y17888000D01*
X5947664Y17875250D01*
X5944514Y17861991D01*
X5943142Y17848427D01*
X5943600Y17834813D01*
X5945835Y17821351D01*
X5949899Y17808346D01*
X5955639Y17795951D01*
X5962954Y17784470D01*
X5971794Y17774056D01*
X5981903Y17764912D01*
X5993130Y17757190D01*
X6005322Y17751044D01*
X6018174Y17746573D01*
X6031534Y17743830D01*
G37*
G36*
X5100421Y17811292D02*
G01*
X5113985Y17812613D01*
X5127244Y17815814D01*
X5139994Y17820690D01*
X5151932Y17827244D01*
X5162905Y17835321D01*
X5172710Y17844820D01*
X5181142Y17855539D01*
X5188102Y17867274D01*
X5193436Y17879822D01*
X5197043Y17892979D01*
X5198872Y17906492D01*
X5198872Y17920106D01*
X5197043Y17933619D01*
X5193436Y17946776D01*
X5188102Y17959324D01*
X5181142Y17971058D01*
X5172710Y17981777D01*
X5162905Y17991277D01*
X5151932Y17999354D01*
X5139994Y18005907D01*
X5127244Y18010784D01*
X5113985Y18013984D01*
X5100421Y18015305D01*
X5086807Y18014848D01*
X5073345Y18012613D01*
X5060289Y18008549D01*
X5047945Y18002808D01*
X5036464Y17995493D01*
X5026050Y17986705D01*
X5016906Y17976545D01*
X5009184Y17965318D01*
X5003038Y17953177D01*
X4998567Y17940274D01*
X4995824Y17926913D01*
X4994910Y17913299D01*
X4995824Y17899684D01*
X4998567Y17886324D01*
X5003038Y17873421D01*
X5009184Y17861280D01*
X5016906Y17850053D01*
X5026050Y17839893D01*
X5036464Y17831104D01*
X5047945Y17823789D01*
X5060289Y17818049D01*
X5073345Y17813985D01*
X5086807Y17811750D01*
G37*
G36*
X5350408Y17811292D02*
G01*
X5363972Y17812613D01*
X5377230Y17815814D01*
X5389981Y17820690D01*
X5401919Y17827244D01*
X5412892Y17835321D01*
X5422696Y17844820D01*
X5431180Y17855539D01*
X5438089Y17867274D01*
X5443423Y17879822D01*
X5447030Y17892979D01*
X5448858Y17906492D01*
X5448858Y17920106D01*
X5447030Y17933619D01*
X5443423Y17946776D01*
X5438089Y17959324D01*
X5431180Y17971058D01*
X5422696Y17981777D01*
X5412892Y17991277D01*
X5401919Y17999354D01*
X5389981Y18005907D01*
X5377230Y18010784D01*
X5363972Y18013984D01*
X5350408Y18015305D01*
X5336794Y18014848D01*
X5323332Y18012613D01*
X5310327Y18008549D01*
X5297932Y18002808D01*
X5286451Y17995493D01*
X5276037Y17986705D01*
X5266893Y17976545D01*
X5259171Y17965318D01*
X5253024Y17953177D01*
X5248554Y17940274D01*
X5245811Y17926913D01*
X5244896Y17913299D01*
X5245811Y17899684D01*
X5248554Y17886324D01*
X5253024Y17873421D01*
X5259171Y17861280D01*
X5266893Y17850053D01*
X5276037Y17839893D01*
X5286451Y17831104D01*
X5297932Y17823789D01*
X5310327Y17818049D01*
X5323332Y17813985D01*
X5336794Y17811750D01*
G37*
G36*
X5600395Y17811292D02*
G01*
X5613958Y17812613D01*
X5627268Y17815814D01*
X5639968Y17820690D01*
X5651906Y17827244D01*
X5662930Y17835321D01*
X5672734Y17844820D01*
X5681167Y17855539D01*
X5688126Y17867274D01*
X5693460Y17879822D01*
X5697016Y17892979D01*
X5698845Y17906492D01*
X5698845Y17920106D01*
X5697016Y17933619D01*
X5693460Y17946776D01*
X5688126Y17959324D01*
X5681167Y17971058D01*
X5672734Y17981777D01*
X5662930Y17991277D01*
X5651906Y17999354D01*
X5639968Y18005907D01*
X5627268Y18010784D01*
X5613958Y18013984D01*
X5600395Y18015305D01*
X5586780Y18014848D01*
X5573318Y18012613D01*
X5560314Y18008549D01*
X5547918Y18002808D01*
X5536438Y17995493D01*
X5526024Y17986705D01*
X5516880Y17976545D01*
X5509158Y17965318D01*
X5503011Y17953177D01*
X5498541Y17940274D01*
X5495848Y17926913D01*
X5494934Y17913299D01*
X5495848Y17899684D01*
X5498541Y17886324D01*
X5503011Y17873421D01*
X5509158Y17861280D01*
X5516880Y17850053D01*
X5526024Y17839893D01*
X5536438Y17831104D01*
X5547918Y17823789D01*
X5560314Y17818049D01*
X5573318Y17813985D01*
X5586780Y17811750D01*
G37*
G36*
X3120796Y17817693D02*
G01*
X3134410Y17818150D01*
X3147872Y17820386D01*
X3160877Y17824450D01*
X3173272Y17830190D01*
X3184753Y17837505D01*
X3195167Y17846294D01*
X3204311Y17856454D01*
X3212033Y17867680D01*
X3218180Y17879822D01*
X3222650Y17892725D01*
X3225393Y17906085D01*
X3226308Y17919700D01*
X3225393Y17933314D01*
X3222650Y17946674D01*
X3218180Y17959578D01*
X3212033Y17971719D01*
X3204311Y17982946D01*
X3195167Y17993106D01*
X3184753Y18001894D01*
X3173272Y18009209D01*
X3160877Y18014950D01*
X3147872Y18019014D01*
X3134410Y18021249D01*
X3120796Y18021706D01*
X3107232Y18020385D01*
X3093974Y18017185D01*
X3081223Y18012308D01*
X3069285Y18005755D01*
X3058312Y17997678D01*
X3048508Y17988178D01*
X3040024Y17977459D01*
X3033115Y17965724D01*
X3027781Y17953177D01*
X3024174Y17940020D01*
X3022346Y17926507D01*
X3022346Y17912892D01*
X3024174Y17899380D01*
X3027781Y17886222D01*
X3033115Y17873675D01*
X3040024Y17861940D01*
X3048508Y17851221D01*
X3058312Y17841722D01*
X3069285Y17833644D01*
X3081223Y17827091D01*
X3093974Y17822214D01*
X3107232Y17819014D01*
G37*
G36*
X3970782Y17817693D02*
G01*
X3984447Y17818150D01*
X3997858Y17820386D01*
X4010914Y17824450D01*
X4023258Y17830190D01*
X4034739Y17837505D01*
X4045153Y17846294D01*
X4054297Y17856454D01*
X4062018Y17867680D01*
X4068165Y17879822D01*
X4072686Y17892725D01*
X4075379Y17906085D01*
X4076293Y17919700D01*
X4075379Y17933314D01*
X4072686Y17946674D01*
X4068165Y17959578D01*
X4062018Y17971719D01*
X4054297Y17982946D01*
X4045153Y17993106D01*
X4034739Y18001894D01*
X4023258Y18009209D01*
X4010914Y18014950D01*
X3997858Y18019014D01*
X3984447Y18021249D01*
X3970782Y18021706D01*
X3957218Y18020385D01*
X3943959Y18017185D01*
X3931208Y18012308D01*
X3919270Y18005755D01*
X3908298Y17997678D01*
X3898493Y17988178D01*
X3890060Y17977459D01*
X3883101Y17965724D01*
X3877767Y17953177D01*
X3874160Y17940020D01*
X3872331Y17926507D01*
X3872331Y17912892D01*
X3874160Y17899380D01*
X3877767Y17886222D01*
X3883101Y17873675D01*
X3890060Y17861940D01*
X3898493Y17851221D01*
X3908298Y17841722D01*
X3919270Y17833644D01*
X3931208Y17827091D01*
X3943959Y17822214D01*
X3957218Y17819014D01*
G37*
G36*
X4891430Y17821503D02*
G01*
X4901946Y17827244D01*
X4912918Y17835321D01*
X4922723Y17844820D01*
X4931156Y17855539D01*
X4938115Y17867274D01*
X4938776Y17868849D01*
X4891430Y17868849D01*
G37*
G36*
X4802530Y17821656D02*
G01*
X4802530Y17868849D01*
X4755337Y17868849D01*
X4759147Y17861280D01*
X4766868Y17850053D01*
X4776012Y17839893D01*
X4786426Y17831104D01*
X4797958Y17823789D01*
G37*
G36*
X2749550Y17837150D02*
G01*
X2796743Y17837150D01*
X2792933Y17844719D01*
X2785211Y17855946D01*
X2776067Y17866106D01*
X2765653Y17874894D01*
X2754172Y17882209D01*
X2749550Y17884343D01*
G37*
G36*
X1644650Y17837150D02*
G01*
X1691843Y17837150D01*
X1688033Y17844719D01*
X1680311Y17855946D01*
X1671167Y17866106D01*
X1660753Y17874894D01*
X1649272Y17882209D01*
X1644650Y17884343D01*
G37*
G36*
X1508404Y17837150D02*
G01*
X1555750Y17837150D01*
X1555750Y17884495D01*
X1545285Y17878755D01*
X1534312Y17870678D01*
X1524508Y17861178D01*
X1516024Y17850459D01*
X1509115Y17838724D01*
G37*
G36*
X2613304Y17837150D02*
G01*
X2660650Y17837150D01*
X2660650Y17884495D01*
X2650185Y17878755D01*
X2639212Y17870678D01*
X2629408Y17861178D01*
X2620924Y17850459D01*
X2614015Y17838724D01*
G37*
G36*
X4755337Y17957749D02*
G01*
X4802530Y17957749D01*
X4802530Y18004942D01*
X4797958Y18002808D01*
X4786426Y17995493D01*
X4776012Y17986705D01*
X4766868Y17976545D01*
X4759147Y17965318D01*
G37*
G36*
X4891430Y17957749D02*
G01*
X4938776Y17957749D01*
X4938115Y17959324D01*
X4931156Y17971058D01*
X4922723Y17981777D01*
X4912918Y17991277D01*
X4901946Y17999354D01*
X4891430Y18005094D01*
G37*

%LPD*%
D10*
X1764411Y12776200D02*
G01*
X1993900Y13005688D01*
X1993900Y13284200D01*
D11*
X2870200Y15405100D02*
G01*
X2984500Y15405100D01*
X3263900Y15125700D01*
X3263900Y13284200D01*
D10*
X3136011Y12776200D02*
G01*
X3263900Y12904088D01*
X3263900Y13284200D01*
D11*
X3263900Y13284200D02*
G01*
X1993900Y13284200D01*
D12*
X3962400Y13030200D02*
G01*
X4368800Y13030200D01*
X4432300Y12966700D01*
X4432300Y12763500D01*
X4521200Y12674600D01*
X4889500Y12674600D01*
X4965700Y12750800D01*
X4965700Y12801600D01*
X5321300Y13690600D02*
G01*
X5321300Y13144500D01*
X5651500Y16007079D02*
G01*
X5651500Y15532100D01*
X5321300Y15201900D01*
X5321300Y14719300D01*
X6337300Y16993616D02*
G01*
X6654800Y16991076D01*
X6045200Y15519400D02*
G01*
X6540500Y16014700D01*
X6540500Y16103600D01*
X6146800Y15417800D02*
G01*
X6654800Y15925800D01*
X6654800Y16103600D01*
X5168900Y14719300D02*
G01*
X5168900Y15062200D01*
X5169661Y13284200D02*
G01*
X5168900Y13690600D01*
X5054600Y14719300D02*
G01*
X5054600Y15062200D01*
X4889500Y13690600D02*
G01*
X4889500Y13144500D01*
X4546600Y15062200D02*
G01*
X4546600Y14719300D01*
X4432300Y13690600D02*
G01*
X4432300Y13144500D01*
X4432300Y15062200D02*
G01*
X4432300Y14719300D01*
X4318000Y13142363D02*
G01*
X4318000Y13687993D01*
D13*
X2273300Y12420600D02*
G01*
X2171700Y12319000D01*
X2171700Y11849100D01*
D12*
X4635500Y17012920D02*
G01*
X4318000Y16695420D01*
X4318000Y14718106D01*
X4191000Y13690600D02*
G01*
X4191000Y13144500D01*
X4191000Y15062200D02*
G01*
X4191000Y14719300D01*
X3987800Y15735300D02*
G01*
X3644900Y15392400D01*
X3644900Y15125700D01*
X3810000Y14960600D01*
X3810000Y11658600D01*
X3962400Y11506200D01*
D14*
X5171947Y11500358D02*
G01*
X5444490Y11772900D01*
X5727700Y11772900D01*
X5886704Y11931904D01*
X5886704Y12771881D01*
X5281929Y11500358D02*
G01*
X5490972Y11709400D01*
X6121400Y11709400D01*
X6286500Y11874500D01*
X6286500Y14681200D01*
X6426200Y14820900D01*
X6489700Y14820900D01*
D13*
X1346200Y15887700D02*
G01*
X1346200Y16090900D01*
X1511300Y16256000D01*
X1892300Y16256000D01*
X1981200Y16344900D01*
X1981200Y16738600D01*
X2146300Y16903700D01*
X2806700Y16903700D01*
X2984500Y17081500D01*
X3125101Y17081500D01*
X3125101Y17360900D02*
G01*
X3048901Y17437100D01*
X2171700Y17437100D01*
X1892300Y17157700D01*
X1892300Y16903700D01*
X1790700Y16802100D01*
X1536700Y16802100D01*
X1346200Y16611600D01*
X1346200Y16522700D01*
D15*
G01*
X4847005Y17913299D03*
G01*
X5096992Y17913299D03*
G01*
X5347004Y17913299D03*
G01*
X5596991Y17913299D03*
D16*
G01*
X1562100Y12141200D03*
G01*
X1562100Y11633200D03*
G01*
X2794000Y12128500D03*
G01*
X2794000Y11620500D03*
D17*
G01*
X1764411Y12776200D03*
G01*
X1593392Y12776200D03*
G01*
X1422400Y12776200D03*
G01*
X1251407Y12776200D03*
G01*
X1080388Y12776200D03*
D16*
G01*
X1003300Y14579600D03*
G01*
X1257300Y14579600D03*
D15*
G01*
X2705100Y16522700D03*
G01*
X2451100Y16522700D03*
G01*
X2197100Y16522700D03*
G01*
X2705100Y15887700D03*
G01*
X2451100Y15887700D03*
G01*
X2197100Y15887700D03*
D16*
G01*
X2387600Y14592300D03*
G01*
X2641600Y14592300D03*
D17*
G01*
X3136011Y12776200D03*
G01*
X2964992Y12776200D03*
G01*
X2794000Y12776200D03*
G01*
X2623007Y12776200D03*
G01*
X2451988Y12776200D03*
D18*
G01*
X5886602Y14549805D03*
G01*
X5886627Y14295856D03*
G01*
X5886627Y14041856D03*
G01*
X5886627Y13787856D03*
G01*
X5886627Y13533856D03*
G01*
X5886627Y13279856D03*
G01*
X5886627Y13025856D03*
G01*
X5886627Y12771856D03*
D15*
G01*
X3111525Y10261650D03*
G01*
X2857525Y10261650D03*
G01*
X2603525Y10261650D03*
G01*
X2010994Y10268000D03*
G01*
X1761007Y10268000D03*
G01*
X1510995Y10268000D03*
G01*
X1261008Y10268000D03*
D19*
G01*
X3619500Y13208000D03*
G01*
X3619500Y13919200D03*
D15*
G01*
X1600200Y17792700D03*
G01*
X1346200Y17792700D03*
G01*
X1092200Y17792700D03*
G01*
X1600200Y17157700D03*
G01*
X1346200Y17157700D03*
G01*
X1092200Y17157700D03*
G01*
X1600200Y16522700D03*
G01*
X1346200Y16522700D03*
G01*
X1092200Y16522700D03*
G01*
X1600200Y15887700D03*
G01*
X1346200Y15887700D03*
G01*
X1092200Y15887700D03*
G01*
X2705100Y17792700D03*
G01*
X2451100Y17792700D03*
G01*
X2197100Y17792700D03*
G01*
X2705100Y17157700D03*
G01*
X2451100Y17157700D03*
G01*
X2197100Y17157700D03*
D20*
G01*
X4493602Y10453776D03*
D21*
G01*
X4493894Y11420348D03*
D22*
G01*
X5963564Y11420957D03*
D23*
G01*
X6043904Y10460228D03*
D15*
G01*
X3962400Y10490200D03*
G01*
X3962400Y10744200D03*
G01*
X3962400Y10998200D03*
G01*
X3962400Y11252200D03*
G01*
X3962400Y11506200D03*
G01*
X3962400Y11760200D03*
G01*
X3962400Y12014200D03*
G01*
X3962400Y12268200D03*
G01*
X3962400Y12522200D03*
G01*
X3962400Y12776200D03*
G01*
X3962400Y13030200D03*
G01*
X3962400Y13284200D03*
G01*
X3962400Y13538200D03*
G01*
X3962400Y13792200D03*
G01*
X3962400Y14046200D03*
G01*
X3962400Y14300200D03*
G01*
X3962400Y14554200D03*
G01*
X3962400Y14808200D03*
G01*
X3962400Y15062200D03*
G01*
X6489700Y15074900D03*
G01*
X6489700Y14820900D03*
G01*
X6489700Y14566900D03*
G01*
X6489700Y14312900D03*
G01*
X6489700Y14058900D03*
G01*
X6489700Y13804900D03*
G01*
X6489700Y13550900D03*
G01*
X6489700Y13296900D03*
G01*
X6489700Y13042900D03*
G01*
X6489700Y12788900D03*
G01*
X6489700Y12534900D03*
G01*
X6489700Y12280900D03*
G01*
X6489700Y12026900D03*
G01*
X6489700Y11773230D03*
G01*
X6489700Y11518900D03*
G01*
X6489700Y11264900D03*
G01*
X6489700Y11010900D03*
G01*
X6489700Y10756900D03*
G01*
X6489700Y10502900D03*
D24*
G01*
X1143000Y10985500D03*
G01*
X3238500Y10985500D03*
D15*
G01*
X3974198Y17919700D03*
G01*
X3124200Y17919700D03*
G01*
X3125101Y17640300D03*
G01*
X3975100Y17640300D03*
G01*
X3125101Y17360900D03*
G01*
X3975100Y17360900D03*
G01*
X3125101Y17081500D03*
G01*
X3975100Y17081500D03*
G01*
X3125101Y16802100D03*
G01*
X3975100Y16802100D03*
G01*
X3125101Y16522700D03*
G01*
X3975100Y16522700D03*
G01*
X3125101Y16243300D03*
G01*
X3975100Y16243300D03*
G01*
X3125101Y15951200D03*
G01*
X3975100Y15951200D03*
G01*
X3632200Y11367401D03*
G01*
X3632200Y12217400D03*
G01*
X3632200Y11124298D03*
G01*
X3632200Y10274300D03*
G01*
X6045161Y17845024D03*
G01*
X6045161Y16995025D03*
G01*
X6337300Y16993501D03*
G01*
X6337300Y17843500D03*
D25*
G01*
X5281904Y11500281D03*
G01*
X5171897Y11500281D03*
G01*
X3987800Y15735300D03*
G01*
X4191000Y15062200D03*
G01*
X4191000Y14719300D03*
G01*
X4191000Y13690600D03*
G01*
X4191000Y13144500D03*
G01*
X4635500Y17012920D03*
G01*
X2273300Y12420600D03*
G01*
X2171700Y11849100D03*
G01*
X4318000Y14718106D03*
G01*
X4318000Y13687993D03*
G01*
X4318000Y13142363D03*
G01*
X4432300Y15062200D03*
G01*
X4432300Y14719300D03*
G01*
X4432300Y13690600D03*
G01*
X4432300Y13144500D03*
G01*
X4546600Y15062200D03*
G01*
X4546600Y14719300D03*
G01*
X4889500Y13690600D03*
G01*
X4889500Y13144500D03*
G01*
X5054600Y14719300D03*
G01*
X5169545Y13284200D03*
G01*
X5168900Y13690600D03*
G01*
X5168900Y14719300D03*
G01*
X5054600Y15062200D03*
G01*
X5168900Y15062200D03*
G01*
X6045200Y15519400D03*
G01*
X6146800Y15417800D03*
G01*
X6540500Y16103600D03*
G01*
X6654800Y16103600D03*
G01*
X6654800Y16991055D03*
G01*
X5651500Y16007079D03*
G01*
X5321300Y14719300D03*
G01*
X5321300Y13690600D03*
G01*
X5321300Y13144500D03*
G01*
X4965700Y12801600D03*
G01*
X2755900Y15532100D03*
G01*
X2755900Y15290800D03*
G01*
X2755900Y15405100D03*
G01*
X1193800Y18046700D03*
G01*
X5245100Y18072100D03*
G01*
X6375400Y14439900D03*
G01*
X6565900Y13169900D03*
G01*
X2400300Y16256000D03*
G01*
X6565900Y12903200D03*
G01*
X6565900Y14693900D03*
M02*
