G04 Layer: TopPasteMaskLayer*
G04 EasyEDA v6.5.20, 2022-10-22 14:54:30*
G04 fe600fdf0afc4bf6b2dbe2f9dcf79710,95753c6d73fd445989ad8f01ddeeb764,10*
G04 Gerber Generator version 0.2*
G04 Scale: 100 percent, Rotated: No, Reflected: No *
G04 Dimensions in millimeters *
G04 leading zeros omitted , absolute positions ,4 integer and 5 decimal *
%FSLAX45Y45*%
%MOMM*%

%ADD10R,3.5000X8.0000*%
%ADD11R,1.5000X4.0000*%
%ADD12R,2.3000X2.5000*%
%ADD13R,0.6604X2.0320*%
%ADD14R,3.3000X2.7000*%
%ADD15R,2.3760X1.9000*%
%ADD16R,0.7010X1.6000*%

%LPD*%
D10*
G01*
X2406700Y13570005D03*
G01*
X3206800Y13570005D03*
D11*
G01*
X1638300Y15405100D03*
D10*
G01*
X1809795Y13570005D03*
G01*
X1009695Y13570005D03*
D11*
G01*
X1435100Y15405100D03*
G01*
X2552700Y15405100D03*
G01*
X2755900Y15405100D03*
D12*
G01*
X5217668Y17348200D03*
G01*
X4662931Y17348200D03*
D13*
G01*
X4635500Y16007079D03*
G01*
X4762500Y16007079D03*
G01*
X4889500Y16007079D03*
G01*
X5016500Y16007079D03*
G01*
X5143500Y16007079D03*
G01*
X5270500Y16007079D03*
G01*
X5397500Y16007079D03*
G01*
X5524500Y16007079D03*
G01*
X5524500Y17012920D03*
G01*
X5397500Y17012920D03*
G01*
X5270500Y17012920D03*
G01*
X5143500Y17012920D03*
G01*
X5016500Y17012920D03*
G01*
X4889500Y17012920D03*
G01*
X4762500Y17012920D03*
G01*
X4635500Y17012920D03*
G01*
X5651500Y16007079D03*
G01*
X5778500Y16007079D03*
G01*
X5651500Y17012920D03*
G01*
X5778500Y17012920D03*
D14*
G01*
X1816100Y14935530D03*
G01*
X1816100Y14198269D03*
G01*
X3200400Y14948230D03*
G01*
X3200400Y14210969D03*
D15*
G01*
X3632200Y12864464D03*
G01*
X3632200Y12484735D03*
D12*
G01*
X3088131Y15379700D03*
G01*
X3642868Y15379700D03*
D16*
G01*
X5501055Y11500612D03*
G01*
X5390895Y11500281D03*
G01*
X5281904Y11500281D03*
G01*
X5171897Y11500281D03*
G01*
X5061889Y11500281D03*
G01*
X4951907Y11500281D03*
G01*
X4841900Y11500281D03*
G01*
X4731893Y11500281D03*
G01*
X4621911Y11500281D03*
M02*
