G04 Layer: TopSilkscreenLayer*
G04 EasyEDA v6.5.20, 2022-10-22 14:54:30*
G04 fe600fdf0afc4bf6b2dbe2f9dcf79710,95753c6d73fd445989ad8f01ddeeb764,10*
G04 Gerber Generator version 0.2*
G04 Scale: 100 percent, Rotated: No, Reflected: No *
G04 Dimensions in millimeters *
G04 leading zeros omitted , absolute positions ,4 integer and 5 decimal *
%FSLAX45Y45*%
%MOMM*%

%ADD10C,0.2032*%
%ADD11C,0.1524*%
%ADD12C,0.1520*%
%ADD13C,0.1016*%
%ADD14C,0.2540*%
%ADD15C,0.2581*%
%ADD16C,0.1270*%
%ADD17C,0.5000*%
%ADD18C,0.0161*%

%LPD*%
D10*
X4851400Y15229078D02*
G01*
X4851400Y15035276D01*
X4851400Y15229078D02*
G01*
X4971541Y15229078D01*
X4851400Y15136876D02*
G01*
X4925313Y15136876D01*
X4851400Y15035276D02*
G01*
X4971541Y15035276D01*
X5161788Y15201392D02*
G01*
X5143245Y15219934D01*
X5115559Y15229078D01*
X5078729Y15229078D01*
X5050790Y15219934D01*
X5032502Y15201392D01*
X5032502Y15182850D01*
X5041645Y15164562D01*
X5050790Y15155163D01*
X5069331Y15146020D01*
X5124704Y15127478D01*
X5143245Y15118334D01*
X5152390Y15109189D01*
X5161788Y15090647D01*
X5161788Y15062962D01*
X5143245Y15044420D01*
X5115559Y15035276D01*
X5078729Y15035276D01*
X5050790Y15044420D01*
X5032502Y15062962D01*
X5222747Y15229078D02*
G01*
X5222747Y15035276D01*
X5222747Y15229078D02*
G01*
X5305806Y15229078D01*
X5333491Y15219934D01*
X5342890Y15210789D01*
X5352034Y15192247D01*
X5352034Y15164562D01*
X5342890Y15146020D01*
X5333491Y15136876D01*
X5305806Y15127478D01*
X5222747Y15127478D01*
X5431536Y15229078D02*
G01*
X5533136Y15229078D01*
X5477509Y15155163D01*
X5505450Y15155163D01*
X5523738Y15146020D01*
X5533136Y15136876D01*
X5542279Y15109189D01*
X5542279Y15090647D01*
X5533136Y15062962D01*
X5514593Y15044420D01*
X5486908Y15035276D01*
X5459222Y15035276D01*
X5431536Y15044420D01*
X5422138Y15053563D01*
X5412993Y15072105D01*
X5612384Y15182850D02*
G01*
X5612384Y15192247D01*
X5621781Y15210789D01*
X5630925Y15219934D01*
X5649468Y15229078D01*
X5686297Y15229078D01*
X5704840Y15219934D01*
X5713984Y15210789D01*
X5723381Y15192247D01*
X5723381Y15173705D01*
X5713984Y15155163D01*
X5695695Y15127478D01*
X5603240Y15035276D01*
X5732525Y15035276D01*
X4660900Y10872978D02*
G01*
X4660900Y10679176D01*
X4660900Y10872978D02*
G01*
X4734813Y10679176D01*
X4808727Y10872978D02*
G01*
X4734813Y10679176D01*
X4808727Y10872978D02*
G01*
X4808727Y10679176D01*
X4869688Y10872978D02*
G01*
X4878831Y10863834D01*
X4888229Y10872978D01*
X4878831Y10882376D01*
X4869688Y10872978D01*
X4878831Y10808462D02*
G01*
X4878831Y10679176D01*
X5059934Y10780776D02*
G01*
X5041391Y10799063D01*
X5022850Y10808462D01*
X4995163Y10808462D01*
X4976875Y10799063D01*
X4958334Y10780776D01*
X4949190Y10753089D01*
X4949190Y10734547D01*
X4958334Y10706862D01*
X4976875Y10688320D01*
X4995163Y10679176D01*
X5022850Y10679176D01*
X5041391Y10688320D01*
X5059934Y10706862D01*
X5120893Y10808462D02*
G01*
X5120893Y10679176D01*
X5120893Y10753089D02*
G01*
X5130038Y10780776D01*
X5148579Y10799063D01*
X5167122Y10808462D01*
X5194808Y10808462D01*
X5301995Y10808462D02*
G01*
X5283454Y10799063D01*
X5264911Y10780776D01*
X5255768Y10753089D01*
X5255768Y10734547D01*
X5264911Y10706862D01*
X5283454Y10688320D01*
X5301995Y10679176D01*
X5329681Y10679176D01*
X5347970Y10688320D01*
X5366511Y10706862D01*
X5375909Y10734547D01*
X5375909Y10753089D01*
X5366511Y10780776D01*
X5347970Y10799063D01*
X5329681Y10808462D01*
X5301995Y10808462D01*
X5708395Y10845292D02*
G01*
X5689854Y10863834D01*
X5662168Y10872978D01*
X5625084Y10872978D01*
X5597397Y10863834D01*
X5579109Y10845292D01*
X5579109Y10826750D01*
X5588254Y10808462D01*
X5597397Y10799063D01*
X5615940Y10789920D01*
X5671311Y10771378D01*
X5689854Y10762234D01*
X5698997Y10753089D01*
X5708395Y10734547D01*
X5708395Y10706862D01*
X5689854Y10688320D01*
X5662168Y10679176D01*
X5625084Y10679176D01*
X5597397Y10688320D01*
X5579109Y10706862D01*
X5769356Y10872978D02*
G01*
X5769356Y10679176D01*
X5769356Y10872978D02*
G01*
X5833872Y10872978D01*
X5861558Y10863834D01*
X5880100Y10845292D01*
X5889243Y10826750D01*
X5898641Y10799063D01*
X5898641Y10753089D01*
X5889243Y10725150D01*
X5880100Y10706862D01*
X5861558Y10688320D01*
X5833872Y10679176D01*
X5769356Y10679176D01*
X1409700Y11063478D02*
G01*
X1409700Y10869676D01*
X1409700Y11063478D02*
G01*
X1529842Y11063478D01*
X1409700Y10971276D02*
G01*
X1483613Y10971276D01*
X1590802Y10998962D02*
G01*
X1590802Y10906505D01*
X1599945Y10878820D01*
X1618487Y10869676D01*
X1646173Y10869676D01*
X1664715Y10878820D01*
X1692402Y10906505D01*
X1692402Y10998962D02*
G01*
X1692402Y10869676D01*
X1854962Y10971276D02*
G01*
X1845563Y10989563D01*
X1817878Y10998962D01*
X1790192Y10998962D01*
X1762505Y10989563D01*
X1753362Y10971276D01*
X1762505Y10952734D01*
X1781047Y10943589D01*
X1827276Y10934192D01*
X1845563Y10925047D01*
X1854962Y10906505D01*
X1854962Y10897362D01*
X1845563Y10878820D01*
X1817878Y10869676D01*
X1790192Y10869676D01*
X1762505Y10878820D01*
X1753362Y10897362D01*
X1915921Y10943589D02*
G01*
X2026665Y10943589D01*
X2026665Y10961878D01*
X2017522Y10980420D01*
X2008124Y10989563D01*
X1989836Y10998962D01*
X1962150Y10998962D01*
X1943608Y10989563D01*
X1925065Y10971276D01*
X1915921Y10943589D01*
X1915921Y10925047D01*
X1925065Y10897362D01*
X1943608Y10878820D01*
X1962150Y10869676D01*
X1989836Y10869676D01*
X2008124Y10878820D01*
X2026665Y10897362D01*
X2229865Y11026647D02*
G01*
X2248408Y11035792D01*
X2276093Y11063478D01*
X2276093Y10869676D01*
X2337054Y10952734D02*
G01*
X2503170Y10952734D01*
X2610358Y11063478D02*
G01*
X2582672Y11054334D01*
X2573527Y11035792D01*
X2573527Y11017250D01*
X2582672Y10998962D01*
X2601213Y10989563D01*
X2638043Y10980420D01*
X2665729Y10971276D01*
X2684272Y10952734D01*
X2693670Y10934192D01*
X2693670Y10906505D01*
X2684272Y10887963D01*
X2675127Y10878820D01*
X2647441Y10869676D01*
X2610358Y10869676D01*
X2582672Y10878820D01*
X2573527Y10887963D01*
X2564129Y10906505D01*
X2564129Y10934192D01*
X2573527Y10952734D01*
X2592070Y10971276D01*
X2619756Y10980420D01*
X2656586Y10989563D01*
X2675127Y10998962D01*
X2684272Y11017250D01*
X2684272Y11035792D01*
X2675127Y11054334D01*
X2647441Y11063478D01*
X2610358Y11063478D01*
X2828290Y11063478D02*
G01*
X2754629Y10869676D01*
X2828290Y11063478D02*
G01*
X2902204Y10869676D01*
X2782315Y10934192D02*
G01*
X2874518Y10934192D01*
X2768600Y13679678D02*
G01*
X2768600Y13485876D01*
X2829559Y13642847D02*
G01*
X2848102Y13651992D01*
X2875788Y13679678D01*
X2875788Y13485876D01*
X2313152Y15508478D02*
G01*
X2313152Y15360650D01*
X2303754Y15332963D01*
X2294610Y15323820D01*
X2276068Y15314676D01*
X2257526Y15314676D01*
X2239238Y15323820D01*
X2229840Y15332963D01*
X2220696Y15360650D01*
X2220696Y15379192D01*
X2374112Y15471647D02*
G01*
X2392400Y15480792D01*
X2420086Y15508478D01*
X2420086Y15314676D01*
X1330398Y13670191D02*
G01*
X1330398Y13476389D01*
X1400502Y13623963D02*
G01*
X1400502Y13633361D01*
X1409900Y13651903D01*
X1419044Y13661047D01*
X1437586Y13670191D01*
X1474416Y13670191D01*
X1492958Y13661047D01*
X1502102Y13651903D01*
X1511500Y13633361D01*
X1511500Y13614819D01*
X1502102Y13596277D01*
X1483814Y13568591D01*
X1391358Y13476389D01*
X1520644Y13476389D01*
X1131150Y15508478D02*
G01*
X1131150Y15360650D01*
X1121752Y15332963D01*
X1112608Y15323820D01*
X1094066Y15314676D01*
X1075524Y15314676D01*
X1057236Y15323820D01*
X1047838Y15332963D01*
X1038694Y15360650D01*
X1038694Y15379192D01*
X1201254Y15462250D02*
G01*
X1201254Y15471647D01*
X1210398Y15490189D01*
X1219796Y15499334D01*
X1238084Y15508478D01*
X1275168Y15508478D01*
X1293710Y15499334D01*
X1302854Y15490189D01*
X1311998Y15471647D01*
X1311998Y15453105D01*
X1302854Y15434563D01*
X1284312Y15406878D01*
X1192110Y15314676D01*
X1321396Y15314676D01*
D11*
X3494024Y17971549D02*
G01*
X3494024Y17862583D01*
X3494024Y17971549D02*
G01*
X3540759Y17971549D01*
X3556254Y17966469D01*
X3561588Y17961135D01*
X3566668Y17950721D01*
X3566668Y17940307D01*
X3561588Y17929893D01*
X3556254Y17924813D01*
X3540759Y17919733D01*
X3494024Y17919733D01*
X3530345Y17919733D02*
G01*
X3566668Y17862583D01*
X3600958Y17950721D02*
G01*
X3611372Y17956055D01*
X3627120Y17971549D01*
X3627120Y17862583D01*
X3495040Y17692116D02*
G01*
X3495040Y17583150D01*
X3495040Y17692116D02*
G01*
X3541775Y17692116D01*
X3557270Y17687036D01*
X3562350Y17681702D01*
X3567684Y17671287D01*
X3567684Y17660874D01*
X3562350Y17650713D01*
X3557270Y17645379D01*
X3541775Y17640300D01*
X3495040Y17640300D01*
X3531361Y17640300D02*
G01*
X3567684Y17583150D01*
X3607054Y17666208D02*
G01*
X3607054Y17671287D01*
X3612388Y17681702D01*
X3617468Y17687036D01*
X3627881Y17692116D01*
X3648709Y17692116D01*
X3659124Y17687036D01*
X3664204Y17681702D01*
X3669538Y17671287D01*
X3669538Y17660874D01*
X3664204Y17650713D01*
X3653790Y17634966D01*
X3601974Y17583150D01*
X3674618Y17583150D01*
X3495040Y17412716D02*
G01*
X3495040Y17303750D01*
X3495040Y17412716D02*
G01*
X3541775Y17412716D01*
X3557270Y17407636D01*
X3562350Y17402302D01*
X3567684Y17391887D01*
X3567684Y17381474D01*
X3562350Y17371313D01*
X3557270Y17365979D01*
X3541775Y17360900D01*
X3495040Y17360900D01*
X3531361Y17360900D02*
G01*
X3567684Y17303750D01*
X3612388Y17412716D02*
G01*
X3669538Y17412716D01*
X3638295Y17371313D01*
X3653790Y17371313D01*
X3664204Y17365979D01*
X3669538Y17360900D01*
X3674618Y17345152D01*
X3674618Y17334737D01*
X3669538Y17319244D01*
X3659124Y17308829D01*
X3643629Y17303750D01*
X3627881Y17303750D01*
X3612388Y17308829D01*
X3607054Y17314163D01*
X3601974Y17324324D01*
X3495040Y17133316D02*
G01*
X3495040Y17024350D01*
X3495040Y17133316D02*
G01*
X3541775Y17133316D01*
X3557270Y17128236D01*
X3562350Y17122902D01*
X3567684Y17112487D01*
X3567684Y17102074D01*
X3562350Y17091913D01*
X3557270Y17086579D01*
X3541775Y17081500D01*
X3495040Y17081500D01*
X3531361Y17081500D02*
G01*
X3567684Y17024350D01*
X3653790Y17133316D02*
G01*
X3601974Y17060671D01*
X3679952Y17060671D01*
X3653790Y17133316D02*
G01*
X3653790Y17024350D01*
X3495040Y16853916D02*
G01*
X3495040Y16744950D01*
X3495040Y16853916D02*
G01*
X3541775Y16853916D01*
X3557270Y16848836D01*
X3562350Y16843502D01*
X3567684Y16833087D01*
X3567684Y16822674D01*
X3562350Y16812513D01*
X3557270Y16807179D01*
X3541775Y16802100D01*
X3495040Y16802100D01*
X3531361Y16802100D02*
G01*
X3567684Y16744950D01*
X3664204Y16853916D02*
G01*
X3612388Y16853916D01*
X3607054Y16807179D01*
X3612388Y16812513D01*
X3627881Y16817594D01*
X3643629Y16817594D01*
X3659124Y16812513D01*
X3669538Y16802100D01*
X3674618Y16786352D01*
X3674618Y16775937D01*
X3669538Y16760444D01*
X3659124Y16750029D01*
X3643629Y16744950D01*
X3627881Y16744950D01*
X3612388Y16750029D01*
X3607054Y16755363D01*
X3601974Y16765524D01*
X3495040Y16574516D02*
G01*
X3495040Y16465550D01*
X3495040Y16574516D02*
G01*
X3541775Y16574516D01*
X3557270Y16569436D01*
X3562350Y16564102D01*
X3567684Y16553687D01*
X3567684Y16543274D01*
X3562350Y16533113D01*
X3557270Y16527779D01*
X3541775Y16522700D01*
X3495040Y16522700D01*
X3531361Y16522700D02*
G01*
X3567684Y16465550D01*
X3664204Y16559021D02*
G01*
X3659124Y16569436D01*
X3643629Y16574516D01*
X3633215Y16574516D01*
X3617468Y16569436D01*
X3607054Y16553687D01*
X3601974Y16527779D01*
X3601974Y16501871D01*
X3607054Y16481044D01*
X3617468Y16470629D01*
X3633215Y16465550D01*
X3638295Y16465550D01*
X3653790Y16470629D01*
X3664204Y16481044D01*
X3669538Y16496537D01*
X3669538Y16501871D01*
X3664204Y16517366D01*
X3653790Y16527779D01*
X3638295Y16533113D01*
X3633215Y16533113D01*
X3617468Y16527779D01*
X3607054Y16517366D01*
X3601974Y16501871D01*
X3495040Y16295116D02*
G01*
X3495040Y16186150D01*
X3495040Y16295116D02*
G01*
X3541775Y16295116D01*
X3557270Y16290036D01*
X3562350Y16284702D01*
X3567684Y16274287D01*
X3567684Y16263874D01*
X3562350Y16253713D01*
X3557270Y16248379D01*
X3541775Y16243300D01*
X3495040Y16243300D01*
X3531361Y16243300D02*
G01*
X3567684Y16186150D01*
X3674618Y16295116D02*
G01*
X3622802Y16186150D01*
X3601974Y16295116D02*
G01*
X3674618Y16295116D01*
X3495040Y16003016D02*
G01*
X3495040Y15894050D01*
X3495040Y16003016D02*
G01*
X3541775Y16003016D01*
X3557270Y15997936D01*
X3562350Y15992602D01*
X3567684Y15982187D01*
X3567684Y15971774D01*
X3562350Y15961613D01*
X3557270Y15956279D01*
X3541775Y15951200D01*
X3495040Y15951200D01*
X3531361Y15951200D02*
G01*
X3567684Y15894050D01*
X3627881Y16003016D02*
G01*
X3612388Y15997936D01*
X3607054Y15987521D01*
X3607054Y15977107D01*
X3612388Y15966694D01*
X3622802Y15961613D01*
X3643629Y15956279D01*
X3659124Y15951200D01*
X3669538Y15940786D01*
X3674618Y15930371D01*
X3674618Y15914624D01*
X3669538Y15904463D01*
X3664204Y15899129D01*
X3648709Y15894050D01*
X3627881Y15894050D01*
X3612388Y15899129D01*
X3607054Y15904463D01*
X3601974Y15914624D01*
X3601974Y15930371D01*
X3607054Y15940786D01*
X3617468Y15951200D01*
X3633215Y15956279D01*
X3653790Y15961613D01*
X3664204Y15966694D01*
X3669538Y15977107D01*
X3669538Y15987521D01*
X3664204Y15997936D01*
X3648709Y16003016D01*
X3627881Y16003016D01*
X3684015Y11847576D02*
G01*
X3575050Y11847576D01*
X3684015Y11847576D02*
G01*
X3684015Y11800839D01*
X3678936Y11785345D01*
X3673602Y11780012D01*
X3663188Y11774931D01*
X3652774Y11774931D01*
X3642613Y11780012D01*
X3637279Y11785345D01*
X3632200Y11800839D01*
X3632200Y11847576D01*
X3632200Y11811254D02*
G01*
X3575050Y11774931D01*
X3647693Y11673078D02*
G01*
X3632200Y11678158D01*
X3621786Y11688571D01*
X3616452Y11704065D01*
X3616452Y11709400D01*
X3621786Y11724894D01*
X3632200Y11735308D01*
X3647693Y11740642D01*
X3652774Y11740642D01*
X3668522Y11735308D01*
X3678936Y11724894D01*
X3684015Y11709400D01*
X3684015Y11704065D01*
X3678936Y11688571D01*
X3668522Y11678158D01*
X3647693Y11673078D01*
X3621786Y11673078D01*
X3595624Y11678158D01*
X3580129Y11688571D01*
X3575050Y11704065D01*
X3575050Y11714479D01*
X3580129Y11730228D01*
X3590543Y11735308D01*
X3683982Y10794098D02*
G01*
X3575016Y10794098D01*
X3683982Y10794098D02*
G01*
X3683982Y10747362D01*
X3678902Y10731868D01*
X3673568Y10726534D01*
X3663154Y10721454D01*
X3652740Y10721454D01*
X3642580Y10726534D01*
X3637246Y10731868D01*
X3632166Y10747362D01*
X3632166Y10794098D01*
X3632166Y10757776D02*
G01*
X3575016Y10721454D01*
X3663154Y10687164D02*
G01*
X3668488Y10676750D01*
X3683982Y10661002D01*
X3575016Y10661002D01*
X3683982Y10595724D02*
G01*
X3678902Y10611218D01*
X3663154Y10621632D01*
X3637246Y10626712D01*
X3621752Y10626712D01*
X3595590Y10621632D01*
X3580096Y10611218D01*
X3575016Y10595724D01*
X3575016Y10585310D01*
X3580096Y10569562D01*
X3595590Y10559148D01*
X3621752Y10554068D01*
X3637246Y10554068D01*
X3663154Y10559148D01*
X3678902Y10569562D01*
X3683982Y10585310D01*
X3683982Y10595724D01*
X6097015Y17526000D02*
G01*
X5988050Y17526000D01*
X6097015Y17526000D02*
G01*
X6097015Y17479263D01*
X6091936Y17463770D01*
X6086602Y17458436D01*
X6076188Y17453355D01*
X6065774Y17453355D01*
X6055359Y17458436D01*
X6050279Y17463770D01*
X6045200Y17479263D01*
X6045200Y17526000D01*
X6045200Y17489678D02*
G01*
X5988050Y17453355D01*
X6076188Y17419066D02*
G01*
X6081522Y17408652D01*
X6097015Y17392904D01*
X5988050Y17392904D01*
X6076188Y17358613D02*
G01*
X6081522Y17348200D01*
X6097015Y17332705D01*
X5988050Y17332705D01*
X6401815Y17526000D02*
G01*
X6292850Y17526000D01*
X6401815Y17526000D02*
G01*
X6401815Y17479263D01*
X6396736Y17463770D01*
X6391402Y17458436D01*
X6380988Y17453355D01*
X6370574Y17453355D01*
X6360159Y17458436D01*
X6355079Y17463770D01*
X6350000Y17479263D01*
X6350000Y17526000D01*
X6350000Y17489678D02*
G01*
X6292850Y17453355D01*
X6380988Y17419066D02*
G01*
X6386322Y17408652D01*
X6401815Y17392904D01*
X6292850Y17392904D01*
X6375908Y17353534D02*
G01*
X6380988Y17353534D01*
X6391402Y17348200D01*
X6396736Y17343120D01*
X6401815Y17332705D01*
X6401815Y17311878D01*
X6396736Y17301463D01*
X6391402Y17296384D01*
X6380988Y17291050D01*
X6370574Y17291050D01*
X6360159Y17296384D01*
X6344665Y17306798D01*
X6292850Y17358613D01*
X6292850Y17285970D01*
X4922265Y17366742D02*
G01*
X4916931Y17377155D01*
X4906518Y17387570D01*
X4896358Y17392650D01*
X4875529Y17392650D01*
X4865115Y17387570D01*
X4854702Y17377155D01*
X4849368Y17366742D01*
X4844288Y17350994D01*
X4844288Y17325086D01*
X4849368Y17309592D01*
X4854702Y17299178D01*
X4865115Y17288763D01*
X4875529Y17283684D01*
X4896358Y17283684D01*
X4906518Y17288763D01*
X4916931Y17299178D01*
X4922265Y17309592D01*
X5029200Y17392650D02*
G01*
X4977384Y17283684D01*
X4956556Y17392650D02*
G01*
X5029200Y17392650D01*
X4914900Y17768316D02*
G01*
X4914900Y17659350D01*
X4954270Y17742408D02*
G01*
X4954270Y17747487D01*
X4959604Y17757902D01*
X4964684Y17763236D01*
X4975097Y17768316D01*
X4995925Y17768316D01*
X5006340Y17763236D01*
X5011420Y17757902D01*
X5016754Y17747487D01*
X5016754Y17737074D01*
X5011420Y17726660D01*
X5001259Y17711166D01*
X4949190Y17659350D01*
X5021834Y17659350D01*
X5134102Y17742408D02*
G01*
X5129022Y17752821D01*
X5118608Y17763236D01*
X5108193Y17768316D01*
X5087365Y17768316D01*
X5076952Y17763236D01*
X5066538Y17752821D01*
X5061458Y17742408D01*
X5056124Y17726660D01*
X5056124Y17700752D01*
X5061458Y17685258D01*
X5066538Y17674844D01*
X5076952Y17664429D01*
X5087365Y17659350D01*
X5108193Y17659350D01*
X5118608Y17664429D01*
X5129022Y17674844D01*
X5134102Y17685258D01*
X1297178Y11849608D02*
G01*
X1291844Y11860021D01*
X1281429Y11870436D01*
X1271270Y11875515D01*
X1250442Y11875515D01*
X1240028Y11870436D01*
X1229613Y11860021D01*
X1224279Y11849608D01*
X1219200Y11833860D01*
X1219200Y11807952D01*
X1224279Y11792458D01*
X1229613Y11782044D01*
X1240028Y11771629D01*
X1250442Y11766550D01*
X1271270Y11766550D01*
X1281429Y11771629D01*
X1291844Y11782044D01*
X1297178Y11792458D01*
X1336547Y11849608D02*
G01*
X1336547Y11854687D01*
X1341881Y11865102D01*
X1346962Y11870436D01*
X1357376Y11875515D01*
X1378204Y11875515D01*
X1388618Y11870436D01*
X1393697Y11865102D01*
X1399031Y11854687D01*
X1399031Y11844274D01*
X1393697Y11833860D01*
X1383284Y11818365D01*
X1331468Y11766550D01*
X1404112Y11766550D01*
X2516377Y11836908D02*
G01*
X2511043Y11847321D01*
X2500629Y11857736D01*
X2490470Y11862815D01*
X2469641Y11862815D01*
X2459227Y11857736D01*
X2448813Y11847321D01*
X2443479Y11836908D01*
X2438400Y11821160D01*
X2438400Y11795252D01*
X2443479Y11779758D01*
X2448813Y11769344D01*
X2459227Y11758929D01*
X2469641Y11753850D01*
X2490470Y11753850D01*
X2500629Y11758929D01*
X2511043Y11769344D01*
X2516377Y11779758D01*
X2550668Y11841987D02*
G01*
X2561081Y11847321D01*
X2576575Y11862815D01*
X2576575Y11753850D01*
X4898643Y16574516D02*
G01*
X4846827Y16465550D01*
X4826000Y16574516D02*
G01*
X4898643Y16574516D01*
X4985004Y16574516D02*
G01*
X4932934Y16501871D01*
X5010911Y16501871D01*
X4985004Y16574516D02*
G01*
X4985004Y16465550D01*
X5045202Y16574516D02*
G01*
X5045202Y16465550D01*
X5118100Y16574516D02*
G01*
X5118100Y16465550D01*
X5045202Y16522700D02*
G01*
X5118100Y16522700D01*
X5230113Y16548607D02*
G01*
X5225034Y16559021D01*
X5214620Y16569436D01*
X5204206Y16574516D01*
X5183377Y16574516D01*
X5172963Y16569436D01*
X5162550Y16559021D01*
X5157470Y16548607D01*
X5152390Y16532860D01*
X5152390Y16506952D01*
X5157470Y16491457D01*
X5162550Y16481044D01*
X5172963Y16470629D01*
X5183377Y16465550D01*
X5204206Y16465550D01*
X5214620Y16470629D01*
X5225034Y16481044D01*
X5230113Y16491457D01*
X5300979Y16574516D02*
G01*
X5300979Y16465550D01*
X5264404Y16574516D02*
G01*
X5337302Y16574516D01*
X5433822Y16574516D02*
G01*
X5382006Y16574516D01*
X5376672Y16527779D01*
X5382006Y16532860D01*
X5397500Y16538194D01*
X5412993Y16538194D01*
X5428741Y16532860D01*
X5439156Y16522700D01*
X5444236Y16506952D01*
X5444236Y16496537D01*
X5439156Y16481044D01*
X5428741Y16470629D01*
X5412993Y16465550D01*
X5397500Y16465550D01*
X5382006Y16470629D01*
X5376672Y16475710D01*
X5371591Y16486124D01*
X5530595Y16574516D02*
G01*
X5478525Y16501871D01*
X5556504Y16501871D01*
X5530595Y16574516D02*
G01*
X5530595Y16465550D01*
X5590793Y16553687D02*
G01*
X5601208Y16559021D01*
X5616702Y16574516D01*
X5616702Y16465550D01*
X5650991Y16574516D02*
G01*
X5650991Y16465550D01*
X5650991Y16574516D02*
G01*
X5687313Y16574516D01*
X5703061Y16569436D01*
X5713475Y16559021D01*
X5718556Y16548607D01*
X5723890Y16532860D01*
X5723890Y16506952D01*
X5718556Y16491457D01*
X5713475Y16481044D01*
X5703061Y16470629D01*
X5687313Y16465550D01*
X5650991Y16465550D01*
X1193800Y12602971D02*
G01*
X1193800Y12526518D01*
X1193800Y12526518D02*
G01*
X1237487Y12526518D01*
X1261363Y12602971D02*
G01*
X1261363Y12526518D01*
X1261363Y12602971D02*
G01*
X1290573Y12526518D01*
X1319529Y12602971D02*
G01*
X1290573Y12526518D01*
X1319529Y12602971D02*
G01*
X1319529Y12526518D01*
X1347215Y12584684D02*
G01*
X1347215Y12588494D01*
X1350771Y12595605D01*
X1354581Y12599415D01*
X1361694Y12602971D01*
X1376426Y12602971D01*
X1383537Y12599415D01*
X1387347Y12595605D01*
X1390904Y12588494D01*
X1390904Y12581128D01*
X1387347Y12573762D01*
X1379981Y12562839D01*
X1343660Y12526518D01*
X1394460Y12526518D01*
X1462278Y12602971D02*
G01*
X1425702Y12602971D01*
X1422145Y12570205D01*
X1425702Y12573762D01*
X1436623Y12577571D01*
X1447545Y12577571D01*
X1458468Y12573762D01*
X1465834Y12566650D01*
X1469389Y12555728D01*
X1469389Y12548362D01*
X1465834Y12537439D01*
X1458468Y12530074D01*
X1447545Y12526518D01*
X1436623Y12526518D01*
X1425702Y12530074D01*
X1422145Y12533884D01*
X1418589Y12540995D01*
X1540763Y12577571D02*
G01*
X1536954Y12566650D01*
X1529842Y12559284D01*
X1518920Y12555728D01*
X1515363Y12555728D01*
X1504442Y12559284D01*
X1497076Y12566650D01*
X1493520Y12577571D01*
X1493520Y12581128D01*
X1497076Y12592050D01*
X1504442Y12599415D01*
X1515363Y12602971D01*
X1518920Y12602971D01*
X1529842Y12599415D01*
X1536954Y12592050D01*
X1540763Y12577571D01*
X1540763Y12559284D01*
X1536954Y12540995D01*
X1529842Y12530074D01*
X1518920Y12526518D01*
X1511554Y12526518D01*
X1500631Y12530074D01*
X1497076Y12537439D01*
X1608328Y12592050D02*
G01*
X1604771Y12599415D01*
X1593850Y12602971D01*
X1586484Y12602971D01*
X1575562Y12599415D01*
X1568450Y12588494D01*
X1564639Y12570205D01*
X1564639Y12551918D01*
X1568450Y12537439D01*
X1575562Y12530074D01*
X1586484Y12526518D01*
X1590039Y12526518D01*
X1600962Y12530074D01*
X1608328Y12537439D01*
X1611884Y12548362D01*
X1611884Y12551918D01*
X1608328Y12562839D01*
X1600962Y12570205D01*
X1590039Y12573762D01*
X1586484Y12573762D01*
X1575562Y12570205D01*
X1568450Y12562839D01*
X1564639Y12551918D01*
X1119378Y14427707D02*
G01*
X1114044Y14438121D01*
X1103629Y14448536D01*
X1093470Y14453616D01*
X1072642Y14453616D01*
X1062228Y14448536D01*
X1051813Y14438121D01*
X1046479Y14427707D01*
X1041400Y14411960D01*
X1041400Y14386052D01*
X1046479Y14370557D01*
X1051813Y14360144D01*
X1062228Y14349729D01*
X1072642Y14344650D01*
X1093470Y14344650D01*
X1103629Y14349729D01*
X1114044Y14360144D01*
X1119378Y14370557D01*
X1205484Y14453616D02*
G01*
X1153668Y14380971D01*
X1231645Y14380971D01*
X1205484Y14453616D02*
G01*
X1205484Y14344650D01*
X1702815Y14668500D02*
G01*
X1593850Y14668500D01*
X1702815Y14668500D02*
G01*
X1702815Y14632178D01*
X1697736Y14616429D01*
X1687321Y14606270D01*
X1676907Y14600936D01*
X1661160Y14595855D01*
X1635252Y14595855D01*
X1619757Y14600936D01*
X1609344Y14606270D01*
X1598929Y14616429D01*
X1593850Y14632178D01*
X1593850Y14668500D01*
X1676907Y14556231D02*
G01*
X1681987Y14556231D01*
X1692402Y14551152D01*
X1697736Y14545818D01*
X1702815Y14535404D01*
X1702815Y14514829D01*
X1697736Y14504416D01*
X1692402Y14499081D01*
X1681987Y14494002D01*
X1671573Y14494002D01*
X1661160Y14499081D01*
X1645665Y14509495D01*
X1593850Y14561566D01*
X1593850Y14488668D01*
X2438400Y16790416D02*
G01*
X2438400Y16681450D01*
X2438400Y16681450D02*
G01*
X2500629Y16681450D01*
X2534920Y16790416D02*
G01*
X2534920Y16681450D01*
X2534920Y16790416D02*
G01*
X2602484Y16790416D01*
X2534920Y16738600D02*
G01*
X2576575Y16738600D01*
X2534920Y16681450D02*
G01*
X2602484Y16681450D01*
X2636774Y16790416D02*
G01*
X2636774Y16681450D01*
X2636774Y16790416D02*
G01*
X2673350Y16790416D01*
X2688843Y16785336D01*
X2699258Y16774921D01*
X2704338Y16764507D01*
X2709672Y16748760D01*
X2709672Y16722852D01*
X2704338Y16707357D01*
X2699258Y16696944D01*
X2688843Y16686529D01*
X2673350Y16681450D01*
X2636774Y16681450D01*
X2816606Y16790416D02*
G01*
X2764790Y16681450D01*
X2743961Y16790416D02*
G01*
X2816606Y16790416D01*
X2438400Y16155416D02*
G01*
X2438400Y16046450D01*
X2438400Y16046450D02*
G01*
X2500629Y16046450D01*
X2534920Y16155416D02*
G01*
X2534920Y16046450D01*
X2534920Y16155416D02*
G01*
X2602484Y16155416D01*
X2534920Y16103600D02*
G01*
X2576575Y16103600D01*
X2534920Y16046450D02*
G01*
X2602484Y16046450D01*
X2636774Y16155416D02*
G01*
X2636774Y16046450D01*
X2636774Y16155416D02*
G01*
X2673350Y16155416D01*
X2688843Y16150336D01*
X2699258Y16139921D01*
X2704338Y16129507D01*
X2709672Y16113760D01*
X2709672Y16087852D01*
X2704338Y16072357D01*
X2699258Y16061944D01*
X2688843Y16051529D01*
X2673350Y16046450D01*
X2636774Y16046450D01*
X2769870Y16155416D02*
G01*
X2754375Y16150336D01*
X2749041Y16139921D01*
X2749041Y16129507D01*
X2754375Y16119094D01*
X2764790Y16113760D01*
X2785363Y16108679D01*
X2801111Y16103600D01*
X2811525Y16093186D01*
X2816606Y16082771D01*
X2816606Y16067024D01*
X2811525Y16056610D01*
X2806191Y16051529D01*
X2790697Y16046450D01*
X2769870Y16046450D01*
X2754375Y16051529D01*
X2749041Y16056610D01*
X2743961Y16067024D01*
X2743961Y16082771D01*
X2749041Y16093186D01*
X2759456Y16103600D01*
X2774950Y16108679D01*
X2795777Y16113760D01*
X2806191Y16119094D01*
X2811525Y16129507D01*
X2811525Y16139921D01*
X2806191Y16150336D01*
X2790697Y16155416D01*
X2769870Y16155416D01*
X3087115Y14681200D02*
G01*
X2978150Y14681200D01*
X3087115Y14681200D02*
G01*
X3087115Y14644878D01*
X3082036Y14629129D01*
X3071622Y14618970D01*
X3061208Y14613636D01*
X3045459Y14608555D01*
X3019552Y14608555D01*
X3004058Y14613636D01*
X2993643Y14618970D01*
X2983229Y14629129D01*
X2978150Y14644878D01*
X2978150Y14681200D01*
X3066288Y14574266D02*
G01*
X3071622Y14563852D01*
X3087115Y14548104D01*
X2978150Y14548104D01*
X2503677Y14440407D02*
G01*
X2498343Y14450821D01*
X2487929Y14461236D01*
X2477770Y14466316D01*
X2456941Y14466316D01*
X2446527Y14461236D01*
X2436113Y14450821D01*
X2430779Y14440407D01*
X2425700Y14424660D01*
X2425700Y14398752D01*
X2430779Y14383257D01*
X2436113Y14372844D01*
X2446527Y14362429D01*
X2456941Y14357350D01*
X2477770Y14357350D01*
X2487929Y14362429D01*
X2498343Y14372844D01*
X2503677Y14383257D01*
X2548381Y14466316D02*
G01*
X2605531Y14466316D01*
X2574290Y14424660D01*
X2589784Y14424660D01*
X2600197Y14419579D01*
X2605531Y14414500D01*
X2610611Y14398752D01*
X2610611Y14388337D01*
X2605531Y14372844D01*
X2595118Y14362429D01*
X2579370Y14357350D01*
X2563875Y14357350D01*
X2548381Y14362429D01*
X2543047Y14367510D01*
X2537968Y14377924D01*
X2565400Y12602971D02*
G01*
X2565400Y12526518D01*
X2565400Y12526518D02*
G01*
X2609088Y12526518D01*
X2632963Y12602971D02*
G01*
X2632963Y12526518D01*
X2632963Y12602971D02*
G01*
X2662174Y12526518D01*
X2691129Y12602971D02*
G01*
X2662174Y12526518D01*
X2691129Y12602971D02*
G01*
X2691129Y12526518D01*
X2718815Y12584684D02*
G01*
X2718815Y12588494D01*
X2722372Y12595605D01*
X2726181Y12599415D01*
X2733293Y12602971D01*
X2748025Y12602971D01*
X2755138Y12599415D01*
X2758947Y12595605D01*
X2762504Y12588494D01*
X2762504Y12581128D01*
X2758947Y12573762D01*
X2751581Y12562839D01*
X2715259Y12526518D01*
X2766059Y12526518D01*
X2833877Y12602971D02*
G01*
X2797302Y12602971D01*
X2793745Y12570205D01*
X2797302Y12573762D01*
X2808224Y12577571D01*
X2819145Y12577571D01*
X2830068Y12573762D01*
X2837434Y12566650D01*
X2840990Y12555728D01*
X2840990Y12548362D01*
X2837434Y12537439D01*
X2830068Y12530074D01*
X2819145Y12526518D01*
X2808224Y12526518D01*
X2797302Y12530074D01*
X2793745Y12533884D01*
X2790190Y12540995D01*
X2912363Y12577571D02*
G01*
X2908554Y12566650D01*
X2901441Y12559284D01*
X2890520Y12555728D01*
X2886963Y12555728D01*
X2876041Y12559284D01*
X2868675Y12566650D01*
X2865120Y12577571D01*
X2865120Y12581128D01*
X2868675Y12592050D01*
X2876041Y12599415D01*
X2886963Y12602971D01*
X2890520Y12602971D01*
X2901441Y12599415D01*
X2908554Y12592050D01*
X2912363Y12577571D01*
X2912363Y12559284D01*
X2908554Y12540995D01*
X2901441Y12530074D01*
X2890520Y12526518D01*
X2883154Y12526518D01*
X2872231Y12530074D01*
X2868675Y12537439D01*
X2979927Y12592050D02*
G01*
X2976372Y12599415D01*
X2965450Y12602971D01*
X2958084Y12602971D01*
X2947161Y12599415D01*
X2940050Y12588494D01*
X2936240Y12570205D01*
X2936240Y12551918D01*
X2940050Y12537439D01*
X2947161Y12530074D01*
X2958084Y12526518D01*
X2961640Y12526518D01*
X2972561Y12530074D01*
X2979927Y12537439D01*
X2983484Y12548362D01*
X2983484Y12551918D01*
X2979927Y12562839D01*
X2972561Y12570205D01*
X2961640Y12573762D01*
X2958084Y12573762D01*
X2947161Y12570205D01*
X2940050Y12562839D01*
X2936240Y12551918D01*
X3621277Y12687808D02*
G01*
X3615943Y12698221D01*
X3605529Y12708636D01*
X3595370Y12713715D01*
X3574541Y12713715D01*
X3564127Y12708636D01*
X3553713Y12698221D01*
X3548379Y12687808D01*
X3543300Y12672060D01*
X3543300Y12646152D01*
X3548379Y12630658D01*
X3553713Y12620244D01*
X3564127Y12609829D01*
X3574541Y12604750D01*
X3595370Y12604750D01*
X3605529Y12609829D01*
X3615943Y12620244D01*
X3621277Y12630658D01*
X3717797Y12698221D02*
G01*
X3712718Y12708636D01*
X3696970Y12713715D01*
X3686809Y12713715D01*
X3671061Y12708636D01*
X3660647Y12692887D01*
X3655568Y12666979D01*
X3655568Y12641071D01*
X3660647Y12620244D01*
X3671061Y12609829D01*
X3686809Y12604750D01*
X3691890Y12604750D01*
X3707384Y12609829D01*
X3717797Y12620244D01*
X3723131Y12635737D01*
X3723131Y12641071D01*
X3717797Y12656565D01*
X3707384Y12666979D01*
X3691890Y12672060D01*
X3686809Y12672060D01*
X3671061Y12666979D01*
X3660647Y12656565D01*
X3655568Y12641071D01*
D10*
X5081163Y12903144D02*
G01*
X5323479Y12903144D01*
X5081163Y12903144D02*
G01*
X5323479Y12995600D01*
X5081163Y13088056D02*
G01*
X5323479Y12995600D01*
X5081163Y13088056D02*
G01*
X5323479Y13088056D01*
X5081163Y13164256D02*
G01*
X5323479Y13164256D01*
X5081163Y13164256D02*
G01*
X5081163Y13268142D01*
X5092593Y13302686D01*
X5104277Y13314116D01*
X5127391Y13325800D01*
X5161935Y13325800D01*
X5185049Y13314116D01*
X5196479Y13302686D01*
X5208163Y13268142D01*
X5208163Y13164256D01*
X5081163Y13402000D02*
G01*
X5254391Y13402000D01*
X5288935Y13413430D01*
X5312049Y13436544D01*
X5323479Y13471342D01*
X5323479Y13494456D01*
X5312049Y13529000D01*
X5288935Y13552114D01*
X5254391Y13563544D01*
X5081163Y13563544D01*
X5115707Y13778428D02*
G01*
X5092593Y13766744D01*
X5081163Y13732200D01*
X5081163Y13709086D01*
X5092593Y13674542D01*
X5127391Y13651428D01*
X5185049Y13639744D01*
X5242707Y13639744D01*
X5288935Y13651428D01*
X5312049Y13674542D01*
X5323479Y13709086D01*
X5323479Y13720516D01*
X5312049Y13755314D01*
X5288935Y13778428D01*
X5254391Y13789858D01*
X5242707Y13789858D01*
X5208163Y13778428D01*
X5185049Y13755314D01*
X5173619Y13720516D01*
X5173619Y13709086D01*
X5185049Y13674542D01*
X5208163Y13651428D01*
X5242707Y13639744D01*
X5081163Y13935400D02*
G01*
X5092593Y13900856D01*
X5127391Y13877742D01*
X5185049Y13866058D01*
X5219593Y13866058D01*
X5277505Y13877742D01*
X5312049Y13900856D01*
X5323479Y13935400D01*
X5323479Y13958514D01*
X5312049Y13993058D01*
X5277505Y14016172D01*
X5219593Y14027856D01*
X5185049Y14027856D01*
X5127391Y14016172D01*
X5092593Y13993058D01*
X5081163Y13958514D01*
X5081163Y13935400D01*
X5081163Y14242486D02*
G01*
X5081163Y14126916D01*
X5185049Y14115486D01*
X5173619Y14126916D01*
X5161935Y14161714D01*
X5161935Y14196258D01*
X5173619Y14231056D01*
X5196479Y14253916D01*
X5231277Y14265600D01*
X5254391Y14265600D01*
X5288935Y14253916D01*
X5312049Y14231056D01*
X5323479Y14196258D01*
X5323479Y14161714D01*
X5312049Y14126916D01*
X5300619Y14115486D01*
X5277505Y14104056D01*
X5081163Y14411142D02*
G01*
X5092593Y14376344D01*
X5127391Y14353230D01*
X5185049Y14341800D01*
X5219593Y14341800D01*
X5277505Y14353230D01*
X5312049Y14376344D01*
X5323479Y14411142D01*
X5323479Y14434256D01*
X5312049Y14468800D01*
X5277505Y14491914D01*
X5219593Y14503344D01*
X5185049Y14503344D01*
X5127391Y14491914D01*
X5092593Y14468800D01*
X5081163Y14434256D01*
X5081163Y14411142D01*
D12*
X5723808Y14511675D02*
G01*
X5723808Y14587875D01*
X5699678Y14511675D02*
G01*
X5699678Y14587875D01*
X5699678Y14511675D02*
G01*
X5648878Y14587875D01*
X5648878Y14511675D02*
G01*
X5648878Y14587875D01*
X5599348Y14511675D02*
G01*
X5599348Y14587875D01*
X5625002Y14511675D02*
G01*
X5573948Y14511675D01*
X5694598Y14257616D02*
G01*
X5723808Y14334070D01*
X5694598Y14257616D02*
G01*
X5665642Y14334070D01*
X5712886Y14308670D02*
G01*
X5676310Y14308670D01*
X5641512Y14257616D02*
G01*
X5641512Y14334070D01*
X5641512Y14257616D02*
G01*
X5616112Y14257616D01*
X5605190Y14261426D01*
X5597824Y14268538D01*
X5594268Y14275904D01*
X5590712Y14286826D01*
X5590712Y14305114D01*
X5594268Y14316036D01*
X5597824Y14323148D01*
X5605190Y14330514D01*
X5616112Y14334070D01*
X5641512Y14334070D01*
X5544738Y14257616D02*
G01*
X5552104Y14261426D01*
X5559216Y14268538D01*
X5563026Y14275904D01*
X5566582Y14286826D01*
X5566582Y14305114D01*
X5563026Y14316036D01*
X5559216Y14323148D01*
X5552104Y14330514D01*
X5544738Y14334070D01*
X5530260Y14334070D01*
X5522894Y14330514D01*
X5515782Y14323148D01*
X5511972Y14316036D01*
X5508416Y14305114D01*
X5508416Y14286826D01*
X5511972Y14275904D01*
X5515782Y14268538D01*
X5522894Y14261426D01*
X5530260Y14257616D01*
X5544738Y14257616D01*
X5723808Y14003616D02*
G01*
X5672754Y14080070D01*
X5672754Y14003616D02*
G01*
X5723808Y14080070D01*
X5594268Y14021904D02*
G01*
X5597824Y14014538D01*
X5605190Y14007426D01*
X5612302Y14003616D01*
X5627034Y14003616D01*
X5634146Y14007426D01*
X5641512Y14014538D01*
X5645068Y14021904D01*
X5648878Y14032826D01*
X5648878Y14050860D01*
X5645068Y14061782D01*
X5641512Y14069148D01*
X5634146Y14076514D01*
X5627034Y14080070D01*
X5612302Y14080070D01*
X5605190Y14076514D01*
X5597824Y14069148D01*
X5594268Y14061782D01*
X5570138Y14003616D02*
G01*
X5570138Y14080070D01*
X5570138Y14080070D02*
G01*
X5526704Y14080070D01*
X5723808Y13749614D02*
G01*
X5672754Y13826068D01*
X5672754Y13749614D02*
G01*
X5723808Y13826068D01*
X5648878Y13749614D02*
G01*
X5648878Y13826068D01*
X5648878Y13749614D02*
G01*
X5623224Y13749614D01*
X5612302Y13753424D01*
X5605190Y13760536D01*
X5601634Y13767902D01*
X5597824Y13778824D01*
X5597824Y13796858D01*
X5601634Y13807780D01*
X5605190Y13815146D01*
X5612302Y13822512D01*
X5623224Y13826068D01*
X5648878Y13826068D01*
X5544738Y13749614D02*
G01*
X5573948Y13826068D01*
X5544738Y13749614D02*
G01*
X5515782Y13826068D01*
X5563026Y13800668D02*
G01*
X5526704Y13800668D01*
X5672754Y13506533D02*
G01*
X5680120Y13499421D01*
X5691042Y13495611D01*
X5705520Y13495611D01*
X5716442Y13499421D01*
X5723808Y13506533D01*
X5723808Y13513899D01*
X5719998Y13521265D01*
X5716442Y13524821D01*
X5709076Y13528377D01*
X5687232Y13535743D01*
X5680120Y13539299D01*
X5676310Y13543109D01*
X5672754Y13550221D01*
X5672754Y13561143D01*
X5680120Y13568509D01*
X5691042Y13572065D01*
X5705520Y13572065D01*
X5716442Y13568509D01*
X5723808Y13561143D01*
X5648878Y13495611D02*
G01*
X5648878Y13572065D01*
X5648878Y13495611D02*
G01*
X5623224Y13495611D01*
X5612302Y13499421D01*
X5605190Y13506533D01*
X5601634Y13513899D01*
X5597824Y13524821D01*
X5597824Y13543109D01*
X5601634Y13554031D01*
X5605190Y13561143D01*
X5612302Y13568509D01*
X5623224Y13572065D01*
X5648878Y13572065D01*
X5544738Y13495611D02*
G01*
X5573948Y13572065D01*
X5544738Y13495611D02*
G01*
X5515782Y13572065D01*
X5563026Y13546665D02*
G01*
X5526704Y13546665D01*
X5672754Y13252531D02*
G01*
X5680120Y13245419D01*
X5691042Y13241609D01*
X5705520Y13241609D01*
X5716442Y13245419D01*
X5723808Y13252531D01*
X5723808Y13259897D01*
X5719998Y13267263D01*
X5716442Y13270819D01*
X5709076Y13274375D01*
X5687232Y13281741D01*
X5680120Y13285297D01*
X5676310Y13288853D01*
X5672754Y13296219D01*
X5672754Y13307141D01*
X5680120Y13314507D01*
X5691042Y13318063D01*
X5705520Y13318063D01*
X5716442Y13314507D01*
X5723808Y13307141D01*
X5594268Y13259897D02*
G01*
X5597824Y13252531D01*
X5605190Y13245419D01*
X5612302Y13241609D01*
X5627034Y13241609D01*
X5634146Y13245419D01*
X5641512Y13252531D01*
X5645068Y13259897D01*
X5648878Y13270819D01*
X5648878Y13288853D01*
X5645068Y13299775D01*
X5641512Y13307141D01*
X5634146Y13314507D01*
X5627034Y13318063D01*
X5612302Y13318063D01*
X5605190Y13314507D01*
X5597824Y13307141D01*
X5594268Y13299775D01*
X5570138Y13241609D02*
G01*
X5570138Y13318063D01*
X5570138Y13318063D02*
G01*
X5526704Y13318063D01*
X5669198Y13005894D02*
G01*
X5672754Y12998528D01*
X5680120Y12991416D01*
X5687232Y12987606D01*
X5701964Y12987606D01*
X5709076Y12991416D01*
X5716442Y12998528D01*
X5719998Y13005894D01*
X5723808Y13016816D01*
X5723808Y13034850D01*
X5719998Y13045772D01*
X5716442Y13053138D01*
X5709076Y13060504D01*
X5701964Y13064060D01*
X5687232Y13064060D01*
X5680120Y13060504D01*
X5672754Y13053138D01*
X5669198Y13045772D01*
X5669198Y13034850D01*
X5687232Y13034850D02*
G01*
X5669198Y13034850D01*
X5645068Y12987606D02*
G01*
X5645068Y13064060D01*
X5645068Y12987606D02*
G01*
X5594268Y13064060D01*
X5594268Y12987606D02*
G01*
X5594268Y13064060D01*
X5570138Y12987606D02*
G01*
X5570138Y13064060D01*
X5570138Y12987606D02*
G01*
X5544738Y12987606D01*
X5533816Y12991416D01*
X5526704Y12998528D01*
X5522894Y13005894D01*
X5519338Y13016816D01*
X5519338Y13034850D01*
X5522894Y13045772D01*
X5526704Y13053138D01*
X5533816Y13060504D01*
X5544738Y13064060D01*
X5570138Y13064060D01*
X5723808Y12733606D02*
G01*
X5694598Y12810060D01*
X5665642Y12733606D02*
G01*
X5694598Y12810060D01*
X5587156Y12751894D02*
G01*
X5590712Y12744528D01*
X5598078Y12737162D01*
X5605190Y12733606D01*
X5619922Y12733606D01*
X5627034Y12737162D01*
X5634400Y12744528D01*
X5637956Y12751894D01*
X5641512Y12762816D01*
X5641512Y12780850D01*
X5637956Y12791772D01*
X5634400Y12799138D01*
X5627034Y12806250D01*
X5619922Y12810060D01*
X5605190Y12810060D01*
X5598078Y12806250D01*
X5590712Y12799138D01*
X5587156Y12791772D01*
X5508416Y12751894D02*
G01*
X5512226Y12744528D01*
X5519338Y12737162D01*
X5526704Y12733606D01*
X5541182Y12733606D01*
X5548548Y12737162D01*
X5555914Y12744528D01*
X5559470Y12751894D01*
X5563026Y12762816D01*
X5563026Y12780850D01*
X5559470Y12791772D01*
X5555914Y12799138D01*
X5548548Y12806250D01*
X5541182Y12810060D01*
X5526704Y12810060D01*
X5519338Y12806250D01*
X5512226Y12799138D01*
X5508416Y12791772D01*
D13*
X4645789Y13434258D02*
G01*
X4634359Y13428416D01*
X4622675Y13416986D01*
X4617087Y13405556D01*
X4617087Y13382442D01*
X4622675Y13370758D01*
X4634359Y13359328D01*
X4645789Y13353486D01*
X4663061Y13347644D01*
X4692017Y13347644D01*
X4709289Y13353486D01*
X4720973Y13359328D01*
X4732403Y13370758D01*
X4738245Y13382442D01*
X4738245Y13405556D01*
X4732403Y13416986D01*
X4720973Y13428416D01*
X4709289Y13434258D01*
X4692017Y13434258D01*
X4692017Y13405556D02*
G01*
X4692017Y13434258D01*
X4617087Y13472358D02*
G01*
X4674745Y13518586D01*
X4738245Y13518586D01*
X4617087Y13564814D02*
G01*
X4674745Y13518586D01*
X4686175Y13602914D02*
G01*
X4686175Y13706800D01*
X4617087Y13814242D02*
G01*
X4617087Y13756330D01*
X4668903Y13750742D01*
X4663061Y13756330D01*
X4657473Y13773856D01*
X4657473Y13791128D01*
X4663061Y13808400D01*
X4674745Y13819830D01*
X4692017Y13825672D01*
X4703701Y13825672D01*
X4720973Y13819830D01*
X4732403Y13808400D01*
X4738245Y13791128D01*
X4738245Y13773856D01*
X4732403Y13756330D01*
X4726561Y13750742D01*
X4715131Y13744900D01*
X4645789Y13869614D02*
G01*
X4640201Y13869614D01*
X4628517Y13875456D01*
X4622675Y13881044D01*
X4617087Y13892728D01*
X4617087Y13915842D01*
X4622675Y13927272D01*
X4628517Y13933114D01*
X4640201Y13938956D01*
X4651631Y13938956D01*
X4663061Y13933114D01*
X4680587Y13921430D01*
X4738245Y13863772D01*
X4738245Y13944544D01*
X4640201Y13982644D02*
G01*
X4634359Y13994328D01*
X4617087Y14011600D01*
X4738245Y14011600D01*
D11*
X3354577Y15418307D02*
G01*
X3349243Y15428721D01*
X3338829Y15439136D01*
X3328670Y15444216D01*
X3307841Y15444216D01*
X3297427Y15439136D01*
X3287013Y15428721D01*
X3281679Y15418307D01*
X3276600Y15402560D01*
X3276600Y15376652D01*
X3281679Y15361157D01*
X3287013Y15350744D01*
X3297427Y15340329D01*
X3307841Y15335250D01*
X3328670Y15335250D01*
X3338829Y15340329D01*
X3349243Y15350744D01*
X3354577Y15361157D01*
X3451097Y15444216D02*
G01*
X3399281Y15444216D01*
X3393947Y15397479D01*
X3399281Y15402560D01*
X3414775Y15407894D01*
X3430270Y15407894D01*
X3446018Y15402560D01*
X3456431Y15392400D01*
X3461511Y15376652D01*
X3461511Y15366237D01*
X3456431Y15350744D01*
X3446018Y15340329D01*
X3430270Y15335250D01*
X3414775Y15335250D01*
X3399281Y15340329D01*
X3393947Y15345410D01*
X3388868Y15355824D01*
X2663443Y10513821D02*
G01*
X2653029Y10524236D01*
X2637536Y10529315D01*
X2616708Y10529315D01*
X2601213Y10524236D01*
X2590800Y10513821D01*
X2590800Y10503408D01*
X2595879Y10492994D01*
X2601213Y10487660D01*
X2611627Y10482579D01*
X2642870Y10472165D01*
X2653029Y10467086D01*
X2658363Y10461752D01*
X2663443Y10451337D01*
X2663443Y10435844D01*
X2653029Y10425429D01*
X2637536Y10420350D01*
X2616708Y10420350D01*
X2601213Y10425429D01*
X2590800Y10435844D01*
X2697734Y10529315D02*
G01*
X2697734Y10420350D01*
X2697734Y10529315D02*
G01*
X2765297Y10529315D01*
X2697734Y10477500D02*
G01*
X2739390Y10477500D01*
X2697734Y10420350D02*
G01*
X2765297Y10420350D01*
X2799588Y10529315D02*
G01*
X2799588Y10420350D01*
X2799588Y10529315D02*
G01*
X2872486Y10420350D01*
X2872486Y10529315D02*
G01*
X2872486Y10420350D01*
X2979420Y10513821D02*
G01*
X2969006Y10524236D01*
X2953511Y10529315D01*
X2932684Y10529315D01*
X2917190Y10524236D01*
X2906775Y10513821D01*
X2906775Y10503408D01*
X2911856Y10492994D01*
X2917190Y10487660D01*
X2927350Y10482579D01*
X2958591Y10472165D01*
X2969006Y10467086D01*
X2974340Y10461752D01*
X2979420Y10451337D01*
X2979420Y10435844D01*
X2969006Y10425429D01*
X2953511Y10420350D01*
X2932684Y10420350D01*
X2917190Y10425429D01*
X2906775Y10435844D01*
X3044952Y10529315D02*
G01*
X3034538Y10524236D01*
X3024124Y10513821D01*
X3018790Y10503408D01*
X3013709Y10487660D01*
X3013709Y10461752D01*
X3018790Y10446258D01*
X3024124Y10435844D01*
X3034538Y10425429D01*
X3044952Y10420350D01*
X3065779Y10420350D01*
X3075940Y10425429D01*
X3086354Y10435844D01*
X3091688Y10446258D01*
X3096768Y10461752D01*
X3096768Y10487660D01*
X3091688Y10503408D01*
X3086354Y10513821D01*
X3075940Y10524236D01*
X3065779Y10529315D01*
X3044952Y10529315D01*
X3131058Y10529315D02*
G01*
X3131058Y10420350D01*
X3131058Y10529315D02*
G01*
X3177793Y10529315D01*
X3193541Y10524236D01*
X3198622Y10518902D01*
X3203956Y10508487D01*
X3203956Y10498074D01*
X3198622Y10487660D01*
X3193541Y10482579D01*
X3177793Y10477500D01*
X3131058Y10477500D01*
X3167379Y10477500D02*
G01*
X3203956Y10420350D01*
X1257300Y10529315D02*
G01*
X1257300Y10420350D01*
X1257300Y10529315D02*
G01*
X1304036Y10529315D01*
X1319529Y10524236D01*
X1324863Y10518902D01*
X1329944Y10508487D01*
X1329944Y10492994D01*
X1324863Y10482579D01*
X1319529Y10477500D01*
X1304036Y10472165D01*
X1257300Y10472165D01*
X1395476Y10529315D02*
G01*
X1385062Y10524236D01*
X1374647Y10513821D01*
X1369568Y10503408D01*
X1364234Y10487660D01*
X1364234Y10461752D01*
X1369568Y10446258D01*
X1374647Y10435844D01*
X1385062Y10425429D01*
X1395476Y10420350D01*
X1416304Y10420350D01*
X1426718Y10425429D01*
X1437131Y10435844D01*
X1442212Y10446258D01*
X1447545Y10461752D01*
X1447545Y10487660D01*
X1442212Y10503408D01*
X1437131Y10513821D01*
X1426718Y10524236D01*
X1416304Y10529315D01*
X1395476Y10529315D01*
X1481836Y10529315D02*
G01*
X1507744Y10420350D01*
X1533652Y10529315D02*
G01*
X1507744Y10420350D01*
X1533652Y10529315D02*
G01*
X1559560Y10420350D01*
X1585721Y10529315D02*
G01*
X1559560Y10420350D01*
X1620012Y10529315D02*
G01*
X1620012Y10420350D01*
X1620012Y10529315D02*
G01*
X1687576Y10529315D01*
X1620012Y10477500D02*
G01*
X1661413Y10477500D01*
X1620012Y10420350D02*
G01*
X1687576Y10420350D01*
X1721865Y10529315D02*
G01*
X1721865Y10420350D01*
X1721865Y10529315D02*
G01*
X1768602Y10529315D01*
X1784095Y10524236D01*
X1789429Y10518902D01*
X1794510Y10508487D01*
X1794510Y10498074D01*
X1789429Y10487660D01*
X1784095Y10482579D01*
X1768602Y10477500D01*
X1721865Y10477500D01*
X1758187Y10477500D02*
G01*
X1794510Y10420350D01*
X1828800Y10383774D02*
G01*
X1922271Y10383774D01*
X1956561Y10529315D02*
G01*
X1956561Y10420350D01*
X1990852Y10529315D02*
G01*
X1990852Y10420350D01*
X1990852Y10529315D02*
G01*
X2063750Y10420350D01*
X2063750Y10529315D02*
G01*
X2063750Y10420350D01*
X3653281Y13580363D02*
G01*
X3576827Y13631163D01*
X3653281Y13631163D02*
G01*
X3653281Y13580363D01*
X3576827Y13631163D02*
G01*
X3576827Y13580363D01*
X3638804Y13556234D02*
G01*
X3642359Y13548868D01*
X3653281Y13538200D01*
X3576827Y13538200D01*
X1333500Y18060416D02*
G01*
X1333500Y17951450D01*
X1333500Y17951450D02*
G01*
X1395729Y17951450D01*
X1430020Y18060416D02*
G01*
X1430020Y17951450D01*
X1430020Y18060416D02*
G01*
X1497584Y18060416D01*
X1430020Y18008600D02*
G01*
X1471676Y18008600D01*
X1430020Y17951450D02*
G01*
X1497584Y17951450D01*
X1531873Y18060416D02*
G01*
X1531873Y17951450D01*
X1531873Y18060416D02*
G01*
X1568450Y18060416D01*
X1583944Y18055336D01*
X1594357Y18044921D01*
X1599437Y18034508D01*
X1604771Y18018760D01*
X1604771Y17992852D01*
X1599437Y17977358D01*
X1594357Y17966944D01*
X1583944Y17956529D01*
X1568450Y17951450D01*
X1531873Y17951450D01*
X1639062Y18039587D02*
G01*
X1649476Y18044921D01*
X1664970Y18060416D01*
X1664970Y17951450D01*
X1333500Y17425416D02*
G01*
X1333500Y17316450D01*
X1333500Y17316450D02*
G01*
X1395729Y17316450D01*
X1430020Y17425416D02*
G01*
X1430020Y17316450D01*
X1430020Y17425416D02*
G01*
X1497584Y17425416D01*
X1430020Y17373600D02*
G01*
X1471676Y17373600D01*
X1430020Y17316450D02*
G01*
X1497584Y17316450D01*
X1531873Y17425416D02*
G01*
X1531873Y17316450D01*
X1531873Y17425416D02*
G01*
X1568450Y17425416D01*
X1583944Y17420336D01*
X1594357Y17409921D01*
X1599437Y17399508D01*
X1604771Y17383760D01*
X1604771Y17357852D01*
X1599437Y17342358D01*
X1594357Y17331944D01*
X1583944Y17321529D01*
X1568450Y17316450D01*
X1531873Y17316450D01*
X1644142Y17399508D02*
G01*
X1644142Y17404587D01*
X1649476Y17415002D01*
X1654555Y17420336D01*
X1664970Y17425416D01*
X1685797Y17425416D01*
X1696212Y17420336D01*
X1701292Y17415002D01*
X1706626Y17404587D01*
X1706626Y17394174D01*
X1701292Y17383760D01*
X1690878Y17368266D01*
X1639062Y17316450D01*
X1711705Y17316450D01*
X1333500Y16777716D02*
G01*
X1333500Y16668750D01*
X1333500Y16668750D02*
G01*
X1395729Y16668750D01*
X1430020Y16777716D02*
G01*
X1430020Y16668750D01*
X1430020Y16777716D02*
G01*
X1497584Y16777716D01*
X1430020Y16725900D02*
G01*
X1471676Y16725900D01*
X1430020Y16668750D02*
G01*
X1497584Y16668750D01*
X1531873Y16777716D02*
G01*
X1531873Y16668750D01*
X1531873Y16777716D02*
G01*
X1568450Y16777716D01*
X1583944Y16772636D01*
X1594357Y16762221D01*
X1599437Y16751807D01*
X1604771Y16736060D01*
X1604771Y16710152D01*
X1599437Y16694657D01*
X1594357Y16684244D01*
X1583944Y16673829D01*
X1568450Y16668750D01*
X1531873Y16668750D01*
X1649476Y16777716D02*
G01*
X1706626Y16777716D01*
X1675384Y16736060D01*
X1690878Y16736060D01*
X1701292Y16730979D01*
X1706626Y16725900D01*
X1711705Y16710152D01*
X1711705Y16699737D01*
X1706626Y16684244D01*
X1696212Y16673829D01*
X1680463Y16668750D01*
X1664970Y16668750D01*
X1649476Y16673829D01*
X1644142Y16678910D01*
X1639062Y16689324D01*
X1333500Y16142716D02*
G01*
X1333500Y16033750D01*
X1333500Y16033750D02*
G01*
X1395729Y16033750D01*
X1430020Y16142716D02*
G01*
X1430020Y16033750D01*
X1430020Y16142716D02*
G01*
X1497584Y16142716D01*
X1430020Y16090900D02*
G01*
X1471676Y16090900D01*
X1430020Y16033750D02*
G01*
X1497584Y16033750D01*
X1531873Y16142716D02*
G01*
X1531873Y16033750D01*
X1531873Y16142716D02*
G01*
X1568450Y16142716D01*
X1583944Y16137636D01*
X1594357Y16127221D01*
X1599437Y16116807D01*
X1604771Y16101060D01*
X1604771Y16075152D01*
X1599437Y16059657D01*
X1594357Y16049244D01*
X1583944Y16038829D01*
X1568450Y16033750D01*
X1531873Y16033750D01*
X1690878Y16142716D02*
G01*
X1639062Y16070071D01*
X1717039Y16070071D01*
X1690878Y16142716D02*
G01*
X1690878Y16033750D01*
X2438400Y18047716D02*
G01*
X2438400Y17938750D01*
X2438400Y17938750D02*
G01*
X2500629Y17938750D01*
X2534920Y18047716D02*
G01*
X2534920Y17938750D01*
X2534920Y18047716D02*
G01*
X2602484Y18047716D01*
X2534920Y17995900D02*
G01*
X2576575Y17995900D01*
X2534920Y17938750D02*
G01*
X2602484Y17938750D01*
X2636774Y18047716D02*
G01*
X2636774Y17938750D01*
X2636774Y18047716D02*
G01*
X2673350Y18047716D01*
X2688843Y18042636D01*
X2699258Y18032221D01*
X2704338Y18021808D01*
X2709672Y18006060D01*
X2709672Y17980152D01*
X2704338Y17964658D01*
X2699258Y17954244D01*
X2688843Y17943829D01*
X2673350Y17938750D01*
X2636774Y17938750D01*
X2806191Y18047716D02*
G01*
X2754375Y18047716D01*
X2749041Y18000979D01*
X2754375Y18006060D01*
X2769870Y18011394D01*
X2785363Y18011394D01*
X2801111Y18006060D01*
X2811525Y17995900D01*
X2816606Y17980152D01*
X2816606Y17969737D01*
X2811525Y17954244D01*
X2801111Y17943829D01*
X2785363Y17938750D01*
X2769870Y17938750D01*
X2754375Y17943829D01*
X2749041Y17948910D01*
X2743961Y17959324D01*
X2438400Y17425416D02*
G01*
X2438400Y17316450D01*
X2438400Y17316450D02*
G01*
X2500629Y17316450D01*
X2534920Y17425416D02*
G01*
X2534920Y17316450D01*
X2534920Y17425416D02*
G01*
X2602484Y17425416D01*
X2534920Y17373600D02*
G01*
X2576575Y17373600D01*
X2534920Y17316450D02*
G01*
X2602484Y17316450D01*
X2636774Y17425416D02*
G01*
X2636774Y17316450D01*
X2636774Y17425416D02*
G01*
X2673350Y17425416D01*
X2688843Y17420336D01*
X2699258Y17409921D01*
X2704338Y17399508D01*
X2709672Y17383760D01*
X2709672Y17357852D01*
X2704338Y17342358D01*
X2699258Y17331944D01*
X2688843Y17321529D01*
X2673350Y17316450D01*
X2636774Y17316450D01*
X2806191Y17409921D02*
G01*
X2801111Y17420336D01*
X2785363Y17425416D01*
X2774950Y17425416D01*
X2759456Y17420336D01*
X2749041Y17404587D01*
X2743961Y17378679D01*
X2743961Y17352771D01*
X2749041Y17331944D01*
X2759456Y17321529D01*
X2774950Y17316450D01*
X2780284Y17316450D01*
X2795777Y17321529D01*
X2806191Y17331944D01*
X2811525Y17347437D01*
X2811525Y17352771D01*
X2806191Y17368266D01*
X2795777Y17378679D01*
X2780284Y17383760D01*
X2774950Y17383760D01*
X2759456Y17378679D01*
X2749041Y17368266D01*
X2743961Y17352771D01*
G36*
X4584801Y17523460D02*
G01*
X4584801Y17482261D01*
X4630521Y17482261D01*
X4630521Y17523460D01*
G37*
G36*
X4584801Y17214138D02*
G01*
X4584801Y17172940D01*
X4630521Y17172940D01*
X4630521Y17214138D01*
G37*
G36*
X1206500Y11531600D02*
G01*
X1308100Y11455400D01*
X1460500Y11404600D01*
X1612900Y11379200D01*
X1714500Y11404600D01*
X1917700Y11531600D01*
G37*
G36*
X2438400Y11518900D02*
G01*
X2540000Y11442700D01*
X2692400Y11391900D01*
X2844800Y11366500D01*
X2946400Y11391900D01*
X3149600Y11518900D01*
G37*
G36*
X1346200Y14808200D02*
G01*
X1346200Y14351000D01*
X1357680Y14361922D01*
X1368602Y14373402D01*
X1378915Y14385442D01*
X1388567Y14398040D01*
X1397609Y14411045D01*
X1405940Y14424558D01*
X1413560Y14438426D01*
X1420469Y14452701D01*
X1426616Y14467332D01*
X1432001Y14482216D01*
X1436624Y14497405D01*
X1440484Y14512747D01*
X1443482Y14528342D01*
X1445717Y14543989D01*
X1447139Y14559788D01*
X1447749Y14575637D01*
X1447546Y14591487D01*
X1446530Y14607286D01*
X1444701Y14623034D01*
X1442059Y14638680D01*
X1440484Y14646452D01*
X1436624Y14661794D01*
X1432001Y14676983D01*
X1426616Y14691868D01*
X1420469Y14706498D01*
X1413560Y14720773D01*
X1405940Y14734641D01*
X1397609Y14748154D01*
X1388567Y14761159D01*
X1378915Y14773757D01*
X1368602Y14785797D01*
X1357680Y14797278D01*
G37*
G36*
X1505864Y14176908D02*
G01*
X1505864Y14131188D01*
X1638858Y14131188D01*
X1638858Y14176908D01*
G37*
G36*
X1993341Y14176908D02*
G01*
X1993341Y14131188D01*
X2126335Y14131188D01*
X2126335Y14176908D01*
G37*
G36*
X2890164Y14189608D02*
G01*
X2890164Y14143888D01*
X3023158Y14143888D01*
X3023158Y14189608D01*
G37*
G36*
X3377641Y14189608D02*
G01*
X3377641Y14143888D01*
X3510635Y14143888D01*
X3510635Y14189608D01*
G37*
G36*
X2730500Y14820900D02*
G01*
X2730500Y14363700D01*
X2741980Y14374622D01*
X2752902Y14386102D01*
X2763215Y14398142D01*
X2772867Y14410740D01*
X2781909Y14423745D01*
X2790240Y14437258D01*
X2797860Y14451126D01*
X2804769Y14465401D01*
X2810916Y14480032D01*
X2816301Y14494916D01*
X2820924Y14510105D01*
X2824784Y14525447D01*
X2827782Y14541042D01*
X2830017Y14556689D01*
X2831439Y14572488D01*
X2832049Y14588337D01*
X2831846Y14604187D01*
X2830830Y14619986D01*
X2829001Y14635734D01*
X2826359Y14651380D01*
X2824784Y14659152D01*
X2820924Y14674494D01*
X2816301Y14689683D01*
X2810916Y14704568D01*
X2804769Y14719198D01*
X2797860Y14733473D01*
X2790240Y14747341D01*
X2781909Y14760854D01*
X2772867Y14773859D01*
X2763215Y14786457D01*
X2752902Y14798497D01*
X2741980Y14809978D01*
G37*
G36*
X3476955Y12895326D02*
G01*
X3476955Y12849606D01*
X3498138Y12849606D01*
X3498138Y12895326D01*
G37*
G36*
X3766261Y12895326D02*
G01*
X3766261Y12849606D01*
X3787444Y12849606D01*
X3787444Y12895326D01*
G37*
G36*
X3675278Y15245638D02*
G01*
X3675278Y15204440D01*
X3720998Y15204440D01*
X3720998Y15245638D01*
G37*
G36*
X3675278Y15554960D02*
G01*
X3675278Y15513761D01*
X3720998Y15513761D01*
X3720998Y15554960D01*
G37*
X4797694Y17178700D02*
G01*
X4797694Y17513935D01*
X5258160Y17180582D02*
G01*
X4622927Y17180582D01*
X5258160Y17515817D02*
G01*
X4622927Y17515817D01*
X5258160Y17180582D02*
G01*
X5258160Y17209076D01*
X5258160Y17515817D02*
G01*
X5258160Y17487323D01*
D14*
X4601999Y17576800D02*
G01*
X4601999Y17770797D01*
X5542000Y18148300D02*
G01*
X4901996Y18148300D01*
X4800597Y18148300D02*
G01*
X4600597Y18148300D01*
X5842000Y17573299D02*
G01*
X4601997Y17573299D01*
X4602002Y17770797D02*
G01*
X4634898Y17808897D01*
X4601999Y17846997D01*
X4602002Y18100997D01*
X5842000Y18148300D02*
G01*
X5642000Y18148300D01*
X5842000Y17573299D02*
G01*
X5842000Y18097500D01*
X1562100Y12344400D02*
G01*
X1562100Y12242800D01*
X1638300Y12293600D02*
G01*
X1485900Y12293600D01*
X2794000Y12331700D02*
G01*
X2794000Y12230100D01*
X2870200Y12280900D02*
G01*
X2717800Y12280900D01*
X5819140Y16883379D02*
G01*
X4594859Y16883379D01*
X4594859Y16136620D02*
G01*
X5819140Y16136620D01*
X5857240Y16174720D02*
G01*
X5857240Y16845279D01*
X4559300Y16172179D02*
G01*
X5854700Y16172179D01*
X4556759Y16845277D02*
G01*
X4556759Y16611600D01*
X4556759Y16174720D02*
G01*
X4556759Y16383000D01*
D15*
X1952398Y12981200D02*
G01*
X892401Y12981200D01*
X892401Y12638199D02*
G01*
X1952398Y12638199D01*
X1952398Y12498199D02*
G01*
X1952398Y12981200D01*
X892401Y12498199D02*
G01*
X1952398Y12498199D01*
X892401Y12981200D02*
G01*
X892401Y12498199D01*
D14*
X1003300Y14782800D02*
G01*
X1003300Y14681200D01*
X952500Y14732000D02*
G01*
X1054100Y14732000D01*
D11*
X1513476Y14360014D02*
G01*
X2118723Y14360014D01*
D14*
X1816100Y14516100D02*
G01*
X1866900Y14617700D01*
X1866900Y14617700D02*
G01*
X1765300Y14617700D01*
X1765300Y14617700D02*
G01*
X1816100Y14516100D01*
X1816100Y14516100D02*
G01*
X1866900Y14516100D01*
X1866900Y14516100D02*
G01*
X1765300Y14516100D01*
X1816100Y14668500D02*
G01*
X1816100Y14465300D01*
D11*
X1513476Y14169280D02*
G01*
X1513476Y14964519D01*
X2118723Y14169280D02*
G01*
X2118723Y14964519D01*
X1513476Y14964519D02*
G01*
X1633778Y14964519D01*
X2118723Y14964519D02*
G01*
X1998421Y14964519D01*
D14*
X2755900Y16294100D02*
G01*
X2959100Y16294100D01*
X1943100Y16865600D02*
G01*
X1943100Y16344900D01*
X1943100Y16294100D02*
G01*
X2146300Y16294100D01*
X2247900Y16294100D02*
G01*
X2654300Y16294100D01*
X1943100Y16865600D02*
G01*
X2959100Y16865600D01*
X2959100Y16865600D02*
G01*
X2959100Y16675100D01*
X2959100Y16675100D02*
G01*
X2926204Y16637000D01*
X2959102Y16598900D01*
X2959100Y16344900D01*
X2755900Y15659100D02*
G01*
X2959100Y15659100D01*
X1943100Y16230600D02*
G01*
X1943100Y15709900D01*
X1943100Y15659100D02*
G01*
X2146300Y15659100D01*
X2247900Y15659100D02*
G01*
X2654300Y15659100D01*
X1943100Y16230600D02*
G01*
X2959100Y16230600D01*
X2959100Y16230600D02*
G01*
X2959100Y16040100D01*
X2959100Y16040100D02*
G01*
X2926204Y16002000D01*
X2959102Y15963900D01*
X2959100Y15709900D01*
D11*
X2897776Y14372714D02*
G01*
X3503023Y14372714D01*
D14*
X3200400Y14528800D02*
G01*
X3251200Y14630400D01*
X3251200Y14630400D02*
G01*
X3149600Y14630400D01*
X3149600Y14630400D02*
G01*
X3200400Y14528800D01*
X3200400Y14528800D02*
G01*
X3251200Y14528800D01*
X3251200Y14528800D02*
G01*
X3149600Y14528800D01*
X3200400Y14681200D02*
G01*
X3200400Y14478000D01*
D11*
X2897776Y14181980D02*
G01*
X2897776Y14977219D01*
X3503023Y14181980D02*
G01*
X3503023Y14977219D01*
X2897776Y14977219D02*
G01*
X3018078Y14977219D01*
X3503023Y14977219D02*
G01*
X3382721Y14977219D01*
D14*
X2387600Y14795500D02*
G01*
X2387600Y14693900D01*
X2336800Y14744700D02*
G01*
X2438400Y14744700D01*
D15*
X3323998Y12981200D02*
G01*
X2264001Y12981200D01*
X2264001Y12638199D02*
G01*
X3323998Y12638199D01*
X3323998Y12498199D02*
G01*
X3323998Y12981200D01*
X2264001Y12498199D02*
G01*
X3323998Y12498199D01*
X2264001Y12981200D02*
G01*
X2264001Y12498199D01*
D11*
X3484580Y12738100D02*
G01*
X3779819Y12738100D01*
X3484580Y12491981D02*
G01*
X3484580Y12857218D01*
X3779819Y12491981D02*
G01*
X3779819Y12857218D01*
X3484580Y12491981D02*
G01*
X3493076Y12491981D01*
X3779819Y12491981D02*
G01*
X3771323Y12491981D01*
D16*
X6013650Y14705942D02*
G01*
X6013650Y12624849D01*
X4423658Y12624849D01*
X4423658Y14696826D01*
X6013650Y14705942D01*
D11*
X3508105Y15549199D02*
G01*
X3508105Y15213964D01*
X3047639Y15547317D02*
G01*
X3682872Y15547317D01*
X3047639Y15212082D02*
G01*
X3682872Y15212082D01*
X3047639Y15547317D02*
G01*
X3047639Y15518823D01*
X3047639Y15212082D02*
G01*
X3047639Y15240576D01*
D14*
X3162325Y10033050D02*
G01*
X3365525Y10033050D01*
X2349525Y10604550D02*
G01*
X2349525Y10083850D01*
X2349525Y10033050D02*
G01*
X2552725Y10033050D01*
X2654325Y10033050D02*
G01*
X3060725Y10033050D01*
X2349525Y10604550D02*
G01*
X3365525Y10604550D01*
X3365525Y10604550D02*
G01*
X3365525Y10414050D01*
X3365525Y10414050D02*
G01*
X3332629Y10375950D01*
X3365527Y10337850D01*
X3365525Y10083850D01*
X2256000Y10604500D02*
G01*
X2256000Y10410502D01*
X1315999Y10033000D02*
G01*
X1956003Y10033000D01*
X2057402Y10033000D02*
G01*
X2257402Y10033000D01*
X1016000Y10608000D02*
G01*
X2256002Y10608000D01*
X2255997Y10410502D02*
G01*
X2223101Y10372402D01*
X2256000Y10334302D01*
X2255997Y10080302D01*
X1016000Y10033000D02*
G01*
X1215999Y10033000D01*
X1016000Y10608000D02*
G01*
X1016000Y10083800D01*
D10*
X3619500Y13309600D02*
G01*
X3619500Y13385800D01*
X3543300Y13385800D01*
X3543300Y13741400D01*
X3619500Y13741400D01*
X3695700Y13741400D01*
X3695700Y13385800D01*
X3619500Y13385800D01*
X3619500Y13741400D02*
G01*
X3619500Y13817600D01*
X3556000Y13436600D02*
G01*
X3683000Y13436600D01*
D14*
X1651000Y17564100D02*
G01*
X1854200Y17564100D01*
X838200Y18135600D02*
G01*
X838200Y17614900D01*
X838200Y17564100D02*
G01*
X1041400Y17564100D01*
X1143000Y17564100D02*
G01*
X1549400Y17564100D01*
X838200Y18135600D02*
G01*
X1854200Y18135600D01*
X1854200Y18135600D02*
G01*
X1854200Y17945100D01*
X1854200Y17945100D02*
G01*
X1821304Y17907000D01*
X1854202Y17868900D01*
X1854200Y17614900D01*
X1651000Y16929100D02*
G01*
X1854200Y16929100D01*
X838200Y17500600D02*
G01*
X838200Y16979900D01*
X838200Y16929100D02*
G01*
X1041400Y16929100D01*
X1143000Y16929100D02*
G01*
X1549400Y16929100D01*
X838200Y17500600D02*
G01*
X1854200Y17500600D01*
X1854200Y17500600D02*
G01*
X1854200Y17310100D01*
X1854200Y17310100D02*
G01*
X1821304Y17272000D01*
X1854202Y17233900D01*
X1854200Y16979900D01*
X1651000Y16294100D02*
G01*
X1854200Y16294100D01*
X838200Y16865600D02*
G01*
X838200Y16344900D01*
X838200Y16294100D02*
G01*
X1041400Y16294100D01*
X1143000Y16294100D02*
G01*
X1549400Y16294100D01*
X838200Y16865600D02*
G01*
X1854200Y16865600D01*
X1854200Y16865600D02*
G01*
X1854200Y16675100D01*
X1854200Y16675100D02*
G01*
X1821304Y16637000D01*
X1854202Y16598900D01*
X1854200Y16344900D01*
X1651000Y15659100D02*
G01*
X1854200Y15659100D01*
X838200Y16230600D02*
G01*
X838200Y15709900D01*
X838200Y15659100D02*
G01*
X1041400Y15659100D01*
X1143000Y15659100D02*
G01*
X1549400Y15659100D01*
X838200Y16230600D02*
G01*
X1854200Y16230600D01*
X1854200Y16230600D02*
G01*
X1854200Y16040100D01*
X1854200Y16040100D02*
G01*
X1821304Y16002000D01*
X1854202Y15963900D01*
X1854200Y15709900D01*
X2755900Y17564100D02*
G01*
X2959100Y17564100D01*
X1943100Y18135600D02*
G01*
X1943100Y17614900D01*
X1943100Y17564100D02*
G01*
X2146300Y17564100D01*
X2247900Y17564100D02*
G01*
X2654300Y17564100D01*
X1943100Y18135600D02*
G01*
X2959100Y18135600D01*
X2959100Y18135600D02*
G01*
X2959100Y17945100D01*
X2959100Y17945100D02*
G01*
X2926204Y17907000D01*
X2959102Y17868900D01*
X2959100Y17614900D01*
X2755900Y16929100D02*
G01*
X2959100Y16929100D01*
X1943100Y17500600D02*
G01*
X1943100Y16979900D01*
X1943100Y16929100D02*
G01*
X2146300Y16929100D01*
X2247900Y16929100D02*
G01*
X2654300Y16929100D01*
X1943100Y17500600D02*
G01*
X2959100Y17500600D01*
X2959100Y17500600D02*
G01*
X2959100Y17310100D01*
X2959100Y17310100D02*
G01*
X2926204Y17272000D01*
X2959102Y17233900D01*
X2959100Y16979900D01*
X4533900Y10090302D02*
G01*
X5153888Y10090302D01*
X5303900Y10090302D01*
X5383911Y10090302D01*
X5463895Y10090302D01*
X5563895Y10050297D01*
X5654802Y10020300D01*
X6003899Y10020300D01*
X4533900Y10090302D02*
G01*
X4533772Y11470284D01*
X4533900Y11470284D02*
G01*
X5873902Y11470284D01*
X6003899Y11320297D02*
G01*
X6003899Y10020300D01*
X5873902Y11470284D02*
G01*
X5873902Y11320297D01*
X6003899Y11320297D01*
G75*
G01*
X5819137Y16136620D02*
G03*
X5857237Y16174720I1J38100D01*
G75*
G01*
X4556760Y16845277D02*
G02*
X4594860Y16883377I38100J1D01*
G75*
G01*
X5819137Y16883377D02*
G02*
X5857237Y16845277I1J-38099D01*
G75*
G01*
X4556760Y16174720D02*
G03*
X4594860Y16136620I38100J0D01*
G75*
G01*
X4556760Y16611600D02*
G02*
X4556760Y16383000I0J-114300D01*
G75*
G01
X2062099Y11887200D02*
G03X2062099Y11887200I-499999J0D01*
G75*
G01
X3293999Y11874500D02*
G03X3293999Y11874500I-499999J0D01*
D17*
G75*
G01
X4673194Y16256000D02*
G03X4673194Y16256000I-24994J0D01*
D14*
G75*
G01
X1935404Y13036194D02*
G03X1935404Y13036194I-16002J0D01*
G75*
G01
X1445260Y14579600D02*
G03X1445260Y14579600I-314960J0D01*
G75*
G01
X2829560Y14592300D02*
G03X2829560Y14592300I-314960J0D01*
G75*
G01
X3307004Y13036194D02*
G03X3307004Y13036194I-16002J0D01*
X3835397Y15519397D02*
G01*
X6635391Y15519397D01*
X6635391Y10019408D01*
X3835397Y10019408D01*
X3835397Y15519397D01*
X901700Y11277600D02*
G01*
X3467100Y11277600D01*
X3467100Y10693400D01*
X901700Y10693400D01*
X901700Y11277600D01*
X2406698Y13976301D02*
G01*
X3206696Y13976301D01*
X3206696Y13176303D01*
X2406698Y13176303D01*
X2406698Y13976301D01*
X1009695Y13976301D02*
G01*
X1809694Y13976301D01*
X1809694Y13176303D01*
X1009695Y13176303D01*
X1009695Y13976301D01*
X3240024Y18027683D02*
G01*
X3875024Y18027683D01*
X3875024Y17811783D01*
X3240024Y17811783D01*
X3240024Y18027683D01*
X3240925Y17748283D02*
G01*
X3875925Y17748283D01*
X3875925Y17532383D01*
X3240925Y17532383D01*
X3240925Y17748283D01*
X3240925Y17468883D02*
G01*
X3875925Y17468883D01*
X3875925Y17252983D01*
X3240925Y17252983D01*
X3240925Y17468883D01*
X3240925Y17189483D02*
G01*
X3875925Y17189483D01*
X3875925Y16973583D01*
X3240925Y16973583D01*
X3240925Y17189483D01*
X3240925Y16910083D02*
G01*
X3875925Y16910083D01*
X3875925Y16694183D01*
X3240925Y16694183D01*
X3240925Y16910083D01*
X3240925Y16630683D02*
G01*
X3875925Y16630683D01*
X3875925Y16414783D01*
X3240925Y16414783D01*
X3240925Y16630683D01*
X3240925Y16351283D02*
G01*
X3875925Y16351283D01*
X3875925Y16135383D01*
X3240925Y16135383D01*
X3240925Y16351283D01*
X3240925Y16059183D02*
G01*
X3875925Y16059183D01*
X3875925Y15843283D01*
X3240925Y15843283D01*
X3240925Y16059183D01*
X3524285Y12101576D02*
G01*
X3740185Y12101576D01*
X3740185Y11466576D01*
X3524285Y11466576D01*
X3524285Y12101576D01*
X3524283Y11008474D02*
G01*
X3740183Y11008474D01*
X3740183Y10373474D01*
X3524283Y10373474D01*
X3524283Y11008474D01*
X5937247Y17729200D02*
G01*
X6153147Y17729200D01*
X6153147Y17094200D01*
X5937247Y17094200D01*
X5937247Y17729200D01*
X6229383Y17727676D02*
G01*
X6445283Y17727676D01*
X6445283Y17092676D01*
X6229383Y17092676D01*
X6229383Y17727676D01*
M02*
