<?xml version="1.0" encoding="UTF-8" standalone="no"?>
<!DOCTYPE svg PUBLIC "-//W3C//DTD SVG 1.1//EN" "http://www.w3.org/Graphics/SVG/1.1/DTD/svg11.dtd">
<svg width="100%" height="100%" viewBox="0 0 1651 1331" version="1.1" xmlns="http://www.w3.org/2000/svg" xmlns:xlink="http://www.w3.org/1999/xlink" xml:space="preserve" xmlns:serif="http://www.serif.com/" style="fill-rule:evenodd;clip-rule:evenodd;stroke-linecap:round;stroke-linejoin:round;stroke-miterlimit:1.5;">
	<path d="M20.001,98C20.001,98 20.233,213.986 20.001,282C19.25,502.069 544.001,1310 544.001,1310L614.132,1310" style="fill:none;stroke:white;stroke-width:40px;" />
	<path d="M880.259,1141.61L919.555,966.567" style="fill:none;stroke:white;stroke-width:40px;" />
	<path d="M85.467,89.58L186.001,378C186.001,378 187.23,388.909 204.405,396.506C225.072,405.647 238.001,401 238.001,401L589.001,334C589.001,334 609.211,331.323 613.144,317.172C617.077,303.021 608.001,280 608.001,280L539.001,30" style="fill:none;stroke:url(#_LinearB1);stroke-width:40px;" />
	<path d="M486.001,965C486.001,965 907.096,810.459 1062,797" style="fill:none;stroke:white;stroke-width:40px;" />
	<path d="M833.97,992.347C833.97,992.347 769.331,941.161 699.881,967.341C638.141,990.615 614.8,1065.3 667.73,1157.57C721.946,1252.08 829.346,1290.84 891.001,1266.53C952.657,1242.21 949.945,1145.07 949.945,1145.07L1038.36,1112.02C1038.36,1112.02 1156.27,1195.05 1211.62,1157.57C1266.97,1120.09 1225.71,1015.39 1158.03,958.41C1090.36,901.426 1007.58,866.334 960.662,886.963C913.742,907.593 919.58,967.341 919.58,967.341L833.97,992.347Z" style="fill:none;stroke:white;stroke-width:40px;" />
	<path d="M1104.42,1148.76C1104.42,1148.76 1008.9,996.444 897.227,1065.7C897.093,1065.78 880.259,1141.61 880.259,1141.61L826.8,1170.19C826.8,1170.19 753.299,1076.9 656.094,1137.15" style="fill:none;stroke:white;stroke-width:40px;" />
	<path d="M833.818,991.574L826.8,1170.19" style="fill:none;stroke:white;stroke-width:40px;" />
	<path d="M706.001,1310.28C706.001,1310.28 588.293,1137.98 478.613,953.04C378.805,784.741 288.051,605.623 252.001,543C248.448,536.828 248.751,527.973 252.001,521.636C255.334,515.136 272.001,504 272.001,504C272.001,504 574.353,439.215 642.001,427C653.835,424.863 667.22,426.707 677.887,430.707C688.553,434.707 697.509,443.16 706.001,451C776.999,516.549 1035.4,775.452 1226.39,953.04C1462.41,1172.49 1626.28,1310.28 1626.28,1310.28L706.001,1310.28Z" style="fill:none;stroke:url(#_LinearB2);stroke-width:40px;" />
	<path d="M623.001,1310C623.001,1310 255.375,719.756 167.001,512C78.627,304.244 20.001,98 20.001,98L605.001,20C605.001,20 670.562,287.58 724.001,372C777.44,456.42 1445.66,1089.08 1630.28,1226C1630.55,1225.76 1630.48,1309.86 1630,1310C1630.06,1310.52 932.403,1310.17 698.445,1310.04C651.314,1310.02 623.001,1310 623.001,1310Z" style="fill:none;stroke:white;stroke-width:40px;" />
	<defs>
		<linearGradient id="_LinearB1" x1="100%" y1="100%">
			<stop offset="0%" stop-color="rgb(0,52,255)" stop-opacity="1">
				<animate attributeName="stop-color" values="rgb(0,52,255);rgb(244,0,254);rgb(255,0,45);rgb(227,204,33);rgb(66,214,85);rgb(107,201,189);rgb(0,234,255);rgb(0,52,255)" dur="3s" repeatCount="indefinite" />
			</stop>
			<stop offset="50%" stop-color="rgb(244,0,254)" stop-opacity="1">
				<animate attributeName="stop-color" values="rgb(244,0,254);rgb(255,0,45);rgb(227,204,33);rgb(66,214,85);rgb(107,201,189);rgb(0,234,255);rgb(0,52,255);rgb(244,0,254)" dur="3s" repeatCount="indefinite" />
			</stop>
			<stop offset="100%" stop-color="rgb(255,0,45)" stop-opacity="1">
				<animate attributeName="stop-color" values="rgb(255,0,45);rgb(227,204,33);rgb(66,214,85);rgb(107,201,189);rgb(0,234,255);rgb(0,52,255);rgb(244,0,254);rgb(255,0,45)" dur="3s" repeatCount="indefinite" />
			</stop>
		</linearGradient>
		<linearGradient id="_LinearB2" x1="100%" y1="100%">
			<stop offset="0%" stop-color="rgb(0,52,255)" stop-opacity="1">
				<animate attributeName="stop-color" values="rgb(0,52,255);rgb(244,0,254);rgb(255,0,45);rgb(227,204,33);rgb(66,214,85);rgb(107,201,189);rgb(0,234,255);rgb(0,52,255)" dur="3s" repeatCount="indefinite" />
			</stop>
			<stop offset="50%" stop-color="rgb(244,0,254)" stop-opacity="1">
				<animate attributeName="stop-color" values="rgb(244,0,254);rgb(255,0,45);rgb(227,204,33);rgb(66,214,85);rgb(107,201,189);rgb(0,234,255);rgb(0,52,255);rgb(244,0,254)" dur="3s" repeatCount="indefinite" />
			</stop>
			<stop offset="100%" stop-color="rgb(255,0,45)" stop-opacity="1">
				<animate attributeName="stop-color" values="rgb(255,0,45);rgb(227,204,33);rgb(66,214,85);rgb(107,201,189);rgb(0,234,255);rgb(0,52,255);rgb(244,0,254);rgb(255,0,45)" dur="3s" repeatCount="indefinite" />
			</stop>
		</linearGradient>
	</defs>
</svg>