<?xml version="1.0" encoding="UTF-8" standalone="no"?>
<!DOCTYPE svg PUBLIC "-//W3C//DTD SVG 1.1//EN" "http://www.w3.org/Graphics/SVG/1.1/DTD/svg11.dtd">
<svg width="100%" height="100%" viewBox="0 0 3588 2208" version="1.1" xmlns="http://www.w3.org/2000/svg" xmlns:xlink="http://www.w3.org/1999/xlink" xml:space="preserve" xmlns:serif="http://www.serif.com/" style="fill-rule:evenodd;clip-rule:evenodd;stroke-linecap:round;stroke-linejoin:round;stroke-miterlimit:1.5;">
	<path d="M3431.44,444.418L76.437,780.418" style="fill:none;stroke:url(#_LinearA1);stroke-width:60px;" />
	<path d="M3405.44,521.418L656.222,791.043C656.222,791.043 584.261,798.268 577.437,829.418C577.341,829.859 577.35,830.334 577.221,830.795C567.224,866.736 615.28,899.941 615.28,899.941C615.28,899.941 1095.72,1303.93 1310.44,1294.42" style="fill:none;stroke:url(#_LinearA2);stroke-width:60px;" />
	<path d="M1831.44,1163.42C1831.44,1163.42 1489.96,1148.48 1486.44,1189.24" style="fill:none;stroke:white;stroke-width:60px;" />
	<path d="M1066.44,811.976C1066.44,811.976 1307.31,1069.12 1441.44,1163.42C1575.57,1257.71 1695.1,1245.08 1753.94,1232.42C1812.78,1219.76 1826.44,1163.42 1826.44,1163.42C1826.44,1163.42 2969.94,1199.74 3149.44,1232.42" style="fill:none;stroke:white;stroke-width:60px;" />
	<path d="M38.405,389.418C23.989,409.249 31.697,448.43 35.405,477.609C67.328,728.85 229.944,1896.86 229.944,1896.86C234.693,1915.63 242.539,1995.36 258.437,2009.46C274.336,2023.56 374.044,2027.89 432.337,2032.46C781.17,2059.79 1968.12,2158.45 2351.44,2173.42C2479.42,2178.42 2633.25,2189.13 2732.25,2122.29C2831.25,2055.46 2893.85,1898.87 2945.44,1772.42C3082.82,1435.66 3456.73,386.888 3556.56,101.722C3561.2,88.48 3552.24,73.077 3544.44,61.418C3536.44,49.475 3524.41,28.692 3508.6,30.065C2938.18,79.599 700.264,298.728 121.897,358.62C92.391,361.676 52.82,369.586 38.405,389.418Z" style="fill:none;stroke:white;stroke-width:60px;" />
	<path d="M3127.44,1294.58C2703.72,1311.15 1856.27,1344.28 1504.44,1272.42C1296.49,1229.94 1118.44,933.251 1016.44,863.418C982.221,839.992 864.385,822.879 892.437,853.418C986.437,955.751 1392.91,1438.24 1580.44,1477.42C1996.04,1564.24 2687.64,1549.02 3033.44,1541.42" style="fill:none;stroke:white;stroke-width:60px;" />
	<path d="M163.437,1416.42C163.437,1416.42 683.148,1604.73 805.437,1705.42C927.727,1806.11 1187.44,2092.42 1187.44,2092.42" style="fill:none;stroke:white;stroke-width:60px;" />
	<path d="M1436.44,1401.42C1436.44,1401.42 1207.14,1390.8 1072.44,1425.42C937.737,1460.03 865.011,1525.88 893.437,1612.42C928.891,1720.35 1291.11,1763.47 1525.44,1770.42C1759.77,1777.37 1964.35,1803.67 2141.44,1691.42C2318.53,1579.16 2338.44,1545.42 2338.44,1545.42" style="fill:none;stroke:white;stroke-width:60px;" />
	<path d="M888.161,841.418C888.161,841.418 883.837,773.067 1052.44,808.697C1221.04,844.327 1202.83,874.751 1198.44,888.418C1194.05,902.084 1168.44,916.418 1168.44,916.418" style="fill:none;stroke:white;stroke-width:60px;" />
	<path d="M707.437,1646.42C707.437,1646.42 939.641,1732.73 1122.44,1778.09C1531.96,1879.7 2606.61,1797.99 2952.44,1754.42" style="fill:none;stroke:white;stroke-width:60px;" />
	<defs>
		<linearGradient id="_LinearA1" x1="100%" y1="100%">
			<stop offset="0%" stop-color="rgb(0,52,255)" stop-opacity="1">
				<animate attributeName="stop-color" values="rgb(0,52,255);rgb(244,0,254);rgb(255,0,45);rgb(227,204,33);rgb(66,214,85);rgb(107,201,189);rgb(0,234,255);rgb(0,52,255)" dur="3s" repeatCount="indefinite" />
			</stop>
			<stop offset="50%" stop-color="rgb(244,0,254)" stop-opacity="1">
				<animate attributeName="stop-color" values="rgb(244,0,254);rgb(255,0,45);rgb(227,204,33);rgb(66,214,85);rgb(107,201,189);rgb(0,234,255);rgb(0,52,255);rgb(244,0,254)" dur="3s" repeatCount="indefinite" />
			</stop>
			<stop offset="100%" stop-color="rgb(255,0,45)" stop-opacity="1">
				<animate attributeName="stop-color" values="rgb(255,0,45);rgb(227,204,33);rgb(66,214,85);rgb(107,201,189);rgb(0,234,255);rgb(0,52,255);rgb(244,0,254);rgb(255,0,45)" dur="3s" repeatCount="indefinite" />
			</stop>
		</linearGradient>
		<linearGradient id="_LinearA2" x1="100%" y1="100%">
			<stop offset="0%" stop-color="rgb(0,52,255)" stop-opacity="1">
				<animate attributeName="stop-color" values="rgb(0,52,255);rgb(244,0,254);rgb(255,0,45);rgb(227,204,33);rgb(66,214,85);rgb(107,201,189);rgb(0,234,255);rgb(0,52,255)" dur="3s" repeatCount="indefinite" />
			</stop>
			<stop offset="50%" stop-color="rgb(244,0,254)" stop-opacity="1">
				<animate attributeName="stop-color" values="rgb(244,0,254);rgb(255,0,45);rgb(227,204,33);rgb(66,214,85);rgb(107,201,189);rgb(0,234,255);rgb(0,52,255);rgb(244,0,254)" dur="3s" repeatCount="indefinite" />
			</stop>
			<stop offset="100%" stop-color="rgb(255,0,45)" stop-opacity="1">
				<animate attributeName="stop-color" values="rgb(255,0,45);rgb(227,204,33);rgb(66,214,85);rgb(107,201,189);rgb(0,234,255);rgb(0,52,255);rgb(244,0,254);rgb(255,0,45)" dur="3s" repeatCount="indefinite" />
			</stop>
		</linearGradient>
	</defs>
</svg>