<?xml version="1.0" encoding="UTF-8" standalone="no"?>
<!DOCTYPE svg PUBLIC "-//W3C//DTD SVG 1.1//EN" "http://www.w3.org/Graphics/SVG/1.1/DTD/svg11.dtd">
<svg width="100%" height="100%" viewBox="0 0 1912 1296" version="1.1" xmlns="http://www.w3.org/2000/svg" xmlns:xlink="http://www.w3.org/1999/xlink" xml:space="preserve" xmlns:serif="http://www.serif.com/" style="fill-rule:evenodd;clip-rule:evenodd;stroke-linejoin:round;stroke-miterlimit:1.5;">
    <g transform="matrix(1,0,0,1,-5134.68,-683.231)">
        <g transform="matrix(1,0,0,1,4298.87,0)">
            <g transform="matrix(0.178079,0,0,1,1117.51,0)">
                <path d="M2700.02,847.08L3583.44,847.08" style="fill:none;stroke:current-color;stroke-width:69.62px;"/>
            </g>
        </g>
        <g transform="matrix(1,0,0,1,4298.87,0)">
            <g transform="matrix(1,0,0,1,2.7085,0)">
                <path d="M1936.86,1086.78C1936.86,1086.78 1972.06,1323.18 1967.26,1417.6C1962.46,1512.02 1836.04,1953.7 1836.04,1953.7L2621.72,1953.7C2621.72,1953.7 2495.3,1512.02 2490.49,1417.6C2485.69,1323.18 2520.9,1086.78 2520.9,1086.78" style="fill:none;stroke:current-color;stroke-width:50px;"/>
            </g>
        </g>
        <g transform="matrix(1,0,0,1,4298.87,0)">
            <path d="M2722.56,708.231L1740.62,708.231L1781.58,1086.78L2661.11,1086.78L2722.56,708.231Z" style="fill:none;stroke:current-color;stroke-width:50px;"/>
        </g>
        <g transform="matrix(1,0,0,1,4298.87,0)">
            <g transform="matrix(0.788855,0,0,0.788855,471.187,149.539)">
                <path d="M1740.62,708.231L1781.58,1070.77L2661.11,1070.77L2722.56,708.231" style="fill:none;stroke:current-color;stroke-width:63.38px;"/>
            </g>
        </g>
        <g transform="matrix(1,0,0,1,4298.87,0)">
            <g transform="matrix(0.810996,0,0,0.810996,421.818,205.405)">
                <path d="M1998.28,1086.78L2033.21,1350.43C2033.21,1350.43 2034.23,1365.52 2039.84,1368.84C2046.13,1372.56 2070.93,1372.77 2070.93,1372.77L2392.87,1372.77C2392.87,1372.77 2417.21,1372.71 2423.48,1368.84C2429.3,1365.25 2430.49,1349.57 2430.49,1349.57L2465.31,1086.78" style="fill:none;stroke:current-color;stroke-width:61.65px;"/>
            </g>
        </g>
        <g transform="matrix(1,0,0,1,4298.87,0)">
            <g transform="matrix(0.864698,0,0,-0.864698,301.956,2707.27)">
                <path d="M1907.13,871.485L2036.17,1372.77L2427.41,1372.77L2556.31,871.485" style="fill:none;stroke:current-color;stroke-width:57.82px;"/>
            </g>
        </g>
        <g transform="matrix(1,0,0,1,4298.87,0)">
            <g transform="matrix(-1,0,0,1,4274.44,0)">
                <path d="M2495.98,1057.94L2675.85,1058.28" style="fill:none;stroke:current-color;stroke-width:50px;"/>
            </g>
        </g>
        <g transform="matrix(1,0,0,1,4298.87,0)">
            <g transform="matrix(-1,0,0,1,4274.44,0)">
                <path d="M3140.81,1452.41C3146.48,1469.15 3151.5,1483.4 3151.5,1483.4L3413.63,1953.7" style="fill:none;stroke:current-color;stroke-width:50px;"/>
            </g>
        </g>
        <g transform="matrix(1,0,0,1,4298.87,0)">
            <g transform="matrix(-1,0,0,1,4274.44,0)">
                <path d="M2911.06,1384.57C2917.44,1393.34 2926.02,1402.99 2937.3,1413.92C3021.79,1495.86 3255.12,1874.32 3280.72,1953.7" style="fill:none;stroke:current-color;stroke-width:50px;"/>
            </g>
        </g>
        <g transform="matrix(1,0,0,1,4298.87,0)">
            <path d="M1544.61,708.231C1586.25,780.955 1610.06,865.173 1610.06,954.909C1610.06,1229.49 1387.14,1452.41 1112.56,1452.41C1020.95,1452.41 935.097,1427.6 861.35,1384.34L860.809,708.231L1544.61,708.231ZM1542.15,992.766C1531.76,1008.26 1505.22,1019.29 1474.16,1019.29L1278.88,1054.19L1262.69,1105.35C1262.69,1131.6 1248.75,1154.62 1227.87,1167.39L1197.93,1337.06C1197.93,1352.74 1195.12,1367.26 1190.34,1379.14C1379.17,1344.67 1525.23,1187.09 1542.15,992.766Z" style="fill:none;stroke:current-color;stroke-width:50px;"/>
        </g>
        <g transform="matrix(1,0,0,1,4298.87,0)">
            <path d="M861.35,1305.37C912.222,1341.92 971.362,1367.66 1035.4,1379.25C1030.6,1367.35 1027.77,1352.79 1027.77,1337.06L997.595,1168.22C975.951,1155.62 961.392,1132.17 961.392,1105.35L945.355,1054.03L861.35,1039.02" style="fill:none;stroke:current-color;stroke-width:50px;"/>
        </g>
        <g transform="matrix(1,0,0,1,4298.87,0)">
            <path d="M861.35,829.651L883.785,825.692C892.872,795.92 920.581,774.234 953.316,774.234L1271.8,774.234C1304.54,774.234 1332.24,795.92 1341.33,825.692L1474.16,849.133C1499.57,849.133 1521.96,856.515 1534.95,867.687C1522.96,809.39 1499.19,755.37 1466.23,708.231L861.35,708.231" style="fill:none;stroke:current-color;stroke-width:50px;"/>
        </g>
        <g transform="matrix(1,0,0,1,4298.87,0)">
            <g transform="matrix(1.66683,0,0,1.66683,-2642.48,-617.828)">
                <path d="M2771.2,1175.23C2779.86,1173.7 2788.77,1172.9 2797.87,1172.9C2881.87,1172.9 2950.07,1241.1 2950.07,1325.1C2950.07,1409.1 2881.87,1477.29 2797.87,1477.29C2713.87,1477.29 2645.67,1409.1 2645.67,1325.1C2645.67,1269 2676.08,1219.96 2721.3,1193.56L2715.17,1117.32L2771.2,1175.23Z" style="fill:url(#_Linear1_565);"/>
            </g>
        </g>
        <g transform="matrix(1,0,0,1,4298.87,0)">
            <g transform="matrix(1.50669,0,0,1.50669,-2193.66,-404.718)">
                <g transform="matrix(0.76874,0,0,0.76874,647.034,331.611)">
                    <path d="M2755.95,1347.94C2737.44,1334.79 2725.35,1313.18 2725.35,1288.77C2725.35,1248.75 2757.85,1216.26 2797.87,1216.26C2837.89,1216.26 2870.38,1248.75 2870.38,1288.77C2870.38,1313.18 2858.3,1334.79 2839.78,1347.94C2834.77,1352.16 2825.19,1362.43 2825.19,1379.25L2825.19,1409.5L2770.55,1409.5L2770.55,1379.25C2770.55,1362.43 2760.97,1352.16 2755.95,1347.94Z" style="fill:none;stroke:current-color;stroke-width:43.17px;"/>
                    <rect x="2782.77" y="1409.5" width="30.189" height="24.438" style="fill:none;stroke:current-color;stroke-width:43.17px;"/>
                    <path d="M2770.43,1376.04L2825.29,1376.04" style="fill:none;stroke:current-color;stroke-width:43.17px;"/>
                </g>
                <g transform="matrix(1,0,0,1,-5.69389,-4.89244)">
                    <path d="M2671.48,1323.94L2712.03,1323.94" style="fill:none;stroke:current-color;stroke-width:33.19px;"/>
                </g>
                <g transform="matrix(-1,0,0,1,5600.4,-4.89244)">
                    <path d="M2671.48,1323.94L2712.03,1323.94" style="fill:none;stroke:current-color;stroke-width:33.19px;"/>
                </g>
                <g transform="matrix(0.856945,0.515407,-0.515407,0.856945,1079.12,-1271.79)">
                    <path d="M2671.48,1323.94L2712.03,1323.94" style="fill:none;stroke:current-color;stroke-width:33.19px;"/>
                </g>
                <g transform="matrix(-0.856945,0.515407,0.515407,0.856945,4515.59,-1271.79)">
                    <path d="M2671.48,1323.94L2712.03,1323.94" style="fill:none;stroke:current-color;stroke-width:33.19px;"/>
                </g>
                <g transform="matrix(0.327451,0.944868,-0.944868,0.327451,3131.7,-1761.52)">
                    <path d="M2671.48,1323.94L2712.03,1323.94" style="fill:none;stroke:current-color;stroke-width:33.19px;"/>
                </g>
                <g transform="matrix(-0.327451,0.944868,0.944868,0.327451,2463,-1761.52)">
                    <path d="M2671.48,1323.94L2712.03,1323.94" style="fill:none;stroke:current-color;stroke-width:33.19px;"/>
                </g>
            </g>
        </g>
        <g transform="matrix(1,0,0,1,4298.87,0)">
            <path d="M1815.8,1086.78L1790.88,1086.78L1767.4,1147.86L1792.32,1147.86L1815.8,1086.78Z" style="fill:none;stroke:current-color;stroke-width:50px;"/>
        </g>
        <g transform="matrix(1,0,0,1,4298.87,0)">
            <path d="M1745.84,1244.55L1740.62,1243.96L1700.43,1243.65C1700.43,1243.65 1696.96,1243.37 1695.59,1242.69C1694.22,1242 1692.22,1239.54 1692.22,1239.54L1672.4,1211.1C1672.4,1211.1 1671.48,1209.84 1671.25,1209.13C1671.02,1208.43 1671.03,1206.87 1671.03,1206.87L1671.03,1150.48C1671.03,1150.48 1671.02,1148.76 1671.43,1148.33C1671.83,1147.89 1673.46,1147.86 1673.46,1147.86L1818.22,1147.86C1818.22,1147.86 1819.84,1147.89 1820.25,1148.33C1820.65,1148.76 1820.64,1150.48 1820.64,1150.48L1820.64,1206.87C1820.64,1206.87 1820.65,1208.43 1820.43,1209.13C1820.2,1209.84 1819.28,1211.1 1819.28,1211.1L1799.46,1239.54C1799.46,1239.54 1797.46,1242 1796.09,1242.69C1794.72,1243.37 1791.25,1243.65 1791.25,1243.65L1751.06,1243.96L1745.84,1244.55Z" style="fill:none;stroke:current-color;stroke-width:50px;"/>
        </g>
    </g>
    <defs>
							  <linearGradient id="_Linear1_565" x1="100%" y1="100%">
								<stop offset="0%" stop-color="rgb(0,52,255)" stop-opacity="1">
								  <animate attributeName="stop-color" values="rgb(0,52,255);rgb(244,0,254);rgb(255,0,45);rgb(227,204,33);rgb(66,214,85);rgb(107,201,189);rgb(0,234,255);rgb(0,52,255)" dur="3s" repeatCount="indefinite" />
								</stop>
								<stop offset="50%" stop-color="rgb(244,0,254)" stop-opacity="1">
								  <animate attributeName="stop-color" values="rgb(244,0,254);rgb(255,0,45);rgb(227,204,33);rgb(66,214,85);rgb(107,201,189);rgb(0,234,255);rgb(0,52,255);rgb(244,0,254)" dur="3s" repeatCount="indefinite" />
								</stop>
								<stop offset="100%" stop-color="rgb(255,0,45)" stop-opacity="1">
								  <animate attributeName="stop-color" values="rgb(255,0,45);rgb(227,204,33);rgb(66,214,85);rgb(107,201,189);rgb(0,234,255);rgb(0,52,255);rgb(244,0,254);rgb(255,0,45)" dur="3s" repeatCount="indefinite" />
								</stop>
							  </linearGradient>
							</defs>
</svg>
