<?xml version="1.0" encoding="UTF-8" standalone="no"?>
<!DOCTYPE svg PUBLIC "-//W3C//DTD SVG 1.1//EN" "http://www.w3.org/Graphics/SVG/1.1/DTD/svg11.dtd">
<svg width="100%" height="100%" viewBox="0 0 276 359" version="1.1" xmlns="http://www.w3.org/2000/svg" xmlns:xlink="http://www.w3.org/1999/xlink" xml:space="preserve" xmlns:serif="http://www.serif.com/" style="fill-rule:evenodd;clip-rule:evenodd;stroke-linejoin:round;stroke-miterlimit:2;">
	<path d="M260.434,358.969L260.434,333.362L254.434,333.362L254.434,358.969L260.434,358.969ZM194.439,324.226L163.695,324.226L163.695,358.969L194.439,358.969L194.439,338.498L172.467,338.498L172.467,344.498L188.439,344.498C188.439,344.498 188.439,352.969 188.439,352.969C188.439,352.969 169.695,352.969 169.695,352.969C169.695,352.969 169.695,330.226 169.695,330.226L194.439,330.226L194.439,324.226ZM21.273,358.969L21.273,333.362L15.273,333.362L15.273,358.969L21.273,358.969ZM117.437,324.226L117.437,358.969L146.843,358.969L146.843,352.969L123.437,352.969L123.437,324.226L117.437,324.226ZM205.865,338.498L205.865,324.226L199.865,324.226L199.865,358.771L205.865,358.771L205.865,344.498L227.735,344.498L227.735,358.771L233.735,358.771L233.735,324.226L227.735,324.226L227.735,338.498L205.865,338.498ZM158.269,358.771L158.269,324.226L152.269,324.226L152.269,358.771L158.269,358.771ZM112.011,324.226L81.268,324.226C81.268,324.226 81.268,344.331 81.268,344.331L106.011,344.331C106.011,344.331 106.011,352.771 106.011,352.771L81.268,352.771L81.268,358.771L112.011,358.771L112.011,338.331L87.268,338.331L87.268,330.226L112.011,330.226L112.011,324.226ZM75.842,352.771L41.971,352.771L41.971,358.771L75.842,358.771L75.842,352.771ZM75.842,338.498L41.971,338.498L41.971,344.498L75.842,344.498L75.842,338.498ZM75.842,324.226L41.971,324.226L41.971,330.226L75.842,330.226L75.842,324.226ZM36.545,324.226L0,324.226L0,330.226L36.545,330.226L36.545,324.226ZM275.706,324.226L239.161,324.226L239.161,330.226L275.706,330.226L275.706,324.226ZM140.54,248.189L102.601,58.255L32.452,34.757L97.907,34.757L97.929,34.854L120.114,58.255L140.793,168.047L161.473,58.255L183.658,34.854L183.679,34.757L249.135,34.757L178.986,58.255L141.046,248.189L140.793,246.94L140.54,248.189ZM170.388,0L141.558,34.757L112.728,0L18.273,18.346L100.891,18.346L140.54,60.669L180.19,18.346L259.513,18.346L170.388,0Z" style="fill:url(#_Linear_1);"></path>
	<defs>
		<linearGradient id="_Linear_1" x1="100%" y1="100%">
			<stop offset="0%" stop-color="rgb(0,52,255)" stop-opacity="1">
				<animate attributeName="stop-color" values="rgb(0,52,255);rgb(244,0,254);rgb(255,0,45);rgb(227,204,33);rgb(66,214,85);rgb(107,201,189);rgb(0,234,255);rgb(0,52,255)" dur="3s" repeatCount="indefinite"></animate>
			</stop>
			<stop offset="50%" stop-color="rgb(244,0,254)" stop-opacity="1">
				<animate attributeName="stop-color" values="rgb(244,0,254);rgb(255,0,45);rgb(227,204,33);rgb(66,214,85);rgb(107,201,189);rgb(0,234,255);rgb(0,52,255);rgb(244,0,254)" dur="3s" repeatCount="indefinite"></animate>
			</stop>
			<stop offset="100%" stop-color="rgb(255,0,45)" stop-opacity="1">
				<animate attributeName="stop-color" values="rgb(255,0,45);rgb(227,204,33);rgb(66,214,85);rgb(107,201,189);rgb(0,234,255);rgb(0,52,255);rgb(244,0,254);rgb(255,0,45)" dur="3s" repeatCount="indefinite"></animate>
			</stop>
		</linearGradient>
	</defs>
</svg>